<?xml version="1.0" encoding="UTF-8"?>
<svg xmlns="http://www.w3.org/2000/svg" xmlns:xlink="http://www.w3.org/1999/xlink" width="756" height="504" viewBox="0 0 756 504">
<rect x="-75.6" y="-50.4" width="907.2" height="604.8" fill="rgb(100%, 100%, 100%)" fill-opacity="1"/>
<path fill-rule="nonzero" fill="rgb(18.431373%, 30.980392%, 30.980392%)" fill-opacity="1" stroke-width="0.708661" stroke-linecap="round" stroke-linejoin="round" stroke="rgb(18.431373%, 30.980392%, 30.980392%)" stroke-opacity="1" stroke-miterlimit="10" d="M 29.988281 323.429688 C 29.988281 327.160156 26.964844 330.1875 23.234375 330.1875 C 19.503906 330.1875 16.476562 327.160156 16.476562 323.429688 C 16.476562 319.699219 19.503906 316.675781 23.234375 316.675781 C 26.964844 316.675781 29.988281 319.699219 29.988281 323.429688 "/>
<path fill-rule="nonzero" fill="rgb(18.431373%, 30.980392%, 30.980392%)" fill-opacity="1" stroke-width="0.708661" stroke-linecap="round" stroke-linejoin="round" stroke="rgb(18.431373%, 30.980392%, 30.980392%)" stroke-opacity="1" stroke-miterlimit="10" d="M 37.039062 405.734375 C 37.039062 409.464844 34.015625 412.488281 30.28125 412.488281 C 26.550781 412.488281 23.527344 409.464844 23.527344 405.734375 C 23.527344 402.003906 26.550781 398.976562 30.28125 398.976562 C 34.015625 398.976562 37.039062 402.003906 37.039062 405.734375 "/>
<path fill-rule="nonzero" fill="rgb(18.431373%, 30.980392%, 30.980392%)" fill-opacity="1" stroke-width="0.708661" stroke-linecap="round" stroke-linejoin="round" stroke="rgb(18.431373%, 30.980392%, 30.980392%)" stroke-opacity="1" stroke-miterlimit="10" d="M 44.089844 362.746094 C 44.089844 366.476562 41.0625 369.503906 37.332031 369.503906 C 33.601562 369.503906 30.574219 366.476562 30.574219 362.746094 C 30.574219 359.015625 33.601562 355.992188 37.332031 355.992188 C 41.0625 355.992188 44.089844 359.015625 44.089844 362.746094 "/>
<path fill-rule="nonzero" fill="rgb(18.431373%, 30.980392%, 30.980392%)" fill-opacity="1" stroke-width="0.708661" stroke-linecap="round" stroke-linejoin="round" stroke="rgb(18.431373%, 30.980392%, 30.980392%)" stroke-opacity="1" stroke-miterlimit="10" d="M 51.136719 314.222656 C 51.136719 317.953125 48.113281 320.980469 44.382812 320.980469 C 40.648438 320.980469 37.625 317.953125 37.625 314.222656 C 37.625 310.492188 40.648438 307.464844 44.382812 307.464844 C 48.113281 307.464844 51.136719 310.492188 51.136719 314.222656 "/>
<path fill-rule="nonzero" fill="rgb(18.431373%, 30.980392%, 30.980392%)" fill-opacity="1" stroke-width="0.708661" stroke-linecap="round" stroke-linejoin="round" stroke="rgb(18.431373%, 30.980392%, 30.980392%)" stroke-opacity="1" stroke-miterlimit="10" d="M 58.1875 258.496094 C 58.1875 262.226562 55.160156 265.253906 51.429688 265.253906 C 47.699219 265.253906 44.675781 262.226562 44.675781 258.496094 C 44.675781 254.765625 47.699219 251.742188 51.429688 251.742188 C 55.160156 251.742188 58.1875 254.765625 58.1875 258.496094 "/>
<path fill-rule="nonzero" fill="rgb(18.431373%, 30.980392%, 30.980392%)" fill-opacity="1" stroke-width="0.708661" stroke-linecap="round" stroke-linejoin="round" stroke="rgb(18.431373%, 30.980392%, 30.980392%)" stroke-opacity="1" stroke-miterlimit="10" d="M 65.234375 435.105469 C 65.234375 438.835938 62.210938 441.863281 58.480469 441.863281 C 54.75 441.863281 51.722656 438.835938 51.722656 435.105469 C 51.722656 431.375 54.75 428.351562 58.480469 428.351562 C 62.210938 428.351562 65.234375 431.375 65.234375 435.105469 "/>
<path fill-rule="nonzero" fill="rgb(18.431373%, 30.980392%, 30.980392%)" fill-opacity="1" stroke-width="0.708661" stroke-linecap="round" stroke-linejoin="round" stroke="rgb(18.431373%, 30.980392%, 30.980392%)" stroke-opacity="1" stroke-miterlimit="10" d="M 72.285156 333.136719 C 72.285156 336.867188 69.261719 339.894531 65.527344 339.894531 C 61.796875 339.894531 58.773438 336.867188 58.773438 333.136719 C 58.773438 329.40625 61.796875 326.378906 65.527344 326.378906 C 69.261719 326.378906 72.285156 329.40625 72.285156 333.136719 "/>
<path fill-rule="nonzero" fill="rgb(18.431373%, 30.980392%, 30.980392%)" fill-opacity="1" stroke-width="0.708661" stroke-linecap="round" stroke-linejoin="round" stroke="rgb(18.431373%, 30.980392%, 30.980392%)" stroke-opacity="1" stroke-miterlimit="10" d="M 79.335938 246.136719 C 79.335938 249.867188 76.308594 252.894531 72.578125 252.894531 C 68.847656 252.894531 65.820312 249.867188 65.820312 246.136719 C 65.820312 242.40625 68.847656 239.378906 72.578125 239.378906 C 76.308594 239.378906 79.335938 242.40625 79.335938 246.136719 "/>
<path fill-rule="nonzero" fill="rgb(18.431373%, 30.980392%, 30.980392%)" fill-opacity="1" stroke-width="0.708661" stroke-linecap="round" stroke-linejoin="round" stroke="rgb(18.431373%, 30.980392%, 30.980392%)" stroke-opacity="1" stroke-miterlimit="10" d="M 86.382812 343.832031 C 86.382812 347.5625 83.359375 350.585938 79.628906 350.585938 C 75.894531 350.585938 72.871094 347.5625 72.871094 343.832031 C 72.871094 340.101562 75.894531 337.074219 79.628906 337.074219 C 83.359375 337.074219 86.382812 340.101562 86.382812 343.832031 "/>
<path fill-rule="nonzero" fill="rgb(18.431373%, 30.980392%, 30.980392%)" fill-opacity="1" stroke-width="0.708661" stroke-linecap="round" stroke-linejoin="round" stroke="rgb(18.431373%, 30.980392%, 30.980392%)" stroke-opacity="1" stroke-miterlimit="10" d="M 93.433594 282.984375 C 93.433594 286.71875 90.40625 289.742188 86.675781 289.742188 C 82.945312 289.742188 79.921875 286.71875 79.921875 282.984375 C 79.921875 279.253906 82.945312 276.230469 86.675781 276.230469 C 90.40625 276.230469 93.433594 279.253906 93.433594 282.984375 "/>
<path fill-rule="nonzero" fill="rgb(18.431373%, 30.980392%, 30.980392%)" fill-opacity="1" stroke-width="0.708661" stroke-linecap="round" stroke-linejoin="round" stroke="rgb(18.431373%, 30.980392%, 30.980392%)" stroke-opacity="1" stroke-miterlimit="10" d="M 100.480469 260.6875 C 100.480469 264.417969 97.457031 267.441406 93.726562 267.441406 C 89.996094 267.441406 86.96875 264.417969 86.96875 260.6875 C 86.96875 256.957031 89.996094 253.929688 93.726562 253.929688 C 97.457031 253.929688 100.480469 256.957031 100.480469 260.6875 "/>
<path fill-rule="nonzero" fill="rgb(18.431373%, 30.980392%, 30.980392%)" fill-opacity="1" stroke-width="0.708661" stroke-linecap="round" stroke-linejoin="round" stroke="rgb(18.431373%, 30.980392%, 30.980392%)" stroke-opacity="1" stroke-miterlimit="10" d="M 107.53125 276.023438 C 107.53125 279.753906 104.507812 282.777344 100.773438 282.777344 C 97.042969 282.777344 94.019531 279.753906 94.019531 276.023438 C 94.019531 272.289062 97.042969 269.265625 100.773438 269.265625 C 104.507812 269.265625 107.53125 272.289062 107.53125 276.023438 "/>
<path fill-rule="nonzero" fill="rgb(18.431373%, 30.980392%, 30.980392%)" fill-opacity="1" stroke-width="0.708661" stroke-linecap="round" stroke-linejoin="round" stroke="rgb(18.431373%, 30.980392%, 30.980392%)" stroke-opacity="1" stroke-miterlimit="10" d="M 114.582031 244.457031 C 114.582031 248.1875 111.554688 251.210938 107.824219 251.210938 C 104.09375 251.210938 101.066406 248.1875 101.066406 244.457031 C 101.066406 240.722656 104.09375 237.699219 107.824219 237.699219 C 111.554688 237.699219 114.582031 240.722656 114.582031 244.457031 "/>
<path fill-rule="nonzero" fill="rgb(18.431373%, 30.980392%, 30.980392%)" fill-opacity="1" stroke-width="0.708661" stroke-linecap="round" stroke-linejoin="round" stroke="rgb(18.431373%, 30.980392%, 30.980392%)" stroke-opacity="1" stroke-miterlimit="10" d="M 121.628906 302.214844 C 121.628906 305.945312 118.605469 308.96875 114.875 308.96875 C 111.140625 308.96875 108.117188 305.945312 108.117188 302.214844 C 108.117188 298.484375 111.140625 295.457031 114.875 295.457031 C 118.605469 295.457031 121.628906 298.484375 121.628906 302.214844 "/>
<path fill-rule="nonzero" fill="rgb(18.431373%, 30.980392%, 30.980392%)" fill-opacity="1" stroke-width="0.708661" stroke-linecap="round" stroke-linejoin="round" stroke="rgb(18.431373%, 30.980392%, 30.980392%)" stroke-opacity="1" stroke-miterlimit="10" d="M 128.679688 322.671875 C 128.679688 326.402344 125.652344 329.425781 121.921875 329.425781 C 118.191406 329.425781 115.167969 326.402344 115.167969 322.671875 C 115.167969 318.9375 118.191406 315.914062 121.921875 315.914062 C 125.652344 315.914062 128.679688 318.9375 128.679688 322.671875 "/>
<path fill-rule="nonzero" fill="rgb(18.431373%, 30.980392%, 30.980392%)" fill-opacity="1" stroke-width="0.708661" stroke-linecap="round" stroke-linejoin="round" stroke="rgb(18.431373%, 30.980392%, 30.980392%)" stroke-opacity="1" stroke-miterlimit="10" d="M 135.726562 492.222656 C 135.726562 495.953125 132.703125 498.976562 128.972656 498.976562 C 125.242188 498.976562 122.214844 495.953125 122.214844 492.222656 C 122.214844 488.488281 125.242188 485.464844 128.972656 485.464844 C 132.703125 485.464844 135.726562 488.488281 135.726562 492.222656 "/>
<path fill-rule="nonzero" fill="rgb(18.431373%, 30.980392%, 30.980392%)" fill-opacity="1" stroke-width="0.708661" stroke-linecap="round" stroke-linejoin="round" stroke="rgb(18.431373%, 30.980392%, 30.980392%)" stroke-opacity="1" stroke-miterlimit="10" d="M 142.777344 294.15625 C 142.777344 297.886719 139.753906 300.914062 136.019531 300.914062 C 132.289062 300.914062 129.265625 297.886719 129.265625 294.15625 C 129.265625 290.425781 132.289062 287.398438 136.019531 287.398438 C 139.753906 287.398438 142.777344 290.425781 142.777344 294.15625 "/>
<path fill-rule="nonzero" fill="rgb(18.431373%, 30.980392%, 30.980392%)" fill-opacity="1" stroke-width="0.708661" stroke-linecap="round" stroke-linejoin="round" stroke="rgb(18.431373%, 30.980392%, 30.980392%)" stroke-opacity="1" stroke-miterlimit="10" d="M 149.828125 251.992188 C 149.828125 255.722656 146.800781 258.746094 143.070312 258.746094 C 139.339844 258.746094 136.3125 255.722656 136.3125 251.992188 C 136.3125 248.257812 139.339844 245.234375 143.070312 245.234375 C 146.800781 245.234375 149.828125 248.257812 149.828125 251.992188 "/>
<path fill-rule="nonzero" fill="rgb(18.431373%, 30.980392%, 30.980392%)" fill-opacity="1" stroke-width="0.708661" stroke-linecap="round" stroke-linejoin="round" stroke="rgb(18.431373%, 30.980392%, 30.980392%)" stroke-opacity="1" stroke-miterlimit="10" d="M 156.875 241.984375 C 156.875 245.714844 153.851562 248.738281 150.121094 248.738281 C 146.386719 248.738281 143.363281 245.714844 143.363281 241.984375 C 143.363281 238.253906 146.386719 235.226562 150.121094 235.226562 C 153.851562 235.226562 156.875 238.253906 156.875 241.984375 "/>
<path fill-rule="nonzero" fill="rgb(18.431373%, 30.980392%, 30.980392%)" fill-opacity="1" stroke-width="0.708661" stroke-linecap="round" stroke-linejoin="round" stroke="rgb(18.431373%, 30.980392%, 30.980392%)" stroke-opacity="1" stroke-miterlimit="10" d="M 163.925781 323.949219 C 163.925781 327.679688 160.898438 330.703125 157.167969 330.703125 C 153.4375 330.703125 150.414062 327.679688 150.414062 323.949219 C 150.414062 320.214844 153.4375 317.191406 157.167969 317.191406 C 160.898438 317.191406 163.925781 320.214844 163.925781 323.949219 "/>
<path fill-rule="nonzero" fill="rgb(18.431373%, 30.980392%, 30.980392%)" fill-opacity="1" stroke-width="0.708661" stroke-linecap="round" stroke-linejoin="round" stroke="rgb(18.431373%, 30.980392%, 30.980392%)" stroke-opacity="1" stroke-miterlimit="10" d="M 170.972656 142.453125 C 170.972656 146.183594 167.949219 149.207031 164.21875 149.207031 C 160.488281 149.207031 157.460938 146.183594 157.460938 142.453125 C 157.460938 138.71875 160.488281 135.695312 164.21875 135.695312 C 167.949219 135.695312 170.972656 138.71875 170.972656 142.453125 "/>
<path fill-rule="nonzero" fill="rgb(18.431373%, 30.980392%, 30.980392%)" fill-opacity="1" stroke-width="0.708661" stroke-linecap="round" stroke-linejoin="round" stroke="rgb(18.431373%, 30.980392%, 30.980392%)" stroke-opacity="1" stroke-miterlimit="10" d="M 178.023438 255.363281 C 178.023438 259.097656 175 262.121094 171.265625 262.121094 C 167.535156 262.121094 164.511719 259.097656 164.511719 255.363281 C 164.511719 251.632812 167.535156 248.609375 171.265625 248.609375 C 175 248.609375 178.023438 251.632812 178.023438 255.363281 "/>
<path fill-rule="nonzero" fill="rgb(18.431373%, 30.980392%, 30.980392%)" fill-opacity="1" stroke-width="0.708661" stroke-linecap="round" stroke-linejoin="round" stroke="rgb(18.431373%, 30.980392%, 30.980392%)" stroke-opacity="1" stroke-miterlimit="10" d="M 185.074219 265.757812 C 185.074219 269.488281 182.046875 272.511719 178.316406 272.511719 C 174.585938 272.511719 171.558594 269.488281 171.558594 265.757812 C 171.558594 262.023438 174.585938 259 178.316406 259 C 182.046875 259 185.074219 262.023438 185.074219 265.757812 "/>
<path fill-rule="nonzero" fill="rgb(18.431373%, 30.980392%, 30.980392%)" fill-opacity="1" stroke-width="0.708661" stroke-linecap="round" stroke-linejoin="round" stroke="rgb(18.431373%, 30.980392%, 30.980392%)" stroke-opacity="1" stroke-miterlimit="10" d="M 192.121094 175.695312 C 192.121094 179.425781 189.097656 182.453125 185.367188 182.453125 C 181.632812 182.453125 178.609375 179.425781 178.609375 175.695312 C 178.609375 171.964844 181.632812 168.9375 185.367188 168.9375 C 189.097656 168.9375 192.121094 171.964844 192.121094 175.695312 "/>
<path fill-rule="nonzero" fill="rgb(18.431373%, 30.980392%, 30.980392%)" fill-opacity="1" stroke-width="0.708661" stroke-linecap="round" stroke-linejoin="round" stroke="rgb(18.431373%, 30.980392%, 30.980392%)" stroke-opacity="1" stroke-miterlimit="10" d="M 199.171875 326.882812 C 199.171875 330.617188 196.144531 333.640625 192.414062 333.640625 C 188.683594 333.640625 185.660156 330.617188 185.660156 326.882812 C 185.660156 323.152344 188.683594 320.128906 192.414062 320.128906 C 196.144531 320.128906 199.171875 323.152344 199.171875 326.882812 "/>
<path fill-rule="nonzero" fill="rgb(18.431373%, 30.980392%, 30.980392%)" fill-opacity="1" stroke-width="0.708661" stroke-linecap="round" stroke-linejoin="round" stroke="rgb(18.431373%, 30.980392%, 30.980392%)" stroke-opacity="1" stroke-miterlimit="10" d="M 206.21875 304.339844 C 206.21875 308.070312 203.195312 311.09375 199.464844 311.09375 C 195.734375 311.09375 192.707031 308.070312 192.707031 304.339844 C 192.707031 300.609375 195.734375 297.582031 199.464844 297.582031 C 203.195312 297.582031 206.21875 300.609375 206.21875 304.339844 "/>
<path fill-rule="nonzero" fill="rgb(18.431373%, 30.980392%, 30.980392%)" fill-opacity="1" stroke-width="0.708661" stroke-linecap="round" stroke-linejoin="round" stroke="rgb(18.431373%, 30.980392%, 30.980392%)" stroke-opacity="1" stroke-miterlimit="10" d="M 213.269531 83.386719 C 213.269531 87.117188 210.246094 90.144531 206.511719 90.144531 C 202.78125 90.144531 199.757812 87.117188 199.757812 83.386719 C 199.757812 79.65625 202.78125 76.628906 206.511719 76.628906 C 210.246094 76.628906 213.269531 79.65625 213.269531 83.386719 "/>
<path fill-rule="nonzero" fill="rgb(18.431373%, 30.980392%, 30.980392%)" fill-opacity="1" stroke-width="0.708661" stroke-linecap="round" stroke-linejoin="round" stroke="rgb(18.431373%, 30.980392%, 30.980392%)" stroke-opacity="1" stroke-miterlimit="10" d="M 220.320312 265 C 220.320312 268.734375 217.292969 271.757812 213.5625 271.757812 C 209.832031 271.757812 206.804688 268.734375 206.804688 265 C 206.804688 261.269531 209.832031 258.246094 213.5625 258.246094 C 217.292969 258.246094 220.320312 261.269531 220.320312 265 "/>
<path fill-rule="nonzero" fill="rgb(18.431373%, 30.980392%, 30.980392%)" fill-opacity="1" stroke-width="0.708661" stroke-linecap="round" stroke-linejoin="round" stroke="rgb(18.431373%, 30.980392%, 30.980392%)" stroke-opacity="1" stroke-miterlimit="10" d="M 227.367188 138.292969 C 227.367188 142.023438 224.34375 145.050781 220.613281 145.050781 C 216.878906 145.050781 213.855469 142.023438 213.855469 138.292969 C 213.855469 134.5625 216.878906 131.535156 220.613281 131.535156 C 224.34375 131.535156 227.367188 134.5625 227.367188 138.292969 "/>
<path fill-rule="nonzero" fill="rgb(18.431373%, 30.980392%, 30.980392%)" fill-opacity="1" stroke-width="0.708661" stroke-linecap="round" stroke-linejoin="round" stroke="rgb(18.431373%, 30.980392%, 30.980392%)" stroke-opacity="1" stroke-miterlimit="10" d="M 234.417969 372.648438 C 234.417969 376.382812 231.390625 379.40625 227.660156 379.40625 C 223.929688 379.40625 220.90625 376.382812 220.90625 372.648438 C 220.90625 368.917969 223.929688 365.894531 227.660156 365.894531 C 231.390625 365.894531 234.417969 368.917969 234.417969 372.648438 "/>
<path fill-rule="nonzero" fill="rgb(18.431373%, 30.980392%, 30.980392%)" fill-opacity="1" stroke-width="0.708661" stroke-linecap="round" stroke-linejoin="round" stroke="rgb(18.431373%, 30.980392%, 30.980392%)" stroke-opacity="1" stroke-miterlimit="10" d="M 241.464844 274.742188 C 241.464844 278.472656 238.441406 281.496094 234.710938 281.496094 C 230.980469 281.496094 227.953125 278.472656 227.953125 274.742188 C 227.953125 271.011719 230.980469 267.984375 234.710938 267.984375 C 238.441406 267.984375 241.464844 271.011719 241.464844 274.742188 "/>
<path fill-rule="nonzero" fill="rgb(18.431373%, 30.980392%, 30.980392%)" fill-opacity="1" stroke-width="0.708661" stroke-linecap="round" stroke-linejoin="round" stroke="rgb(18.431373%, 30.980392%, 30.980392%)" stroke-opacity="1" stroke-miterlimit="10" d="M 248.515625 229.058594 C 248.515625 232.792969 245.492188 235.816406 241.757812 235.816406 C 238.027344 235.816406 235.003906 232.792969 235.003906 229.058594 C 235.003906 225.328125 238.027344 222.304688 241.757812 222.304688 C 245.492188 222.304688 248.515625 225.328125 248.515625 229.058594 "/>
<path fill-rule="nonzero" fill="rgb(18.431373%, 30.980392%, 30.980392%)" fill-opacity="1" stroke-width="0.708661" stroke-linecap="round" stroke-linejoin="round" stroke="rgb(18.431373%, 30.980392%, 30.980392%)" stroke-opacity="1" stroke-miterlimit="10" d="M 255.566406 233.167969 C 255.566406 236.898438 252.539062 239.921875 248.808594 239.921875 C 245.078125 239.921875 242.050781 236.898438 242.050781 233.167969 C 242.050781 229.433594 245.078125 226.410156 248.808594 226.410156 C 252.539062 226.410156 255.566406 229.433594 255.566406 233.167969 "/>
<path fill-rule="nonzero" fill="rgb(18.431373%, 30.980392%, 30.980392%)" fill-opacity="1" stroke-width="0.708661" stroke-linecap="round" stroke-linejoin="round" stroke="rgb(18.431373%, 30.980392%, 30.980392%)" stroke-opacity="1" stroke-miterlimit="10" d="M 262.613281 331.664062 C 262.613281 335.398438 259.589844 338.421875 255.859375 338.421875 C 252.125 338.421875 249.101562 335.398438 249.101562 331.664062 C 249.101562 327.933594 252.125 324.910156 255.859375 324.910156 C 259.589844 324.910156 262.613281 327.933594 262.613281 331.664062 "/>
<path fill-rule="nonzero" fill="rgb(18.431373%, 30.980392%, 30.980392%)" fill-opacity="1" stroke-width="0.708661" stroke-linecap="round" stroke-linejoin="round" stroke="rgb(18.431373%, 30.980392%, 30.980392%)" stroke-opacity="1" stroke-miterlimit="10" d="M 269.664062 250.917969 C 269.664062 254.648438 266.636719 257.671875 262.90625 257.671875 C 259.175781 257.671875 256.152344 254.648438 256.152344 250.917969 C 256.152344 247.183594 259.175781 244.160156 262.90625 244.160156 C 266.636719 244.160156 269.664062 247.183594 269.664062 250.917969 "/>
<path fill-rule="nonzero" fill="rgb(18.431373%, 30.980392%, 30.980392%)" fill-opacity="1" stroke-width="0.708661" stroke-linecap="round" stroke-linejoin="round" stroke="rgb(18.431373%, 30.980392%, 30.980392%)" stroke-opacity="1" stroke-miterlimit="10" d="M 276.710938 333.339844 C 276.710938 337.074219 273.6875 340.097656 269.957031 340.097656 C 266.226562 340.097656 263.199219 337.074219 263.199219 333.339844 C 263.199219 329.609375 266.226562 326.585938 269.957031 326.585938 C 273.6875 326.585938 276.710938 329.609375 276.710938 333.339844 "/>
<path fill-rule="nonzero" fill="rgb(18.431373%, 30.980392%, 30.980392%)" fill-opacity="1" stroke-width="0.708661" stroke-linecap="round" stroke-linejoin="round" stroke="rgb(18.431373%, 30.980392%, 30.980392%)" stroke-opacity="1" stroke-miterlimit="10" d="M 283.761719 193.738281 C 283.761719 197.46875 280.738281 200.492188 277.003906 200.492188 C 273.273438 200.492188 270.25 197.46875 270.25 193.738281 C 270.25 190.003906 273.273438 186.980469 277.003906 186.980469 C 280.738281 186.980469 283.761719 190.003906 283.761719 193.738281 "/>
<path fill-rule="nonzero" fill="rgb(18.431373%, 30.980392%, 30.980392%)" fill-opacity="1" stroke-width="0.708661" stroke-linecap="round" stroke-linejoin="round" stroke="rgb(18.431373%, 30.980392%, 30.980392%)" stroke-opacity="1" stroke-miterlimit="10" d="M 290.8125 163.195312 C 290.8125 166.929688 287.785156 169.953125 284.054688 169.953125 C 280.324219 169.953125 277.296875 166.929688 277.296875 163.195312 C 277.296875 159.464844 280.324219 156.441406 284.054688 156.441406 C 287.785156 156.441406 290.8125 159.464844 290.8125 163.195312 "/>
<path fill-rule="nonzero" fill="rgb(18.431373%, 30.980392%, 30.980392%)" fill-opacity="1" stroke-width="0.708661" stroke-linecap="round" stroke-linejoin="round" stroke="rgb(18.431373%, 30.980392%, 30.980392%)" stroke-opacity="1" stroke-miterlimit="10" d="M 297.859375 415.835938 C 297.859375 419.566406 294.835938 422.589844 291.105469 422.589844 C 287.371094 422.589844 284.347656 419.566406 284.347656 415.835938 C 284.347656 412.105469 287.371094 409.078125 291.105469 409.078125 C 294.835938 409.078125 297.859375 412.105469 297.859375 415.835938 "/>
<path fill-rule="nonzero" fill="rgb(18.431373%, 30.980392%, 30.980392%)" fill-opacity="1" stroke-width="0.708661" stroke-linecap="round" stroke-linejoin="round" stroke="rgb(18.431373%, 30.980392%, 30.980392%)" stroke-opacity="1" stroke-miterlimit="10" d="M 304.910156 147.742188 C 304.910156 151.476562 301.882812 154.5 298.152344 154.5 C 294.421875 154.5 291.398438 151.476562 291.398438 147.742188 C 291.398438 144.011719 294.421875 140.988281 298.152344 140.988281 C 301.882812 140.988281 304.910156 144.011719 304.910156 147.742188 "/>
<path fill-rule="nonzero" fill="rgb(18.431373%, 30.980392%, 30.980392%)" fill-opacity="1" stroke-width="0.708661" stroke-linecap="round" stroke-linejoin="round" stroke="rgb(18.431373%, 30.980392%, 30.980392%)" stroke-opacity="1" stroke-miterlimit="10" d="M 311.957031 336.3125 C 311.957031 340.042969 308.933594 343.066406 305.203125 343.066406 C 301.472656 343.066406 298.445312 340.042969 298.445312 336.3125 C 298.445312 332.582031 301.472656 329.554688 305.203125 329.554688 C 308.933594 329.554688 311.957031 332.582031 311.957031 336.3125 "/>
<path fill-rule="nonzero" fill="rgb(18.431373%, 30.980392%, 30.980392%)" fill-opacity="1" stroke-width="0.708661" stroke-linecap="round" stroke-linejoin="round" stroke="rgb(18.431373%, 30.980392%, 30.980392%)" stroke-opacity="1" stroke-miterlimit="10" d="M 319.007812 203.960938 C 319.007812 207.691406 315.984375 210.71875 312.25 210.71875 C 308.519531 210.71875 305.496094 207.691406 305.496094 203.960938 C 305.496094 200.230469 308.519531 197.203125 312.25 197.203125 C 315.984375 197.203125 319.007812 200.230469 319.007812 203.960938 "/>
<path fill-rule="nonzero" fill="rgb(18.431373%, 30.980392%, 30.980392%)" fill-opacity="1" stroke-width="0.708661" stroke-linecap="round" stroke-linejoin="round" stroke="rgb(18.431373%, 30.980392%, 30.980392%)" stroke-opacity="1" stroke-miterlimit="10" d="M 326.058594 186.261719 C 326.058594 189.992188 323.03125 193.015625 319.300781 193.015625 C 315.570312 193.015625 312.542969 189.992188 312.542969 186.261719 C 312.542969 182.527344 315.570312 179.503906 319.300781 179.503906 C 323.03125 179.503906 326.058594 182.527344 326.058594 186.261719 "/>
<path fill-rule="nonzero" fill="rgb(18.431373%, 30.980392%, 30.980392%)" fill-opacity="1" stroke-width="0.708661" stroke-linecap="round" stroke-linejoin="round" stroke="rgb(18.431373%, 30.980392%, 30.980392%)" stroke-opacity="1" stroke-miterlimit="10" d="M 333.105469 250.464844 C 333.105469 254.199219 330.082031 257.222656 326.351562 257.222656 C 322.617188 257.222656 319.59375 254.199219 319.59375 250.464844 C 319.59375 246.734375 322.617188 243.710938 326.351562 243.710938 C 330.082031 243.710938 333.105469 246.734375 333.105469 250.464844 "/>
<path fill-rule="nonzero" fill="rgb(18.431373%, 30.980392%, 30.980392%)" fill-opacity="1" stroke-width="0.708661" stroke-linecap="round" stroke-linejoin="round" stroke="rgb(18.431373%, 30.980392%, 30.980392%)" stroke-opacity="1" stroke-miterlimit="10" d="M 340.15625 282.785156 C 340.15625 286.519531 337.128906 289.542969 333.398438 289.542969 C 329.667969 289.542969 326.644531 286.519531 326.644531 282.785156 C 326.644531 279.054688 329.667969 276.03125 333.398438 276.03125 C 337.128906 276.03125 340.15625 279.054688 340.15625 282.785156 "/>
<path fill-rule="nonzero" fill="rgb(18.431373%, 30.980392%, 30.980392%)" fill-opacity="1" stroke-width="0.708661" stroke-linecap="round" stroke-linejoin="round" stroke="rgb(18.431373%, 30.980392%, 30.980392%)" stroke-opacity="1" stroke-miterlimit="10" d="M 347.203125 218.53125 C 347.203125 222.261719 344.179688 225.289062 340.449219 225.289062 C 336.71875 225.289062 333.691406 222.261719 333.691406 218.53125 C 333.691406 214.800781 336.71875 211.773438 340.449219 211.773438 C 344.179688 211.773438 347.203125 214.800781 347.203125 218.53125 "/>
<path fill-rule="nonzero" fill="rgb(18.431373%, 30.980392%, 30.980392%)" fill-opacity="1" stroke-width="0.708661" stroke-linecap="round" stroke-linejoin="round" stroke="rgb(18.431373%, 30.980392%, 30.980392%)" stroke-opacity="1" stroke-miterlimit="10" d="M 354.253906 195.574219 C 354.253906 199.304688 351.230469 202.328125 347.496094 202.328125 C 343.765625 202.328125 340.742188 199.304688 340.742188 195.574219 C 340.742188 191.84375 343.765625 188.816406 347.496094 188.816406 C 351.230469 188.816406 354.253906 191.84375 354.253906 195.574219 "/>
<path fill-rule="nonzero" fill="rgb(18.431373%, 30.980392%, 30.980392%)" fill-opacity="1" stroke-width="0.708661" stroke-linecap="round" stroke-linejoin="round" stroke="rgb(18.431373%, 30.980392%, 30.980392%)" stroke-opacity="1" stroke-miterlimit="10" d="M 361.304688 159.464844 C 361.304688 163.195312 358.277344 166.21875 354.546875 166.21875 C 350.816406 166.21875 347.789062 163.195312 347.789062 159.464844 C 347.789062 155.734375 350.816406 152.707031 354.546875 152.707031 C 358.277344 152.707031 361.304688 155.734375 361.304688 159.464844 "/>
<path fill-rule="nonzero" fill="rgb(18.431373%, 30.980392%, 30.980392%)" fill-opacity="1" stroke-width="0.708661" stroke-linecap="round" stroke-linejoin="round" stroke="rgb(18.431373%, 30.980392%, 30.980392%)" stroke-opacity="1" stroke-miterlimit="10" d="M 368.351562 383.328125 C 368.351562 387.058594 365.328125 390.085938 361.597656 390.085938 C 357.863281 390.085938 354.839844 387.058594 354.839844 383.328125 C 354.839844 379.597656 357.863281 376.570312 361.597656 376.570312 C 365.328125 376.570312 368.351562 379.597656 368.351562 383.328125 "/>
<path fill-rule="nonzero" fill="rgb(18.431373%, 30.980392%, 30.980392%)" fill-opacity="1" stroke-width="0.708661" stroke-linecap="round" stroke-linejoin="round" stroke="rgb(18.431373%, 30.980392%, 30.980392%)" stroke-opacity="1" stroke-miterlimit="10" d="M 375.402344 349.414062 C 375.402344 353.144531 372.375 356.167969 368.644531 356.167969 C 364.914062 356.167969 361.890625 353.144531 361.890625 349.414062 C 361.890625 345.679688 364.914062 342.65625 368.644531 342.65625 C 372.375 342.65625 375.402344 345.679688 375.402344 349.414062 "/>
<path fill-rule="nonzero" fill="rgb(18.431373%, 30.980392%, 30.980392%)" fill-opacity="1" stroke-width="0.708661" stroke-linecap="round" stroke-linejoin="round" stroke="rgb(18.431373%, 30.980392%, 30.980392%)" stroke-opacity="1" stroke-miterlimit="10" d="M 382.449219 111.617188 C 382.449219 115.347656 379.425781 118.375 375.695312 118.375 C 371.964844 118.375 368.9375 115.347656 368.9375 111.617188 C 368.9375 107.886719 371.964844 104.859375 375.695312 104.859375 C 379.425781 104.859375 382.449219 107.886719 382.449219 111.617188 "/>
<path fill-rule="nonzero" fill="rgb(18.431373%, 30.980392%, 30.980392%)" fill-opacity="1" stroke-width="0.708661" stroke-linecap="round" stroke-linejoin="round" stroke="rgb(18.431373%, 30.980392%, 30.980392%)" stroke-opacity="1" stroke-miterlimit="10" d="M 389.5 139.210938 C 389.5 142.941406 386.476562 145.96875 382.742188 145.96875 C 379.011719 145.96875 375.988281 142.941406 375.988281 139.210938 C 375.988281 135.480469 379.011719 132.457031 382.742188 132.457031 C 386.476562 132.457031 389.5 135.480469 389.5 139.210938 "/>
<path fill-rule="nonzero" fill="rgb(18.431373%, 30.980392%, 30.980392%)" fill-opacity="1" stroke-width="0.708661" stroke-linecap="round" stroke-linejoin="round" stroke="rgb(18.431373%, 30.980392%, 30.980392%)" stroke-opacity="1" stroke-miterlimit="10" d="M 396.550781 184.308594 C 396.550781 188.039062 393.523438 191.0625 389.792969 191.0625 C 386.0625 191.0625 383.035156 188.039062 383.035156 184.308594 C 383.035156 180.578125 386.0625 177.550781 389.792969 177.550781 C 393.523438 177.550781 396.550781 180.578125 396.550781 184.308594 "/>
<path fill-rule="nonzero" fill="rgb(18.431373%, 30.980392%, 30.980392%)" fill-opacity="1" stroke-width="0.708661" stroke-linecap="round" stroke-linejoin="round" stroke="rgb(18.431373%, 30.980392%, 30.980392%)" stroke-opacity="1" stroke-miterlimit="10" d="M 403.597656 160.859375 C 403.597656 164.589844 400.574219 167.613281 396.84375 167.613281 C 393.109375 167.613281 390.085938 164.589844 390.085938 160.859375 C 390.085938 157.128906 393.109375 154.101562 396.84375 154.101562 C 400.574219 154.101562 403.597656 157.128906 403.597656 160.859375 "/>
<path fill-rule="nonzero" fill="rgb(18.431373%, 30.980392%, 30.980392%)" fill-opacity="1" stroke-width="0.708661" stroke-linecap="round" stroke-linejoin="round" stroke="rgb(18.431373%, 30.980392%, 30.980392%)" stroke-opacity="1" stroke-miterlimit="10" d="M 410.648438 143.398438 C 410.648438 147.132812 407.621094 150.15625 403.890625 150.15625 C 400.160156 150.15625 397.136719 147.132812 397.136719 143.398438 C 397.136719 139.667969 400.160156 136.644531 403.890625 136.644531 C 407.621094 136.644531 410.648438 139.667969 410.648438 143.398438 "/>
<path fill-rule="nonzero" fill="rgb(18.431373%, 30.980392%, 30.980392%)" fill-opacity="1" stroke-width="0.708661" stroke-linecap="round" stroke-linejoin="round" stroke="rgb(18.431373%, 30.980392%, 30.980392%)" stroke-opacity="1" stroke-miterlimit="10" d="M 417.695312 416.675781 C 417.695312 420.40625 414.671875 423.433594 410.941406 423.433594 C 407.210938 423.433594 404.183594 420.40625 404.183594 416.675781 C 404.183594 412.945312 407.210938 409.917969 410.941406 409.917969 C 414.671875 409.917969 417.695312 412.945312 417.695312 416.675781 "/>
<path fill-rule="nonzero" fill="rgb(18.431373%, 30.980392%, 30.980392%)" fill-opacity="1" stroke-width="0.708661" stroke-linecap="round" stroke-linejoin="round" stroke="rgb(18.431373%, 30.980392%, 30.980392%)" stroke-opacity="1" stroke-miterlimit="10" d="M 424.746094 124.703125 C 424.746094 128.433594 421.722656 131.457031 417.988281 131.457031 C 414.257812 131.457031 411.234375 128.433594 411.234375 124.703125 C 411.234375 120.96875 414.257812 117.945312 417.988281 117.945312 C 421.722656 117.945312 424.746094 120.96875 424.746094 124.703125 "/>
<path fill-rule="nonzero" fill="rgb(18.431373%, 30.980392%, 30.980392%)" fill-opacity="1" stroke-width="0.708661" stroke-linecap="round" stroke-linejoin="round" stroke="rgb(18.431373%, 30.980392%, 30.980392%)" stroke-opacity="1" stroke-miterlimit="10" d="M 431.796875 245.472656 C 431.796875 249.207031 428.769531 252.230469 425.039062 252.230469 C 421.308594 252.230469 418.28125 249.207031 418.28125 245.472656 C 418.28125 241.742188 421.308594 238.71875 425.039062 238.71875 C 428.769531 238.71875 431.796875 241.742188 431.796875 245.472656 "/>
<path fill-rule="nonzero" fill="rgb(18.431373%, 30.980392%, 30.980392%)" fill-opacity="1" stroke-width="0.708661" stroke-linecap="round" stroke-linejoin="round" stroke="rgb(18.431373%, 30.980392%, 30.980392%)" stroke-opacity="1" stroke-miterlimit="10" d="M 438.84375 188.511719 C 438.84375 192.246094 435.820312 195.269531 432.089844 195.269531 C 428.355469 195.269531 425.332031 192.246094 425.332031 188.511719 C 425.332031 184.78125 428.355469 181.757812 432.089844 181.757812 C 435.820312 181.757812 438.84375 184.78125 438.84375 188.511719 "/>
<path fill-rule="nonzero" fill="rgb(18.431373%, 30.980392%, 30.980392%)" fill-opacity="1" stroke-width="0.708661" stroke-linecap="round" stroke-linejoin="round" stroke="rgb(18.431373%, 30.980392%, 30.980392%)" stroke-opacity="1" stroke-miterlimit="10" d="M 445.894531 227.027344 C 445.894531 230.761719 442.867188 233.785156 439.136719 233.785156 C 435.40625 233.785156 432.382812 230.761719 432.382812 227.027344 C 432.382812 223.296875 435.40625 220.273438 439.136719 220.273438 C 442.867188 220.273438 445.894531 223.296875 445.894531 227.027344 "/>
<path fill-rule="nonzero" fill="rgb(18.431373%, 30.980392%, 30.980392%)" fill-opacity="1" stroke-width="0.708661" stroke-linecap="round" stroke-linejoin="round" stroke="rgb(18.431373%, 30.980392%, 30.980392%)" stroke-opacity="1" stroke-miterlimit="10" d="M 452.941406 135.339844 C 452.941406 139.070312 449.917969 142.097656 446.1875 142.097656 C 442.457031 142.097656 439.429688 139.070312 439.429688 135.339844 C 439.429688 131.609375 442.457031 128.582031 446.1875 128.582031 C 449.917969 128.582031 452.941406 131.609375 452.941406 135.339844 "/>
<path fill-rule="nonzero" fill="rgb(18.431373%, 30.980392%, 30.980392%)" fill-opacity="1" stroke-width="0.708661" stroke-linecap="round" stroke-linejoin="round" stroke="rgb(18.431373%, 30.980392%, 30.980392%)" stroke-opacity="1" stroke-miterlimit="10" d="M 459.992188 227.285156 C 459.992188 231.015625 456.96875 234.039062 453.234375 234.039062 C 449.503906 234.039062 446.480469 231.015625 446.480469 227.285156 C 446.480469 223.550781 449.503906 220.527344 453.234375 220.527344 C 456.96875 220.527344 459.992188 223.550781 459.992188 227.285156 "/>
<path fill-rule="nonzero" fill="rgb(18.431373%, 30.980392%, 30.980392%)" fill-opacity="1" stroke-width="0.708661" stroke-linecap="round" stroke-linejoin="round" stroke="rgb(18.431373%, 30.980392%, 30.980392%)" stroke-opacity="1" stroke-miterlimit="10" d="M 467.042969 158.679688 C 467.042969 162.410156 464.015625 165.4375 460.285156 165.4375 C 456.554688 165.4375 453.527344 162.410156 453.527344 158.679688 C 453.527344 154.949219 456.554688 151.921875 460.285156 151.921875 C 464.015625 151.921875 467.042969 154.949219 467.042969 158.679688 "/>
<path fill-rule="nonzero" fill="rgb(18.431373%, 30.980392%, 30.980392%)" fill-opacity="1" stroke-width="0.708661" stroke-linecap="round" stroke-linejoin="round" stroke="rgb(18.431373%, 30.980392%, 30.980392%)" stroke-opacity="1" stroke-miterlimit="10" d="M 474.089844 226.683594 C 474.089844 230.414062 471.066406 233.441406 467.335938 233.441406 C 463.601562 233.441406 460.578125 230.414062 460.578125 226.683594 C 460.578125 222.953125 463.601562 219.929688 467.335938 219.929688 C 471.066406 219.929688 474.089844 222.953125 474.089844 226.683594 "/>
<path fill-rule="nonzero" fill="rgb(18.431373%, 30.980392%, 30.980392%)" fill-opacity="1" stroke-width="0.708661" stroke-linecap="round" stroke-linejoin="round" stroke="rgb(18.431373%, 30.980392%, 30.980392%)" stroke-opacity="1" stroke-miterlimit="10" d="M 481.140625 278.761719 C 481.140625 282.492188 478.113281 285.519531 474.382812 285.519531 C 470.652344 285.519531 467.628906 282.492188 467.628906 278.761719 C 467.628906 275.03125 470.652344 272.003906 474.382812 272.003906 C 478.113281 272.003906 481.140625 275.03125 481.140625 278.761719 "/>
<path fill-rule="nonzero" fill="rgb(18.431373%, 30.980392%, 30.980392%)" fill-opacity="1" stroke-width="0.708661" stroke-linecap="round" stroke-linejoin="round" stroke="rgb(18.431373%, 30.980392%, 30.980392%)" stroke-opacity="1" stroke-miterlimit="10" d="M 488.1875 99.726562 C 488.1875 103.457031 485.164062 106.480469 481.433594 106.480469 C 477.703125 106.480469 474.675781 103.457031 474.675781 99.726562 C 474.675781 95.996094 477.703125 92.96875 481.433594 92.96875 C 485.164062 92.96875 488.1875 95.996094 488.1875 99.726562 "/>
<path fill-rule="nonzero" fill="rgb(18.431373%, 30.980392%, 30.980392%)" fill-opacity="1" stroke-width="0.708661" stroke-linecap="round" stroke-linejoin="round" stroke="rgb(18.431373%, 30.980392%, 30.980392%)" stroke-opacity="1" stroke-miterlimit="10" d="M 495.238281 133.882812 C 495.238281 137.613281 492.214844 140.640625 488.480469 140.640625 C 484.75 140.640625 481.726562 137.613281 481.726562 133.882812 C 481.726562 130.152344 484.75 127.128906 488.480469 127.128906 C 492.214844 127.128906 495.238281 130.152344 495.238281 133.882812 "/>
<path fill-rule="nonzero" fill="rgb(18.431373%, 30.980392%, 30.980392%)" fill-opacity="1" stroke-width="0.708661" stroke-linecap="round" stroke-linejoin="round" stroke="rgb(18.431373%, 30.980392%, 30.980392%)" stroke-opacity="1" stroke-miterlimit="10" d="M 502.289062 56.328125 C 502.289062 60.058594 499.261719 63.085938 495.53125 63.085938 C 491.800781 63.085938 488.773438 60.058594 488.773438 56.328125 C 488.773438 52.597656 491.800781 49.570312 495.53125 49.570312 C 499.261719 49.570312 502.289062 52.597656 502.289062 56.328125 "/>
<path fill-rule="nonzero" fill="rgb(18.431373%, 30.980392%, 30.980392%)" fill-opacity="1" stroke-width="0.708661" stroke-linecap="round" stroke-linejoin="round" stroke="rgb(18.431373%, 30.980392%, 30.980392%)" stroke-opacity="1" stroke-miterlimit="10" d="M 509.335938 182.011719 C 509.335938 185.742188 506.3125 188.765625 502.582031 188.765625 C 498.847656 188.765625 495.824219 185.742188 495.824219 182.011719 C 495.824219 178.28125 498.847656 175.253906 502.582031 175.253906 C 506.3125 175.253906 509.335938 178.28125 509.335938 182.011719 "/>
<path fill-rule="nonzero" fill="rgb(18.431373%, 30.980392%, 30.980392%)" fill-opacity="1" stroke-width="0.708661" stroke-linecap="round" stroke-linejoin="round" stroke="rgb(18.431373%, 30.980392%, 30.980392%)" stroke-opacity="1" stroke-miterlimit="10" d="M 516.386719 98.574219 C 516.386719 102.304688 513.359375 105.328125 509.628906 105.328125 C 505.898438 105.328125 502.875 102.304688 502.875 98.574219 C 502.875 94.839844 505.898438 91.816406 509.628906 91.816406 C 513.359375 91.816406 516.386719 94.839844 516.386719 98.574219 "/>
<path fill-rule="nonzero" fill="rgb(18.431373%, 30.980392%, 30.980392%)" fill-opacity="1" stroke-width="0.708661" stroke-linecap="round" stroke-linejoin="round" stroke="rgb(18.431373%, 30.980392%, 30.980392%)" stroke-opacity="1" stroke-miterlimit="10" d="M 523.433594 31.242188 C 523.433594 34.972656 520.410156 38 516.679688 38 C 512.949219 38 509.921875 34.972656 509.921875 31.242188 C 509.921875 27.511719 512.949219 24.488281 516.679688 24.488281 C 520.410156 24.488281 523.433594 27.511719 523.433594 31.242188 "/>
<path fill-rule="nonzero" fill="rgb(18.431373%, 30.980392%, 30.980392%)" fill-opacity="1" stroke-width="0.708661" stroke-linecap="round" stroke-linejoin="round" stroke="rgb(18.431373%, 30.980392%, 30.980392%)" stroke-opacity="1" stroke-miterlimit="10" d="M 530.484375 202.902344 C 530.484375 206.632812 527.460938 209.660156 523.726562 209.660156 C 519.996094 209.660156 516.972656 206.632812 516.972656 202.902344 C 516.972656 199.171875 519.996094 196.148438 523.726562 196.148438 C 527.460938 196.148438 530.484375 199.171875 530.484375 202.902344 "/>
<path fill-rule="nonzero" fill="rgb(18.431373%, 30.980392%, 30.980392%)" fill-opacity="1" stroke-width="0.708661" stroke-linecap="round" stroke-linejoin="round" stroke="rgb(18.431373%, 30.980392%, 30.980392%)" stroke-opacity="1" stroke-miterlimit="10" d="M 537.535156 281.082031 C 537.535156 284.8125 534.507812 287.839844 530.777344 287.839844 C 527.046875 287.839844 524.019531 284.8125 524.019531 281.082031 C 524.019531 277.351562 527.046875 274.324219 530.777344 274.324219 C 534.507812 274.324219 537.535156 277.351562 537.535156 281.082031 "/>
<path fill-rule="nonzero" fill="rgb(18.431373%, 30.980392%, 30.980392%)" fill-opacity="1" stroke-width="0.708661" stroke-linecap="round" stroke-linejoin="round" stroke="rgb(18.431373%, 30.980392%, 30.980392%)" stroke-opacity="1" stroke-miterlimit="10" d="M 544.582031 195.816406 C 544.582031 199.546875 541.558594 202.574219 537.828125 202.574219 C 534.09375 202.574219 531.070312 199.546875 531.070312 195.816406 C 531.070312 192.085938 534.09375 189.0625 537.828125 189.0625 C 541.558594 189.0625 544.582031 192.085938 544.582031 195.816406 "/>
<path fill-rule="nonzero" fill="rgb(18.431373%, 30.980392%, 30.980392%)" fill-opacity="1" stroke-width="0.708661" stroke-linecap="round" stroke-linejoin="round" stroke="rgb(18.431373%, 30.980392%, 30.980392%)" stroke-opacity="1" stroke-miterlimit="10" d="M 551.632812 191.949219 C 551.632812 195.679688 548.605469 198.703125 544.875 198.703125 C 541.144531 198.703125 538.121094 195.679688 538.121094 191.949219 C 538.121094 188.214844 541.144531 185.191406 544.875 185.191406 C 548.605469 185.191406 551.632812 188.214844 551.632812 191.949219 "/>
<path fill-rule="nonzero" fill="rgb(18.431373%, 30.980392%, 30.980392%)" fill-opacity="1" stroke-width="0.708661" stroke-linecap="round" stroke-linejoin="round" stroke="rgb(18.431373%, 30.980392%, 30.980392%)" stroke-opacity="1" stroke-miterlimit="10" d="M 558.679688 161.894531 C 558.679688 165.628906 555.65625 168.652344 551.925781 168.652344 C 548.195312 168.652344 545.167969 165.628906 545.167969 161.894531 C 545.167969 158.164062 548.195312 155.140625 551.925781 155.140625 C 555.65625 155.140625 558.679688 158.164062 558.679688 161.894531 "/>
<path fill-rule="nonzero" fill="rgb(18.431373%, 30.980392%, 30.980392%)" fill-opacity="1" stroke-width="0.708661" stroke-linecap="round" stroke-linejoin="round" stroke="rgb(18.431373%, 30.980392%, 30.980392%)" stroke-opacity="1" stroke-miterlimit="10" d="M 565.730469 39.941406 C 565.730469 43.675781 562.707031 46.699219 558.972656 46.699219 C 555.242188 46.699219 552.21875 43.675781 552.21875 39.941406 C 552.21875 36.210938 555.242188 33.1875 558.972656 33.1875 C 562.707031 33.1875 565.730469 36.210938 565.730469 39.941406 "/>
<path fill-rule="nonzero" fill="rgb(18.431373%, 30.980392%, 30.980392%)" fill-opacity="1" stroke-width="0.708661" stroke-linecap="round" stroke-linejoin="round" stroke="rgb(18.431373%, 30.980392%, 30.980392%)" stroke-opacity="1" stroke-miterlimit="10" d="M 572.78125 194.800781 C 572.78125 198.53125 569.753906 201.558594 566.023438 201.558594 C 562.292969 201.558594 559.265625 198.53125 559.265625 194.800781 C 559.265625 191.070312 562.292969 188.046875 566.023438 188.046875 C 569.753906 188.046875 572.78125 191.070312 572.78125 194.800781 "/>
<path fill-rule="nonzero" fill="rgb(18.431373%, 30.980392%, 30.980392%)" fill-opacity="1" stroke-width="0.708661" stroke-linecap="round" stroke-linejoin="round" stroke="rgb(18.431373%, 30.980392%, 30.980392%)" stroke-opacity="1" stroke-miterlimit="10" d="M 579.828125 139.105469 C 579.828125 142.835938 576.804688 145.863281 573.074219 145.863281 C 569.339844 145.863281 566.316406 142.835938 566.316406 139.105469 C 566.316406 135.375 569.339844 132.347656 573.074219 132.347656 C 576.804688 132.347656 579.828125 135.375 579.828125 139.105469 "/>
<path fill-rule="nonzero" fill="rgb(18.431373%, 30.980392%, 30.980392%)" fill-opacity="1" stroke-width="0.708661" stroke-linecap="round" stroke-linejoin="round" stroke="rgb(18.431373%, 30.980392%, 30.980392%)" stroke-opacity="1" stroke-miterlimit="10" d="M 586.878906 183.382812 C 586.878906 187.113281 583.851562 190.140625 580.121094 190.140625 C 576.390625 190.140625 573.367188 187.113281 573.367188 183.382812 C 573.367188 179.652344 576.390625 176.625 580.121094 176.625 C 583.851562 176.625 586.878906 179.652344 586.878906 183.382812 "/>
<path fill-rule="nonzero" fill="rgb(18.431373%, 30.980392%, 30.980392%)" fill-opacity="1" stroke-width="0.708661" stroke-linecap="round" stroke-linejoin="round" stroke="rgb(18.431373%, 30.980392%, 30.980392%)" stroke-opacity="1" stroke-miterlimit="10" d="M 593.925781 162.375 C 593.925781 166.105469 590.902344 169.132812 587.171875 169.132812 C 583.441406 169.132812 580.414062 166.105469 580.414062 162.375 C 580.414062 158.644531 583.441406 155.621094 587.171875 155.621094 C 590.902344 155.621094 593.925781 158.644531 593.925781 162.375 "/>
<path fill-rule="nonzero" fill="rgb(18.431373%, 30.980392%, 30.980392%)" fill-opacity="1" stroke-width="0.708661" stroke-linecap="round" stroke-linejoin="round" stroke="rgb(18.431373%, 30.980392%, 30.980392%)" stroke-opacity="1" stroke-miterlimit="10" d="M 600.976562 137.871094 C 600.976562 141.601562 597.953125 144.628906 594.21875 144.628906 C 590.488281 144.628906 587.464844 141.601562 587.464844 137.871094 C 587.464844 134.140625 590.488281 131.113281 594.21875 131.113281 C 597.953125 131.113281 600.976562 134.140625 600.976562 137.871094 "/>
<path fill-rule="nonzero" fill="rgb(18.431373%, 30.980392%, 30.980392%)" fill-opacity="1" stroke-width="0.708661" stroke-linecap="round" stroke-linejoin="round" stroke="rgb(18.431373%, 30.980392%, 30.980392%)" stroke-opacity="1" stroke-miterlimit="10" d="M 608.027344 57.945312 C 608.027344 61.679688 605 64.703125 601.269531 64.703125 C 597.539062 64.703125 594.511719 61.679688 594.511719 57.945312 C 594.511719 54.214844 597.539062 51.191406 601.269531 51.191406 C 605 51.191406 608.027344 54.214844 608.027344 57.945312 "/>
<path fill-rule="nonzero" fill="rgb(18.431373%, 30.980392%, 30.980392%)" fill-opacity="1" stroke-width="0.708661" stroke-linecap="round" stroke-linejoin="round" stroke="rgb(18.431373%, 30.980392%, 30.980392%)" stroke-opacity="1" stroke-miterlimit="10" d="M 615.074219 148.847656 C 615.074219 152.582031 612.050781 155.605469 608.320312 155.605469 C 604.585938 155.605469 601.5625 152.582031 601.5625 148.847656 C 601.5625 145.117188 604.585938 142.09375 608.320312 142.09375 C 612.050781 142.09375 615.074219 145.117188 615.074219 148.847656 "/>
<path fill-rule="nonzero" fill="rgb(18.431373%, 30.980392%, 30.980392%)" fill-opacity="1" stroke-width="0.708661" stroke-linecap="round" stroke-linejoin="round" stroke="rgb(18.431373%, 30.980392%, 30.980392%)" stroke-opacity="1" stroke-miterlimit="10" d="M 622.125 101.429688 C 622.125 105.164062 619.097656 108.1875 615.367188 108.1875 C 611.636719 108.1875 608.613281 105.164062 608.613281 101.429688 C 608.613281 97.699219 611.636719 94.675781 615.367188 94.675781 C 619.097656 94.675781 622.125 97.699219 622.125 101.429688 "/>
<path fill-rule="nonzero" fill="rgb(18.431373%, 30.980392%, 30.980392%)" fill-opacity="1" stroke-width="0.708661" stroke-linecap="round" stroke-linejoin="round" stroke="rgb(18.431373%, 30.980392%, 30.980392%)" stroke-opacity="1" stroke-miterlimit="10" d="M 629.171875 94.429688 C 629.171875 98.160156 626.148438 101.1875 622.417969 101.1875 C 618.6875 101.1875 615.660156 98.160156 615.660156 94.429688 C 615.660156 90.699219 618.6875 87.675781 622.417969 87.675781 C 626.148438 87.675781 629.171875 90.699219 629.171875 94.429688 "/>
<path fill-rule="nonzero" fill="rgb(18.431373%, 30.980392%, 30.980392%)" fill-opacity="1" stroke-width="0.708661" stroke-linecap="round" stroke-linejoin="round" stroke="rgb(18.431373%, 30.980392%, 30.980392%)" stroke-opacity="1" stroke-miterlimit="10" d="M 636.222656 82.054688 C 636.222656 85.785156 633.199219 88.8125 629.464844 88.8125 C 625.734375 88.8125 622.710938 85.785156 622.710938 82.054688 C 622.710938 78.324219 625.734375 75.296875 629.464844 75.296875 C 633.199219 75.296875 636.222656 78.324219 636.222656 82.054688 "/>
<path fill-rule="nonzero" fill="rgb(18.431373%, 30.980392%, 30.980392%)" fill-opacity="1" stroke-width="0.708661" stroke-linecap="round" stroke-linejoin="round" stroke="rgb(18.431373%, 30.980392%, 30.980392%)" stroke-opacity="1" stroke-miterlimit="10" d="M 643.273438 194.667969 C 643.273438 198.398438 640.246094 201.421875 636.515625 201.421875 C 632.785156 201.421875 629.757812 198.398438 629.757812 194.667969 C 629.757812 190.933594 632.785156 187.910156 636.515625 187.910156 C 640.246094 187.910156 643.273438 190.933594 643.273438 194.667969 "/>
<path fill-rule="nonzero" fill="rgb(18.431373%, 30.980392%, 30.980392%)" fill-opacity="1" stroke-width="0.708661" stroke-linecap="round" stroke-linejoin="round" stroke="rgb(18.431373%, 30.980392%, 30.980392%)" stroke-opacity="1" stroke-miterlimit="10" d="M 650.320312 23.4375 C 650.320312 27.171875 647.296875 30.195312 643.566406 30.195312 C 639.832031 30.195312 636.808594 27.171875 636.808594 23.4375 C 636.808594 19.707031 639.832031 16.683594 643.566406 16.683594 C 647.296875 16.683594 650.320312 19.707031 650.320312 23.4375 "/>
<path fill-rule="nonzero" fill="rgb(18.431373%, 30.980392%, 30.980392%)" fill-opacity="1" stroke-width="0.708661" stroke-linecap="round" stroke-linejoin="round" stroke="rgb(18.431373%, 30.980392%, 30.980392%)" stroke-opacity="1" stroke-miterlimit="10" d="M 657.371094 175.945312 C 657.371094 179.675781 654.34375 182.699219 650.613281 182.699219 C 646.882812 182.699219 643.859375 179.675781 643.859375 175.945312 C 643.859375 172.210938 646.882812 169.1875 650.613281 169.1875 C 654.34375 169.1875 657.371094 172.210938 657.371094 175.945312 "/>
<path fill-rule="nonzero" fill="rgb(18.431373%, 30.980392%, 30.980392%)" fill-opacity="1" stroke-width="0.708661" stroke-linecap="round" stroke-linejoin="round" stroke="rgb(18.431373%, 30.980392%, 30.980392%)" stroke-opacity="1" stroke-miterlimit="10" d="M 664.417969 152.855469 C 664.417969 156.589844 661.394531 159.613281 657.664062 159.613281 C 653.933594 159.613281 650.90625 156.589844 650.90625 152.855469 C 650.90625 149.125 653.933594 146.101562 657.664062 146.101562 C 661.394531 146.101562 664.417969 149.125 664.417969 152.855469 "/>
<path fill-rule="nonzero" fill="rgb(18.431373%, 30.980392%, 30.980392%)" fill-opacity="1" stroke-width="0.708661" stroke-linecap="round" stroke-linejoin="round" stroke="rgb(18.431373%, 30.980392%, 30.980392%)" stroke-opacity="1" stroke-miterlimit="10" d="M 671.46875 34.808594 C 671.46875 38.539062 668.445312 41.566406 664.710938 41.566406 C 660.980469 41.566406 657.957031 38.539062 657.957031 34.808594 C 657.957031 31.078125 660.980469 28.054688 664.710938 28.054688 C 668.445312 28.054688 671.46875 31.078125 671.46875 34.808594 "/>
<path fill-rule="nonzero" fill="rgb(18.431373%, 30.980392%, 30.980392%)" fill-opacity="1" stroke-width="0.708661" stroke-linecap="round" stroke-linejoin="round" stroke="rgb(18.431373%, 30.980392%, 30.980392%)" stroke-opacity="1" stroke-miterlimit="10" d="M 678.519531 41.34375 C 678.519531 45.074219 675.492188 48.101562 671.761719 48.101562 C 668.03125 48.101562 665.003906 45.074219 665.003906 41.34375 C 665.003906 37.613281 668.03125 34.585938 671.761719 34.585938 C 675.492188 34.585938 678.519531 37.613281 678.519531 41.34375 "/>
<path fill-rule="nonzero" fill="rgb(18.431373%, 30.980392%, 30.980392%)" fill-opacity="1" stroke-width="0.708661" stroke-linecap="round" stroke-linejoin="round" stroke="rgb(18.431373%, 30.980392%, 30.980392%)" stroke-opacity="1" stroke-miterlimit="10" d="M 685.566406 222.785156 C 685.566406 226.515625 682.542969 229.542969 678.8125 229.542969 C 675.078125 229.542969 672.054688 226.515625 672.054688 222.785156 C 672.054688 219.054688 675.078125 216.03125 678.8125 216.03125 C 682.542969 216.03125 685.566406 219.054688 685.566406 222.785156 "/>
<path fill-rule="nonzero" fill="rgb(18.431373%, 30.980392%, 30.980392%)" fill-opacity="1" stroke-width="0.708661" stroke-linecap="round" stroke-linejoin="round" stroke="rgb(18.431373%, 30.980392%, 30.980392%)" stroke-opacity="1" stroke-miterlimit="10" d="M 692.617188 204.179688 C 692.617188 207.910156 689.589844 210.933594 685.859375 210.933594 C 682.128906 210.933594 679.105469 207.910156 679.105469 204.179688 C 679.105469 200.449219 682.128906 197.421875 685.859375 197.421875 C 689.589844 197.421875 692.617188 200.449219 692.617188 204.179688 "/>
<path fill-rule="nonzero" fill="rgb(18.431373%, 30.980392%, 30.980392%)" fill-opacity="1" stroke-width="0.708661" stroke-linecap="round" stroke-linejoin="round" stroke="rgb(18.431373%, 30.980392%, 30.980392%)" stroke-opacity="1" stroke-miterlimit="10" d="M 699.664062 239.558594 C 699.664062 243.289062 696.640625 246.316406 692.910156 246.316406 C 689.179688 246.316406 686.152344 243.289062 686.152344 239.558594 C 686.152344 235.828125 689.179688 232.804688 692.910156 232.804688 C 696.640625 232.804688 699.664062 235.828125 699.664062 239.558594 "/>
<path fill-rule="nonzero" fill="rgb(18.431373%, 30.980392%, 30.980392%)" fill-opacity="1" stroke-width="0.708661" stroke-linecap="round" stroke-linejoin="round" stroke="rgb(18.431373%, 30.980392%, 30.980392%)" stroke-opacity="1" stroke-miterlimit="10" d="M 706.714844 119.199219 C 706.714844 122.929688 703.691406 125.953125 699.957031 125.953125 C 696.226562 125.953125 693.203125 122.929688 693.203125 119.199219 C 693.203125 115.464844 696.226562 112.441406 699.957031 112.441406 C 703.691406 112.441406 706.714844 115.464844 706.714844 119.199219 "/>
<path fill-rule="nonzero" fill="rgb(18.431373%, 30.980392%, 30.980392%)" fill-opacity="1" stroke-width="0.708661" stroke-linecap="round" stroke-linejoin="round" stroke="rgb(18.431373%, 30.980392%, 30.980392%)" stroke-opacity="1" stroke-miterlimit="10" d="M 713.765625 118.582031 C 713.765625 122.3125 710.738281 125.339844 707.007812 125.339844 C 703.277344 125.339844 700.25 122.3125 700.25 118.582031 C 700.25 114.851562 703.277344 111.828125 707.007812 111.828125 C 710.738281 111.828125 713.765625 114.851562 713.765625 118.582031 "/>
<path fill-rule="nonzero" fill="rgb(18.431373%, 30.980392%, 30.980392%)" fill-opacity="1" stroke-width="0.708661" stroke-linecap="round" stroke-linejoin="round" stroke="rgb(18.431373%, 30.980392%, 30.980392%)" stroke-opacity="1" stroke-miterlimit="10" d="M 720.8125 101.332031 C 720.8125 105.066406 717.789062 108.089844 714.058594 108.089844 C 710.324219 108.089844 707.300781 105.066406 707.300781 101.332031 C 707.300781 97.601562 710.324219 94.578125 714.058594 94.578125 C 717.789062 94.578125 720.8125 97.601562 720.8125 101.332031 "/>
<path fill-rule="nonzero" fill="rgb(18.431373%, 30.980392%, 30.980392%)" fill-opacity="1" stroke-width="0.708661" stroke-linecap="round" stroke-linejoin="round" stroke="rgb(18.431373%, 30.980392%, 30.980392%)" stroke-opacity="1" stroke-miterlimit="10" d="M 727.863281 84.949219 C 727.863281 88.679688 724.835938 91.703125 721.105469 91.703125 C 717.375 91.703125 714.351562 88.679688 714.351562 84.949219 C 714.351562 81.214844 717.375 78.191406 721.105469 78.191406 C 724.835938 78.191406 727.863281 81.214844 727.863281 84.949219 "/>
<path fill="none" stroke-width="6.40187" stroke-linecap="butt" stroke-linejoin="round" stroke="rgb(94.117647%, 50.196078%, 50.196078%)" stroke-opacity="1" stroke-miterlimit="10" d="M 23.234375 326.453125 L 32.066406 323.617188 L 40.902344 320.78125 L 49.734375 317.945312 L 58.570312 315.109375 L 67.402344 312.273438 L 76.238281 309.4375 L 85.070312 306.605469 L 93.902344 303.769531 L 102.738281 300.933594 L 111.570312 298.097656 L 120.40625 295.261719 L 129.238281 292.425781 L 138.074219 289.589844 L 146.90625 286.757812 L 155.742188 283.921875 L 164.574219 281.085938 L 173.410156 278.25 L 182.242188 275.414062 L 191.078125 272.578125 L 208.742188 266.90625 L 217.578125 264.074219 L 226.410156 261.238281 L 235.246094 258.402344 L 244.078125 255.566406 L 252.914062 252.730469 L 261.746094 249.894531 L 270.582031 247.058594 L 279.414062 244.226562 L 288.25 241.390625 L 297.082031 238.554688 L 305.917969 235.71875 L 323.582031 230.046875 L 332.417969 227.210938 L 341.25 224.375 L 350.085938 221.542969 L 358.917969 218.707031 L 367.753906 215.871094 L 376.585938 213.035156 L 385.421875 210.199219 L 394.253906 207.363281 L 403.089844 204.527344 L 411.921875 201.695312 L 420.757812 198.859375 L 438.421875 193.1875 L 447.257812 190.351562 L 456.089844 187.515625 L 464.925781 184.679688 L 473.757812 181.84375 L 482.59375 179.011719 L 491.425781 176.175781 L 500.261719 173.339844 L 509.09375 170.503906 L 517.929688 167.667969 L 526.761719 164.832031 L 535.597656 161.996094 L 544.429688 159.164062 L 553.261719 156.328125 L 562.097656 153.492188 L 570.929688 150.65625 L 579.765625 147.820312 L 588.597656 144.984375 L 597.433594 142.148438 L 606.265625 139.3125 L 615.101562 136.480469 L 623.933594 133.644531 L 632.769531 130.808594 L 641.601562 127.972656 L 650.4375 125.136719 L 668.101562 119.464844 L 676.9375 116.632812 L 685.769531 113.796875 L 694.605469 110.960938 L 703.4375 108.125 L 712.273438 105.289062 L 721.105469 102.453125 "/>
</svg>
