<?xml version="1.0" encoding="UTF-8"?>
<svg xmlns="http://www.w3.org/2000/svg" xmlns:xlink="http://www.w3.org/1999/xlink" width="756" height="216" viewBox="0 0 756 216">
<rect x="-75.6" y="-21.6" width="907.2" height="259.2" fill="rgb(100%, 100%, 100%)" fill-opacity="1"/>
<path fill="none" stroke-width="3.200935" stroke-linecap="butt" stroke-linejoin="round" stroke="rgb(18.039216%, 54.509804%, 34.117647%)" stroke-opacity="0.8" stroke-miterlimit="10" d="M 23.234375 125.851562 L 30.28125 87.09375 L 37.332031 122.617188 L 44.382812 155.683594 L 51.429688 173.300781 L 58.480469 123.089844 L 65.527344 147.105469 L 72.578125 139.363281 L 79.628906 185.007812 L 86.675781 202.042969 L 93.726562 114.386719 L 100.773438 153.550781 L 107.824219 164.054688 L 114.875 127.824219 L 121.921875 93.132812 L 128.972656 117.492188 L 136.019531 157.238281 L 143.070312 146.902344 L 150.121094 184.875 L 157.167969 152.300781 L 164.21875 195.4375 L 171.265625 177.292969 L 178.316406 217.3125 L 185.367188 170.371094 L 192.414062 142.410156 L 199.464844 172.109375 L 206.511719 164.207031 L 213.5625 116.636719 L 220.613281 123.195312 L 227.660156 74.675781 L 234.710938 121.59375 L 241.757812 126.75 L 248.808594 152.164062 L 255.859375 181.46875 L 262.90625 166.160156 L 269.957031 130.203125 L 277.003906 148.824219 L 284.054688 84.320312 L 291.105469 51.964844 L 298.152344 101.054688 L 305.203125 51.425781 L 312.25 32.347656 L 319.300781 70.585938 L 326.351562 127.597656 L 333.398438 109.835938 L 340.449219 145.71875 L 347.496094 142.234375 L 354.546875 149.886719 L 361.597656 162.191406 L 368.644531 102.941406 L 375.695312 127.101562 L 382.742188 110.796875 L 389.792969 163.90625 L 396.84375 141.988281 L 403.890625 107.761719 L 410.941406 111.285156 L 417.988281 120.839844 L 425.039062 156.011719 L 432.089844 170.367188 L 439.136719 119.042969 L 446.1875 114.242188 L 453.234375 167.480469 L 460.285156 109.320312 L 467.335938 65.339844 L 474.382812 57.371094 L 481.433594 33.09375 L 488.480469 62.089844 L 495.53125 84.683594 L 502.582031 64.019531 L 509.628906 78.171875 L 516.679688 55.714844 L 523.726562 36.265625 L 530.777344 122.101562 L 537.828125 93.867188 L 544.875 69.902344 L 551.925781 90.039062 L 558.972656 69.378906 L 566.023438 40.347656 L 573.074219 38.246094 L 580.121094 36.898438 L 587.171875 84.019531 L 594.21875 98.882812 L 601.269531 141.105469 L 608.320312 103.648438 L 615.367188 118.878906 L 622.417969 119.984375 L 629.464844 133.074219 L 636.515625 71.992188 L 643.566406 88.65625 L 650.613281 37.757812 L 657.664062 21.480469 L 664.710938 41.433594 L 671.761719 50.386719 L 678.8125 60.40625 L 685.859375 93.785156 L 692.910156 127.257812 L 699.957031 80.101562 L 707.007812 10.347656 L 714.058594 56.082031 L 721.105469 11.320312 "/>
<path fill="none" stroke-width="2.133957" stroke-linecap="butt" stroke-linejoin="round" stroke="rgb(94.117647%, 50.196078%, 50.196078%)" stroke-opacity="1" stroke-miterlimit="10" d="M 72.578125 140.941406 L 79.628906 140.382812 L 86.675781 145.058594 L 93.726562 146.679688 L 100.773438 148.625 L 107.824219 147.222656 L 114.875 152.046875 L 121.921875 154.058594 L 128.972656 159.257812 L 136.019531 158.28125 L 143.070312 154.304688 L 150.121094 158.152344 L 157.167969 158.863281 L 164.21875 155.703125 L 171.265625 155.394531 L 178.316406 154.164062 L 185.367188 154.4375 L 192.414062 152.402344 L 199.464844 152.753906 L 206.511719 152.527344 L 213.5625 153.453125 L 220.613281 149.101562 L 227.660156 147.207031 L 234.710938 138.339844 L 241.757812 130.445312 L 248.808594 127.6875 L 255.859375 119.644531 L 262.90625 110.851562 L 269.957031 107.78125 L 277.003906 108.078125 L 284.054688 110.421875 L 291.105469 112.027344 L 298.152344 113.0625 L 305.203125 112.910156 L 312.25 111.625 L 319.300781 107.410156 L 326.351562 107.203125 L 333.398438 104.667969 L 340.449219 109.972656 L 347.496094 115.972656 L 354.546875 116.421875 L 361.597656 120.410156 L 368.644531 126.3125 L 375.695312 132.007812 L 382.742188 134.859375 L 389.792969 135.472656 L 396.84375 133.371094 L 403.890625 135.054688 L 410.941406 132.351562 L 417.988281 125.894531 L 425.039062 122.855469 L 432.089844 116.589844 L 439.136719 113.34375 L 446.1875 108.0625 L 453.234375 102.863281 L 460.285156 100.890625 L 467.335938 97.1875 L 474.382812 91.546875 L 481.433594 89.285156 L 488.480469 84.1875 L 495.53125 80.910156 L 502.582031 79.296875 L 509.628906 72.757812 L 516.679688 68.160156 L 523.726562 66.351562 L 530.777344 64.988281 L 537.828125 68.382812 L 544.875 70.835938 L 551.925781 74.597656 L 558.972656 77.238281 L 566.023438 79.953125 L 573.074219 84.238281 L 580.121094 90.691406 L 587.171875 87.351562 L 594.21875 87.003906 L 601.269531 84.859375 L 608.320312 80.289062 L 615.367188 78.425781 L 622.417969 79.097656 L 629.464844 80.574219 L 636.515625 84.367188 L 643.566406 87.25 L 650.613281 85.996094 L 657.664062 77.277344 L 664.710938 74.109375 L 671.761719 66.9375 "/>
</svg>
