<?xml version="1.0" encoding="UTF-8"?>
<svg xmlns="http://www.w3.org/2000/svg" xmlns:xlink="http://www.w3.org/1999/xlink" width="756" height="216" viewBox="0 0 756 216">
<rect x="-75.6" y="-21.6" width="907.2" height="259.2" fill="rgb(100%, 100%, 100%)" fill-opacity="1"/>
<path fill="none" stroke-width="3.200935" stroke-linecap="butt" stroke-linejoin="round" stroke="rgb(18.039216%, 54.509804%, 34.117647%)" stroke-opacity="0.8" stroke-miterlimit="10" d="M 23.234375 137.101562 L 30.28125 129.738281 L 37.332031 159.464844 L 44.382812 155.582031 L 51.429688 125.285156 L 58.480469 190.285156 L 65.527344 144.089844 L 72.578125 130.46875 L 79.628906 148.953125 L 86.675781 135.472656 L 93.726562 146.9375 L 100.773438 121.820312 L 107.824219 195.824219 L 114.875 142.011719 L 121.921875 88.261719 L 128.972656 120.25 L 136.019531 153.523438 L 143.070312 164.164062 L 150.121094 125.804688 L 157.167969 162.703125 L 164.21875 207.683594 L 171.265625 129.6875 L 178.316406 188.203125 L 185.367188 217.3125 L 192.414062 133.757812 L 199.464844 162.136719 L 206.511719 154.660156 L 213.5625 97.992188 L 220.613281 111.039062 L 227.660156 132.621094 L 234.710938 111.675781 L 241.757812 146.199219 L 248.808594 136.960938 L 255.859375 95.140625 L 262.90625 110.875 L 269.957031 109.082031 L 277.003906 105.617188 L 284.054688 106.40625 L 291.105469 104.882812 L 298.152344 73.828125 L 305.203125 77.207031 L 312.25 57.175781 L 319.300781 90.316406 L 326.351562 100.882812 L 333.398438 134.253906 L 340.449219 150.015625 L 347.496094 196.535156 L 354.546875 124.65625 L 361.597656 114.738281 L 368.644531 90.648438 L 375.695312 125.339844 L 382.742188 95.164062 L 389.792969 122.414062 L 396.84375 108.621094 L 403.890625 141.972656 L 410.941406 110.636719 L 417.988281 149.785156 L 425.039062 141.132812 L 432.089844 154.324219 L 439.136719 122.371094 L 446.1875 137.851562 L 453.234375 76.101562 L 460.285156 109.59375 L 467.335938 61.210938 L 474.382812 55.390625 L 481.433594 57.785156 L 488.480469 90.03125 L 495.53125 46.902344 L 502.582031 40.828125 L 509.628906 92.078125 L 516.679688 74.0625 L 523.726562 78.378906 L 530.777344 86.5 L 537.828125 104.847656 L 544.875 42.945312 L 551.925781 69.691406 L 558.972656 36.347656 L 566.023438 40.230469 L 573.074219 44.699219 L 580.121094 28.097656 L 587.171875 85.886719 L 594.21875 162.859375 L 601.269531 118.878906 L 608.320312 142.433594 L 615.367188 103.292969 L 622.417969 104.851562 L 629.464844 76.25 L 636.515625 81.878906 L 643.566406 73.78125 L 650.613281 50.957031 L 657.664062 56.613281 L 664.710938 64.546875 L 671.761719 69.582031 L 678.8125 85.667969 L 685.859375 75.144531 L 692.910156 58.894531 L 699.957031 72.1875 L 707.007812 55.195312 L 714.058594 25.875 L 721.105469 10.347656 "/>
<path fill="none" stroke-width="2.133957" stroke-linecap="butt" stroke-linejoin="round" stroke="rgb(94.117647%, 50.196078%, 50.196078%)" stroke-opacity="1" stroke-miterlimit="10" d="M 37.332031 141.433594 L 44.382812 152.070312 L 51.429688 154.941406 L 58.480469 149.140625 L 65.527344 147.816406 L 72.578125 149.851562 L 79.628906 141.183594 L 86.675781 136.730469 L 93.726562 149.800781 L 100.773438 148.414062 L 107.824219 138.96875 L 114.875 133.632812 L 121.921875 139.972656 L 128.972656 133.640625 L 136.019531 130.398438 L 143.070312 145.289062 L 150.121094 162.773438 L 157.167969 158.007812 L 164.21875 162.816406 L 171.265625 181.117188 L 178.316406 175.328125 L 185.367188 166.21875 L 192.414062 171.214844 L 199.464844 153.171875 L 206.511719 131.917969 L 213.5625 131.691406 L 220.613281 121.597656 L 227.660156 119.90625 L 234.710938 127.699219 L 241.757812 124.519531 L 248.808594 120.171875 L 255.859375 119.652344 L 262.90625 111.535156 L 269.957031 105.425781 L 277.003906 107.371094 L 284.054688 99.964844 L 291.105469 93.589844 L 298.152344 83.898438 L 305.203125 80.683594 L 312.25 79.882812 L 319.300781 91.96875 L 326.351562 106.527344 L 333.398438 134.402344 L 340.449219 141.269531 L 347.496094 144.039062 L 354.546875 135.316406 L 361.597656 130.382812 L 368.644531 110.109375 L 375.695312 109.660156 L 382.742188 108.4375 L 389.792969 118.703125 L 396.84375 115.761719 L 403.890625 126.6875 L 410.941406 130.429688 L 417.988281 139.570312 L 425.039062 135.648438 L 432.089844 141.09375 L 439.136719 126.355469 L 446.1875 120.046875 L 453.234375 101.425781 L 460.285156 88.03125 L 467.335938 72.015625 L 474.382812 74.800781 L 481.433594 62.265625 L 488.480469 58.1875 L 495.53125 65.523438 L 502.582031 68.78125 L 509.628906 66.449219 L 516.679688 74.371094 L 523.726562 87.171875 L 530.777344 77.347656 L 537.828125 76.472656 L 544.875 68.066406 L 551.925781 58.8125 L 558.972656 46.78125 L 566.023438 43.8125 L 573.074219 47.050781 L 580.121094 72.355469 L 587.171875 88.085938 L 594.21875 107.632812 L 601.269531 122.671875 L 608.320312 126.464844 L 615.367188 109.140625 L 622.417969 101.742188 L 629.464844 88.011719 L 636.515625 77.542969 L 643.566406 67.894531 L 650.613281 65.554688 L 657.664062 63.097656 L 664.710938 65.472656 L 671.761719 70.308594 L 678.8125 70.765625 L 685.859375 72.296875 L 692.910156 69.417969 L 699.957031 57.460938 L 707.007812 44.5 "/>
</svg>
