<?xml version="1.0" encoding="UTF-8"?>
<svg xmlns="http://www.w3.org/2000/svg" xmlns:xlink="http://www.w3.org/1999/xlink" width="756" height="504" viewBox="0 0 756 504">
<rect x="-75.6" y="-50.4" width="907.2" height="604.8" fill="rgb(100%, 100%, 100%)" fill-opacity="1"/>
<path fill-rule="nonzero" fill="rgb(18.431373%, 30.980392%, 30.980392%)" fill-opacity="1" stroke-width="0.708661" stroke-linecap="round" stroke-linejoin="round" stroke="rgb(18.431373%, 30.980392%, 30.980392%)" stroke-opacity="1" stroke-miterlimit="10" d="M 29.988281 492.222656 C 29.988281 495.953125 26.964844 498.976562 23.234375 498.976562 C 19.503906 498.976562 16.476562 495.953125 16.476562 492.222656 C 16.476562 488.488281 19.503906 485.464844 23.234375 485.464844 C 26.964844 485.464844 29.988281 488.488281 29.988281 492.222656 "/>
<path fill-rule="nonzero" fill="rgb(18.431373%, 30.980392%, 30.980392%)" fill-opacity="1" stroke-width="0.708661" stroke-linecap="round" stroke-linejoin="round" stroke="rgb(18.431373%, 30.980392%, 30.980392%)" stroke-opacity="1" stroke-miterlimit="10" d="M 37.039062 268.929688 C 37.039062 272.660156 34.015625 275.6875 30.28125 275.6875 C 26.550781 275.6875 23.527344 272.660156 23.527344 268.929688 C 23.527344 265.199219 26.550781 262.171875 30.28125 262.171875 C 34.015625 262.171875 37.039062 265.199219 37.039062 268.929688 "/>
<path fill-rule="nonzero" fill="rgb(18.431373%, 30.980392%, 30.980392%)" fill-opacity="1" stroke-width="0.708661" stroke-linecap="round" stroke-linejoin="round" stroke="rgb(18.431373%, 30.980392%, 30.980392%)" stroke-opacity="1" stroke-miterlimit="10" d="M 44.089844 399.191406 C 44.089844 402.921875 41.0625 405.945312 37.332031 405.945312 C 33.601562 405.945312 30.574219 402.921875 30.574219 399.191406 C 30.574219 395.457031 33.601562 392.433594 37.332031 392.433594 C 41.0625 392.433594 44.089844 395.457031 44.089844 399.191406 "/>
<path fill-rule="nonzero" fill="rgb(18.431373%, 30.980392%, 30.980392%)" fill-opacity="1" stroke-width="0.708661" stroke-linecap="round" stroke-linejoin="round" stroke="rgb(18.431373%, 30.980392%, 30.980392%)" stroke-opacity="1" stroke-miterlimit="10" d="M 51.136719 331.238281 C 51.136719 334.96875 48.113281 337.992188 44.382812 337.992188 C 40.648438 337.992188 37.625 334.96875 37.625 331.238281 C 37.625 327.503906 40.648438 324.480469 44.382812 324.480469 C 48.113281 324.480469 51.136719 327.503906 51.136719 331.238281 "/>
<path fill-rule="nonzero" fill="rgb(18.431373%, 30.980392%, 30.980392%)" fill-opacity="1" stroke-width="0.708661" stroke-linecap="round" stroke-linejoin="round" stroke="rgb(18.431373%, 30.980392%, 30.980392%)" stroke-opacity="1" stroke-miterlimit="10" d="M 58.1875 413.390625 C 58.1875 417.125 55.160156 420.148438 51.429688 420.148438 C 47.699219 420.148438 44.675781 417.125 44.675781 413.390625 C 44.675781 409.660156 47.699219 406.636719 51.429688 406.636719 C 55.160156 406.636719 58.1875 409.660156 58.1875 413.390625 "/>
<path fill-rule="nonzero" fill="rgb(18.431373%, 30.980392%, 30.980392%)" fill-opacity="1" stroke-width="0.708661" stroke-linecap="round" stroke-linejoin="round" stroke="rgb(18.431373%, 30.980392%, 30.980392%)" stroke-opacity="1" stroke-miterlimit="10" d="M 65.234375 298.265625 C 65.234375 302 62.210938 305.023438 58.480469 305.023438 C 54.75 305.023438 51.722656 302 51.722656 298.265625 C 51.722656 294.535156 54.75 291.511719 58.480469 291.511719 C 62.210938 291.511719 65.234375 294.535156 65.234375 298.265625 "/>
<path fill-rule="nonzero" fill="rgb(18.431373%, 30.980392%, 30.980392%)" fill-opacity="1" stroke-width="0.708661" stroke-linecap="round" stroke-linejoin="round" stroke="rgb(18.431373%, 30.980392%, 30.980392%)" stroke-opacity="1" stroke-miterlimit="10" d="M 72.285156 321.675781 C 72.285156 325.410156 69.261719 328.433594 65.527344 328.433594 C 61.796875 328.433594 58.773438 325.410156 58.773438 321.675781 C 58.773438 317.945312 61.796875 314.921875 65.527344 314.921875 C 69.261719 314.921875 72.285156 317.945312 72.285156 321.675781 "/>
<path fill-rule="nonzero" fill="rgb(18.431373%, 30.980392%, 30.980392%)" fill-opacity="1" stroke-width="0.708661" stroke-linecap="round" stroke-linejoin="round" stroke="rgb(18.431373%, 30.980392%, 30.980392%)" stroke-opacity="1" stroke-miterlimit="10" d="M 79.335938 305.042969 C 79.335938 308.777344 76.308594 311.800781 72.578125 311.800781 C 68.847656 311.800781 65.820312 308.777344 65.820312 305.042969 C 65.820312 301.3125 68.847656 298.289062 72.578125 298.289062 C 76.308594 298.289062 79.335938 301.3125 79.335938 305.042969 "/>
<path fill-rule="nonzero" fill="rgb(18.431373%, 30.980392%, 30.980392%)" fill-opacity="1" stroke-width="0.708661" stroke-linecap="round" stroke-linejoin="round" stroke="rgb(18.431373%, 30.980392%, 30.980392%)" stroke-opacity="1" stroke-miterlimit="10" d="M 86.382812 320.378906 C 86.382812 324.109375 83.359375 327.132812 79.628906 327.132812 C 75.894531 327.132812 72.871094 324.109375 72.871094 320.378906 C 72.871094 316.648438 75.894531 313.621094 79.628906 313.621094 C 83.359375 313.621094 86.382812 316.648438 86.382812 320.378906 "/>
<path fill-rule="nonzero" fill="rgb(18.431373%, 30.980392%, 30.980392%)" fill-opacity="1" stroke-width="0.708661" stroke-linecap="round" stroke-linejoin="round" stroke="rgb(18.431373%, 30.980392%, 30.980392%)" stroke-opacity="1" stroke-miterlimit="10" d="M 93.433594 179.167969 C 93.433594 182.902344 90.40625 185.925781 86.675781 185.925781 C 82.945312 185.925781 79.921875 182.902344 79.921875 179.167969 C 79.921875 175.4375 82.945312 172.414062 86.675781 172.414062 C 90.40625 172.414062 93.433594 175.4375 93.433594 179.167969 "/>
<path fill-rule="nonzero" fill="rgb(18.431373%, 30.980392%, 30.980392%)" fill-opacity="1" stroke-width="0.708661" stroke-linecap="round" stroke-linejoin="round" stroke="rgb(18.431373%, 30.980392%, 30.980392%)" stroke-opacity="1" stroke-miterlimit="10" d="M 100.480469 327.652344 C 100.480469 331.386719 97.457031 334.410156 93.726562 334.410156 C 89.996094 334.410156 86.96875 331.386719 86.96875 327.652344 C 86.96875 323.921875 89.996094 320.898438 93.726562 320.898438 C 97.457031 320.898438 100.480469 323.921875 100.480469 327.652344 "/>
<path fill-rule="nonzero" fill="rgb(18.431373%, 30.980392%, 30.980392%)" fill-opacity="1" stroke-width="0.708661" stroke-linecap="round" stroke-linejoin="round" stroke="rgb(18.431373%, 30.980392%, 30.980392%)" stroke-opacity="1" stroke-miterlimit="10" d="M 107.53125 257.320312 C 107.53125 261.050781 104.507812 264.074219 100.773438 264.074219 C 97.042969 264.074219 94.019531 261.050781 94.019531 257.320312 C 94.019531 253.589844 97.042969 250.5625 100.773438 250.5625 C 104.507812 250.5625 107.53125 253.589844 107.53125 257.320312 "/>
<path fill-rule="nonzero" fill="rgb(18.431373%, 30.980392%, 30.980392%)" fill-opacity="1" stroke-width="0.708661" stroke-linecap="round" stroke-linejoin="round" stroke="rgb(18.431373%, 30.980392%, 30.980392%)" stroke-opacity="1" stroke-miterlimit="10" d="M 114.582031 270.6875 C 114.582031 274.417969 111.554688 277.441406 107.824219 277.441406 C 104.09375 277.441406 101.066406 274.417969 101.066406 270.6875 C 101.066406 266.957031 104.09375 263.929688 107.824219 263.929688 C 111.554688 263.929688 114.582031 266.957031 114.582031 270.6875 "/>
<path fill-rule="nonzero" fill="rgb(18.431373%, 30.980392%, 30.980392%)" fill-opacity="1" stroke-width="0.708661" stroke-linecap="round" stroke-linejoin="round" stroke="rgb(18.431373%, 30.980392%, 30.980392%)" stroke-opacity="1" stroke-miterlimit="10" d="M 121.628906 332.335938 C 121.628906 336.066406 118.605469 339.089844 114.875 339.089844 C 111.140625 339.089844 108.117188 336.066406 108.117188 332.335938 C 108.117188 328.601562 111.140625 325.578125 114.875 325.578125 C 118.605469 325.578125 121.628906 328.601562 121.628906 332.335938 "/>
<path fill-rule="nonzero" fill="rgb(18.431373%, 30.980392%, 30.980392%)" fill-opacity="1" stroke-width="0.708661" stroke-linecap="round" stroke-linejoin="round" stroke="rgb(18.431373%, 30.980392%, 30.980392%)" stroke-opacity="1" stroke-miterlimit="10" d="M 128.679688 462.984375 C 128.679688 466.714844 125.652344 469.738281 121.921875 469.738281 C 118.191406 469.738281 115.167969 466.714844 115.167969 462.984375 C 115.167969 459.25 118.191406 456.226562 121.921875 456.226562 C 125.652344 456.226562 128.679688 459.25 128.679688 462.984375 "/>
<path fill-rule="nonzero" fill="rgb(18.431373%, 30.980392%, 30.980392%)" fill-opacity="1" stroke-width="0.708661" stroke-linecap="round" stroke-linejoin="round" stroke="rgb(18.431373%, 30.980392%, 30.980392%)" stroke-opacity="1" stroke-miterlimit="10" d="M 135.726562 301.28125 C 135.726562 305.015625 132.703125 308.039062 128.972656 308.039062 C 125.242188 308.039062 122.214844 305.015625 122.214844 301.28125 C 122.214844 297.550781 125.242188 294.527344 128.972656 294.527344 C 132.703125 294.527344 135.726562 297.550781 135.726562 301.28125 "/>
<path fill-rule="nonzero" fill="rgb(18.431373%, 30.980392%, 30.980392%)" fill-opacity="1" stroke-width="0.708661" stroke-linecap="round" stroke-linejoin="round" stroke="rgb(18.431373%, 30.980392%, 30.980392%)" stroke-opacity="1" stroke-miterlimit="10" d="M 142.777344 273.96875 C 142.777344 277.699219 139.753906 280.726562 136.019531 280.726562 C 132.289062 280.726562 129.265625 277.699219 129.265625 273.96875 C 129.265625 270.238281 132.289062 267.210938 136.019531 267.210938 C 139.753906 267.210938 142.777344 270.238281 142.777344 273.96875 "/>
<path fill-rule="nonzero" fill="rgb(18.431373%, 30.980392%, 30.980392%)" fill-opacity="1" stroke-width="0.708661" stroke-linecap="round" stroke-linejoin="round" stroke="rgb(18.431373%, 30.980392%, 30.980392%)" stroke-opacity="1" stroke-miterlimit="10" d="M 149.828125 145.277344 C 149.828125 149.007812 146.800781 152.03125 143.070312 152.03125 C 139.339844 152.03125 136.3125 149.007812 136.3125 145.277344 C 136.3125 141.542969 139.339844 138.519531 143.070312 138.519531 C 146.800781 138.519531 149.828125 141.542969 149.828125 145.277344 "/>
<path fill-rule="nonzero" fill="rgb(18.431373%, 30.980392%, 30.980392%)" fill-opacity="1" stroke-width="0.708661" stroke-linecap="round" stroke-linejoin="round" stroke="rgb(18.431373%, 30.980392%, 30.980392%)" stroke-opacity="1" stroke-miterlimit="10" d="M 156.875 410.121094 C 156.875 413.851562 153.851562 416.878906 150.121094 416.878906 C 146.386719 416.878906 143.363281 413.851562 143.363281 410.121094 C 143.363281 406.390625 146.386719 403.367188 150.121094 403.367188 C 153.851562 403.367188 156.875 406.390625 156.875 410.121094 "/>
<path fill-rule="nonzero" fill="rgb(18.431373%, 30.980392%, 30.980392%)" fill-opacity="1" stroke-width="0.708661" stroke-linecap="round" stroke-linejoin="round" stroke="rgb(18.431373%, 30.980392%, 30.980392%)" stroke-opacity="1" stroke-miterlimit="10" d="M 163.925781 358.515625 C 163.925781 362.246094 160.898438 365.269531 157.167969 365.269531 C 153.4375 365.269531 150.414062 362.246094 150.414062 358.515625 C 150.414062 354.785156 153.4375 351.757812 157.167969 351.757812 C 160.898438 351.757812 163.925781 354.785156 163.925781 358.515625 "/>
<path fill-rule="nonzero" fill="rgb(18.431373%, 30.980392%, 30.980392%)" fill-opacity="1" stroke-width="0.708661" stroke-linecap="round" stroke-linejoin="round" stroke="rgb(18.431373%, 30.980392%, 30.980392%)" stroke-opacity="1" stroke-miterlimit="10" d="M 170.972656 267.574219 C 170.972656 271.304688 167.949219 274.332031 164.21875 274.332031 C 160.488281 274.332031 157.460938 271.304688 157.460938 267.574219 C 157.460938 263.84375 160.488281 260.816406 164.21875 260.816406 C 167.949219 260.816406 170.972656 263.84375 170.972656 267.574219 "/>
<path fill-rule="nonzero" fill="rgb(18.431373%, 30.980392%, 30.980392%)" fill-opacity="1" stroke-width="0.708661" stroke-linecap="round" stroke-linejoin="round" stroke="rgb(18.431373%, 30.980392%, 30.980392%)" stroke-opacity="1" stroke-miterlimit="10" d="M 178.023438 168.773438 C 178.023438 172.503906 175 175.527344 171.265625 175.527344 C 167.535156 175.527344 164.511719 172.503906 164.511719 168.773438 C 164.511719 165.042969 167.535156 162.015625 171.265625 162.015625 C 175 162.015625 178.023438 165.042969 178.023438 168.773438 "/>
<path fill-rule="nonzero" fill="rgb(18.431373%, 30.980392%, 30.980392%)" fill-opacity="1" stroke-width="0.708661" stroke-linecap="round" stroke-linejoin="round" stroke="rgb(18.431373%, 30.980392%, 30.980392%)" stroke-opacity="1" stroke-miterlimit="10" d="M 185.074219 338.398438 C 185.074219 342.128906 182.046875 345.15625 178.316406 345.15625 C 174.585938 345.15625 171.558594 342.128906 171.558594 338.398438 C 171.558594 334.667969 174.585938 331.640625 178.316406 331.640625 C 182.046875 331.640625 185.074219 334.667969 185.074219 338.398438 "/>
<path fill-rule="nonzero" fill="rgb(18.431373%, 30.980392%, 30.980392%)" fill-opacity="1" stroke-width="0.708661" stroke-linecap="round" stroke-linejoin="round" stroke="rgb(18.431373%, 30.980392%, 30.980392%)" stroke-opacity="1" stroke-miterlimit="10" d="M 192.121094 386.910156 C 192.121094 390.640625 189.097656 393.664062 185.367188 393.664062 C 181.632812 393.664062 178.609375 390.640625 178.609375 386.910156 C 178.609375 383.175781 181.632812 380.152344 185.367188 380.152344 C 189.097656 380.152344 192.121094 383.175781 192.121094 386.910156 "/>
<path fill-rule="nonzero" fill="rgb(18.431373%, 30.980392%, 30.980392%)" fill-opacity="1" stroke-width="0.708661" stroke-linecap="round" stroke-linejoin="round" stroke="rgb(18.431373%, 30.980392%, 30.980392%)" stroke-opacity="1" stroke-miterlimit="10" d="M 199.171875 204.949219 C 199.171875 208.679688 196.144531 211.703125 192.414062 211.703125 C 188.683594 211.703125 185.660156 208.679688 185.660156 204.949219 C 185.660156 201.214844 188.683594 198.191406 192.414062 198.191406 C 196.144531 198.191406 199.171875 201.214844 199.171875 204.949219 "/>
<path fill-rule="nonzero" fill="rgb(18.431373%, 30.980392%, 30.980392%)" fill-opacity="1" stroke-width="0.708661" stroke-linecap="round" stroke-linejoin="round" stroke="rgb(18.431373%, 30.980392%, 30.980392%)" stroke-opacity="1" stroke-miterlimit="10" d="M 206.21875 159.316406 C 206.21875 163.046875 203.195312 166.074219 199.464844 166.074219 C 195.734375 166.074219 192.707031 163.046875 192.707031 159.316406 C 192.707031 155.585938 195.734375 152.5625 199.464844 152.5625 C 203.195312 152.5625 206.21875 155.585938 206.21875 159.316406 "/>
<path fill-rule="nonzero" fill="rgb(18.431373%, 30.980392%, 30.980392%)" fill-opacity="1" stroke-width="0.708661" stroke-linecap="round" stroke-linejoin="round" stroke="rgb(18.431373%, 30.980392%, 30.980392%)" stroke-opacity="1" stroke-miterlimit="10" d="M 213.269531 233.695312 C 213.269531 237.425781 210.246094 240.449219 206.511719 240.449219 C 202.78125 240.449219 199.757812 237.425781 199.757812 233.695312 C 199.757812 229.960938 202.78125 226.9375 206.511719 226.9375 C 210.246094 226.9375 213.269531 229.960938 213.269531 233.695312 "/>
<path fill-rule="nonzero" fill="rgb(18.431373%, 30.980392%, 30.980392%)" fill-opacity="1" stroke-width="0.708661" stroke-linecap="round" stroke-linejoin="round" stroke="rgb(18.431373%, 30.980392%, 30.980392%)" stroke-opacity="1" stroke-miterlimit="10" d="M 220.320312 256.234375 C 220.320312 259.964844 217.292969 262.988281 213.5625 262.988281 C 209.832031 262.988281 206.804688 259.964844 206.804688 256.234375 C 206.804688 252.5 209.832031 249.476562 213.5625 249.476562 C 217.292969 249.476562 220.320312 252.5 220.320312 256.234375 "/>
<path fill-rule="nonzero" fill="rgb(18.431373%, 30.980392%, 30.980392%)" fill-opacity="1" stroke-width="0.708661" stroke-linecap="round" stroke-linejoin="round" stroke="rgb(18.431373%, 30.980392%, 30.980392%)" stroke-opacity="1" stroke-miterlimit="10" d="M 227.367188 454.976562 C 227.367188 458.707031 224.34375 461.734375 220.613281 461.734375 C 216.878906 461.734375 213.855469 458.707031 213.855469 454.976562 C 213.855469 451.246094 216.878906 448.21875 220.613281 448.21875 C 224.34375 448.21875 227.367188 451.246094 227.367188 454.976562 "/>
<path fill-rule="nonzero" fill="rgb(18.431373%, 30.980392%, 30.980392%)" fill-opacity="1" stroke-width="0.708661" stroke-linecap="round" stroke-linejoin="round" stroke="rgb(18.431373%, 30.980392%, 30.980392%)" stroke-opacity="1" stroke-miterlimit="10" d="M 234.417969 390.09375 C 234.417969 393.824219 231.390625 396.851562 227.660156 396.851562 C 223.929688 396.851562 220.90625 393.824219 220.90625 390.09375 C 220.90625 386.363281 223.929688 383.335938 227.660156 383.335938 C 231.390625 383.335938 234.417969 386.363281 234.417969 390.09375 "/>
<path fill-rule="nonzero" fill="rgb(18.431373%, 30.980392%, 30.980392%)" fill-opacity="1" stroke-width="0.708661" stroke-linecap="round" stroke-linejoin="round" stroke="rgb(18.431373%, 30.980392%, 30.980392%)" stroke-opacity="1" stroke-miterlimit="10" d="M 241.464844 268.339844 C 241.464844 272.070312 238.441406 275.09375 234.710938 275.09375 C 230.980469 275.09375 227.953125 272.070312 227.953125 268.339844 C 227.953125 264.605469 230.980469 261.582031 234.710938 261.582031 C 238.441406 261.582031 241.464844 264.605469 241.464844 268.339844 "/>
<path fill-rule="nonzero" fill="rgb(18.431373%, 30.980392%, 30.980392%)" fill-opacity="1" stroke-width="0.708661" stroke-linecap="round" stroke-linejoin="round" stroke="rgb(18.431373%, 30.980392%, 30.980392%)" stroke-opacity="1" stroke-miterlimit="10" d="M 248.515625 167.488281 C 248.515625 171.21875 245.492188 174.242188 241.757812 174.242188 C 238.027344 174.242188 235.003906 171.21875 235.003906 167.488281 C 235.003906 163.757812 238.027344 160.730469 241.757812 160.730469 C 245.492188 160.730469 248.515625 163.757812 248.515625 167.488281 "/>
<path fill-rule="nonzero" fill="rgb(18.431373%, 30.980392%, 30.980392%)" fill-opacity="1" stroke-width="0.708661" stroke-linecap="round" stroke-linejoin="round" stroke="rgb(18.431373%, 30.980392%, 30.980392%)" stroke-opacity="1" stroke-miterlimit="10" d="M 255.566406 264.921875 C 255.566406 268.652344 252.539062 271.675781 248.808594 271.675781 C 245.078125 271.675781 242.050781 268.652344 242.050781 264.921875 C 242.050781 261.191406 245.078125 258.164062 248.808594 258.164062 C 252.539062 258.164062 255.566406 261.191406 255.566406 264.921875 "/>
<path fill-rule="nonzero" fill="rgb(18.431373%, 30.980392%, 30.980392%)" fill-opacity="1" stroke-width="0.708661" stroke-linecap="round" stroke-linejoin="round" stroke="rgb(18.431373%, 30.980392%, 30.980392%)" stroke-opacity="1" stroke-miterlimit="10" d="M 262.613281 436.988281 C 262.613281 440.71875 259.589844 443.746094 255.859375 443.746094 C 252.125 443.746094 249.101562 440.71875 249.101562 436.988281 C 249.101562 433.257812 252.125 430.234375 255.859375 430.234375 C 259.589844 430.234375 262.613281 433.257812 262.613281 436.988281 "/>
<path fill-rule="nonzero" fill="rgb(18.431373%, 30.980392%, 30.980392%)" fill-opacity="1" stroke-width="0.708661" stroke-linecap="round" stroke-linejoin="round" stroke="rgb(18.431373%, 30.980392%, 30.980392%)" stroke-opacity="1" stroke-miterlimit="10" d="M 269.664062 366.257812 C 269.664062 369.988281 266.636719 373.015625 262.90625 373.015625 C 259.175781 373.015625 256.152344 369.988281 256.152344 366.257812 C 256.152344 362.527344 259.175781 359.503906 262.90625 359.503906 C 266.636719 359.503906 269.664062 362.527344 269.664062 366.257812 "/>
<path fill-rule="nonzero" fill="rgb(18.431373%, 30.980392%, 30.980392%)" fill-opacity="1" stroke-width="0.708661" stroke-linecap="round" stroke-linejoin="round" stroke="rgb(18.431373%, 30.980392%, 30.980392%)" stroke-opacity="1" stroke-miterlimit="10" d="M 276.710938 241.664062 C 276.710938 245.394531 273.6875 248.421875 269.957031 248.421875 C 266.226562 248.421875 263.199219 245.394531 263.199219 241.664062 C 263.199219 237.933594 266.226562 234.910156 269.957031 234.910156 C 273.6875 234.910156 276.710938 237.933594 276.710938 241.664062 "/>
<path fill-rule="nonzero" fill="rgb(18.431373%, 30.980392%, 30.980392%)" fill-opacity="1" stroke-width="0.708661" stroke-linecap="round" stroke-linejoin="round" stroke="rgb(18.431373%, 30.980392%, 30.980392%)" stroke-opacity="1" stroke-miterlimit="10" d="M 283.761719 114.023438 C 283.761719 117.753906 280.738281 120.777344 277.003906 120.777344 C 273.273438 120.777344 270.25 117.753906 270.25 114.023438 C 270.25 110.289062 273.273438 107.265625 277.003906 107.265625 C 280.738281 107.265625 283.761719 110.289062 283.761719 114.023438 "/>
<path fill-rule="nonzero" fill="rgb(18.431373%, 30.980392%, 30.980392%)" fill-opacity="1" stroke-width="0.708661" stroke-linecap="round" stroke-linejoin="round" stroke="rgb(18.431373%, 30.980392%, 30.980392%)" stroke-opacity="1" stroke-miterlimit="10" d="M 290.8125 281.472656 C 290.8125 285.203125 287.785156 288.226562 284.054688 288.226562 C 280.324219 288.226562 277.296875 285.203125 277.296875 281.472656 C 277.296875 277.742188 280.324219 274.714844 284.054688 274.714844 C 287.785156 274.714844 290.8125 277.742188 290.8125 281.472656 "/>
<path fill-rule="nonzero" fill="rgb(18.431373%, 30.980392%, 30.980392%)" fill-opacity="1" stroke-width="0.708661" stroke-linecap="round" stroke-linejoin="round" stroke="rgb(18.431373%, 30.980392%, 30.980392%)" stroke-opacity="1" stroke-miterlimit="10" d="M 297.859375 262.550781 C 297.859375 266.28125 294.835938 269.308594 291.105469 269.308594 C 287.371094 269.308594 284.347656 266.28125 284.347656 262.550781 C 284.347656 258.820312 287.371094 255.796875 291.105469 255.796875 C 294.835938 255.796875 297.859375 258.820312 297.859375 262.550781 "/>
<path fill-rule="nonzero" fill="rgb(18.431373%, 30.980392%, 30.980392%)" fill-opacity="1" stroke-width="0.708661" stroke-linecap="round" stroke-linejoin="round" stroke="rgb(18.431373%, 30.980392%, 30.980392%)" stroke-opacity="1" stroke-miterlimit="10" d="M 304.910156 267.019531 C 304.910156 270.75 301.882812 273.777344 298.152344 273.777344 C 294.421875 273.777344 291.398438 270.75 291.398438 267.019531 C 291.398438 263.289062 294.421875 260.261719 298.152344 260.261719 C 301.882812 260.261719 304.910156 263.289062 304.910156 267.019531 "/>
<path fill-rule="nonzero" fill="rgb(18.431373%, 30.980392%, 30.980392%)" fill-opacity="1" stroke-width="0.708661" stroke-linecap="round" stroke-linejoin="round" stroke="rgb(18.431373%, 30.980392%, 30.980392%)" stroke-opacity="1" stroke-miterlimit="10" d="M 311.957031 222.261719 C 311.957031 225.992188 308.933594 229.019531 305.203125 229.019531 C 301.472656 229.019531 298.445312 225.992188 298.445312 222.261719 C 298.445312 218.53125 301.472656 215.503906 305.203125 215.503906 C 308.933594 215.503906 311.957031 218.53125 311.957031 222.261719 "/>
<path fill-rule="nonzero" fill="rgb(18.431373%, 30.980392%, 30.980392%)" fill-opacity="1" stroke-width="0.708661" stroke-linecap="round" stroke-linejoin="round" stroke="rgb(18.431373%, 30.980392%, 30.980392%)" stroke-opacity="1" stroke-miterlimit="10" d="M 319.007812 286.117188 C 319.007812 289.847656 315.984375 292.875 312.25 292.875 C 308.519531 292.875 305.496094 289.847656 305.496094 286.117188 C 305.496094 282.386719 308.519531 279.359375 312.25 279.359375 C 315.984375 279.359375 319.007812 282.386719 319.007812 286.117188 "/>
<path fill-rule="nonzero" fill="rgb(18.431373%, 30.980392%, 30.980392%)" fill-opacity="1" stroke-width="0.708661" stroke-linecap="round" stroke-linejoin="round" stroke="rgb(18.431373%, 30.980392%, 30.980392%)" stroke-opacity="1" stroke-miterlimit="10" d="M 326.058594 261.644531 C 326.058594 265.378906 323.03125 268.402344 319.300781 268.402344 C 315.570312 268.402344 312.542969 265.378906 312.542969 261.644531 C 312.542969 257.914062 315.570312 254.890625 319.300781 254.890625 C 323.03125 254.890625 326.058594 257.914062 326.058594 261.644531 "/>
<path fill-rule="nonzero" fill="rgb(18.431373%, 30.980392%, 30.980392%)" fill-opacity="1" stroke-width="0.708661" stroke-linecap="round" stroke-linejoin="round" stroke="rgb(18.431373%, 30.980392%, 30.980392%)" stroke-opacity="1" stroke-miterlimit="10" d="M 333.105469 385.558594 C 333.105469 389.289062 330.082031 392.316406 326.351562 392.316406 C 322.617188 392.316406 319.59375 389.289062 319.59375 385.558594 C 319.59375 381.828125 322.617188 378.800781 326.351562 378.800781 C 330.082031 378.800781 333.105469 381.828125 333.105469 385.558594 "/>
<path fill-rule="nonzero" fill="rgb(18.431373%, 30.980392%, 30.980392%)" fill-opacity="1" stroke-width="0.708661" stroke-linecap="round" stroke-linejoin="round" stroke="rgb(18.431373%, 30.980392%, 30.980392%)" stroke-opacity="1" stroke-miterlimit="10" d="M 340.15625 161.128906 C 340.15625 164.859375 337.128906 167.886719 333.398438 167.886719 C 329.667969 167.886719 326.644531 164.859375 326.644531 161.128906 C 326.644531 157.398438 329.667969 154.375 333.398438 154.375 C 337.128906 154.375 340.15625 157.398438 340.15625 161.128906 "/>
<path fill-rule="nonzero" fill="rgb(18.431373%, 30.980392%, 30.980392%)" fill-opacity="1" stroke-width="0.708661" stroke-linecap="round" stroke-linejoin="round" stroke="rgb(18.431373%, 30.980392%, 30.980392%)" stroke-opacity="1" stroke-miterlimit="10" d="M 347.203125 288.933594 C 347.203125 292.667969 344.179688 295.691406 340.449219 295.691406 C 336.71875 295.691406 333.691406 292.667969 333.691406 288.933594 C 333.691406 285.203125 336.71875 282.179688 340.449219 282.179688 C 344.179688 282.179688 347.203125 285.203125 347.203125 288.933594 "/>
<path fill-rule="nonzero" fill="rgb(18.431373%, 30.980392%, 30.980392%)" fill-opacity="1" stroke-width="0.708661" stroke-linecap="round" stroke-linejoin="round" stroke="rgb(18.431373%, 30.980392%, 30.980392%)" stroke-opacity="1" stroke-miterlimit="10" d="M 354.253906 296.121094 C 354.253906 299.855469 351.230469 302.878906 347.496094 302.878906 C 343.765625 302.878906 340.742188 299.855469 340.742188 296.121094 C 340.742188 292.390625 343.765625 289.367188 347.496094 289.367188 C 351.230469 289.367188 354.253906 292.390625 354.253906 296.121094 "/>
<path fill-rule="nonzero" fill="rgb(18.431373%, 30.980392%, 30.980392%)" fill-opacity="1" stroke-width="0.708661" stroke-linecap="round" stroke-linejoin="round" stroke="rgb(18.431373%, 30.980392%, 30.980392%)" stroke-opacity="1" stroke-miterlimit="10" d="M 361.304688 322.359375 C 361.304688 326.089844 358.277344 329.113281 354.546875 329.113281 C 350.816406 329.113281 347.789062 326.089844 347.789062 322.359375 C 347.789062 318.628906 350.816406 315.601562 354.546875 315.601562 C 358.277344 315.601562 361.304688 318.628906 361.304688 322.359375 "/>
<path fill-rule="nonzero" fill="rgb(18.431373%, 30.980392%, 30.980392%)" fill-opacity="1" stroke-width="0.708661" stroke-linecap="round" stroke-linejoin="round" stroke="rgb(18.431373%, 30.980392%, 30.980392%)" stroke-opacity="1" stroke-miterlimit="10" d="M 368.351562 202.355469 C 368.351562 206.085938 365.328125 209.113281 361.597656 209.113281 C 357.863281 209.113281 354.839844 206.085938 354.839844 202.355469 C 354.839844 198.625 357.863281 195.597656 361.597656 195.597656 C 365.328125 195.597656 368.351562 198.625 368.351562 202.355469 "/>
<path fill-rule="nonzero" fill="rgb(18.431373%, 30.980392%, 30.980392%)" fill-opacity="1" stroke-width="0.708661" stroke-linecap="round" stroke-linejoin="round" stroke="rgb(18.431373%, 30.980392%, 30.980392%)" stroke-opacity="1" stroke-miterlimit="10" d="M 375.402344 183.851562 C 375.402344 187.582031 372.375 190.605469 368.644531 190.605469 C 364.914062 190.605469 361.890625 187.582031 361.890625 183.851562 C 361.890625 180.121094 364.914062 177.09375 368.644531 177.09375 C 372.375 177.09375 375.402344 180.121094 375.402344 183.851562 "/>
<path fill-rule="nonzero" fill="rgb(18.431373%, 30.980392%, 30.980392%)" fill-opacity="1" stroke-width="0.708661" stroke-linecap="round" stroke-linejoin="round" stroke="rgb(18.431373%, 30.980392%, 30.980392%)" stroke-opacity="1" stroke-miterlimit="10" d="M 382.449219 335.476562 C 382.449219 339.207031 379.425781 342.234375 375.695312 342.234375 C 371.964844 342.234375 368.9375 339.207031 368.9375 335.476562 C 368.9375 331.746094 371.964844 328.71875 375.695312 328.71875 C 379.425781 328.71875 382.449219 331.746094 382.449219 335.476562 "/>
<path fill-rule="nonzero" fill="rgb(18.431373%, 30.980392%, 30.980392%)" fill-opacity="1" stroke-width="0.708661" stroke-linecap="round" stroke-linejoin="round" stroke="rgb(18.431373%, 30.980392%, 30.980392%)" stroke-opacity="1" stroke-miterlimit="10" d="M 389.5 233.347656 C 389.5 237.078125 386.476562 240.105469 382.742188 240.105469 C 379.011719 240.105469 375.988281 237.078125 375.988281 233.347656 C 375.988281 229.617188 379.011719 226.589844 382.742188 226.589844 C 386.476562 226.589844 389.5 229.617188 389.5 233.347656 "/>
<path fill-rule="nonzero" fill="rgb(18.431373%, 30.980392%, 30.980392%)" fill-opacity="1" stroke-width="0.708661" stroke-linecap="round" stroke-linejoin="round" stroke="rgb(18.431373%, 30.980392%, 30.980392%)" stroke-opacity="1" stroke-miterlimit="10" d="M 396.550781 206.71875 C 396.550781 210.449219 393.523438 213.472656 389.792969 213.472656 C 386.0625 213.472656 383.035156 210.449219 383.035156 206.71875 C 383.035156 202.984375 386.0625 199.960938 389.792969 199.960938 C 393.523438 199.960938 396.550781 202.984375 396.550781 206.71875 "/>
<path fill-rule="nonzero" fill="rgb(18.431373%, 30.980392%, 30.980392%)" fill-opacity="1" stroke-width="0.708661" stroke-linecap="round" stroke-linejoin="round" stroke="rgb(18.431373%, 30.980392%, 30.980392%)" stroke-opacity="1" stroke-miterlimit="10" d="M 403.597656 269.953125 C 403.597656 273.6875 400.574219 276.710938 396.84375 276.710938 C 393.109375 276.710938 390.085938 273.6875 390.085938 269.953125 C 390.085938 266.222656 393.109375 263.199219 396.84375 263.199219 C 400.574219 263.199219 403.597656 266.222656 403.597656 269.953125 "/>
<path fill-rule="nonzero" fill="rgb(18.431373%, 30.980392%, 30.980392%)" fill-opacity="1" stroke-width="0.708661" stroke-linecap="round" stroke-linejoin="round" stroke="rgb(18.431373%, 30.980392%, 30.980392%)" stroke-opacity="1" stroke-miterlimit="10" d="M 410.648438 231.183594 C 410.648438 234.914062 407.621094 237.941406 403.890625 237.941406 C 400.160156 237.941406 397.136719 234.914062 397.136719 231.183594 C 397.136719 227.453125 400.160156 224.429688 403.890625 224.429688 C 407.621094 224.429688 410.648438 227.453125 410.648438 231.183594 "/>
<path fill-rule="nonzero" fill="rgb(18.431373%, 30.980392%, 30.980392%)" fill-opacity="1" stroke-width="0.708661" stroke-linecap="round" stroke-linejoin="round" stroke="rgb(18.431373%, 30.980392%, 30.980392%)" stroke-opacity="1" stroke-miterlimit="10" d="M 417.695312 234.421875 C 417.695312 238.15625 414.671875 241.179688 410.941406 241.179688 C 407.210938 241.179688 404.183594 238.15625 404.183594 234.421875 C 404.183594 230.691406 407.210938 227.667969 410.941406 227.667969 C 414.671875 227.667969 417.695312 230.691406 417.695312 234.421875 "/>
<path fill-rule="nonzero" fill="rgb(18.431373%, 30.980392%, 30.980392%)" fill-opacity="1" stroke-width="0.708661" stroke-linecap="round" stroke-linejoin="round" stroke="rgb(18.431373%, 30.980392%, 30.980392%)" stroke-opacity="1" stroke-miterlimit="10" d="M 424.746094 219.460938 C 424.746094 223.191406 421.722656 226.214844 417.988281 226.214844 C 414.257812 226.214844 411.234375 223.191406 411.234375 219.460938 C 411.234375 215.726562 414.257812 212.703125 417.988281 212.703125 C 421.722656 212.703125 424.746094 215.726562 424.746094 219.460938 "/>
<path fill-rule="nonzero" fill="rgb(18.431373%, 30.980392%, 30.980392%)" fill-opacity="1" stroke-width="0.708661" stroke-linecap="round" stroke-linejoin="round" stroke="rgb(18.431373%, 30.980392%, 30.980392%)" stroke-opacity="1" stroke-miterlimit="10" d="M 431.796875 206.410156 C 431.796875 210.140625 428.769531 213.167969 425.039062 213.167969 C 421.308594 213.167969 418.28125 210.140625 418.28125 206.410156 C 418.28125 202.679688 421.308594 199.652344 425.039062 199.652344 C 428.769531 199.652344 431.796875 202.679688 431.796875 206.410156 "/>
<path fill-rule="nonzero" fill="rgb(18.431373%, 30.980392%, 30.980392%)" fill-opacity="1" stroke-width="0.708661" stroke-linecap="round" stroke-linejoin="round" stroke="rgb(18.431373%, 30.980392%, 30.980392%)" stroke-opacity="1" stroke-miterlimit="10" d="M 438.84375 232.960938 C 438.84375 236.691406 435.820312 239.714844 432.089844 239.714844 C 428.355469 239.714844 425.332031 236.691406 425.332031 232.960938 C 425.332031 229.230469 428.355469 226.203125 432.089844 226.203125 C 435.820312 226.203125 438.84375 229.230469 438.84375 232.960938 "/>
<path fill-rule="nonzero" fill="rgb(18.431373%, 30.980392%, 30.980392%)" fill-opacity="1" stroke-width="0.708661" stroke-linecap="round" stroke-linejoin="round" stroke="rgb(18.431373%, 30.980392%, 30.980392%)" stroke-opacity="1" stroke-miterlimit="10" d="M 445.894531 203.699219 C 445.894531 207.429688 442.867188 210.457031 439.136719 210.457031 C 435.40625 210.457031 432.382812 207.429688 432.382812 203.699219 C 432.382812 199.96875 435.40625 196.941406 439.136719 196.941406 C 442.867188 196.941406 445.894531 199.96875 445.894531 203.699219 "/>
<path fill-rule="nonzero" fill="rgb(18.431373%, 30.980392%, 30.980392%)" fill-opacity="1" stroke-width="0.708661" stroke-linecap="round" stroke-linejoin="round" stroke="rgb(18.431373%, 30.980392%, 30.980392%)" stroke-opacity="1" stroke-miterlimit="10" d="M 452.941406 247.785156 C 452.941406 251.515625 449.917969 254.539062 446.1875 254.539062 C 442.457031 254.539062 439.429688 251.515625 439.429688 247.785156 C 439.429688 244.050781 442.457031 241.027344 446.1875 241.027344 C 449.917969 241.027344 452.941406 244.050781 452.941406 247.785156 "/>
<path fill-rule="nonzero" fill="rgb(18.431373%, 30.980392%, 30.980392%)" fill-opacity="1" stroke-width="0.708661" stroke-linecap="round" stroke-linejoin="round" stroke="rgb(18.431373%, 30.980392%, 30.980392%)" stroke-opacity="1" stroke-miterlimit="10" d="M 459.992188 275.699219 C 459.992188 279.429688 456.96875 282.453125 453.234375 282.453125 C 449.503906 282.453125 446.480469 279.429688 446.480469 275.699219 C 446.480469 271.96875 449.503906 268.941406 453.234375 268.941406 C 456.96875 268.941406 459.992188 271.96875 459.992188 275.699219 "/>
<path fill-rule="nonzero" fill="rgb(18.431373%, 30.980392%, 30.980392%)" fill-opacity="1" stroke-width="0.708661" stroke-linecap="round" stroke-linejoin="round" stroke="rgb(18.431373%, 30.980392%, 30.980392%)" stroke-opacity="1" stroke-miterlimit="10" d="M 467.042969 172.957031 C 467.042969 176.6875 464.015625 179.714844 460.285156 179.714844 C 456.554688 179.714844 453.527344 176.6875 453.527344 172.957031 C 453.527344 169.226562 456.554688 166.199219 460.285156 166.199219 C 464.015625 166.199219 467.042969 169.226562 467.042969 172.957031 "/>
<path fill-rule="nonzero" fill="rgb(18.431373%, 30.980392%, 30.980392%)" fill-opacity="1" stroke-width="0.708661" stroke-linecap="round" stroke-linejoin="round" stroke="rgb(18.431373%, 30.980392%, 30.980392%)" stroke-opacity="1" stroke-miterlimit="10" d="M 474.089844 304.949219 C 474.089844 308.679688 471.066406 311.707031 467.335938 311.707031 C 463.601562 311.707031 460.578125 308.679688 460.578125 304.949219 C 460.578125 301.21875 463.601562 298.195312 467.335938 298.195312 C 471.066406 298.195312 474.089844 301.21875 474.089844 304.949219 "/>
<path fill-rule="nonzero" fill="rgb(18.431373%, 30.980392%, 30.980392%)" fill-opacity="1" stroke-width="0.708661" stroke-linecap="round" stroke-linejoin="round" stroke="rgb(18.431373%, 30.980392%, 30.980392%)" stroke-opacity="1" stroke-miterlimit="10" d="M 481.140625 270.992188 C 481.140625 274.722656 478.113281 277.75 474.382812 277.75 C 470.652344 277.75 467.628906 274.722656 467.628906 270.992188 C 467.628906 267.261719 470.652344 264.238281 474.382812 264.238281 C 478.113281 264.238281 481.140625 267.261719 481.140625 270.992188 "/>
<path fill-rule="nonzero" fill="rgb(18.431373%, 30.980392%, 30.980392%)" fill-opacity="1" stroke-width="0.708661" stroke-linecap="round" stroke-linejoin="round" stroke="rgb(18.431373%, 30.980392%, 30.980392%)" stroke-opacity="1" stroke-miterlimit="10" d="M 488.1875 209.699219 C 488.1875 213.429688 485.164062 216.457031 481.433594 216.457031 C 477.703125 216.457031 474.675781 213.429688 474.675781 209.699219 C 474.675781 205.96875 477.703125 202.945312 481.433594 202.945312 C 485.164062 202.945312 488.1875 205.96875 488.1875 209.699219 "/>
<path fill-rule="nonzero" fill="rgb(18.431373%, 30.980392%, 30.980392%)" fill-opacity="1" stroke-width="0.708661" stroke-linecap="round" stroke-linejoin="round" stroke="rgb(18.431373%, 30.980392%, 30.980392%)" stroke-opacity="1" stroke-miterlimit="10" d="M 495.238281 129.441406 C 495.238281 133.171875 492.214844 136.195312 488.480469 136.195312 C 484.75 136.195312 481.726562 133.171875 481.726562 129.441406 C 481.726562 125.710938 484.75 122.683594 488.480469 122.683594 C 492.214844 122.683594 495.238281 125.710938 495.238281 129.441406 "/>
<path fill-rule="nonzero" fill="rgb(18.431373%, 30.980392%, 30.980392%)" fill-opacity="1" stroke-width="0.708661" stroke-linecap="round" stroke-linejoin="round" stroke="rgb(18.431373%, 30.980392%, 30.980392%)" stroke-opacity="1" stroke-miterlimit="10" d="M 502.289062 184.59375 C 502.289062 188.324219 499.261719 191.347656 495.53125 191.347656 C 491.800781 191.347656 488.773438 188.324219 488.773438 184.59375 C 488.773438 180.863281 491.800781 177.835938 495.53125 177.835938 C 499.261719 177.835938 502.289062 180.863281 502.289062 184.59375 "/>
<path fill-rule="nonzero" fill="rgb(18.431373%, 30.980392%, 30.980392%)" fill-opacity="1" stroke-width="0.708661" stroke-linecap="round" stroke-linejoin="round" stroke="rgb(18.431373%, 30.980392%, 30.980392%)" stroke-opacity="1" stroke-miterlimit="10" d="M 509.335938 70.660156 C 509.335938 74.390625 506.3125 77.417969 502.582031 77.417969 C 498.847656 77.417969 495.824219 74.390625 495.824219 70.660156 C 495.824219 66.929688 498.847656 63.902344 502.582031 63.902344 C 506.3125 63.902344 509.335938 66.929688 509.335938 70.660156 "/>
<path fill-rule="nonzero" fill="rgb(18.431373%, 30.980392%, 30.980392%)" fill-opacity="1" stroke-width="0.708661" stroke-linecap="round" stroke-linejoin="round" stroke="rgb(18.431373%, 30.980392%, 30.980392%)" stroke-opacity="1" stroke-miterlimit="10" d="M 516.386719 196.710938 C 516.386719 200.445312 513.359375 203.46875 509.628906 203.46875 C 505.898438 203.46875 502.875 200.445312 502.875 196.710938 C 502.875 192.980469 505.898438 189.957031 509.628906 189.957031 C 513.359375 189.957031 516.386719 192.980469 516.386719 196.710938 "/>
<path fill-rule="nonzero" fill="rgb(18.431373%, 30.980392%, 30.980392%)" fill-opacity="1" stroke-width="0.708661" stroke-linecap="round" stroke-linejoin="round" stroke="rgb(18.431373%, 30.980392%, 30.980392%)" stroke-opacity="1" stroke-miterlimit="10" d="M 523.433594 208.527344 C 523.433594 212.257812 520.410156 215.285156 516.679688 215.285156 C 512.949219 215.285156 509.921875 212.257812 509.921875 208.527344 C 509.921875 204.796875 512.949219 201.773438 516.679688 201.773438 C 520.410156 201.773438 523.433594 204.796875 523.433594 208.527344 "/>
<path fill-rule="nonzero" fill="rgb(18.431373%, 30.980392%, 30.980392%)" fill-opacity="1" stroke-width="0.708661" stroke-linecap="round" stroke-linejoin="round" stroke="rgb(18.431373%, 30.980392%, 30.980392%)" stroke-opacity="1" stroke-miterlimit="10" d="M 530.484375 77.664062 C 530.484375 81.398438 527.460938 84.421875 523.726562 84.421875 C 519.996094 84.421875 516.972656 81.398438 516.972656 77.664062 C 516.972656 73.933594 519.996094 70.910156 523.726562 70.910156 C 527.460938 70.910156 530.484375 73.933594 530.484375 77.664062 "/>
<path fill-rule="nonzero" fill="rgb(18.431373%, 30.980392%, 30.980392%)" fill-opacity="1" stroke-width="0.708661" stroke-linecap="round" stroke-linejoin="round" stroke="rgb(18.431373%, 30.980392%, 30.980392%)" stroke-opacity="1" stroke-miterlimit="10" d="M 537.535156 184.066406 C 537.535156 187.796875 534.507812 190.824219 530.777344 190.824219 C 527.046875 190.824219 524.019531 187.796875 524.019531 184.066406 C 524.019531 180.335938 527.046875 177.3125 530.777344 177.3125 C 534.507812 177.3125 537.535156 180.335938 537.535156 184.066406 "/>
<path fill-rule="nonzero" fill="rgb(18.431373%, 30.980392%, 30.980392%)" fill-opacity="1" stroke-width="0.708661" stroke-linecap="round" stroke-linejoin="round" stroke="rgb(18.431373%, 30.980392%, 30.980392%)" stroke-opacity="1" stroke-miterlimit="10" d="M 544.582031 156.867188 C 544.582031 160.601562 541.558594 163.625 537.828125 163.625 C 534.09375 163.625 531.070312 160.601562 531.070312 156.867188 C 531.070312 153.136719 534.09375 150.113281 537.828125 150.113281 C 541.558594 150.113281 544.582031 153.136719 544.582031 156.867188 "/>
<path fill-rule="nonzero" fill="rgb(18.431373%, 30.980392%, 30.980392%)" fill-opacity="1" stroke-width="0.708661" stroke-linecap="round" stroke-linejoin="round" stroke="rgb(18.431373%, 30.980392%, 30.980392%)" stroke-opacity="1" stroke-miterlimit="10" d="M 551.632812 195.070312 C 551.632812 198.800781 548.605469 201.828125 544.875 201.828125 C 541.144531 201.828125 538.121094 198.800781 538.121094 195.070312 C 538.121094 191.339844 541.144531 188.3125 544.875 188.3125 C 548.605469 188.3125 551.632812 191.339844 551.632812 195.070312 "/>
<path fill-rule="nonzero" fill="rgb(18.431373%, 30.980392%, 30.980392%)" fill-opacity="1" stroke-width="0.708661" stroke-linecap="round" stroke-linejoin="round" stroke="rgb(18.431373%, 30.980392%, 30.980392%)" stroke-opacity="1" stroke-miterlimit="10" d="M 558.679688 189.851562 C 558.679688 193.582031 555.65625 196.605469 551.925781 196.605469 C 548.195312 196.605469 545.167969 193.582031 545.167969 189.851562 C 545.167969 186.117188 548.195312 183.09375 551.925781 183.09375 C 555.65625 183.09375 558.679688 186.117188 558.679688 189.851562 "/>
<path fill-rule="nonzero" fill="rgb(18.431373%, 30.980392%, 30.980392%)" fill-opacity="1" stroke-width="0.708661" stroke-linecap="round" stroke-linejoin="round" stroke="rgb(18.431373%, 30.980392%, 30.980392%)" stroke-opacity="1" stroke-miterlimit="10" d="M 565.730469 187.761719 C 565.730469 191.496094 562.707031 194.519531 558.972656 194.519531 C 555.242188 194.519531 552.21875 191.496094 552.21875 187.761719 C 552.21875 184.03125 555.242188 181.007812 558.972656 181.007812 C 562.707031 181.007812 565.730469 184.03125 565.730469 187.761719 "/>
<path fill-rule="nonzero" fill="rgb(18.431373%, 30.980392%, 30.980392%)" fill-opacity="1" stroke-width="0.708661" stroke-linecap="round" stroke-linejoin="round" stroke="rgb(18.431373%, 30.980392%, 30.980392%)" stroke-opacity="1" stroke-miterlimit="10" d="M 572.78125 207.171875 C 572.78125 210.90625 569.753906 213.929688 566.023438 213.929688 C 562.292969 213.929688 559.265625 210.90625 559.265625 207.171875 C 559.265625 203.441406 562.292969 200.417969 566.023438 200.417969 C 569.753906 200.417969 572.78125 203.441406 572.78125 207.171875 "/>
<path fill-rule="nonzero" fill="rgb(18.431373%, 30.980392%, 30.980392%)" fill-opacity="1" stroke-width="0.708661" stroke-linecap="round" stroke-linejoin="round" stroke="rgb(18.431373%, 30.980392%, 30.980392%)" stroke-opacity="1" stroke-miterlimit="10" d="M 579.828125 107.980469 C 579.828125 111.710938 576.804688 114.734375 573.074219 114.734375 C 569.339844 114.734375 566.316406 111.710938 566.316406 107.980469 C 566.316406 104.25 569.339844 101.222656 573.074219 101.222656 C 576.804688 101.222656 579.828125 104.25 579.828125 107.980469 "/>
<path fill-rule="nonzero" fill="rgb(18.431373%, 30.980392%, 30.980392%)" fill-opacity="1" stroke-width="0.708661" stroke-linecap="round" stroke-linejoin="round" stroke="rgb(18.431373%, 30.980392%, 30.980392%)" stroke-opacity="1" stroke-miterlimit="10" d="M 586.878906 23.4375 C 586.878906 27.171875 583.851562 30.195312 580.121094 30.195312 C 576.390625 30.195312 573.367188 27.171875 573.367188 23.4375 C 573.367188 19.707031 576.390625 16.683594 580.121094 16.683594 C 583.851562 16.683594 586.878906 19.707031 586.878906 23.4375 "/>
<path fill-rule="nonzero" fill="rgb(18.431373%, 30.980392%, 30.980392%)" fill-opacity="1" stroke-width="0.708661" stroke-linecap="round" stroke-linejoin="round" stroke="rgb(18.431373%, 30.980392%, 30.980392%)" stroke-opacity="1" stroke-miterlimit="10" d="M 593.925781 328.5625 C 593.925781 332.292969 590.902344 335.316406 587.171875 335.316406 C 583.441406 335.316406 580.414062 332.292969 580.414062 328.5625 C 580.414062 324.832031 583.441406 321.804688 587.171875 321.804688 C 590.902344 321.804688 593.925781 324.832031 593.925781 328.5625 "/>
<path fill-rule="nonzero" fill="rgb(18.431373%, 30.980392%, 30.980392%)" fill-opacity="1" stroke-width="0.708661" stroke-linecap="round" stroke-linejoin="round" stroke="rgb(18.431373%, 30.980392%, 30.980392%)" stroke-opacity="1" stroke-miterlimit="10" d="M 600.976562 218.105469 C 600.976562 221.835938 597.953125 224.863281 594.21875 224.863281 C 590.488281 224.863281 587.464844 221.835938 587.464844 218.105469 C 587.464844 214.375 590.488281 211.347656 594.21875 211.347656 C 597.953125 211.347656 600.976562 214.375 600.976562 218.105469 "/>
<path fill-rule="nonzero" fill="rgb(18.431373%, 30.980392%, 30.980392%)" fill-opacity="1" stroke-width="0.708661" stroke-linecap="round" stroke-linejoin="round" stroke="rgb(18.431373%, 30.980392%, 30.980392%)" stroke-opacity="1" stroke-miterlimit="10" d="M 608.027344 120.433594 C 608.027344 124.164062 605 127.1875 601.269531 127.1875 C 597.539062 127.1875 594.511719 124.164062 594.511719 120.433594 C 594.511719 116.699219 597.539062 113.675781 601.269531 113.675781 C 605 113.675781 608.027344 116.699219 608.027344 120.433594 "/>
<path fill-rule="nonzero" fill="rgb(18.431373%, 30.980392%, 30.980392%)" fill-opacity="1" stroke-width="0.708661" stroke-linecap="round" stroke-linejoin="round" stroke="rgb(18.431373%, 30.980392%, 30.980392%)" stroke-opacity="1" stroke-miterlimit="10" d="M 615.074219 252.363281 C 615.074219 256.09375 612.050781 259.121094 608.320312 259.121094 C 604.585938 259.121094 601.5625 256.09375 601.5625 252.363281 C 601.5625 248.632812 604.585938 245.609375 608.320312 245.609375 C 612.050781 245.609375 615.074219 248.632812 615.074219 252.363281 "/>
<path fill-rule="nonzero" fill="rgb(18.431373%, 30.980392%, 30.980392%)" fill-opacity="1" stroke-width="0.708661" stroke-linecap="round" stroke-linejoin="round" stroke="rgb(18.431373%, 30.980392%, 30.980392%)" stroke-opacity="1" stroke-miterlimit="10" d="M 622.125 217 C 622.125 220.730469 619.097656 223.753906 615.367188 223.753906 C 611.636719 223.753906 608.613281 220.730469 608.613281 217 C 608.613281 213.265625 611.636719 210.242188 615.367188 210.242188 C 619.097656 210.242188 622.125 213.265625 622.125 217 "/>
<path fill-rule="nonzero" fill="rgb(18.431373%, 30.980392%, 30.980392%)" fill-opacity="1" stroke-width="0.708661" stroke-linecap="round" stroke-linejoin="round" stroke="rgb(18.431373%, 30.980392%, 30.980392%)" stroke-opacity="1" stroke-miterlimit="10" d="M 629.171875 370.1875 C 629.171875 373.921875 626.148438 376.945312 622.417969 376.945312 C 618.6875 376.945312 615.660156 373.921875 615.660156 370.1875 C 615.660156 366.457031 618.6875 363.433594 622.417969 363.433594 C 626.148438 363.433594 629.171875 366.457031 629.171875 370.1875 "/>
<path fill-rule="nonzero" fill="rgb(18.431373%, 30.980392%, 30.980392%)" fill-opacity="1" stroke-width="0.708661" stroke-linecap="round" stroke-linejoin="round" stroke="rgb(18.431373%, 30.980392%, 30.980392%)" stroke-opacity="1" stroke-miterlimit="10" d="M 636.222656 230.933594 C 636.222656 234.664062 633.199219 237.691406 629.464844 237.691406 C 625.734375 237.691406 622.710938 234.664062 622.710938 230.933594 C 622.710938 227.203125 625.734375 224.175781 629.464844 224.175781 C 633.199219 224.175781 636.222656 227.203125 636.222656 230.933594 "/>
<path fill-rule="nonzero" fill="rgb(18.431373%, 30.980392%, 30.980392%)" fill-opacity="1" stroke-width="0.708661" stroke-linecap="round" stroke-linejoin="round" stroke="rgb(18.431373%, 30.980392%, 30.980392%)" stroke-opacity="1" stroke-miterlimit="10" d="M 643.273438 145.46875 C 643.273438 149.199219 640.246094 152.222656 636.515625 152.222656 C 632.785156 152.222656 629.757812 149.199219 629.757812 145.46875 C 629.757812 141.734375 632.785156 138.710938 636.515625 138.710938 C 640.246094 138.710938 643.273438 141.734375 643.273438 145.46875 "/>
<path fill-rule="nonzero" fill="rgb(18.431373%, 30.980392%, 30.980392%)" fill-opacity="1" stroke-width="0.708661" stroke-linecap="round" stroke-linejoin="round" stroke="rgb(18.431373%, 30.980392%, 30.980392%)" stroke-opacity="1" stroke-miterlimit="10" d="M 650.320312 171.992188 C 650.320312 175.722656 647.296875 178.746094 643.566406 178.746094 C 639.832031 178.746094 636.808594 175.722656 636.808594 171.992188 C 636.808594 168.261719 639.832031 165.234375 643.566406 165.234375 C 647.296875 165.234375 650.320312 168.261719 650.320312 171.992188 "/>
<path fill-rule="nonzero" fill="rgb(18.431373%, 30.980392%, 30.980392%)" fill-opacity="1" stroke-width="0.708661" stroke-linecap="round" stroke-linejoin="round" stroke="rgb(18.431373%, 30.980392%, 30.980392%)" stroke-opacity="1" stroke-miterlimit="10" d="M 657.371094 249.167969 C 657.371094 252.898438 654.34375 255.921875 650.613281 255.921875 C 646.882812 255.921875 643.859375 252.898438 643.859375 249.167969 C 643.859375 245.433594 646.882812 242.410156 650.613281 242.410156 C 654.34375 242.410156 657.371094 245.433594 657.371094 249.167969 "/>
<path fill-rule="nonzero" fill="rgb(18.431373%, 30.980392%, 30.980392%)" fill-opacity="1" stroke-width="0.708661" stroke-linecap="round" stroke-linejoin="round" stroke="rgb(18.431373%, 30.980392%, 30.980392%)" stroke-opacity="1" stroke-miterlimit="10" d="M 664.417969 169.171875 C 664.417969 172.902344 661.394531 175.929688 657.664062 175.929688 C 653.933594 175.929688 650.90625 172.902344 650.90625 169.171875 C 650.90625 165.441406 653.933594 162.417969 657.664062 162.417969 C 661.394531 162.417969 664.417969 165.441406 664.417969 169.171875 "/>
<path fill-rule="nonzero" fill="rgb(18.431373%, 30.980392%, 30.980392%)" fill-opacity="1" stroke-width="0.708661" stroke-linecap="round" stroke-linejoin="round" stroke="rgb(18.431373%, 30.980392%, 30.980392%)" stroke-opacity="1" stroke-miterlimit="10" d="M 671.46875 83.714844 C 671.46875 87.445312 668.445312 90.472656 664.710938 90.472656 C 660.980469 90.472656 657.957031 87.445312 657.957031 83.714844 C 657.957031 79.984375 660.980469 76.957031 664.710938 76.957031 C 668.445312 76.957031 671.46875 79.984375 671.46875 83.714844 "/>
<path fill-rule="nonzero" fill="rgb(18.431373%, 30.980392%, 30.980392%)" fill-opacity="1" stroke-width="0.708661" stroke-linecap="round" stroke-linejoin="round" stroke="rgb(18.431373%, 30.980392%, 30.980392%)" stroke-opacity="1" stroke-miterlimit="10" d="M 678.519531 383.078125 C 678.519531 386.808594 675.492188 389.835938 671.761719 389.835938 C 668.03125 389.835938 665.003906 386.808594 665.003906 383.078125 C 665.003906 379.347656 668.03125 376.324219 671.761719 376.324219 C 675.492188 376.324219 678.519531 379.347656 678.519531 383.078125 "/>
<path fill-rule="nonzero" fill="rgb(18.431373%, 30.980392%, 30.980392%)" fill-opacity="1" stroke-width="0.708661" stroke-linecap="round" stroke-linejoin="round" stroke="rgb(18.431373%, 30.980392%, 30.980392%)" stroke-opacity="1" stroke-miterlimit="10" d="M 685.566406 86.503906 C 685.566406 90.234375 682.542969 93.257812 678.8125 93.257812 C 675.078125 93.257812 672.054688 90.234375 672.054688 86.503906 C 672.054688 82.769531 675.078125 79.746094 678.8125 79.746094 C 682.542969 79.746094 685.566406 82.769531 685.566406 86.503906 "/>
<path fill-rule="nonzero" fill="rgb(18.431373%, 30.980392%, 30.980392%)" fill-opacity="1" stroke-width="0.708661" stroke-linecap="round" stroke-linejoin="round" stroke="rgb(18.431373%, 30.980392%, 30.980392%)" stroke-opacity="1" stroke-miterlimit="10" d="M 692.617188 169.613281 C 692.617188 173.34375 689.589844 176.367188 685.859375 176.367188 C 682.128906 176.367188 679.105469 173.34375 679.105469 169.613281 C 679.105469 165.882812 682.128906 162.855469 685.859375 162.855469 C 689.589844 162.855469 692.617188 165.882812 692.617188 169.613281 "/>
<path fill-rule="nonzero" fill="rgb(18.431373%, 30.980392%, 30.980392%)" fill-opacity="1" stroke-width="0.708661" stroke-linecap="round" stroke-linejoin="round" stroke="rgb(18.431373%, 30.980392%, 30.980392%)" stroke-opacity="1" stroke-miterlimit="10" d="M 699.664062 220.257812 C 699.664062 223.988281 696.640625 227.015625 692.910156 227.015625 C 689.179688 227.015625 686.152344 223.988281 686.152344 220.257812 C 686.152344 216.527344 689.179688 213.503906 692.910156 213.503906 C 696.640625 213.503906 699.664062 216.527344 699.664062 220.257812 "/>
<path fill-rule="nonzero" fill="rgb(18.431373%, 30.980392%, 30.980392%)" fill-opacity="1" stroke-width="0.708661" stroke-linecap="round" stroke-linejoin="round" stroke="rgb(18.431373%, 30.980392%, 30.980392%)" stroke-opacity="1" stroke-miterlimit="10" d="M 706.714844 213.410156 C 706.714844 217.140625 703.691406 220.167969 699.957031 220.167969 C 696.226562 220.167969 693.203125 217.140625 693.203125 213.410156 C 693.203125 209.679688 696.226562 206.652344 699.957031 206.652344 C 703.691406 206.652344 706.714844 209.679688 706.714844 213.410156 "/>
<path fill-rule="nonzero" fill="rgb(18.431373%, 30.980392%, 30.980392%)" fill-opacity="1" stroke-width="0.708661" stroke-linecap="round" stroke-linejoin="round" stroke="rgb(18.431373%, 30.980392%, 30.980392%)" stroke-opacity="1" stroke-miterlimit="10" d="M 713.765625 218.644531 C 713.765625 222.375 710.738281 225.398438 707.007812 225.398438 C 703.277344 225.398438 700.25 222.375 700.25 218.644531 C 700.25 214.914062 703.277344 211.886719 707.007812 211.886719 C 710.738281 211.886719 713.765625 214.914062 713.765625 218.644531 "/>
<path fill-rule="nonzero" fill="rgb(18.431373%, 30.980392%, 30.980392%)" fill-opacity="1" stroke-width="0.708661" stroke-linecap="round" stroke-linejoin="round" stroke="rgb(18.431373%, 30.980392%, 30.980392%)" stroke-opacity="1" stroke-miterlimit="10" d="M 720.8125 313.167969 C 720.8125 316.898438 717.789062 319.925781 714.058594 319.925781 C 710.324219 319.925781 707.300781 316.898438 707.300781 313.167969 C 707.300781 309.4375 710.324219 306.414062 714.058594 306.414062 C 717.789062 306.414062 720.8125 309.4375 720.8125 313.167969 "/>
<path fill-rule="nonzero" fill="rgb(18.431373%, 30.980392%, 30.980392%)" fill-opacity="1" stroke-width="0.708661" stroke-linecap="round" stroke-linejoin="round" stroke="rgb(18.431373%, 30.980392%, 30.980392%)" stroke-opacity="1" stroke-miterlimit="10" d="M 727.863281 268.769531 C 727.863281 272.5 724.835938 275.527344 721.105469 275.527344 C 717.375 275.527344 714.351562 272.5 714.351562 268.769531 C 714.351562 265.039062 717.375 262.011719 721.105469 262.011719 C 724.835938 262.011719 727.863281 265.039062 727.863281 268.769531 "/>
<path fill="none" stroke-width="6.40187" stroke-linecap="butt" stroke-linejoin="round" stroke="rgb(94.117647%, 50.196078%, 50.196078%)" stroke-opacity="1" stroke-miterlimit="10" d="M 23.234375 327.066406 L 32.066406 325.121094 L 40.902344 323.171875 L 49.734375 321.226562 L 58.570312 319.28125 L 67.402344 317.332031 L 76.238281 315.386719 L 85.070312 313.441406 L 93.902344 311.492188 L 102.738281 309.546875 L 111.570312 307.601562 L 120.40625 305.652344 L 129.238281 303.707031 L 138.074219 301.761719 L 146.90625 299.8125 L 155.742188 297.867188 L 164.574219 295.921875 L 173.410156 293.972656 L 182.242188 292.027344 L 191.078125 290.082031 L 199.910156 288.136719 L 208.742188 286.1875 L 217.578125 284.242188 L 226.410156 282.296875 L 235.246094 280.347656 L 244.078125 278.402344 L 252.914062 276.457031 L 261.746094 274.507812 L 270.582031 272.5625 L 279.414062 270.617188 L 288.25 268.667969 L 297.082031 266.722656 L 305.917969 264.777344 L 314.75 262.828125 L 323.582031 260.882812 L 332.417969 258.9375 L 341.25 256.988281 L 350.085938 255.042969 L 358.917969 253.097656 L 367.753906 251.148438 L 376.585938 249.203125 L 385.421875 247.257812 L 394.253906 245.308594 L 403.089844 243.363281 L 411.921875 241.417969 L 420.757812 239.472656 L 429.589844 237.523438 L 438.421875 235.578125 L 447.257812 233.632812 L 456.089844 231.683594 L 464.925781 229.738281 L 473.757812 227.792969 L 482.59375 225.84375 L 491.425781 223.898438 L 500.261719 221.953125 L 509.09375 220.003906 L 517.929688 218.058594 L 526.761719 216.113281 L 535.597656 214.164062 L 553.261719 210.273438 L 562.097656 208.324219 L 570.929688 206.378906 L 579.765625 204.433594 L 588.597656 202.484375 L 597.433594 200.539062 L 606.265625 198.59375 L 615.101562 196.644531 L 623.933594 194.699219 L 632.769531 192.753906 L 641.601562 190.808594 L 650.4375 188.859375 L 668.101562 184.96875 L 676.9375 183.019531 L 685.769531 181.074219 L 694.605469 179.128906 L 703.4375 177.179688 L 712.273438 175.234375 L 721.105469 173.289062 "/>
</svg>
