<?xml version="1.0" encoding="UTF-8"?>
<svg xmlns="http://www.w3.org/2000/svg" xmlns:xlink="http://www.w3.org/1999/xlink" width="756" height="504" viewBox="0 0 756 504">
<rect x="-75.6" y="-50.4" width="907.2" height="604.8" fill="rgb(100%, 100%, 100%)" fill-opacity="1"/>
<path fill-rule="nonzero" fill="rgb(18.431373%, 30.980392%, 30.980392%)" fill-opacity="1" stroke-width="0.708661" stroke-linecap="round" stroke-linejoin="round" stroke="rgb(18.431373%, 30.980392%, 30.980392%)" stroke-opacity="1" stroke-miterlimit="10" d="M 29.988281 429.984375 C 29.988281 433.714844 26.964844 436.742188 23.234375 436.742188 C 19.503906 436.742188 16.476562 433.714844 16.476562 429.984375 C 16.476562 426.253906 19.503906 423.226562 23.234375 423.226562 C 26.964844 423.226562 29.988281 426.253906 29.988281 429.984375 "/>
<path fill-rule="nonzero" fill="rgb(18.431373%, 30.980392%, 30.980392%)" fill-opacity="1" stroke-width="0.708661" stroke-linecap="round" stroke-linejoin="round" stroke="rgb(18.431373%, 30.980392%, 30.980392%)" stroke-opacity="1" stroke-miterlimit="10" d="M 37.039062 279.414062 C 37.039062 283.148438 34.015625 286.171875 30.28125 286.171875 C 26.550781 286.171875 23.527344 283.148438 23.527344 279.414062 C 23.527344 275.683594 26.550781 272.660156 30.28125 272.660156 C 34.015625 272.660156 37.039062 275.683594 37.039062 279.414062 "/>
<path fill-rule="nonzero" fill="rgb(18.431373%, 30.980392%, 30.980392%)" fill-opacity="1" stroke-width="0.708661" stroke-linecap="round" stroke-linejoin="round" stroke="rgb(18.431373%, 30.980392%, 30.980392%)" stroke-opacity="1" stroke-miterlimit="10" d="M 44.089844 409.460938 C 44.089844 413.191406 41.0625 416.21875 37.332031 416.21875 C 33.601562 416.21875 30.574219 413.191406 30.574219 409.460938 C 30.574219 405.730469 33.601562 402.707031 37.332031 402.707031 C 41.0625 402.707031 44.089844 405.730469 44.089844 409.460938 "/>
<path fill-rule="nonzero" fill="rgb(18.431373%, 30.980392%, 30.980392%)" fill-opacity="1" stroke-width="0.708661" stroke-linecap="round" stroke-linejoin="round" stroke="rgb(18.431373%, 30.980392%, 30.980392%)" stroke-opacity="1" stroke-miterlimit="10" d="M 51.136719 445.988281 C 51.136719 449.71875 48.113281 452.746094 44.382812 452.746094 C 40.648438 452.746094 37.625 449.71875 37.625 445.988281 C 37.625 442.257812 40.648438 439.234375 44.382812 439.234375 C 48.113281 439.234375 51.136719 442.257812 51.136719 445.988281 "/>
<path fill-rule="nonzero" fill="rgb(18.431373%, 30.980392%, 30.980392%)" fill-opacity="1" stroke-width="0.708661" stroke-linecap="round" stroke-linejoin="round" stroke="rgb(18.431373%, 30.980392%, 30.980392%)" stroke-opacity="1" stroke-miterlimit="10" d="M 58.1875 367.46875 C 58.1875 371.199219 55.160156 374.226562 51.429688 374.226562 C 47.699219 374.226562 44.675781 371.199219 44.675781 367.46875 C 44.675781 363.738281 47.699219 360.714844 51.429688 360.714844 C 55.160156 360.714844 58.1875 363.738281 58.1875 367.46875 "/>
<path fill-rule="nonzero" fill="rgb(18.431373%, 30.980392%, 30.980392%)" fill-opacity="1" stroke-width="0.708661" stroke-linecap="round" stroke-linejoin="round" stroke="rgb(18.431373%, 30.980392%, 30.980392%)" stroke-opacity="1" stroke-miterlimit="10" d="M 65.234375 320.996094 C 65.234375 324.726562 62.210938 327.753906 58.480469 327.753906 C 54.75 327.753906 51.722656 324.726562 51.722656 320.996094 C 51.722656 317.265625 54.75 314.242188 58.480469 314.242188 C 62.210938 314.242188 65.234375 317.265625 65.234375 320.996094 "/>
<path fill-rule="nonzero" fill="rgb(18.431373%, 30.980392%, 30.980392%)" fill-opacity="1" stroke-width="0.708661" stroke-linecap="round" stroke-linejoin="round" stroke="rgb(18.431373%, 30.980392%, 30.980392%)" stroke-opacity="1" stroke-miterlimit="10" d="M 72.285156 476.929688 C 72.285156 480.660156 69.261719 483.6875 65.527344 483.6875 C 61.796875 483.6875 58.773438 480.660156 58.773438 476.929688 C 58.773438 473.199219 61.796875 470.171875 65.527344 470.171875 C 69.261719 470.171875 72.285156 473.199219 72.285156 476.929688 "/>
<path fill-rule="nonzero" fill="rgb(18.431373%, 30.980392%, 30.980392%)" fill-opacity="1" stroke-width="0.708661" stroke-linecap="round" stroke-linejoin="round" stroke="rgb(18.431373%, 30.980392%, 30.980392%)" stroke-opacity="1" stroke-miterlimit="10" d="M 79.335938 321.941406 C 79.335938 325.671875 76.308594 328.695312 72.578125 328.695312 C 68.847656 328.695312 65.820312 325.671875 65.820312 321.941406 C 65.820312 318.207031 68.847656 315.183594 72.578125 315.183594 C 76.308594 315.183594 79.335938 318.207031 79.335938 321.941406 "/>
<path fill-rule="nonzero" fill="rgb(18.431373%, 30.980392%, 30.980392%)" fill-opacity="1" stroke-width="0.708661" stroke-linecap="round" stroke-linejoin="round" stroke="rgb(18.431373%, 30.980392%, 30.980392%)" stroke-opacity="1" stroke-miterlimit="10" d="M 86.382812 282.039062 C 86.382812 285.769531 83.359375 288.792969 79.628906 288.792969 C 75.894531 288.792969 72.871094 285.769531 72.871094 282.039062 C 72.871094 278.304688 75.894531 275.28125 79.628906 275.28125 C 83.359375 275.28125 86.382812 278.304688 86.382812 282.039062 "/>
<path fill-rule="nonzero" fill="rgb(18.431373%, 30.980392%, 30.980392%)" fill-opacity="1" stroke-width="0.708661" stroke-linecap="round" stroke-linejoin="round" stroke="rgb(18.431373%, 30.980392%, 30.980392%)" stroke-opacity="1" stroke-miterlimit="10" d="M 93.433594 310.398438 C 93.433594 314.128906 90.40625 317.152344 86.675781 317.152344 C 82.945312 317.152344 79.921875 314.128906 79.921875 310.398438 C 79.921875 306.667969 82.945312 303.640625 86.675781 303.640625 C 90.40625 303.640625 93.433594 306.667969 93.433594 310.398438 "/>
<path fill-rule="nonzero" fill="rgb(18.431373%, 30.980392%, 30.980392%)" fill-opacity="1" stroke-width="0.708661" stroke-linecap="round" stroke-linejoin="round" stroke="rgb(18.431373%, 30.980392%, 30.980392%)" stroke-opacity="1" stroke-miterlimit="10" d="M 100.480469 306.195312 C 100.480469 309.929688 97.457031 312.953125 93.726562 312.953125 C 89.996094 312.953125 86.96875 309.929688 86.96875 306.195312 C 86.96875 302.464844 89.996094 299.441406 93.726562 299.441406 C 97.457031 299.441406 100.480469 302.464844 100.480469 306.195312 "/>
<path fill-rule="nonzero" fill="rgb(18.431373%, 30.980392%, 30.980392%)" fill-opacity="1" stroke-width="0.708661" stroke-linecap="round" stroke-linejoin="round" stroke="rgb(18.431373%, 30.980392%, 30.980392%)" stroke-opacity="1" stroke-miterlimit="10" d="M 107.53125 455.691406 C 107.53125 459.421875 104.507812 462.445312 100.773438 462.445312 C 97.042969 462.445312 94.019531 459.421875 94.019531 455.691406 C 94.019531 451.960938 97.042969 448.933594 100.773438 448.933594 C 104.507812 448.933594 107.53125 451.960938 107.53125 455.691406 "/>
<path fill-rule="nonzero" fill="rgb(18.431373%, 30.980392%, 30.980392%)" fill-opacity="1" stroke-width="0.708661" stroke-linecap="round" stroke-linejoin="round" stroke="rgb(18.431373%, 30.980392%, 30.980392%)" stroke-opacity="1" stroke-miterlimit="10" d="M 114.582031 330.59375 C 114.582031 334.328125 111.554688 337.351562 107.824219 337.351562 C 104.09375 337.351562 101.066406 334.328125 101.066406 330.59375 C 101.066406 326.863281 104.09375 323.839844 107.824219 323.839844 C 111.554688 323.839844 114.582031 326.863281 114.582031 330.59375 "/>
<path fill-rule="nonzero" fill="rgb(18.431373%, 30.980392%, 30.980392%)" fill-opacity="1" stroke-width="0.708661" stroke-linecap="round" stroke-linejoin="round" stroke="rgb(18.431373%, 30.980392%, 30.980392%)" stroke-opacity="1" stroke-miterlimit="10" d="M 121.628906 343.230469 C 121.628906 346.960938 118.605469 349.988281 114.875 349.988281 C 111.140625 349.988281 108.117188 346.960938 108.117188 343.230469 C 108.117188 339.5 111.140625 336.476562 114.875 336.476562 C 118.605469 336.476562 121.628906 339.5 121.628906 343.230469 "/>
<path fill-rule="nonzero" fill="rgb(18.431373%, 30.980392%, 30.980392%)" fill-opacity="1" stroke-width="0.708661" stroke-linecap="round" stroke-linejoin="round" stroke="rgb(18.431373%, 30.980392%, 30.980392%)" stroke-opacity="1" stroke-miterlimit="10" d="M 128.679688 391.351562 C 128.679688 395.082031 125.652344 398.105469 121.921875 398.105469 C 118.191406 398.105469 115.167969 395.082031 115.167969 391.351562 C 115.167969 387.621094 118.191406 384.59375 121.921875 384.59375 C 125.652344 384.59375 128.679688 387.621094 128.679688 391.351562 "/>
<path fill-rule="nonzero" fill="rgb(18.431373%, 30.980392%, 30.980392%)" fill-opacity="1" stroke-width="0.708661" stroke-linecap="round" stroke-linejoin="round" stroke="rgb(18.431373%, 30.980392%, 30.980392%)" stroke-opacity="1" stroke-miterlimit="10" d="M 135.726562 468.714844 C 135.726562 472.445312 132.703125 475.46875 128.972656 475.46875 C 125.242188 475.46875 122.214844 472.445312 122.214844 468.714844 C 122.214844 464.984375 125.242188 461.957031 128.972656 461.957031 C 132.703125 461.957031 135.726562 464.984375 135.726562 468.714844 "/>
<path fill-rule="nonzero" fill="rgb(18.431373%, 30.980392%, 30.980392%)" fill-opacity="1" stroke-width="0.708661" stroke-linecap="round" stroke-linejoin="round" stroke="rgb(18.431373%, 30.980392%, 30.980392%)" stroke-opacity="1" stroke-miterlimit="10" d="M 142.777344 492.222656 C 142.777344 495.953125 139.753906 498.976562 136.019531 498.976562 C 132.289062 498.976562 129.265625 495.953125 129.265625 492.222656 C 129.265625 488.488281 132.289062 485.464844 136.019531 485.464844 C 139.753906 485.464844 142.777344 488.488281 142.777344 492.222656 "/>
<path fill-rule="nonzero" fill="rgb(18.431373%, 30.980392%, 30.980392%)" fill-opacity="1" stroke-width="0.708661" stroke-linecap="round" stroke-linejoin="round" stroke="rgb(18.431373%, 30.980392%, 30.980392%)" stroke-opacity="1" stroke-miterlimit="10" d="M 149.828125 322.980469 C 149.828125 326.714844 146.800781 329.738281 143.070312 329.738281 C 139.339844 329.738281 136.3125 326.714844 136.3125 322.980469 C 136.3125 319.25 139.339844 316.226562 143.070312 316.226562 C 146.800781 316.226562 149.828125 319.25 149.828125 322.980469 "/>
<path fill-rule="nonzero" fill="rgb(18.431373%, 30.980392%, 30.980392%)" fill-opacity="1" stroke-width="0.708661" stroke-linecap="round" stroke-linejoin="round" stroke="rgb(18.431373%, 30.980392%, 30.980392%)" stroke-opacity="1" stroke-miterlimit="10" d="M 156.875 309.375 C 156.875 313.105469 153.851562 316.128906 150.121094 316.128906 C 146.386719 316.128906 143.363281 313.105469 143.363281 309.375 C 143.363281 305.640625 146.386719 302.617188 150.121094 302.617188 C 153.851562 302.617188 156.875 305.640625 156.875 309.375 "/>
<path fill-rule="nonzero" fill="rgb(18.431373%, 30.980392%, 30.980392%)" fill-opacity="1" stroke-width="0.708661" stroke-linecap="round" stroke-linejoin="round" stroke="rgb(18.431373%, 30.980392%, 30.980392%)" stroke-opacity="1" stroke-miterlimit="10" d="M 163.925781 369.683594 C 163.925781 373.414062 160.898438 376.441406 157.167969 376.441406 C 153.4375 376.441406 150.414062 373.414062 150.414062 369.683594 C 150.414062 365.953125 153.4375 362.929688 157.167969 362.929688 C 160.898438 362.929688 163.925781 365.953125 163.925781 369.683594 "/>
<path fill-rule="nonzero" fill="rgb(18.431373%, 30.980392%, 30.980392%)" fill-opacity="1" stroke-width="0.708661" stroke-linecap="round" stroke-linejoin="round" stroke="rgb(18.431373%, 30.980392%, 30.980392%)" stroke-opacity="1" stroke-miterlimit="10" d="M 170.972656 295.34375 C 170.972656 299.074219 167.949219 302.097656 164.21875 302.097656 C 160.488281 302.097656 157.460938 299.074219 157.460938 295.34375 C 157.460938 291.613281 160.488281 288.585938 164.21875 288.585938 C 167.949219 288.585938 170.972656 291.613281 170.972656 295.34375 "/>
<path fill-rule="nonzero" fill="rgb(18.431373%, 30.980392%, 30.980392%)" fill-opacity="1" stroke-width="0.708661" stroke-linecap="round" stroke-linejoin="round" stroke="rgb(18.431373%, 30.980392%, 30.980392%)" stroke-opacity="1" stroke-miterlimit="10" d="M 178.023438 275.558594 C 178.023438 279.289062 175 282.3125 171.265625 282.3125 C 167.535156 282.3125 164.511719 279.289062 164.511719 275.558594 C 164.511719 271.828125 167.535156 268.800781 171.265625 268.800781 C 175 268.800781 178.023438 271.828125 178.023438 275.558594 "/>
<path fill-rule="nonzero" fill="rgb(18.431373%, 30.980392%, 30.980392%)" fill-opacity="1" stroke-width="0.708661" stroke-linecap="round" stroke-linejoin="round" stroke="rgb(18.431373%, 30.980392%, 30.980392%)" stroke-opacity="1" stroke-miterlimit="10" d="M 185.074219 287.34375 C 185.074219 291.074219 182.046875 294.097656 178.316406 294.097656 C 174.585938 294.097656 171.558594 291.074219 171.558594 287.34375 C 171.558594 283.609375 174.585938 280.585938 178.316406 280.585938 C 182.046875 280.585938 185.074219 283.609375 185.074219 287.34375 "/>
<path fill-rule="nonzero" fill="rgb(18.431373%, 30.980392%, 30.980392%)" fill-opacity="1" stroke-width="0.708661" stroke-linecap="round" stroke-linejoin="round" stroke="rgb(18.431373%, 30.980392%, 30.980392%)" stroke-opacity="1" stroke-miterlimit="10" d="M 192.121094 249.871094 C 192.121094 253.601562 189.097656 256.625 185.367188 256.625 C 181.632812 256.625 178.609375 253.601562 178.609375 249.871094 C 178.609375 246.140625 181.632812 243.113281 185.367188 243.113281 C 189.097656 243.113281 192.121094 246.140625 192.121094 249.871094 "/>
<path fill-rule="nonzero" fill="rgb(18.431373%, 30.980392%, 30.980392%)" fill-opacity="1" stroke-width="0.708661" stroke-linecap="round" stroke-linejoin="round" stroke="rgb(18.431373%, 30.980392%, 30.980392%)" stroke-opacity="1" stroke-miterlimit="10" d="M 199.171875 437.578125 C 199.171875 441.308594 196.144531 444.335938 192.414062 444.335938 C 188.683594 444.335938 185.660156 441.308594 185.660156 437.578125 C 185.660156 433.847656 188.683594 430.824219 192.414062 430.824219 C 196.144531 430.824219 199.171875 433.847656 199.171875 437.578125 "/>
<path fill-rule="nonzero" fill="rgb(18.431373%, 30.980392%, 30.980392%)" fill-opacity="1" stroke-width="0.708661" stroke-linecap="round" stroke-linejoin="round" stroke="rgb(18.431373%, 30.980392%, 30.980392%)" stroke-opacity="1" stroke-miterlimit="10" d="M 206.21875 265.828125 C 206.21875 269.558594 203.195312 272.585938 199.464844 272.585938 C 195.734375 272.585938 192.707031 269.558594 192.707031 265.828125 C 192.707031 262.097656 195.734375 259.070312 199.464844 259.070312 C 203.195312 259.070312 206.21875 262.097656 206.21875 265.828125 "/>
<path fill-rule="nonzero" fill="rgb(18.431373%, 30.980392%, 30.980392%)" fill-opacity="1" stroke-width="0.708661" stroke-linecap="round" stroke-linejoin="round" stroke="rgb(18.431373%, 30.980392%, 30.980392%)" stroke-opacity="1" stroke-miterlimit="10" d="M 213.269531 238.136719 C 213.269531 241.867188 210.246094 244.890625 206.511719 244.890625 C 202.78125 244.890625 199.757812 241.867188 199.757812 238.136719 C 199.757812 234.40625 202.78125 231.378906 206.511719 231.378906 C 210.246094 231.378906 213.269531 234.40625 213.269531 238.136719 "/>
<path fill-rule="nonzero" fill="rgb(18.431373%, 30.980392%, 30.980392%)" fill-opacity="1" stroke-width="0.708661" stroke-linecap="round" stroke-linejoin="round" stroke="rgb(18.431373%, 30.980392%, 30.980392%)" stroke-opacity="1" stroke-miterlimit="10" d="M 220.320312 244.683594 C 220.320312 248.414062 217.292969 251.4375 213.5625 251.4375 C 209.832031 251.4375 206.804688 248.414062 206.804688 244.683594 C 206.804688 240.953125 209.832031 237.925781 213.5625 237.925781 C 217.292969 237.925781 220.320312 240.953125 220.320312 244.683594 "/>
<path fill-rule="nonzero" fill="rgb(18.431373%, 30.980392%, 30.980392%)" fill-opacity="1" stroke-width="0.708661" stroke-linecap="round" stroke-linejoin="round" stroke="rgb(18.431373%, 30.980392%, 30.980392%)" stroke-opacity="1" stroke-miterlimit="10" d="M 227.367188 210.105469 C 227.367188 213.839844 224.34375 216.863281 220.613281 216.863281 C 216.878906 216.863281 213.855469 213.839844 213.855469 210.105469 C 213.855469 206.375 216.878906 203.351562 220.613281 203.351562 C 224.34375 203.351562 227.367188 206.375 227.367188 210.105469 "/>
<path fill-rule="nonzero" fill="rgb(18.431373%, 30.980392%, 30.980392%)" fill-opacity="1" stroke-width="0.708661" stroke-linecap="round" stroke-linejoin="round" stroke="rgb(18.431373%, 30.980392%, 30.980392%)" stroke-opacity="1" stroke-miterlimit="10" d="M 234.417969 292.292969 C 234.417969 296.023438 231.390625 299.046875 227.660156 299.046875 C 223.929688 299.046875 220.90625 296.023438 220.90625 292.292969 C 220.90625 288.558594 223.929688 285.535156 227.660156 285.535156 C 231.390625 285.535156 234.417969 288.558594 234.417969 292.292969 "/>
<path fill-rule="nonzero" fill="rgb(18.431373%, 30.980392%, 30.980392%)" fill-opacity="1" stroke-width="0.708661" stroke-linecap="round" stroke-linejoin="round" stroke="rgb(18.431373%, 30.980392%, 30.980392%)" stroke-opacity="1" stroke-miterlimit="10" d="M 241.464844 287.035156 C 241.464844 290.769531 238.441406 293.792969 234.710938 293.792969 C 230.980469 293.792969 227.953125 290.769531 227.953125 287.035156 C 227.953125 283.304688 230.980469 280.28125 234.710938 280.28125 C 238.441406 280.28125 241.464844 283.304688 241.464844 287.035156 "/>
<path fill-rule="nonzero" fill="rgb(18.431373%, 30.980392%, 30.980392%)" fill-opacity="1" stroke-width="0.708661" stroke-linecap="round" stroke-linejoin="round" stroke="rgb(18.431373%, 30.980392%, 30.980392%)" stroke-opacity="1" stroke-miterlimit="10" d="M 248.515625 151.574219 C 248.515625 155.308594 245.492188 158.332031 241.757812 158.332031 C 238.027344 158.332031 235.003906 155.308594 235.003906 151.574219 C 235.003906 147.84375 238.027344 144.820312 241.757812 144.820312 C 245.492188 144.820312 248.515625 147.84375 248.515625 151.574219 "/>
<path fill-rule="nonzero" fill="rgb(18.431373%, 30.980392%, 30.980392%)" fill-opacity="1" stroke-width="0.708661" stroke-linecap="round" stroke-linejoin="round" stroke="rgb(18.431373%, 30.980392%, 30.980392%)" stroke-opacity="1" stroke-miterlimit="10" d="M 255.566406 377.222656 C 255.566406 380.953125 252.539062 383.976562 248.808594 383.976562 C 245.078125 383.976562 242.050781 380.953125 242.050781 377.222656 C 242.050781 373.492188 245.078125 370.464844 248.808594 370.464844 C 252.539062 370.464844 255.566406 373.492188 255.566406 377.222656 "/>
<path fill-rule="nonzero" fill="rgb(18.431373%, 30.980392%, 30.980392%)" fill-opacity="1" stroke-width="0.708661" stroke-linecap="round" stroke-linejoin="round" stroke="rgb(18.431373%, 30.980392%, 30.980392%)" stroke-opacity="1" stroke-miterlimit="10" d="M 262.613281 366.269531 C 262.613281 370 259.589844 373.027344 255.859375 373.027344 C 252.125 373.027344 249.101562 370 249.101562 366.269531 C 249.101562 362.539062 252.125 359.515625 255.859375 359.515625 C 259.589844 359.515625 262.613281 362.539062 262.613281 366.269531 "/>
<path fill-rule="nonzero" fill="rgb(18.431373%, 30.980392%, 30.980392%)" fill-opacity="1" stroke-width="0.708661" stroke-linecap="round" stroke-linejoin="round" stroke="rgb(18.431373%, 30.980392%, 30.980392%)" stroke-opacity="1" stroke-miterlimit="10" d="M 269.664062 355.570312 C 269.664062 359.300781 266.636719 362.328125 262.90625 362.328125 C 259.175781 362.328125 256.152344 359.300781 256.152344 355.570312 C 256.152344 351.839844 259.175781 348.8125 262.90625 348.8125 C 266.636719 348.8125 269.664062 351.839844 269.664062 355.570312 "/>
<path fill-rule="nonzero" fill="rgb(18.431373%, 30.980392%, 30.980392%)" fill-opacity="1" stroke-width="0.708661" stroke-linecap="round" stroke-linejoin="round" stroke="rgb(18.431373%, 30.980392%, 30.980392%)" stroke-opacity="1" stroke-miterlimit="10" d="M 276.710938 386.578125 C 276.710938 390.308594 273.6875 393.332031 269.957031 393.332031 C 266.226562 393.332031 263.199219 390.308594 263.199219 386.578125 C 263.199219 382.847656 266.226562 379.820312 269.957031 379.820312 C 273.6875 379.820312 276.710938 382.847656 276.710938 386.578125 "/>
<path fill-rule="nonzero" fill="rgb(18.431373%, 30.980392%, 30.980392%)" fill-opacity="1" stroke-width="0.708661" stroke-linecap="round" stroke-linejoin="round" stroke="rgb(18.431373%, 30.980392%, 30.980392%)" stroke-opacity="1" stroke-miterlimit="10" d="M 283.761719 354.675781 C 283.761719 358.410156 280.738281 361.433594 277.003906 361.433594 C 273.273438 361.433594 270.25 358.410156 270.25 354.675781 C 270.25 350.945312 273.273438 347.921875 277.003906 347.921875 C 280.738281 347.921875 283.761719 350.945312 283.761719 354.675781 "/>
<path fill-rule="nonzero" fill="rgb(18.431373%, 30.980392%, 30.980392%)" fill-opacity="1" stroke-width="0.708661" stroke-linecap="round" stroke-linejoin="round" stroke="rgb(18.431373%, 30.980392%, 30.980392%)" stroke-opacity="1" stroke-miterlimit="10" d="M 290.8125 311.90625 C 290.8125 315.636719 287.785156 318.660156 284.054688 318.660156 C 280.324219 318.660156 277.296875 315.636719 277.296875 311.90625 C 277.296875 308.171875 280.324219 305.148438 284.054688 305.148438 C 287.785156 305.148438 290.8125 308.171875 290.8125 311.90625 "/>
<path fill-rule="nonzero" fill="rgb(18.431373%, 30.980392%, 30.980392%)" fill-opacity="1" stroke-width="0.708661" stroke-linecap="round" stroke-linejoin="round" stroke="rgb(18.431373%, 30.980392%, 30.980392%)" stroke-opacity="1" stroke-miterlimit="10" d="M 297.859375 353.050781 C 297.859375 356.78125 294.835938 359.804688 291.105469 359.804688 C 287.371094 359.804688 284.347656 356.78125 284.347656 353.050781 C 284.347656 349.316406 287.371094 346.292969 291.105469 346.292969 C 294.835938 346.292969 297.859375 349.316406 297.859375 353.050781 "/>
<path fill-rule="nonzero" fill="rgb(18.431373%, 30.980392%, 30.980392%)" fill-opacity="1" stroke-width="0.708661" stroke-linecap="round" stroke-linejoin="round" stroke="rgb(18.431373%, 30.980392%, 30.980392%)" stroke-opacity="1" stroke-miterlimit="10" d="M 304.910156 311.292969 C 304.910156 315.023438 301.882812 318.046875 298.152344 318.046875 C 294.421875 318.046875 291.398438 315.023438 291.398438 311.292969 C 291.398438 307.558594 294.421875 304.535156 298.152344 304.535156 C 301.882812 304.535156 304.910156 307.558594 304.910156 311.292969 "/>
<path fill-rule="nonzero" fill="rgb(18.431373%, 30.980392%, 30.980392%)" fill-opacity="1" stroke-width="0.708661" stroke-linecap="round" stroke-linejoin="round" stroke="rgb(18.431373%, 30.980392%, 30.980392%)" stroke-opacity="1" stroke-miterlimit="10" d="M 311.957031 298.386719 C 311.957031 302.121094 308.933594 305.144531 305.203125 305.144531 C 301.472656 305.144531 298.445312 302.121094 298.445312 298.386719 C 298.445312 294.65625 301.472656 291.632812 305.203125 291.632812 C 308.933594 291.632812 311.957031 294.65625 311.957031 298.386719 "/>
<path fill-rule="nonzero" fill="rgb(18.431373%, 30.980392%, 30.980392%)" fill-opacity="1" stroke-width="0.708661" stroke-linecap="round" stroke-linejoin="round" stroke="rgb(18.431373%, 30.980392%, 30.980392%)" stroke-opacity="1" stroke-miterlimit="10" d="M 319.007812 366.605469 C 319.007812 370.335938 315.984375 373.359375 312.25 373.359375 C 308.519531 373.359375 305.496094 370.335938 305.496094 366.605469 C 305.496094 362.871094 308.519531 359.847656 312.25 359.847656 C 315.984375 359.847656 319.007812 362.871094 319.007812 366.605469 "/>
<path fill-rule="nonzero" fill="rgb(18.431373%, 30.980392%, 30.980392%)" fill-opacity="1" stroke-width="0.708661" stroke-linecap="round" stroke-linejoin="round" stroke="rgb(18.431373%, 30.980392%, 30.980392%)" stroke-opacity="1" stroke-miterlimit="10" d="M 326.058594 384.503906 C 326.058594 388.234375 323.03125 391.261719 319.300781 391.261719 C 315.570312 391.261719 312.542969 388.234375 312.542969 384.503906 C 312.542969 380.773438 315.570312 377.746094 319.300781 377.746094 C 323.03125 377.746094 326.058594 380.773438 326.058594 384.503906 "/>
<path fill-rule="nonzero" fill="rgb(18.431373%, 30.980392%, 30.980392%)" fill-opacity="1" stroke-width="0.708661" stroke-linecap="round" stroke-linejoin="round" stroke="rgb(18.431373%, 30.980392%, 30.980392%)" stroke-opacity="1" stroke-miterlimit="10" d="M 333.105469 330.019531 C 333.105469 333.75 330.082031 336.777344 326.351562 336.777344 C 322.617188 336.777344 319.59375 333.75 319.59375 330.019531 C 319.59375 326.289062 322.617188 323.261719 326.351562 323.261719 C 330.082031 323.261719 333.105469 326.289062 333.105469 330.019531 "/>
<path fill-rule="nonzero" fill="rgb(18.431373%, 30.980392%, 30.980392%)" fill-opacity="1" stroke-width="0.708661" stroke-linecap="round" stroke-linejoin="round" stroke="rgb(18.431373%, 30.980392%, 30.980392%)" stroke-opacity="1" stroke-miterlimit="10" d="M 340.15625 211.480469 C 340.15625 215.210938 337.128906 218.234375 333.398438 218.234375 C 329.667969 218.234375 326.644531 215.210938 326.644531 211.480469 C 326.644531 207.75 329.667969 204.722656 333.398438 204.722656 C 337.128906 204.722656 340.15625 207.75 340.15625 211.480469 "/>
<path fill-rule="nonzero" fill="rgb(18.431373%, 30.980392%, 30.980392%)" fill-opacity="1" stroke-width="0.708661" stroke-linecap="round" stroke-linejoin="round" stroke="rgb(18.431373%, 30.980392%, 30.980392%)" stroke-opacity="1" stroke-miterlimit="10" d="M 347.203125 183.621094 C 347.203125 187.351562 344.179688 190.378906 340.449219 190.378906 C 336.71875 190.378906 333.691406 187.351562 333.691406 183.621094 C 333.691406 179.890625 336.71875 176.863281 340.449219 176.863281 C 344.179688 176.863281 347.203125 179.890625 347.203125 183.621094 "/>
<path fill-rule="nonzero" fill="rgb(18.431373%, 30.980392%, 30.980392%)" fill-opacity="1" stroke-width="0.708661" stroke-linecap="round" stroke-linejoin="round" stroke="rgb(18.431373%, 30.980392%, 30.980392%)" stroke-opacity="1" stroke-miterlimit="10" d="M 354.253906 383.566406 C 354.253906 387.296875 351.230469 390.324219 347.496094 390.324219 C 343.765625 390.324219 340.742188 387.296875 340.742188 383.566406 C 340.742188 379.835938 343.765625 376.808594 347.496094 376.808594 C 351.230469 376.808594 354.253906 379.835938 354.253906 383.566406 "/>
<path fill-rule="nonzero" fill="rgb(18.431373%, 30.980392%, 30.980392%)" fill-opacity="1" stroke-width="0.708661" stroke-linecap="round" stroke-linejoin="round" stroke="rgb(18.431373%, 30.980392%, 30.980392%)" stroke-opacity="1" stroke-miterlimit="10" d="M 361.304688 319.914062 C 361.304688 323.648438 358.277344 326.671875 354.546875 326.671875 C 350.816406 326.671875 347.789062 323.648438 347.789062 319.914062 C 347.789062 316.183594 350.816406 313.160156 354.546875 313.160156 C 358.277344 313.160156 361.304688 316.183594 361.304688 319.914062 "/>
<path fill-rule="nonzero" fill="rgb(18.431373%, 30.980392%, 30.980392%)" fill-opacity="1" stroke-width="0.708661" stroke-linecap="round" stroke-linejoin="round" stroke="rgb(18.431373%, 30.980392%, 30.980392%)" stroke-opacity="1" stroke-miterlimit="10" d="M 368.351562 352.847656 C 368.351562 356.578125 365.328125 359.605469 361.597656 359.605469 C 357.863281 359.605469 354.839844 356.578125 354.839844 352.847656 C 354.839844 349.117188 357.863281 346.089844 361.597656 346.089844 C 365.328125 346.089844 368.351562 349.117188 368.351562 352.847656 "/>
<path fill-rule="nonzero" fill="rgb(18.431373%, 30.980392%, 30.980392%)" fill-opacity="1" stroke-width="0.708661" stroke-linecap="round" stroke-linejoin="round" stroke="rgb(18.431373%, 30.980392%, 30.980392%)" stroke-opacity="1" stroke-miterlimit="10" d="M 375.402344 351.804688 C 375.402344 355.535156 372.375 358.558594 368.644531 358.558594 C 364.914062 358.558594 361.890625 355.535156 361.890625 351.804688 C 361.890625 348.074219 364.914062 345.046875 368.644531 345.046875 C 372.375 345.046875 375.402344 348.074219 375.402344 351.804688 "/>
<path fill-rule="nonzero" fill="rgb(18.431373%, 30.980392%, 30.980392%)" fill-opacity="1" stroke-width="0.708661" stroke-linecap="round" stroke-linejoin="round" stroke="rgb(18.431373%, 30.980392%, 30.980392%)" stroke-opacity="1" stroke-miterlimit="10" d="M 382.449219 247.367188 C 382.449219 251.097656 379.425781 254.121094 375.695312 254.121094 C 371.964844 254.121094 368.9375 251.097656 368.9375 247.367188 C 368.9375 243.636719 371.964844 240.609375 375.695312 240.609375 C 379.425781 240.609375 382.449219 243.636719 382.449219 247.367188 "/>
<path fill-rule="nonzero" fill="rgb(18.431373%, 30.980392%, 30.980392%)" fill-opacity="1" stroke-width="0.708661" stroke-linecap="round" stroke-linejoin="round" stroke="rgb(18.431373%, 30.980392%, 30.980392%)" stroke-opacity="1" stroke-miterlimit="10" d="M 389.5 335.855469 C 389.5 339.585938 386.476562 342.613281 382.742188 342.613281 C 379.011719 342.613281 375.988281 339.585938 375.988281 335.855469 C 375.988281 332.125 379.011719 329.101562 382.742188 329.101562 C 386.476562 329.101562 389.5 332.125 389.5 335.855469 "/>
<path fill-rule="nonzero" fill="rgb(18.431373%, 30.980392%, 30.980392%)" fill-opacity="1" stroke-width="0.708661" stroke-linecap="round" stroke-linejoin="round" stroke="rgb(18.431373%, 30.980392%, 30.980392%)" stroke-opacity="1" stroke-miterlimit="10" d="M 396.550781 443.648438 C 396.550781 447.382812 393.523438 450.40625 389.792969 450.40625 C 386.0625 450.40625 383.035156 447.382812 383.035156 443.648438 C 383.035156 439.917969 386.0625 436.894531 389.792969 436.894531 C 393.523438 436.894531 396.550781 439.917969 396.550781 443.648438 "/>
<path fill-rule="nonzero" fill="rgb(18.431373%, 30.980392%, 30.980392%)" fill-opacity="1" stroke-width="0.708661" stroke-linecap="round" stroke-linejoin="round" stroke="rgb(18.431373%, 30.980392%, 30.980392%)" stroke-opacity="1" stroke-miterlimit="10" d="M 403.597656 338.402344 C 403.597656 342.132812 400.574219 345.160156 396.84375 345.160156 C 393.109375 345.160156 390.085938 342.132812 390.085938 338.402344 C 390.085938 334.671875 393.109375 331.648438 396.84375 331.648438 C 400.574219 331.648438 403.597656 334.671875 403.597656 338.402344 "/>
<path fill-rule="nonzero" fill="rgb(18.431373%, 30.980392%, 30.980392%)" fill-opacity="1" stroke-width="0.708661" stroke-linecap="round" stroke-linejoin="round" stroke="rgb(18.431373%, 30.980392%, 30.980392%)" stroke-opacity="1" stroke-miterlimit="10" d="M 410.648438 207.535156 C 410.648438 211.265625 407.621094 214.289062 403.890625 214.289062 C 400.160156 214.289062 397.136719 211.265625 397.136719 207.535156 C 397.136719 203.800781 400.160156 200.777344 403.890625 200.777344 C 407.621094 200.777344 410.648438 203.800781 410.648438 207.535156 "/>
<path fill-rule="nonzero" fill="rgb(18.431373%, 30.980392%, 30.980392%)" fill-opacity="1" stroke-width="0.708661" stroke-linecap="round" stroke-linejoin="round" stroke="rgb(18.431373%, 30.980392%, 30.980392%)" stroke-opacity="1" stroke-miterlimit="10" d="M 417.695312 310.542969 C 417.695312 314.273438 414.671875 317.296875 410.941406 317.296875 C 407.210938 317.296875 404.183594 314.273438 404.183594 310.542969 C 404.183594 306.808594 407.210938 303.785156 410.941406 303.785156 C 414.671875 303.785156 417.695312 306.808594 417.695312 310.542969 "/>
<path fill-rule="nonzero" fill="rgb(18.431373%, 30.980392%, 30.980392%)" fill-opacity="1" stroke-width="0.708661" stroke-linecap="round" stroke-linejoin="round" stroke="rgb(18.431373%, 30.980392%, 30.980392%)" stroke-opacity="1" stroke-miterlimit="10" d="M 424.746094 424.632812 C 424.746094 428.363281 421.722656 431.386719 417.988281 431.386719 C 414.257812 431.386719 411.234375 428.363281 411.234375 424.632812 C 411.234375 420.898438 414.257812 417.875 417.988281 417.875 C 421.722656 417.875 424.746094 420.898438 424.746094 424.632812 "/>
<path fill-rule="nonzero" fill="rgb(18.431373%, 30.980392%, 30.980392%)" fill-opacity="1" stroke-width="0.708661" stroke-linecap="round" stroke-linejoin="round" stroke="rgb(18.431373%, 30.980392%, 30.980392%)" stroke-opacity="1" stroke-miterlimit="10" d="M 431.796875 214.230469 C 431.796875 217.964844 428.769531 220.988281 425.039062 220.988281 C 421.308594 220.988281 418.28125 217.964844 418.28125 214.230469 C 418.28125 210.5 421.308594 207.476562 425.039062 207.476562 C 428.769531 207.476562 431.796875 210.5 431.796875 214.230469 "/>
<path fill-rule="nonzero" fill="rgb(18.431373%, 30.980392%, 30.980392%)" fill-opacity="1" stroke-width="0.708661" stroke-linecap="round" stroke-linejoin="round" stroke="rgb(18.431373%, 30.980392%, 30.980392%)" stroke-opacity="1" stroke-miterlimit="10" d="M 438.84375 335.492188 C 438.84375 339.226562 435.820312 342.25 432.089844 342.25 C 428.355469 342.25 425.332031 339.226562 425.332031 335.492188 C 425.332031 331.761719 428.355469 328.738281 432.089844 328.738281 C 435.820312 328.738281 438.84375 331.761719 438.84375 335.492188 "/>
<path fill-rule="nonzero" fill="rgb(18.431373%, 30.980392%, 30.980392%)" fill-opacity="1" stroke-width="0.708661" stroke-linecap="round" stroke-linejoin="round" stroke="rgb(18.431373%, 30.980392%, 30.980392%)" stroke-opacity="1" stroke-miterlimit="10" d="M 445.894531 161.976562 C 445.894531 165.707031 442.867188 168.730469 439.136719 168.730469 C 435.40625 168.730469 432.382812 165.707031 432.382812 161.976562 C 432.382812 158.246094 435.40625 155.21875 439.136719 155.21875 C 442.867188 155.21875 445.894531 158.246094 445.894531 161.976562 "/>
<path fill-rule="nonzero" fill="rgb(18.431373%, 30.980392%, 30.980392%)" fill-opacity="1" stroke-width="0.708661" stroke-linecap="round" stroke-linejoin="round" stroke="rgb(18.431373%, 30.980392%, 30.980392%)" stroke-opacity="1" stroke-miterlimit="10" d="M 452.941406 212.542969 C 452.941406 216.273438 449.917969 219.296875 446.1875 219.296875 C 442.457031 219.296875 439.429688 216.273438 439.429688 212.542969 C 439.429688 208.808594 442.457031 205.785156 446.1875 205.785156 C 449.917969 205.785156 452.941406 208.808594 452.941406 212.542969 "/>
<path fill-rule="nonzero" fill="rgb(18.431373%, 30.980392%, 30.980392%)" fill-opacity="1" stroke-width="0.708661" stroke-linecap="round" stroke-linejoin="round" stroke="rgb(18.431373%, 30.980392%, 30.980392%)" stroke-opacity="1" stroke-miterlimit="10" d="M 459.992188 442.386719 C 459.992188 446.117188 456.96875 449.144531 453.234375 449.144531 C 449.503906 449.144531 446.480469 446.117188 446.480469 442.386719 C 446.480469 438.65625 449.503906 435.628906 453.234375 435.628906 C 456.96875 435.628906 459.992188 438.65625 459.992188 442.386719 "/>
<path fill-rule="nonzero" fill="rgb(18.431373%, 30.980392%, 30.980392%)" fill-opacity="1" stroke-width="0.708661" stroke-linecap="round" stroke-linejoin="round" stroke="rgb(18.431373%, 30.980392%, 30.980392%)" stroke-opacity="1" stroke-miterlimit="10" d="M 467.042969 391.519531 C 467.042969 395.25 464.015625 398.277344 460.285156 398.277344 C 456.554688 398.277344 453.527344 395.25 453.527344 391.519531 C 453.527344 387.789062 456.554688 384.761719 460.285156 384.761719 C 464.015625 384.761719 467.042969 387.789062 467.042969 391.519531 "/>
<path fill-rule="nonzero" fill="rgb(18.431373%, 30.980392%, 30.980392%)" fill-opacity="1" stroke-width="0.708661" stroke-linecap="round" stroke-linejoin="round" stroke="rgb(18.431373%, 30.980392%, 30.980392%)" stroke-opacity="1" stroke-miterlimit="10" d="M 474.089844 303.632812 C 474.089844 307.363281 471.066406 310.386719 467.335938 310.386719 C 463.601562 310.386719 460.578125 307.363281 460.578125 303.632812 C 460.578125 299.902344 463.601562 296.875 467.335938 296.875 C 471.066406 296.875 474.089844 299.902344 474.089844 303.632812 "/>
<path fill-rule="nonzero" fill="rgb(18.431373%, 30.980392%, 30.980392%)" fill-opacity="1" stroke-width="0.708661" stroke-linecap="round" stroke-linejoin="round" stroke="rgb(18.431373%, 30.980392%, 30.980392%)" stroke-opacity="1" stroke-miterlimit="10" d="M 481.140625 271.464844 C 481.140625 275.195312 478.113281 278.222656 474.382812 278.222656 C 470.652344 278.222656 467.628906 275.195312 467.628906 271.464844 C 467.628906 267.734375 470.652344 264.710938 474.382812 264.710938 C 478.113281 264.710938 481.140625 267.734375 481.140625 271.464844 "/>
<path fill-rule="nonzero" fill="rgb(18.431373%, 30.980392%, 30.980392%)" fill-opacity="1" stroke-width="0.708661" stroke-linecap="round" stroke-linejoin="round" stroke="rgb(18.431373%, 30.980392%, 30.980392%)" stroke-opacity="1" stroke-miterlimit="10" d="M 488.1875 270.277344 C 488.1875 274.007812 485.164062 277.03125 481.433594 277.03125 C 477.703125 277.03125 474.675781 274.007812 474.675781 270.277344 C 474.675781 266.546875 477.703125 263.519531 481.433594 263.519531 C 485.164062 263.519531 488.1875 266.546875 488.1875 270.277344 "/>
<path fill-rule="nonzero" fill="rgb(18.431373%, 30.980392%, 30.980392%)" fill-opacity="1" stroke-width="0.708661" stroke-linecap="round" stroke-linejoin="round" stroke="rgb(18.431373%, 30.980392%, 30.980392%)" stroke-opacity="1" stroke-miterlimit="10" d="M 495.238281 113.339844 C 495.238281 117.074219 492.214844 120.097656 488.480469 120.097656 C 484.75 120.097656 481.726562 117.074219 481.726562 113.339844 C 481.726562 109.609375 484.75 106.585938 488.480469 106.585938 C 492.214844 106.585938 495.238281 109.609375 495.238281 113.339844 "/>
<path fill-rule="nonzero" fill="rgb(18.431373%, 30.980392%, 30.980392%)" fill-opacity="1" stroke-width="0.708661" stroke-linecap="round" stroke-linejoin="round" stroke="rgb(18.431373%, 30.980392%, 30.980392%)" stroke-opacity="1" stroke-miterlimit="10" d="M 502.289062 253.976562 C 502.289062 257.707031 499.261719 260.730469 495.53125 260.730469 C 491.800781 260.730469 488.773438 257.707031 488.773438 253.976562 C 488.773438 250.242188 491.800781 247.21875 495.53125 247.21875 C 499.261719 247.21875 502.289062 250.242188 502.289062 253.976562 "/>
<path fill-rule="nonzero" fill="rgb(18.431373%, 30.980392%, 30.980392%)" fill-opacity="1" stroke-width="0.708661" stroke-linecap="round" stroke-linejoin="round" stroke="rgb(18.431373%, 30.980392%, 30.980392%)" stroke-opacity="1" stroke-miterlimit="10" d="M 509.335938 341.785156 C 509.335938 345.515625 506.3125 348.539062 502.582031 348.539062 C 498.847656 348.539062 495.824219 345.515625 495.824219 341.785156 C 495.824219 338.054688 498.847656 335.027344 502.582031 335.027344 C 506.3125 335.027344 509.335938 338.054688 509.335938 341.785156 "/>
<path fill-rule="nonzero" fill="rgb(18.431373%, 30.980392%, 30.980392%)" fill-opacity="1" stroke-width="0.708661" stroke-linecap="round" stroke-linejoin="round" stroke="rgb(18.431373%, 30.980392%, 30.980392%)" stroke-opacity="1" stroke-miterlimit="10" d="M 516.386719 140.15625 C 516.386719 143.890625 513.359375 146.914062 509.628906 146.914062 C 505.898438 146.914062 502.875 143.890625 502.875 140.15625 C 502.875 136.425781 505.898438 133.402344 509.628906 133.402344 C 513.359375 133.402344 516.386719 136.425781 516.386719 140.15625 "/>
<path fill-rule="nonzero" fill="rgb(18.431373%, 30.980392%, 30.980392%)" fill-opacity="1" stroke-width="0.708661" stroke-linecap="round" stroke-linejoin="round" stroke="rgb(18.431373%, 30.980392%, 30.980392%)" stroke-opacity="1" stroke-miterlimit="10" d="M 523.433594 138.46875 C 523.433594 142.199219 520.410156 145.222656 516.679688 145.222656 C 512.949219 145.222656 509.921875 142.199219 509.921875 138.46875 C 509.921875 134.734375 512.949219 131.710938 516.679688 131.710938 C 520.410156 131.710938 523.433594 134.734375 523.433594 138.46875 "/>
<path fill-rule="nonzero" fill="rgb(18.431373%, 30.980392%, 30.980392%)" fill-opacity="1" stroke-width="0.708661" stroke-linecap="round" stroke-linejoin="round" stroke="rgb(18.431373%, 30.980392%, 30.980392%)" stroke-opacity="1" stroke-miterlimit="10" d="M 530.484375 291.058594 C 530.484375 294.789062 527.460938 297.8125 523.726562 297.8125 C 519.996094 297.8125 516.972656 294.789062 516.972656 291.058594 C 516.972656 287.328125 519.996094 284.300781 523.726562 284.300781 C 527.460938 284.300781 530.484375 287.328125 530.484375 291.058594 "/>
<path fill-rule="nonzero" fill="rgb(18.431373%, 30.980392%, 30.980392%)" fill-opacity="1" stroke-width="0.708661" stroke-linecap="round" stroke-linejoin="round" stroke="rgb(18.431373%, 30.980392%, 30.980392%)" stroke-opacity="1" stroke-miterlimit="10" d="M 537.535156 153.25 C 537.535156 156.980469 534.507812 160.003906 530.777344 160.003906 C 527.046875 160.003906 524.019531 156.980469 524.019531 153.25 C 524.019531 149.519531 527.046875 146.492188 530.777344 146.492188 C 534.507812 146.492188 537.535156 149.519531 537.535156 153.25 "/>
<path fill-rule="nonzero" fill="rgb(18.431373%, 30.980392%, 30.980392%)" fill-opacity="1" stroke-width="0.708661" stroke-linecap="round" stroke-linejoin="round" stroke="rgb(18.431373%, 30.980392%, 30.980392%)" stroke-opacity="1" stroke-miterlimit="10" d="M 544.582031 282.847656 C 544.582031 286.578125 541.558594 289.605469 537.828125 289.605469 C 534.09375 289.605469 531.070312 286.578125 531.070312 282.847656 C 531.070312 279.117188 534.09375 276.09375 537.828125 276.09375 C 541.558594 276.09375 544.582031 279.117188 544.582031 282.847656 "/>
<path fill-rule="nonzero" fill="rgb(18.431373%, 30.980392%, 30.980392%)" fill-opacity="1" stroke-width="0.708661" stroke-linecap="round" stroke-linejoin="round" stroke="rgb(18.431373%, 30.980392%, 30.980392%)" stroke-opacity="1" stroke-miterlimit="10" d="M 551.632812 300.121094 C 551.632812 303.855469 548.605469 306.878906 544.875 306.878906 C 541.144531 306.878906 538.121094 303.855469 538.121094 300.121094 C 538.121094 296.390625 541.144531 293.367188 544.875 293.367188 C 548.605469 293.367188 551.632812 296.390625 551.632812 300.121094 "/>
<path fill-rule="nonzero" fill="rgb(18.431373%, 30.980392%, 30.980392%)" fill-opacity="1" stroke-width="0.708661" stroke-linecap="round" stroke-linejoin="round" stroke="rgb(18.431373%, 30.980392%, 30.980392%)" stroke-opacity="1" stroke-miterlimit="10" d="M 558.679688 199.550781 C 558.679688 203.28125 555.65625 206.308594 551.925781 206.308594 C 548.195312 206.308594 545.167969 203.28125 545.167969 199.550781 C 545.167969 195.820312 548.195312 192.792969 551.925781 192.792969 C 555.65625 192.792969 558.679688 195.820312 558.679688 199.550781 "/>
<path fill-rule="nonzero" fill="rgb(18.431373%, 30.980392%, 30.980392%)" fill-opacity="1" stroke-width="0.708661" stroke-linecap="round" stroke-linejoin="round" stroke="rgb(18.431373%, 30.980392%, 30.980392%)" stroke-opacity="1" stroke-miterlimit="10" d="M 565.730469 307.59375 C 565.730469 311.328125 562.707031 314.351562 558.972656 314.351562 C 555.242188 314.351562 552.21875 311.328125 552.21875 307.59375 C 552.21875 303.863281 555.242188 300.839844 558.972656 300.839844 C 562.707031 300.839844 565.730469 303.863281 565.730469 307.59375 "/>
<path fill-rule="nonzero" fill="rgb(18.431373%, 30.980392%, 30.980392%)" fill-opacity="1" stroke-width="0.708661" stroke-linecap="round" stroke-linejoin="round" stroke="rgb(18.431373%, 30.980392%, 30.980392%)" stroke-opacity="1" stroke-miterlimit="10" d="M 572.78125 175.355469 C 572.78125 179.085938 569.753906 182.109375 566.023438 182.109375 C 562.292969 182.109375 559.265625 179.085938 559.265625 175.355469 C 559.265625 171.621094 562.292969 168.597656 566.023438 168.597656 C 569.753906 168.597656 572.78125 171.621094 572.78125 175.355469 "/>
<path fill-rule="nonzero" fill="rgb(18.431373%, 30.980392%, 30.980392%)" fill-opacity="1" stroke-width="0.708661" stroke-linecap="round" stroke-linejoin="round" stroke="rgb(18.431373%, 30.980392%, 30.980392%)" stroke-opacity="1" stroke-miterlimit="10" d="M 579.828125 209.339844 C 579.828125 213.070312 576.804688 216.09375 573.074219 216.09375 C 569.339844 216.09375 566.316406 213.070312 566.316406 209.339844 C 566.316406 205.605469 569.339844 202.582031 573.074219 202.582031 C 576.804688 202.582031 579.828125 205.605469 579.828125 209.339844 "/>
<path fill-rule="nonzero" fill="rgb(18.431373%, 30.980392%, 30.980392%)" fill-opacity="1" stroke-width="0.708661" stroke-linecap="round" stroke-linejoin="round" stroke="rgb(18.431373%, 30.980392%, 30.980392%)" stroke-opacity="1" stroke-miterlimit="10" d="M 586.878906 122.121094 C 586.878906 125.855469 583.851562 128.878906 580.121094 128.878906 C 576.390625 128.878906 573.367188 125.855469 573.367188 122.121094 C 573.367188 118.390625 576.390625 115.367188 580.121094 115.367188 C 583.851562 115.367188 586.878906 118.390625 586.878906 122.121094 "/>
<path fill-rule="nonzero" fill="rgb(18.431373%, 30.980392%, 30.980392%)" fill-opacity="1" stroke-width="0.708661" stroke-linecap="round" stroke-linejoin="round" stroke="rgb(18.431373%, 30.980392%, 30.980392%)" stroke-opacity="1" stroke-miterlimit="10" d="M 593.925781 191.328125 C 593.925781 195.058594 590.902344 198.085938 587.171875 198.085938 C 583.441406 198.085938 580.414062 195.058594 580.414062 191.328125 C 580.414062 187.597656 583.441406 184.574219 587.171875 184.574219 C 590.902344 184.574219 593.925781 187.597656 593.925781 191.328125 "/>
<path fill-rule="nonzero" fill="rgb(18.431373%, 30.980392%, 30.980392%)" fill-opacity="1" stroke-width="0.708661" stroke-linecap="round" stroke-linejoin="round" stroke="rgb(18.431373%, 30.980392%, 30.980392%)" stroke-opacity="1" stroke-miterlimit="10" d="M 600.976562 80.242188 C 600.976562 83.972656 597.953125 86.996094 594.21875 86.996094 C 590.488281 86.996094 587.464844 83.972656 587.464844 80.242188 C 587.464844 76.507812 590.488281 73.484375 594.21875 73.484375 C 597.953125 73.484375 600.976562 76.507812 600.976562 80.242188 "/>
<path fill-rule="nonzero" fill="rgb(18.431373%, 30.980392%, 30.980392%)" fill-opacity="1" stroke-width="0.708661" stroke-linecap="round" stroke-linejoin="round" stroke="rgb(18.431373%, 30.980392%, 30.980392%)" stroke-opacity="1" stroke-miterlimit="10" d="M 608.027344 106.960938 C 608.027344 110.695312 605 113.71875 601.269531 113.71875 C 597.539062 113.71875 594.511719 110.695312 594.511719 106.960938 C 594.511719 103.230469 597.539062 100.207031 601.269531 100.207031 C 605 100.207031 608.027344 103.230469 608.027344 106.960938 "/>
<path fill-rule="nonzero" fill="rgb(18.431373%, 30.980392%, 30.980392%)" fill-opacity="1" stroke-width="0.708661" stroke-linecap="round" stroke-linejoin="round" stroke="rgb(18.431373%, 30.980392%, 30.980392%)" stroke-opacity="1" stroke-miterlimit="10" d="M 615.074219 256.832031 C 615.074219 260.5625 612.050781 263.589844 608.320312 263.589844 C 604.585938 263.589844 601.5625 260.5625 601.5625 256.832031 C 601.5625 253.101562 604.585938 250.074219 608.320312 250.074219 C 612.050781 250.074219 615.074219 253.101562 615.074219 256.832031 "/>
<path fill-rule="nonzero" fill="rgb(18.431373%, 30.980392%, 30.980392%)" fill-opacity="1" stroke-width="0.708661" stroke-linecap="round" stroke-linejoin="round" stroke="rgb(18.431373%, 30.980392%, 30.980392%)" stroke-opacity="1" stroke-miterlimit="10" d="M 622.125 168.550781 C 622.125 172.285156 619.097656 175.308594 615.367188 175.308594 C 611.636719 175.308594 608.613281 172.285156 608.613281 168.550781 C 608.613281 164.820312 611.636719 161.796875 615.367188 161.796875 C 619.097656 161.796875 622.125 164.820312 622.125 168.550781 "/>
<path fill-rule="nonzero" fill="rgb(18.431373%, 30.980392%, 30.980392%)" fill-opacity="1" stroke-width="0.708661" stroke-linecap="round" stroke-linejoin="round" stroke="rgb(18.431373%, 30.980392%, 30.980392%)" stroke-opacity="1" stroke-miterlimit="10" d="M 629.171875 279.488281 C 629.171875 283.21875 626.148438 286.246094 622.417969 286.246094 C 618.6875 286.246094 615.660156 283.21875 615.660156 279.488281 C 615.660156 275.757812 618.6875 272.734375 622.417969 272.734375 C 626.148438 272.734375 629.171875 275.757812 629.171875 279.488281 "/>
<path fill-rule="nonzero" fill="rgb(18.431373%, 30.980392%, 30.980392%)" fill-opacity="1" stroke-width="0.708661" stroke-linecap="round" stroke-linejoin="round" stroke="rgb(18.431373%, 30.980392%, 30.980392%)" stroke-opacity="1" stroke-miterlimit="10" d="M 636.222656 239.03125 C 636.222656 242.761719 633.199219 245.789062 629.464844 245.789062 C 625.734375 245.789062 622.710938 242.761719 622.710938 239.03125 C 622.710938 235.300781 625.734375 232.277344 629.464844 232.277344 C 633.199219 232.277344 636.222656 235.300781 636.222656 239.03125 "/>
<path fill-rule="nonzero" fill="rgb(18.431373%, 30.980392%, 30.980392%)" fill-opacity="1" stroke-width="0.708661" stroke-linecap="round" stroke-linejoin="round" stroke="rgb(18.431373%, 30.980392%, 30.980392%)" stroke-opacity="1" stroke-miterlimit="10" d="M 643.273438 203.15625 C 643.273438 206.886719 640.246094 209.910156 636.515625 209.910156 C 632.785156 209.910156 629.757812 206.886719 629.757812 203.15625 C 629.757812 199.421875 632.785156 196.398438 636.515625 196.398438 C 640.246094 196.398438 643.273438 199.421875 643.273438 203.15625 "/>
<path fill-rule="nonzero" fill="rgb(18.431373%, 30.980392%, 30.980392%)" fill-opacity="1" stroke-width="0.708661" stroke-linecap="round" stroke-linejoin="round" stroke="rgb(18.431373%, 30.980392%, 30.980392%)" stroke-opacity="1" stroke-miterlimit="10" d="M 650.320312 33.164062 C 650.320312 36.894531 647.296875 39.921875 643.566406 39.921875 C 639.832031 39.921875 636.808594 36.894531 636.808594 33.164062 C 636.808594 29.433594 639.832031 26.410156 643.566406 26.410156 C 647.296875 26.410156 650.320312 29.433594 650.320312 33.164062 "/>
<path fill-rule="nonzero" fill="rgb(18.431373%, 30.980392%, 30.980392%)" fill-opacity="1" stroke-width="0.708661" stroke-linecap="round" stroke-linejoin="round" stroke="rgb(18.431373%, 30.980392%, 30.980392%)" stroke-opacity="1" stroke-miterlimit="10" d="M 657.371094 193.273438 C 657.371094 197.003906 654.34375 200.027344 650.613281 200.027344 C 646.882812 200.027344 643.859375 197.003906 643.859375 193.273438 C 643.859375 189.539062 646.882812 186.515625 650.613281 186.515625 C 654.34375 186.515625 657.371094 189.539062 657.371094 193.273438 "/>
<path fill-rule="nonzero" fill="rgb(18.431373%, 30.980392%, 30.980392%)" fill-opacity="1" stroke-width="0.708661" stroke-linecap="round" stroke-linejoin="round" stroke="rgb(18.431373%, 30.980392%, 30.980392%)" stroke-opacity="1" stroke-miterlimit="10" d="M 664.417969 330.917969 C 664.417969 334.648438 661.394531 337.675781 657.664062 337.675781 C 653.933594 337.675781 650.90625 334.648438 650.90625 330.917969 C 650.90625 327.1875 653.933594 324.160156 657.664062 324.160156 C 661.394531 324.160156 664.417969 327.1875 664.417969 330.917969 "/>
<path fill-rule="nonzero" fill="rgb(18.431373%, 30.980392%, 30.980392%)" fill-opacity="1" stroke-width="0.708661" stroke-linecap="round" stroke-linejoin="round" stroke="rgb(18.431373%, 30.980392%, 30.980392%)" stroke-opacity="1" stroke-miterlimit="10" d="M 671.46875 158.339844 C 671.46875 162.070312 668.445312 165.09375 664.710938 165.09375 C 660.980469 165.09375 657.957031 162.070312 657.957031 158.339844 C 657.957031 154.605469 660.980469 151.582031 664.710938 151.582031 C 668.445312 151.582031 671.46875 154.605469 671.46875 158.339844 "/>
<path fill-rule="nonzero" fill="rgb(18.431373%, 30.980392%, 30.980392%)" fill-opacity="1" stroke-width="0.708661" stroke-linecap="round" stroke-linejoin="round" stroke="rgb(18.431373%, 30.980392%, 30.980392%)" stroke-opacity="1" stroke-miterlimit="10" d="M 678.519531 212.835938 C 678.519531 216.570312 675.492188 219.59375 671.761719 219.59375 C 668.03125 219.59375 665.003906 216.570312 665.003906 212.835938 C 665.003906 209.105469 668.03125 206.082031 671.761719 206.082031 C 675.492188 206.082031 678.519531 209.105469 678.519531 212.835938 "/>
<path fill-rule="nonzero" fill="rgb(18.431373%, 30.980392%, 30.980392%)" fill-opacity="1" stroke-width="0.708661" stroke-linecap="round" stroke-linejoin="round" stroke="rgb(18.431373%, 30.980392%, 30.980392%)" stroke-opacity="1" stroke-miterlimit="10" d="M 685.566406 323.785156 C 685.566406 327.515625 682.542969 330.539062 678.8125 330.539062 C 675.078125 330.539062 672.054688 327.515625 672.054688 323.785156 C 672.054688 320.054688 675.078125 317.027344 678.8125 317.027344 C 682.542969 317.027344 685.566406 320.054688 685.566406 323.785156 "/>
<path fill-rule="nonzero" fill="rgb(18.431373%, 30.980392%, 30.980392%)" fill-opacity="1" stroke-width="0.708661" stroke-linecap="round" stroke-linejoin="round" stroke="rgb(18.431373%, 30.980392%, 30.980392%)" stroke-opacity="1" stroke-miterlimit="10" d="M 692.617188 188.558594 C 692.617188 192.289062 689.589844 195.3125 685.859375 195.3125 C 682.128906 195.3125 679.105469 192.289062 679.105469 188.558594 C 679.105469 184.824219 682.128906 181.800781 685.859375 181.800781 C 689.589844 181.800781 692.617188 184.824219 692.617188 188.558594 "/>
<path fill-rule="nonzero" fill="rgb(18.431373%, 30.980392%, 30.980392%)" fill-opacity="1" stroke-width="0.708661" stroke-linecap="round" stroke-linejoin="round" stroke="rgb(18.431373%, 30.980392%, 30.980392%)" stroke-opacity="1" stroke-miterlimit="10" d="M 699.664062 23.4375 C 699.664062 27.171875 696.640625 30.195312 692.910156 30.195312 C 689.179688 30.195312 686.152344 27.171875 686.152344 23.4375 C 686.152344 19.707031 689.179688 16.683594 692.910156 16.683594 C 696.640625 16.683594 699.664062 19.707031 699.664062 23.4375 "/>
<path fill-rule="nonzero" fill="rgb(18.431373%, 30.980392%, 30.980392%)" fill-opacity="1" stroke-width="0.708661" stroke-linecap="round" stroke-linejoin="round" stroke="rgb(18.431373%, 30.980392%, 30.980392%)" stroke-opacity="1" stroke-miterlimit="10" d="M 706.714844 82.84375 C 706.714844 86.574219 703.691406 89.601562 699.957031 89.601562 C 696.226562 89.601562 693.203125 86.574219 693.203125 82.84375 C 693.203125 79.113281 696.226562 76.089844 699.957031 76.089844 C 703.691406 76.089844 706.714844 79.113281 706.714844 82.84375 "/>
<path fill-rule="nonzero" fill="rgb(18.431373%, 30.980392%, 30.980392%)" fill-opacity="1" stroke-width="0.708661" stroke-linecap="round" stroke-linejoin="round" stroke="rgb(18.431373%, 30.980392%, 30.980392%)" stroke-opacity="1" stroke-miterlimit="10" d="M 713.765625 136.273438 C 713.765625 140.003906 710.738281 143.027344 707.007812 143.027344 C 703.277344 143.027344 700.25 140.003906 700.25 136.273438 C 700.25 132.539062 703.277344 129.515625 707.007812 129.515625 C 710.738281 129.515625 713.765625 132.539062 713.765625 136.273438 "/>
<path fill-rule="nonzero" fill="rgb(18.431373%, 30.980392%, 30.980392%)" fill-opacity="1" stroke-width="0.708661" stroke-linecap="round" stroke-linejoin="round" stroke="rgb(18.431373%, 30.980392%, 30.980392%)" stroke-opacity="1" stroke-miterlimit="10" d="M 720.8125 234.597656 C 720.8125 238.332031 717.789062 241.355469 714.058594 241.355469 C 710.324219 241.355469 707.300781 238.332031 707.300781 234.597656 C 707.300781 230.867188 710.324219 227.84375 714.058594 227.84375 C 717.789062 227.84375 720.8125 230.867188 720.8125 234.597656 "/>
<path fill-rule="nonzero" fill="rgb(18.431373%, 30.980392%, 30.980392%)" fill-opacity="1" stroke-width="0.708661" stroke-linecap="round" stroke-linejoin="round" stroke="rgb(18.431373%, 30.980392%, 30.980392%)" stroke-opacity="1" stroke-miterlimit="10" d="M 727.863281 294.59375 C 727.863281 298.324219 724.835938 301.351562 721.105469 301.351562 C 717.375 301.351562 714.351562 298.324219 714.351562 294.59375 C 714.351562 290.863281 717.375 287.839844 721.105469 287.839844 C 724.835938 287.839844 727.863281 290.863281 727.863281 294.59375 "/>
<path fill="none" stroke-width="6.40187" stroke-linecap="butt" stroke-linejoin="round" stroke="rgb(94.117647%, 50.196078%, 50.196078%)" stroke-opacity="1" stroke-miterlimit="10" d="M 23.234375 386.339844 L 32.066406 383.738281 L 40.902344 381.132812 L 49.734375 378.527344 L 58.570312 375.925781 L 67.402344 373.320312 L 76.238281 370.714844 L 85.070312 368.113281 L 93.902344 365.507812 L 102.738281 362.90625 L 111.570312 360.300781 L 120.40625 357.695312 L 129.238281 355.09375 L 138.074219 352.488281 L 146.90625 349.882812 L 155.742188 347.28125 L 164.574219 344.675781 L 173.410156 342.070312 L 182.242188 339.46875 L 191.078125 336.863281 L 199.910156 334.257812 L 208.742188 331.65625 L 217.578125 329.050781 L 226.410156 326.449219 L 235.246094 323.84375 L 244.078125 321.238281 L 252.914062 318.636719 L 261.746094 316.03125 L 270.582031 313.425781 L 279.414062 310.824219 L 288.25 308.21875 L 297.082031 305.613281 L 305.917969 303.011719 L 323.582031 297.800781 L 332.417969 295.199219 L 341.25 292.59375 L 350.085938 289.992188 L 358.917969 287.386719 L 367.753906 284.78125 L 376.585938 282.179688 L 385.421875 279.574219 L 394.253906 276.96875 L 403.089844 274.367188 L 411.921875 271.761719 L 420.757812 269.15625 L 429.589844 266.554688 L 438.421875 263.949219 L 447.257812 261.34375 L 456.089844 258.742188 L 464.925781 256.136719 L 473.757812 253.535156 L 482.59375 250.929688 L 491.425781 248.324219 L 500.261719 245.722656 L 509.09375 243.117188 L 517.929688 240.511719 L 526.761719 237.910156 L 535.597656 235.304688 L 544.429688 232.699219 L 553.261719 230.097656 L 562.097656 227.492188 L 570.929688 224.886719 L 579.765625 222.285156 L 588.597656 219.679688 L 597.433594 217.078125 L 606.265625 214.472656 L 615.101562 211.867188 L 623.933594 209.265625 L 632.769531 206.660156 L 641.601562 204.054688 L 650.4375 201.453125 L 668.101562 196.242188 L 676.9375 193.640625 L 685.769531 191.035156 L 694.605469 188.429688 L 703.4375 185.828125 L 712.273438 183.222656 L 721.105469 180.621094 "/>
</svg>
