<?xml version="1.0" encoding="UTF-8"?>
<svg xmlns="http://www.w3.org/2000/svg" xmlns:xlink="http://www.w3.org/1999/xlink" width="756" height="504" viewBox="0 0 756 504">
<rect x="-75.6" y="-50.4" width="907.2" height="604.8" fill="rgb(100%, 100%, 100%)" fill-opacity="1"/>
<path fill-rule="nonzero" fill="rgb(18.431373%, 30.980392%, 30.980392%)" fill-opacity="1" stroke-width="0.708661" stroke-linecap="round" stroke-linejoin="round" stroke="rgb(18.431373%, 30.980392%, 30.980392%)" stroke-opacity="1" stroke-miterlimit="10" d="M 29.988281 388.777344 C 29.988281 392.507812 26.964844 395.53125 23.234375 395.53125 C 19.503906 395.53125 16.476562 392.507812 16.476562 388.777344 C 16.476562 385.042969 19.503906 382.019531 23.234375 382.019531 C 26.964844 382.019531 29.988281 385.042969 29.988281 388.777344 "/>
<path fill-rule="nonzero" fill="rgb(18.431373%, 30.980392%, 30.980392%)" fill-opacity="1" stroke-width="0.708661" stroke-linecap="round" stroke-linejoin="round" stroke="rgb(18.431373%, 30.980392%, 30.980392%)" stroke-opacity="1" stroke-miterlimit="10" d="M 37.039062 483.644531 C 37.039062 487.375 34.015625 490.402344 30.28125 490.402344 C 26.550781 490.402344 23.527344 487.375 23.527344 483.644531 C 23.527344 479.914062 26.550781 476.886719 30.28125 476.886719 C 34.015625 476.886719 37.039062 479.914062 37.039062 483.644531 "/>
<path fill-rule="nonzero" fill="rgb(18.431373%, 30.980392%, 30.980392%)" fill-opacity="1" stroke-width="0.708661" stroke-linecap="round" stroke-linejoin="round" stroke="rgb(18.431373%, 30.980392%, 30.980392%)" stroke-opacity="1" stroke-miterlimit="10" d="M 44.089844 420.753906 C 44.089844 424.484375 41.0625 427.507812 37.332031 427.507812 C 33.601562 427.507812 30.574219 424.484375 30.574219 420.753906 C 30.574219 417.019531 33.601562 413.996094 37.332031 413.996094 C 41.0625 413.996094 44.089844 417.019531 44.089844 420.753906 "/>
<path fill-rule="nonzero" fill="rgb(18.431373%, 30.980392%, 30.980392%)" fill-opacity="1" stroke-width="0.708661" stroke-linecap="round" stroke-linejoin="round" stroke="rgb(18.431373%, 30.980392%, 30.980392%)" stroke-opacity="1" stroke-miterlimit="10" d="M 51.136719 275.394531 C 51.136719 279.125 48.113281 282.152344 44.382812 282.152344 C 40.648438 282.152344 37.625 279.125 37.625 275.394531 C 37.625 271.664062 40.648438 268.640625 44.382812 268.640625 C 48.113281 268.640625 51.136719 271.664062 51.136719 275.394531 "/>
<path fill-rule="nonzero" fill="rgb(18.431373%, 30.980392%, 30.980392%)" fill-opacity="1" stroke-width="0.708661" stroke-linecap="round" stroke-linejoin="round" stroke="rgb(18.431373%, 30.980392%, 30.980392%)" stroke-opacity="1" stroke-miterlimit="10" d="M 58.1875 414.742188 C 58.1875 418.472656 55.160156 421.5 51.429688 421.5 C 47.699219 421.5 44.675781 418.472656 44.675781 414.742188 C 44.675781 411.011719 47.699219 407.988281 51.429688 407.988281 C 55.160156 407.988281 58.1875 411.011719 58.1875 414.742188 "/>
<path fill-rule="nonzero" fill="rgb(18.431373%, 30.980392%, 30.980392%)" fill-opacity="1" stroke-width="0.708661" stroke-linecap="round" stroke-linejoin="round" stroke="rgb(18.431373%, 30.980392%, 30.980392%)" stroke-opacity="1" stroke-miterlimit="10" d="M 65.234375 254.53125 C 65.234375 258.261719 62.210938 261.285156 58.480469 261.285156 C 54.75 261.285156 51.722656 258.261719 51.722656 254.53125 C 51.722656 250.796875 54.75 247.773438 58.480469 247.773438 C 62.210938 247.773438 65.234375 250.796875 65.234375 254.53125 "/>
<path fill-rule="nonzero" fill="rgb(18.431373%, 30.980392%, 30.980392%)" fill-opacity="1" stroke-width="0.708661" stroke-linecap="round" stroke-linejoin="round" stroke="rgb(18.431373%, 30.980392%, 30.980392%)" stroke-opacity="1" stroke-miterlimit="10" d="M 72.285156 225.128906 C 72.285156 228.859375 69.261719 231.882812 65.527344 231.882812 C 61.796875 231.882812 58.773438 228.859375 58.773438 225.128906 C 58.773438 221.394531 61.796875 218.371094 65.527344 218.371094 C 69.261719 218.371094 72.285156 221.394531 72.285156 225.128906 "/>
<path fill-rule="nonzero" fill="rgb(18.431373%, 30.980392%, 30.980392%)" fill-opacity="1" stroke-width="0.708661" stroke-linecap="round" stroke-linejoin="round" stroke="rgb(18.431373%, 30.980392%, 30.980392%)" stroke-opacity="1" stroke-miterlimit="10" d="M 79.335938 202.910156 C 79.335938 206.640625 76.308594 209.664062 72.578125 209.664062 C 68.847656 209.664062 65.820312 206.640625 65.820312 202.910156 C 65.820312 199.179688 68.847656 196.152344 72.578125 196.152344 C 76.308594 196.152344 79.335938 199.179688 79.335938 202.910156 "/>
<path fill-rule="nonzero" fill="rgb(18.431373%, 30.980392%, 30.980392%)" fill-opacity="1" stroke-width="0.708661" stroke-linecap="round" stroke-linejoin="round" stroke="rgb(18.431373%, 30.980392%, 30.980392%)" stroke-opacity="1" stroke-miterlimit="10" d="M 86.382812 373.1875 C 86.382812 376.917969 83.359375 379.941406 79.628906 379.941406 C 75.894531 379.941406 72.871094 376.917969 72.871094 373.1875 C 72.871094 369.453125 75.894531 366.429688 79.628906 366.429688 C 83.359375 366.429688 86.382812 369.453125 86.382812 373.1875 "/>
<path fill-rule="nonzero" fill="rgb(18.431373%, 30.980392%, 30.980392%)" fill-opacity="1" stroke-width="0.708661" stroke-linecap="round" stroke-linejoin="round" stroke="rgb(18.431373%, 30.980392%, 30.980392%)" stroke-opacity="1" stroke-miterlimit="10" d="M 93.433594 492.222656 C 93.433594 495.953125 90.40625 498.976562 86.675781 498.976562 C 82.945312 498.976562 79.921875 495.953125 79.921875 492.222656 C 79.921875 488.488281 82.945312 485.464844 86.675781 485.464844 C 90.40625 485.464844 93.433594 488.488281 93.433594 492.222656 "/>
<path fill-rule="nonzero" fill="rgb(18.431373%, 30.980392%, 30.980392%)" fill-opacity="1" stroke-width="0.708661" stroke-linecap="round" stroke-linejoin="round" stroke="rgb(18.431373%, 30.980392%, 30.980392%)" stroke-opacity="1" stroke-miterlimit="10" d="M 100.480469 403.320312 C 100.480469 407.050781 97.457031 410.078125 93.726562 410.078125 C 89.996094 410.078125 86.96875 407.050781 86.96875 403.320312 C 86.96875 399.589844 89.996094 396.5625 93.726562 396.5625 C 97.457031 396.5625 100.480469 399.589844 100.480469 403.320312 "/>
<path fill-rule="nonzero" fill="rgb(18.431373%, 30.980392%, 30.980392%)" fill-opacity="1" stroke-width="0.708661" stroke-linecap="round" stroke-linejoin="round" stroke="rgb(18.431373%, 30.980392%, 30.980392%)" stroke-opacity="1" stroke-miterlimit="10" d="M 107.53125 361.363281 C 107.53125 365.09375 104.507812 368.121094 100.773438 368.121094 C 97.042969 368.121094 94.019531 365.09375 94.019531 361.363281 C 94.019531 357.632812 97.042969 354.609375 100.773438 354.609375 C 104.507812 354.609375 107.53125 357.632812 107.53125 361.363281 "/>
<path fill-rule="nonzero" fill="rgb(18.431373%, 30.980392%, 30.980392%)" fill-opacity="1" stroke-width="0.708661" stroke-linecap="round" stroke-linejoin="round" stroke="rgb(18.431373%, 30.980392%, 30.980392%)" stroke-opacity="1" stroke-miterlimit="10" d="M 114.582031 361.867188 C 114.582031 365.601562 111.554688 368.625 107.824219 368.625 C 104.09375 368.625 101.066406 365.601562 101.066406 361.867188 C 101.066406 358.136719 104.09375 355.113281 107.824219 355.113281 C 111.554688 355.113281 114.582031 358.136719 114.582031 361.867188 "/>
<path fill-rule="nonzero" fill="rgb(18.431373%, 30.980392%, 30.980392%)" fill-opacity="1" stroke-width="0.708661" stroke-linecap="round" stroke-linejoin="round" stroke="rgb(18.431373%, 30.980392%, 30.980392%)" stroke-opacity="1" stroke-miterlimit="10" d="M 121.628906 353.9375 C 121.628906 357.667969 118.605469 360.691406 114.875 360.691406 C 111.140625 360.691406 108.117188 357.667969 108.117188 353.9375 C 108.117188 350.207031 111.140625 347.179688 114.875 347.179688 C 118.605469 347.179688 121.628906 350.207031 121.628906 353.9375 "/>
<path fill-rule="nonzero" fill="rgb(18.431373%, 30.980392%, 30.980392%)" fill-opacity="1" stroke-width="0.708661" stroke-linecap="round" stroke-linejoin="round" stroke="rgb(18.431373%, 30.980392%, 30.980392%)" stroke-opacity="1" stroke-miterlimit="10" d="M 128.679688 353.753906 C 128.679688 357.484375 125.652344 360.511719 121.921875 360.511719 C 118.191406 360.511719 115.167969 357.484375 115.167969 353.753906 C 115.167969 350.023438 118.191406 347 121.921875 347 C 125.652344 347 128.679688 350.023438 128.679688 353.753906 "/>
<path fill-rule="nonzero" fill="rgb(18.431373%, 30.980392%, 30.980392%)" fill-opacity="1" stroke-width="0.708661" stroke-linecap="round" stroke-linejoin="round" stroke="rgb(18.431373%, 30.980392%, 30.980392%)" stroke-opacity="1" stroke-miterlimit="10" d="M 135.726562 345.390625 C 135.726562 349.121094 132.703125 352.144531 128.972656 352.144531 C 125.242188 352.144531 122.214844 349.121094 122.214844 345.390625 C 122.214844 341.65625 125.242188 338.632812 128.972656 338.632812 C 132.703125 338.632812 135.726562 341.65625 135.726562 345.390625 "/>
<path fill-rule="nonzero" fill="rgb(18.431373%, 30.980392%, 30.980392%)" fill-opacity="1" stroke-width="0.708661" stroke-linecap="round" stroke-linejoin="round" stroke="rgb(18.431373%, 30.980392%, 30.980392%)" stroke-opacity="1" stroke-miterlimit="10" d="M 142.777344 329.890625 C 142.777344 333.621094 139.753906 336.648438 136.019531 336.648438 C 132.289062 336.648438 129.265625 333.621094 129.265625 329.890625 C 129.265625 326.160156 132.289062 323.136719 136.019531 323.136719 C 139.753906 323.136719 142.777344 326.160156 142.777344 329.890625 "/>
<path fill-rule="nonzero" fill="rgb(18.431373%, 30.980392%, 30.980392%)" fill-opacity="1" stroke-width="0.708661" stroke-linecap="round" stroke-linejoin="round" stroke="rgb(18.431373%, 30.980392%, 30.980392%)" stroke-opacity="1" stroke-miterlimit="10" d="M 149.828125 388.070312 C 149.828125 391.800781 146.800781 394.824219 143.070312 394.824219 C 139.339844 394.824219 136.3125 391.800781 136.3125 388.070312 C 136.3125 384.339844 139.339844 381.3125 143.070312 381.3125 C 146.800781 381.3125 149.828125 384.339844 149.828125 388.070312 "/>
<path fill-rule="nonzero" fill="rgb(18.431373%, 30.980392%, 30.980392%)" fill-opacity="1" stroke-width="0.708661" stroke-linecap="round" stroke-linejoin="round" stroke="rgb(18.431373%, 30.980392%, 30.980392%)" stroke-opacity="1" stroke-miterlimit="10" d="M 156.875 390.289062 C 156.875 394.019531 153.851562 397.046875 150.121094 397.046875 C 146.386719 397.046875 143.363281 394.019531 143.363281 390.289062 C 143.363281 386.558594 146.386719 383.53125 150.121094 383.53125 C 153.851562 383.53125 156.875 386.558594 156.875 390.289062 "/>
<path fill-rule="nonzero" fill="rgb(18.431373%, 30.980392%, 30.980392%)" fill-opacity="1" stroke-width="0.708661" stroke-linecap="round" stroke-linejoin="round" stroke="rgb(18.431373%, 30.980392%, 30.980392%)" stroke-opacity="1" stroke-miterlimit="10" d="M 163.925781 226.984375 C 163.925781 230.714844 160.898438 233.742188 157.167969 233.742188 C 153.4375 233.742188 150.414062 230.714844 150.414062 226.984375 C 150.414062 223.253906 153.4375 220.230469 157.167969 220.230469 C 160.898438 220.230469 163.925781 223.253906 163.925781 226.984375 "/>
<path fill-rule="nonzero" fill="rgb(18.431373%, 30.980392%, 30.980392%)" fill-opacity="1" stroke-width="0.708661" stroke-linecap="round" stroke-linejoin="round" stroke="rgb(18.431373%, 30.980392%, 30.980392%)" stroke-opacity="1" stroke-miterlimit="10" d="M 170.972656 398.199219 C 170.972656 401.929688 167.949219 404.957031 164.21875 404.957031 C 160.488281 404.957031 157.460938 401.929688 157.460938 398.199219 C 157.460938 394.46875 160.488281 391.445312 164.21875 391.445312 C 167.949219 391.445312 170.972656 394.46875 170.972656 398.199219 "/>
<path fill-rule="nonzero" fill="rgb(18.431373%, 30.980392%, 30.980392%)" fill-opacity="1" stroke-width="0.708661" stroke-linecap="round" stroke-linejoin="round" stroke="rgb(18.431373%, 30.980392%, 30.980392%)" stroke-opacity="1" stroke-miterlimit="10" d="M 178.023438 383.460938 C 178.023438 387.191406 175 390.21875 171.265625 390.21875 C 167.535156 390.21875 164.511719 387.191406 164.511719 383.460938 C 164.511719 379.730469 167.535156 376.707031 171.265625 376.707031 C 175 376.707031 178.023438 379.730469 178.023438 383.460938 "/>
<path fill-rule="nonzero" fill="rgb(18.431373%, 30.980392%, 30.980392%)" fill-opacity="1" stroke-width="0.708661" stroke-linecap="round" stroke-linejoin="round" stroke="rgb(18.431373%, 30.980392%, 30.980392%)" stroke-opacity="1" stroke-miterlimit="10" d="M 185.074219 313.875 C 185.074219 317.605469 182.046875 320.628906 178.316406 320.628906 C 174.585938 320.628906 171.558594 317.605469 171.558594 313.875 C 171.558594 310.140625 174.585938 307.117188 178.316406 307.117188 C 182.046875 307.117188 185.074219 310.140625 185.074219 313.875 "/>
<path fill-rule="nonzero" fill="rgb(18.431373%, 30.980392%, 30.980392%)" fill-opacity="1" stroke-width="0.708661" stroke-linecap="round" stroke-linejoin="round" stroke="rgb(18.431373%, 30.980392%, 30.980392%)" stroke-opacity="1" stroke-miterlimit="10" d="M 192.121094 224.953125 C 192.121094 228.683594 189.097656 231.710938 185.367188 231.710938 C 181.632812 231.710938 178.609375 228.683594 178.609375 224.953125 C 178.609375 221.222656 181.632812 218.195312 185.367188 218.195312 C 189.097656 218.195312 192.121094 221.222656 192.121094 224.953125 "/>
<path fill-rule="nonzero" fill="rgb(18.431373%, 30.980392%, 30.980392%)" fill-opacity="1" stroke-width="0.708661" stroke-linecap="round" stroke-linejoin="round" stroke="rgb(18.431373%, 30.980392%, 30.980392%)" stroke-opacity="1" stroke-miterlimit="10" d="M 199.171875 376.714844 C 199.171875 380.445312 196.144531 383.472656 192.414062 383.472656 C 188.683594 383.472656 185.660156 380.445312 185.660156 376.714844 C 185.660156 372.984375 188.683594 369.960938 192.414062 369.960938 C 196.144531 369.960938 199.171875 372.984375 199.171875 376.714844 "/>
<path fill-rule="nonzero" fill="rgb(18.431373%, 30.980392%, 30.980392%)" fill-opacity="1" stroke-width="0.708661" stroke-linecap="round" stroke-linejoin="round" stroke="rgb(18.431373%, 30.980392%, 30.980392%)" stroke-opacity="1" stroke-miterlimit="10" d="M 206.21875 359.121094 C 206.21875 362.851562 203.195312 365.875 199.464844 365.875 C 195.734375 365.875 192.707031 362.851562 192.707031 359.121094 C 192.707031 355.390625 195.734375 352.363281 199.464844 352.363281 C 203.195312 352.363281 206.21875 355.390625 206.21875 359.121094 "/>
<path fill-rule="nonzero" fill="rgb(18.431373%, 30.980392%, 30.980392%)" fill-opacity="1" stroke-width="0.708661" stroke-linecap="round" stroke-linejoin="round" stroke="rgb(18.431373%, 30.980392%, 30.980392%)" stroke-opacity="1" stroke-miterlimit="10" d="M 213.269531 346.617188 C 213.269531 350.347656 210.246094 353.375 206.511719 353.375 C 202.78125 353.375 199.757812 350.347656 199.757812 346.617188 C 199.757812 342.886719 202.78125 339.863281 206.511719 339.863281 C 210.246094 339.863281 213.269531 342.886719 213.269531 346.617188 "/>
<path fill-rule="nonzero" fill="rgb(18.431373%, 30.980392%, 30.980392%)" fill-opacity="1" stroke-width="0.708661" stroke-linecap="round" stroke-linejoin="round" stroke="rgb(18.431373%, 30.980392%, 30.980392%)" stroke-opacity="1" stroke-miterlimit="10" d="M 220.320312 457.945312 C 220.320312 461.675781 217.292969 464.703125 213.5625 464.703125 C 209.832031 464.703125 206.804688 461.675781 206.804688 457.945312 C 206.804688 454.214844 209.832031 451.191406 213.5625 451.191406 C 217.292969 451.191406 220.320312 454.214844 220.320312 457.945312 "/>
<path fill-rule="nonzero" fill="rgb(18.431373%, 30.980392%, 30.980392%)" fill-opacity="1" stroke-width="0.708661" stroke-linecap="round" stroke-linejoin="round" stroke="rgb(18.431373%, 30.980392%, 30.980392%)" stroke-opacity="1" stroke-miterlimit="10" d="M 227.367188 330.988281 C 227.367188 334.722656 224.34375 337.746094 220.613281 337.746094 C 216.878906 337.746094 213.855469 334.722656 213.855469 330.988281 C 213.855469 327.257812 216.878906 324.234375 220.613281 324.234375 C 224.34375 324.234375 227.367188 327.257812 227.367188 330.988281 "/>
<path fill-rule="nonzero" fill="rgb(18.431373%, 30.980392%, 30.980392%)" fill-opacity="1" stroke-width="0.708661" stroke-linecap="round" stroke-linejoin="round" stroke="rgb(18.431373%, 30.980392%, 30.980392%)" stroke-opacity="1" stroke-miterlimit="10" d="M 234.417969 231.625 C 234.417969 235.355469 231.390625 238.382812 227.660156 238.382812 C 223.929688 238.382812 220.90625 235.355469 220.90625 231.625 C 220.90625 227.894531 223.929688 224.867188 227.660156 224.867188 C 231.390625 224.867188 234.417969 227.894531 234.417969 231.625 "/>
<path fill-rule="nonzero" fill="rgb(18.431373%, 30.980392%, 30.980392%)" fill-opacity="1" stroke-width="0.708661" stroke-linecap="round" stroke-linejoin="round" stroke="rgb(18.431373%, 30.980392%, 30.980392%)" stroke-opacity="1" stroke-miterlimit="10" d="M 241.464844 379.945312 C 241.464844 383.675781 238.441406 386.699219 234.710938 386.699219 C 230.980469 386.699219 227.953125 383.675781 227.953125 379.945312 C 227.953125 376.214844 230.980469 373.1875 234.710938 373.1875 C 238.441406 373.1875 241.464844 376.214844 241.464844 379.945312 "/>
<path fill-rule="nonzero" fill="rgb(18.431373%, 30.980392%, 30.980392%)" fill-opacity="1" stroke-width="0.708661" stroke-linecap="round" stroke-linejoin="round" stroke="rgb(18.431373%, 30.980392%, 30.980392%)" stroke-opacity="1" stroke-miterlimit="10" d="M 248.515625 286.53125 C 248.515625 290.265625 245.492188 293.289062 241.757812 293.289062 C 238.027344 293.289062 235.003906 290.265625 235.003906 286.53125 C 235.003906 282.800781 238.027344 279.777344 241.757812 279.777344 C 245.492188 279.777344 248.515625 282.800781 248.515625 286.53125 "/>
<path fill-rule="nonzero" fill="rgb(18.431373%, 30.980392%, 30.980392%)" fill-opacity="1" stroke-width="0.708661" stroke-linecap="round" stroke-linejoin="round" stroke="rgb(18.431373%, 30.980392%, 30.980392%)" stroke-opacity="1" stroke-miterlimit="10" d="M 255.566406 260.476562 C 255.566406 264.207031 252.539062 267.230469 248.808594 267.230469 C 245.078125 267.230469 242.050781 264.207031 242.050781 260.476562 C 242.050781 256.742188 245.078125 253.71875 248.808594 253.71875 C 252.539062 253.71875 255.566406 256.742188 255.566406 260.476562 "/>
<path fill-rule="nonzero" fill="rgb(18.431373%, 30.980392%, 30.980392%)" fill-opacity="1" stroke-width="0.708661" stroke-linecap="round" stroke-linejoin="round" stroke="rgb(18.431373%, 30.980392%, 30.980392%)" stroke-opacity="1" stroke-miterlimit="10" d="M 262.613281 252.660156 C 262.613281 256.390625 259.589844 259.417969 255.859375 259.417969 C 252.125 259.417969 249.101562 256.390625 249.101562 252.660156 C 249.101562 248.929688 252.125 245.902344 255.859375 245.902344 C 259.589844 245.902344 262.613281 248.929688 262.613281 252.660156 "/>
<path fill-rule="nonzero" fill="rgb(18.431373%, 30.980392%, 30.980392%)" fill-opacity="1" stroke-width="0.708661" stroke-linecap="round" stroke-linejoin="round" stroke="rgb(18.431373%, 30.980392%, 30.980392%)" stroke-opacity="1" stroke-miterlimit="10" d="M 269.664062 377.199219 C 269.664062 380.929688 266.636719 383.957031 262.90625 383.957031 C 259.175781 383.957031 256.152344 380.929688 256.152344 377.199219 C 256.152344 373.46875 259.175781 370.441406 262.90625 370.441406 C 266.636719 370.441406 269.664062 373.46875 269.664062 377.199219 "/>
<path fill-rule="nonzero" fill="rgb(18.431373%, 30.980392%, 30.980392%)" fill-opacity="1" stroke-width="0.708661" stroke-linecap="round" stroke-linejoin="round" stroke="rgb(18.431373%, 30.980392%, 30.980392%)" stroke-opacity="1" stroke-miterlimit="10" d="M 276.710938 369.800781 C 276.710938 373.53125 273.6875 376.554688 269.957031 376.554688 C 266.226562 376.554688 263.199219 373.53125 263.199219 369.800781 C 263.199219 366.066406 266.226562 363.042969 269.957031 363.042969 C 273.6875 363.042969 276.710938 366.066406 276.710938 369.800781 "/>
<path fill-rule="nonzero" fill="rgb(18.431373%, 30.980392%, 30.980392%)" fill-opacity="1" stroke-width="0.708661" stroke-linecap="round" stroke-linejoin="round" stroke="rgb(18.431373%, 30.980392%, 30.980392%)" stroke-opacity="1" stroke-miterlimit="10" d="M 283.761719 323.824219 C 283.761719 327.554688 280.738281 330.578125 277.003906 330.578125 C 273.273438 330.578125 270.25 327.554688 270.25 323.824219 C 270.25 320.09375 273.273438 317.066406 277.003906 317.066406 C 280.738281 317.066406 283.761719 320.09375 283.761719 323.824219 "/>
<path fill-rule="nonzero" fill="rgb(18.431373%, 30.980392%, 30.980392%)" fill-opacity="1" stroke-width="0.708661" stroke-linecap="round" stroke-linejoin="round" stroke="rgb(18.431373%, 30.980392%, 30.980392%)" stroke-opacity="1" stroke-miterlimit="10" d="M 290.8125 143.925781 C 290.8125 147.660156 287.785156 150.683594 284.054688 150.683594 C 280.324219 150.683594 277.296875 147.660156 277.296875 143.925781 C 277.296875 140.195312 280.324219 137.171875 284.054688 137.171875 C 287.785156 137.171875 290.8125 140.195312 290.8125 143.925781 "/>
<path fill-rule="nonzero" fill="rgb(18.431373%, 30.980392%, 30.980392%)" fill-opacity="1" stroke-width="0.708661" stroke-linecap="round" stroke-linejoin="round" stroke="rgb(18.431373%, 30.980392%, 30.980392%)" stroke-opacity="1" stroke-miterlimit="10" d="M 297.859375 293.234375 C 297.859375 296.964844 294.835938 299.992188 291.105469 299.992188 C 287.371094 299.992188 284.347656 296.964844 284.347656 293.234375 C 284.347656 289.503906 287.371094 286.480469 291.105469 286.480469 C 294.835938 286.480469 297.859375 289.503906 297.859375 293.234375 "/>
<path fill-rule="nonzero" fill="rgb(18.431373%, 30.980392%, 30.980392%)" fill-opacity="1" stroke-width="0.708661" stroke-linecap="round" stroke-linejoin="round" stroke="rgb(18.431373%, 30.980392%, 30.980392%)" stroke-opacity="1" stroke-miterlimit="10" d="M 304.910156 246.460938 C 304.910156 250.191406 301.882812 253.21875 298.152344 253.21875 C 294.421875 253.21875 291.398438 250.191406 291.398438 246.460938 C 291.398438 242.730469 294.421875 239.707031 298.152344 239.707031 C 301.882812 239.707031 304.910156 242.730469 304.910156 246.460938 "/>
<path fill-rule="nonzero" fill="rgb(18.431373%, 30.980392%, 30.980392%)" fill-opacity="1" stroke-width="0.708661" stroke-linecap="round" stroke-linejoin="round" stroke="rgb(18.431373%, 30.980392%, 30.980392%)" stroke-opacity="1" stroke-miterlimit="10" d="M 311.957031 214.5625 C 311.957031 218.292969 308.933594 221.320312 305.203125 221.320312 C 301.472656 221.320312 298.445312 218.292969 298.445312 214.5625 C 298.445312 210.832031 301.472656 207.804688 305.203125 207.804688 C 308.933594 207.804688 311.957031 210.832031 311.957031 214.5625 "/>
<path fill-rule="nonzero" fill="rgb(18.431373%, 30.980392%, 30.980392%)" fill-opacity="1" stroke-width="0.708661" stroke-linecap="round" stroke-linejoin="round" stroke="rgb(18.431373%, 30.980392%, 30.980392%)" stroke-opacity="1" stroke-miterlimit="10" d="M 319.007812 123.1875 C 319.007812 126.917969 315.984375 129.945312 312.25 129.945312 C 308.519531 129.945312 305.496094 126.917969 305.496094 123.1875 C 305.496094 119.457031 308.519531 116.429688 312.25 116.429688 C 315.984375 116.429688 319.007812 119.457031 319.007812 123.1875 "/>
<path fill-rule="nonzero" fill="rgb(18.431373%, 30.980392%, 30.980392%)" fill-opacity="1" stroke-width="0.708661" stroke-linecap="round" stroke-linejoin="round" stroke="rgb(18.431373%, 30.980392%, 30.980392%)" stroke-opacity="1" stroke-miterlimit="10" d="M 326.058594 273.019531 C 326.058594 276.75 323.03125 279.777344 319.300781 279.777344 C 315.570312 279.777344 312.542969 276.75 312.542969 273.019531 C 312.542969 269.289062 315.570312 266.261719 319.300781 266.261719 C 323.03125 266.261719 326.058594 269.289062 326.058594 273.019531 "/>
<path fill-rule="nonzero" fill="rgb(18.431373%, 30.980392%, 30.980392%)" fill-opacity="1" stroke-width="0.708661" stroke-linecap="round" stroke-linejoin="round" stroke="rgb(18.431373%, 30.980392%, 30.980392%)" stroke-opacity="1" stroke-miterlimit="10" d="M 333.105469 244.960938 C 333.105469 248.695312 330.082031 251.71875 326.351562 251.71875 C 322.617188 251.71875 319.59375 248.695312 319.59375 244.960938 C 319.59375 241.230469 322.617188 238.207031 326.351562 238.207031 C 330.082031 238.207031 333.105469 241.230469 333.105469 244.960938 "/>
<path fill-rule="nonzero" fill="rgb(18.431373%, 30.980392%, 30.980392%)" fill-opacity="1" stroke-width="0.708661" stroke-linecap="round" stroke-linejoin="round" stroke="rgb(18.431373%, 30.980392%, 30.980392%)" stroke-opacity="1" stroke-miterlimit="10" d="M 340.15625 351.332031 C 340.15625 355.0625 337.128906 358.089844 333.398438 358.089844 C 329.667969 358.089844 326.644531 355.0625 326.644531 351.332031 C 326.644531 347.601562 329.667969 344.578125 333.398438 344.578125 C 337.128906 344.578125 340.15625 347.601562 340.15625 351.332031 "/>
<path fill-rule="nonzero" fill="rgb(18.431373%, 30.980392%, 30.980392%)" fill-opacity="1" stroke-width="0.708661" stroke-linecap="round" stroke-linejoin="round" stroke="rgb(18.431373%, 30.980392%, 30.980392%)" stroke-opacity="1" stroke-miterlimit="10" d="M 347.203125 156.890625 C 347.203125 160.621094 344.179688 163.644531 340.449219 163.644531 C 336.71875 163.644531 333.691406 160.621094 333.691406 156.890625 C 333.691406 153.160156 336.71875 150.132812 340.449219 150.132812 C 344.179688 150.132812 347.203125 153.160156 347.203125 156.890625 "/>
<path fill-rule="nonzero" fill="rgb(18.431373%, 30.980392%, 30.980392%)" fill-opacity="1" stroke-width="0.708661" stroke-linecap="round" stroke-linejoin="round" stroke="rgb(18.431373%, 30.980392%, 30.980392%)" stroke-opacity="1" stroke-miterlimit="10" d="M 354.253906 414.707031 C 354.253906 418.4375 351.230469 421.464844 347.496094 421.464844 C 343.765625 421.464844 340.742188 418.4375 340.742188 414.707031 C 340.742188 410.976562 343.765625 407.953125 347.496094 407.953125 C 351.230469 407.953125 354.253906 410.976562 354.253906 414.707031 "/>
<path fill-rule="nonzero" fill="rgb(18.431373%, 30.980392%, 30.980392%)" fill-opacity="1" stroke-width="0.708661" stroke-linecap="round" stroke-linejoin="round" stroke="rgb(18.431373%, 30.980392%, 30.980392%)" stroke-opacity="1" stroke-miterlimit="10" d="M 361.304688 162.636719 C 361.304688 166.367188 358.277344 169.390625 354.546875 169.390625 C 350.816406 169.390625 347.789062 166.367188 347.789062 162.636719 C 347.789062 158.902344 350.816406 155.878906 354.546875 155.878906 C 358.277344 155.878906 361.304688 158.902344 361.304688 162.636719 "/>
<path fill-rule="nonzero" fill="rgb(18.431373%, 30.980392%, 30.980392%)" fill-opacity="1" stroke-width="0.708661" stroke-linecap="round" stroke-linejoin="round" stroke="rgb(18.431373%, 30.980392%, 30.980392%)" stroke-opacity="1" stroke-miterlimit="10" d="M 368.351562 349.898438 C 368.351562 353.632812 365.328125 356.65625 361.597656 356.65625 C 357.863281 356.65625 354.839844 353.632812 354.839844 349.898438 C 354.839844 346.167969 357.863281 343.144531 361.597656 343.144531 C 365.328125 343.144531 368.351562 346.167969 368.351562 349.898438 "/>
<path fill-rule="nonzero" fill="rgb(18.431373%, 30.980392%, 30.980392%)" fill-opacity="1" stroke-width="0.708661" stroke-linecap="round" stroke-linejoin="round" stroke="rgb(18.431373%, 30.980392%, 30.980392%)" stroke-opacity="1" stroke-miterlimit="10" d="M 375.402344 33.996094 C 375.402344 37.730469 372.375 40.753906 368.644531 40.753906 C 364.914062 40.753906 361.890625 37.730469 361.890625 33.996094 C 361.890625 30.265625 364.914062 27.242188 368.644531 27.242188 C 372.375 27.242188 375.402344 30.265625 375.402344 33.996094 "/>
<path fill-rule="nonzero" fill="rgb(18.431373%, 30.980392%, 30.980392%)" fill-opacity="1" stroke-width="0.708661" stroke-linecap="round" stroke-linejoin="round" stroke="rgb(18.431373%, 30.980392%, 30.980392%)" stroke-opacity="1" stroke-miterlimit="10" d="M 382.449219 298.824219 C 382.449219 302.558594 379.425781 305.582031 375.695312 305.582031 C 371.964844 305.582031 368.9375 302.558594 368.9375 298.824219 C 368.9375 295.09375 371.964844 292.070312 375.695312 292.070312 C 379.425781 292.070312 382.449219 295.09375 382.449219 298.824219 "/>
<path fill-rule="nonzero" fill="rgb(18.431373%, 30.980392%, 30.980392%)" fill-opacity="1" stroke-width="0.708661" stroke-linecap="round" stroke-linejoin="round" stroke="rgb(18.431373%, 30.980392%, 30.980392%)" stroke-opacity="1" stroke-miterlimit="10" d="M 389.5 295.636719 C 389.5 299.371094 386.476562 302.394531 382.742188 302.394531 C 379.011719 302.394531 375.988281 299.371094 375.988281 295.636719 C 375.988281 291.90625 379.011719 288.882812 382.742188 288.882812 C 386.476562 288.882812 389.5 291.90625 389.5 295.636719 "/>
<path fill-rule="nonzero" fill="rgb(18.431373%, 30.980392%, 30.980392%)" fill-opacity="1" stroke-width="0.708661" stroke-linecap="round" stroke-linejoin="round" stroke="rgb(18.431373%, 30.980392%, 30.980392%)" stroke-opacity="1" stroke-miterlimit="10" d="M 396.550781 231.449219 C 396.550781 235.179688 393.523438 238.203125 389.792969 238.203125 C 386.0625 238.203125 383.035156 235.179688 383.035156 231.449219 C 383.035156 227.71875 386.0625 224.691406 389.792969 224.691406 C 393.523438 224.691406 396.550781 227.71875 396.550781 231.449219 "/>
<path fill-rule="nonzero" fill="rgb(18.431373%, 30.980392%, 30.980392%)" fill-opacity="1" stroke-width="0.708661" stroke-linecap="round" stroke-linejoin="round" stroke="rgb(18.431373%, 30.980392%, 30.980392%)" stroke-opacity="1" stroke-miterlimit="10" d="M 403.597656 182.507812 C 403.597656 186.238281 400.574219 189.261719 396.84375 189.261719 C 393.109375 189.261719 390.085938 186.238281 390.085938 182.507812 C 390.085938 178.777344 393.109375 175.75 396.84375 175.75 C 400.574219 175.75 403.597656 178.777344 403.597656 182.507812 "/>
<path fill-rule="nonzero" fill="rgb(18.431373%, 30.980392%, 30.980392%)" fill-opacity="1" stroke-width="0.708661" stroke-linecap="round" stroke-linejoin="round" stroke="rgb(18.431373%, 30.980392%, 30.980392%)" stroke-opacity="1" stroke-miterlimit="10" d="M 410.648438 384.261719 C 410.648438 387.996094 407.621094 391.019531 403.890625 391.019531 C 400.160156 391.019531 397.136719 387.996094 397.136719 384.261719 C 397.136719 380.53125 400.160156 377.507812 403.890625 377.507812 C 407.621094 377.507812 410.648438 380.53125 410.648438 384.261719 "/>
<path fill-rule="nonzero" fill="rgb(18.431373%, 30.980392%, 30.980392%)" fill-opacity="1" stroke-width="0.708661" stroke-linecap="round" stroke-linejoin="round" stroke="rgb(18.431373%, 30.980392%, 30.980392%)" stroke-opacity="1" stroke-miterlimit="10" d="M 417.695312 336.292969 C 417.695312 340.023438 414.671875 343.050781 410.941406 343.050781 C 407.210938 343.050781 404.183594 340.023438 404.183594 336.292969 C 404.183594 332.5625 407.210938 329.539062 410.941406 329.539062 C 414.671875 329.539062 417.695312 332.5625 417.695312 336.292969 "/>
<path fill-rule="nonzero" fill="rgb(18.431373%, 30.980392%, 30.980392%)" fill-opacity="1" stroke-width="0.708661" stroke-linecap="round" stroke-linejoin="round" stroke="rgb(18.431373%, 30.980392%, 30.980392%)" stroke-opacity="1" stroke-miterlimit="10" d="M 424.746094 293.683594 C 424.746094 297.414062 421.722656 300.4375 417.988281 300.4375 C 414.257812 300.4375 411.234375 297.414062 411.234375 293.683594 C 411.234375 289.953125 414.257812 286.925781 417.988281 286.925781 C 421.722656 286.925781 424.746094 289.953125 424.746094 293.683594 "/>
<path fill-rule="nonzero" fill="rgb(18.431373%, 30.980392%, 30.980392%)" fill-opacity="1" stroke-width="0.708661" stroke-linecap="round" stroke-linejoin="round" stroke="rgb(18.431373%, 30.980392%, 30.980392%)" stroke-opacity="1" stroke-miterlimit="10" d="M 431.796875 425.023438 C 431.796875 428.753906 428.769531 431.777344 425.039062 431.777344 C 421.308594 431.777344 418.28125 428.753906 418.28125 425.023438 C 418.28125 421.289062 421.308594 418.265625 425.039062 418.265625 C 428.769531 418.265625 431.796875 421.289062 431.796875 425.023438 "/>
<path fill-rule="nonzero" fill="rgb(18.431373%, 30.980392%, 30.980392%)" fill-opacity="1" stroke-width="0.708661" stroke-linecap="round" stroke-linejoin="round" stroke="rgb(18.431373%, 30.980392%, 30.980392%)" stroke-opacity="1" stroke-miterlimit="10" d="M 438.84375 436.941406 C 438.84375 440.675781 435.820312 443.699219 432.089844 443.699219 C 428.355469 443.699219 425.332031 440.675781 425.332031 436.941406 C 425.332031 433.210938 428.355469 430.1875 432.089844 430.1875 C 435.820312 430.1875 438.84375 433.210938 438.84375 436.941406 "/>
<path fill-rule="nonzero" fill="rgb(18.431373%, 30.980392%, 30.980392%)" fill-opacity="1" stroke-width="0.708661" stroke-linecap="round" stroke-linejoin="round" stroke="rgb(18.431373%, 30.980392%, 30.980392%)" stroke-opacity="1" stroke-miterlimit="10" d="M 445.894531 380.1875 C 445.894531 383.917969 442.867188 386.941406 439.136719 386.941406 C 435.40625 386.941406 432.382812 383.917969 432.382812 380.1875 C 432.382812 376.457031 435.40625 373.429688 439.136719 373.429688 C 442.867188 373.429688 445.894531 376.457031 445.894531 380.1875 "/>
<path fill-rule="nonzero" fill="rgb(18.431373%, 30.980392%, 30.980392%)" fill-opacity="1" stroke-width="0.708661" stroke-linecap="round" stroke-linejoin="round" stroke="rgb(18.431373%, 30.980392%, 30.980392%)" stroke-opacity="1" stroke-miterlimit="10" d="M 452.941406 310.640625 C 452.941406 314.371094 449.917969 317.398438 446.1875 317.398438 C 442.457031 317.398438 439.429688 314.371094 439.429688 310.640625 C 439.429688 306.910156 442.457031 303.886719 446.1875 303.886719 C 449.917969 303.886719 452.941406 306.910156 452.941406 310.640625 "/>
<path fill-rule="nonzero" fill="rgb(18.431373%, 30.980392%, 30.980392%)" fill-opacity="1" stroke-width="0.708661" stroke-linecap="round" stroke-linejoin="round" stroke="rgb(18.431373%, 30.980392%, 30.980392%)" stroke-opacity="1" stroke-miterlimit="10" d="M 459.992188 320.148438 C 459.992188 323.878906 456.96875 326.902344 453.234375 326.902344 C 449.503906 326.902344 446.480469 323.878906 446.480469 320.148438 C 446.480469 316.417969 449.503906 313.390625 453.234375 313.390625 C 456.96875 313.390625 459.992188 316.417969 459.992188 320.148438 "/>
<path fill-rule="nonzero" fill="rgb(18.431373%, 30.980392%, 30.980392%)" fill-opacity="1" stroke-width="0.708661" stroke-linecap="round" stroke-linejoin="round" stroke="rgb(18.431373%, 30.980392%, 30.980392%)" stroke-opacity="1" stroke-miterlimit="10" d="M 467.042969 217.972656 C 467.042969 221.703125 464.015625 224.726562 460.285156 224.726562 C 456.554688 224.726562 453.527344 221.703125 453.527344 217.972656 C 453.527344 214.242188 456.554688 211.214844 460.285156 211.214844 C 464.015625 211.214844 467.042969 214.242188 467.042969 217.972656 "/>
<path fill-rule="nonzero" fill="rgb(18.431373%, 30.980392%, 30.980392%)" fill-opacity="1" stroke-width="0.708661" stroke-linecap="round" stroke-linejoin="round" stroke="rgb(18.431373%, 30.980392%, 30.980392%)" stroke-opacity="1" stroke-miterlimit="10" d="M 474.089844 257.519531 C 474.089844 261.25 471.066406 264.277344 467.335938 264.277344 C 463.601562 264.277344 460.578125 261.25 460.578125 257.519531 C 460.578125 253.789062 463.601562 250.761719 467.335938 250.761719 C 471.066406 250.761719 474.089844 253.789062 474.089844 257.519531 "/>
<path fill-rule="nonzero" fill="rgb(18.431373%, 30.980392%, 30.980392%)" fill-opacity="1" stroke-width="0.708661" stroke-linecap="round" stroke-linejoin="round" stroke="rgb(18.431373%, 30.980392%, 30.980392%)" stroke-opacity="1" stroke-miterlimit="10" d="M 481.140625 265.214844 C 481.140625 268.945312 478.113281 271.972656 474.382812 271.972656 C 470.652344 271.972656 467.628906 268.945312 467.628906 265.214844 C 467.628906 261.484375 470.652344 258.457031 474.382812 258.457031 C 478.113281 258.457031 481.140625 261.484375 481.140625 265.214844 "/>
<path fill-rule="nonzero" fill="rgb(18.431373%, 30.980392%, 30.980392%)" fill-opacity="1" stroke-width="0.708661" stroke-linecap="round" stroke-linejoin="round" stroke="rgb(18.431373%, 30.980392%, 30.980392%)" stroke-opacity="1" stroke-miterlimit="10" d="M 488.1875 310.527344 C 488.1875 314.257812 485.164062 317.285156 481.433594 317.285156 C 477.703125 317.285156 474.675781 314.257812 474.675781 310.527344 C 474.675781 306.796875 477.703125 303.773438 481.433594 303.773438 C 485.164062 303.773438 488.1875 306.796875 488.1875 310.527344 "/>
<path fill-rule="nonzero" fill="rgb(18.431373%, 30.980392%, 30.980392%)" fill-opacity="1" stroke-width="0.708661" stroke-linecap="round" stroke-linejoin="round" stroke="rgb(18.431373%, 30.980392%, 30.980392%)" stroke-opacity="1" stroke-miterlimit="10" d="M 495.238281 167.6875 C 495.238281 171.417969 492.214844 174.441406 488.480469 174.441406 C 484.75 174.441406 481.726562 171.417969 481.726562 167.6875 C 481.726562 163.957031 484.75 160.929688 488.480469 160.929688 C 492.214844 160.929688 495.238281 163.957031 495.238281 167.6875 "/>
<path fill-rule="nonzero" fill="rgb(18.431373%, 30.980392%, 30.980392%)" fill-opacity="1" stroke-width="0.708661" stroke-linecap="round" stroke-linejoin="round" stroke="rgb(18.431373%, 30.980392%, 30.980392%)" stroke-opacity="1" stroke-miterlimit="10" d="M 502.289062 274.859375 C 502.289062 278.59375 499.261719 281.617188 495.53125 281.617188 C 491.800781 281.617188 488.773438 278.59375 488.773438 274.859375 C 488.773438 271.128906 491.800781 268.105469 495.53125 268.105469 C 499.261719 268.105469 502.289062 271.128906 502.289062 274.859375 "/>
<path fill-rule="nonzero" fill="rgb(18.431373%, 30.980392%, 30.980392%)" fill-opacity="1" stroke-width="0.708661" stroke-linecap="round" stroke-linejoin="round" stroke="rgb(18.431373%, 30.980392%, 30.980392%)" stroke-opacity="1" stroke-miterlimit="10" d="M 509.335938 256.863281 C 509.335938 260.59375 506.3125 263.617188 502.582031 263.617188 C 498.847656 263.617188 495.824219 260.59375 495.824219 256.863281 C 495.824219 253.132812 498.847656 250.105469 502.582031 250.105469 C 506.3125 250.105469 509.335938 253.132812 509.335938 256.863281 "/>
<path fill-rule="nonzero" fill="rgb(18.431373%, 30.980392%, 30.980392%)" fill-opacity="1" stroke-width="0.708661" stroke-linecap="round" stroke-linejoin="round" stroke="rgb(18.431373%, 30.980392%, 30.980392%)" stroke-opacity="1" stroke-miterlimit="10" d="M 516.386719 232.886719 C 516.386719 236.617188 513.359375 239.640625 509.628906 239.640625 C 505.898438 239.640625 502.875 236.617188 502.875 232.886719 C 502.875 229.15625 505.898438 226.128906 509.628906 226.128906 C 513.359375 226.128906 516.386719 229.15625 516.386719 232.886719 "/>
<path fill-rule="nonzero" fill="rgb(18.431373%, 30.980392%, 30.980392%)" fill-opacity="1" stroke-width="0.708661" stroke-linecap="round" stroke-linejoin="round" stroke="rgb(18.431373%, 30.980392%, 30.980392%)" stroke-opacity="1" stroke-miterlimit="10" d="M 523.433594 184.082031 C 523.433594 187.8125 520.410156 190.835938 516.679688 190.835938 C 512.949219 190.835938 509.921875 187.8125 509.921875 184.082031 C 509.921875 180.351562 512.949219 177.324219 516.679688 177.324219 C 520.410156 177.324219 523.433594 180.351562 523.433594 184.082031 "/>
<path fill-rule="nonzero" fill="rgb(18.431373%, 30.980392%, 30.980392%)" fill-opacity="1" stroke-width="0.708661" stroke-linecap="round" stroke-linejoin="round" stroke="rgb(18.431373%, 30.980392%, 30.980392%)" stroke-opacity="1" stroke-miterlimit="10" d="M 530.484375 237.003906 C 530.484375 240.738281 527.460938 243.761719 523.726562 243.761719 C 519.996094 243.761719 516.972656 240.738281 516.972656 237.003906 C 516.972656 233.273438 519.996094 230.25 523.726562 230.25 C 527.460938 230.25 530.484375 233.273438 530.484375 237.003906 "/>
<path fill-rule="nonzero" fill="rgb(18.431373%, 30.980392%, 30.980392%)" fill-opacity="1" stroke-width="0.708661" stroke-linecap="round" stroke-linejoin="round" stroke="rgb(18.431373%, 30.980392%, 30.980392%)" stroke-opacity="1" stroke-miterlimit="10" d="M 537.535156 255.316406 C 537.535156 259.046875 534.507812 262.070312 530.777344 262.070312 C 527.046875 262.070312 524.019531 259.046875 524.019531 255.316406 C 524.019531 251.585938 527.046875 248.558594 530.777344 248.558594 C 534.507812 248.558594 537.535156 251.585938 537.535156 255.316406 "/>
<path fill-rule="nonzero" fill="rgb(18.431373%, 30.980392%, 30.980392%)" fill-opacity="1" stroke-width="0.708661" stroke-linecap="round" stroke-linejoin="round" stroke="rgb(18.431373%, 30.980392%, 30.980392%)" stroke-opacity="1" stroke-miterlimit="10" d="M 544.582031 298.296875 C 544.582031 302.027344 541.558594 305.050781 537.828125 305.050781 C 534.09375 305.050781 531.070312 302.027344 531.070312 298.296875 C 531.070312 294.5625 534.09375 291.539062 537.828125 291.539062 C 541.558594 291.539062 544.582031 294.5625 544.582031 298.296875 "/>
<path fill-rule="nonzero" fill="rgb(18.431373%, 30.980392%, 30.980392%)" fill-opacity="1" stroke-width="0.708661" stroke-linecap="round" stroke-linejoin="round" stroke="rgb(18.431373%, 30.980392%, 30.980392%)" stroke-opacity="1" stroke-miterlimit="10" d="M 551.632812 253.125 C 551.632812 256.855469 548.605469 259.882812 544.875 259.882812 C 541.144531 259.882812 538.121094 256.855469 538.121094 253.125 C 538.121094 249.394531 541.144531 246.371094 544.875 246.371094 C 548.605469 246.371094 551.632812 249.394531 551.632812 253.125 "/>
<path fill-rule="nonzero" fill="rgb(18.431373%, 30.980392%, 30.980392%)" fill-opacity="1" stroke-width="0.708661" stroke-linecap="round" stroke-linejoin="round" stroke="rgb(18.431373%, 30.980392%, 30.980392%)" stroke-opacity="1" stroke-miterlimit="10" d="M 558.679688 182.253906 C 558.679688 185.984375 555.65625 189.007812 551.925781 189.007812 C 548.195312 189.007812 545.167969 185.984375 545.167969 182.253906 C 545.167969 178.523438 548.195312 175.496094 551.925781 175.496094 C 555.65625 175.496094 558.679688 178.523438 558.679688 182.253906 "/>
<path fill-rule="nonzero" fill="rgb(18.431373%, 30.980392%, 30.980392%)" fill-opacity="1" stroke-width="0.708661" stroke-linecap="round" stroke-linejoin="round" stroke="rgb(18.431373%, 30.980392%, 30.980392%)" stroke-opacity="1" stroke-miterlimit="10" d="M 565.730469 198.105469 C 565.730469 201.835938 562.707031 204.859375 558.972656 204.859375 C 555.242188 204.859375 552.21875 201.835938 552.21875 198.105469 C 552.21875 194.371094 555.242188 191.347656 558.972656 191.347656 C 562.707031 191.347656 565.730469 194.371094 565.730469 198.105469 "/>
<path fill-rule="nonzero" fill="rgb(18.431373%, 30.980392%, 30.980392%)" fill-opacity="1" stroke-width="0.708661" stroke-linecap="round" stroke-linejoin="round" stroke="rgb(18.431373%, 30.980392%, 30.980392%)" stroke-opacity="1" stroke-miterlimit="10" d="M 572.78125 222.011719 C 572.78125 225.742188 569.753906 228.765625 566.023438 228.765625 C 562.292969 228.765625 559.265625 225.742188 559.265625 222.011719 C 559.265625 218.277344 562.292969 215.253906 566.023438 215.253906 C 569.753906 215.253906 572.78125 218.277344 572.78125 222.011719 "/>
<path fill-rule="nonzero" fill="rgb(18.431373%, 30.980392%, 30.980392%)" fill-opacity="1" stroke-width="0.708661" stroke-linecap="round" stroke-linejoin="round" stroke="rgb(18.431373%, 30.980392%, 30.980392%)" stroke-opacity="1" stroke-miterlimit="10" d="M 579.828125 260.859375 C 579.828125 264.589844 576.804688 267.613281 573.074219 267.613281 C 569.339844 267.613281 566.316406 264.589844 566.316406 260.859375 C 566.316406 257.128906 569.339844 254.101562 573.074219 254.101562 C 576.804688 254.101562 579.828125 257.128906 579.828125 260.859375 "/>
<path fill-rule="nonzero" fill="rgb(18.431373%, 30.980392%, 30.980392%)" fill-opacity="1" stroke-width="0.708661" stroke-linecap="round" stroke-linejoin="round" stroke="rgb(18.431373%, 30.980392%, 30.980392%)" stroke-opacity="1" stroke-miterlimit="10" d="M 586.878906 156.753906 C 586.878906 160.484375 583.851562 163.511719 580.121094 163.511719 C 576.390625 163.511719 573.367188 160.484375 573.367188 156.753906 C 573.367188 153.023438 576.390625 150 580.121094 150 C 583.851562 150 586.878906 153.023438 586.878906 156.753906 "/>
<path fill-rule="nonzero" fill="rgb(18.431373%, 30.980392%, 30.980392%)" fill-opacity="1" stroke-width="0.708661" stroke-linecap="round" stroke-linejoin="round" stroke="rgb(18.431373%, 30.980392%, 30.980392%)" stroke-opacity="1" stroke-miterlimit="10" d="M 593.925781 265.210938 C 593.925781 268.941406 590.902344 271.96875 587.171875 271.96875 C 583.441406 271.96875 580.414062 268.941406 580.414062 265.210938 C 580.414062 261.480469 583.441406 258.453125 587.171875 258.453125 C 590.902344 258.453125 593.925781 261.480469 593.925781 265.210938 "/>
<path fill-rule="nonzero" fill="rgb(18.431373%, 30.980392%, 30.980392%)" fill-opacity="1" stroke-width="0.708661" stroke-linecap="round" stroke-linejoin="round" stroke="rgb(18.431373%, 30.980392%, 30.980392%)" stroke-opacity="1" stroke-miterlimit="10" d="M 600.976562 286.382812 C 600.976562 290.113281 597.953125 293.136719 594.21875 293.136719 C 590.488281 293.136719 587.464844 290.113281 587.464844 286.382812 C 587.464844 282.648438 590.488281 279.625 594.21875 279.625 C 597.953125 279.625 600.976562 282.648438 600.976562 286.382812 "/>
<path fill-rule="nonzero" fill="rgb(18.431373%, 30.980392%, 30.980392%)" fill-opacity="1" stroke-width="0.708661" stroke-linecap="round" stroke-linejoin="round" stroke="rgb(18.431373%, 30.980392%, 30.980392%)" stroke-opacity="1" stroke-miterlimit="10" d="M 608.027344 359.4375 C 608.027344 363.171875 605 366.195312 601.269531 366.195312 C 597.539062 366.195312 594.511719 363.171875 594.511719 359.4375 C 594.511719 355.707031 597.539062 352.683594 601.269531 352.683594 C 605 352.683594 608.027344 355.707031 608.027344 359.4375 "/>
<path fill-rule="nonzero" fill="rgb(18.431373%, 30.980392%, 30.980392%)" fill-opacity="1" stroke-width="0.708661" stroke-linecap="round" stroke-linejoin="round" stroke="rgb(18.431373%, 30.980392%, 30.980392%)" stroke-opacity="1" stroke-miterlimit="10" d="M 615.074219 157.652344 C 615.074219 161.382812 612.050781 164.410156 608.320312 164.410156 C 604.585938 164.410156 601.5625 161.382812 601.5625 157.652344 C 601.5625 153.921875 604.585938 150.898438 608.320312 150.898438 C 612.050781 150.898438 615.074219 153.921875 615.074219 157.652344 "/>
<path fill-rule="nonzero" fill="rgb(18.431373%, 30.980392%, 30.980392%)" fill-opacity="1" stroke-width="0.708661" stroke-linecap="round" stroke-linejoin="round" stroke="rgb(18.431373%, 30.980392%, 30.980392%)" stroke-opacity="1" stroke-miterlimit="10" d="M 622.125 245.5625 C 622.125 249.292969 619.097656 252.316406 615.367188 252.316406 C 611.636719 252.316406 608.613281 249.292969 608.613281 245.5625 C 608.613281 241.828125 611.636719 238.804688 615.367188 238.804688 C 619.097656 238.804688 622.125 241.828125 622.125 245.5625 "/>
<path fill-rule="nonzero" fill="rgb(18.431373%, 30.980392%, 30.980392%)" fill-opacity="1" stroke-width="0.708661" stroke-linecap="round" stroke-linejoin="round" stroke="rgb(18.431373%, 30.980392%, 30.980392%)" stroke-opacity="1" stroke-miterlimit="10" d="M 629.171875 432.777344 C 629.171875 436.507812 626.148438 439.535156 622.417969 439.535156 C 618.6875 439.535156 615.660156 436.507812 615.660156 432.777344 C 615.660156 429.046875 618.6875 426.023438 622.417969 426.023438 C 626.148438 426.023438 629.171875 429.046875 629.171875 432.777344 "/>
<path fill-rule="nonzero" fill="rgb(18.431373%, 30.980392%, 30.980392%)" fill-opacity="1" stroke-width="0.708661" stroke-linecap="round" stroke-linejoin="round" stroke="rgb(18.431373%, 30.980392%, 30.980392%)" stroke-opacity="1" stroke-miterlimit="10" d="M 636.222656 296.980469 C 636.222656 300.710938 633.199219 303.734375 629.464844 303.734375 C 625.734375 303.734375 622.710938 300.710938 622.710938 296.980469 C 622.710938 293.246094 625.734375 290.222656 629.464844 290.222656 C 633.199219 290.222656 636.222656 293.246094 636.222656 296.980469 "/>
<path fill-rule="nonzero" fill="rgb(18.431373%, 30.980392%, 30.980392%)" fill-opacity="1" stroke-width="0.708661" stroke-linecap="round" stroke-linejoin="round" stroke="rgb(18.431373%, 30.980392%, 30.980392%)" stroke-opacity="1" stroke-miterlimit="10" d="M 643.273438 266.429688 C 643.273438 270.160156 640.246094 273.183594 636.515625 273.183594 C 632.785156 273.183594 629.757812 270.160156 629.757812 266.429688 C 629.757812 262.695312 632.785156 259.671875 636.515625 259.671875 C 640.246094 259.671875 643.273438 262.695312 643.273438 266.429688 "/>
<path fill-rule="nonzero" fill="rgb(18.431373%, 30.980392%, 30.980392%)" fill-opacity="1" stroke-width="0.708661" stroke-linecap="round" stroke-linejoin="round" stroke="rgb(18.431373%, 30.980392%, 30.980392%)" stroke-opacity="1" stroke-miterlimit="10" d="M 650.320312 203.6875 C 650.320312 207.417969 647.296875 210.445312 643.566406 210.445312 C 639.832031 210.445312 636.808594 207.417969 636.808594 203.6875 C 636.808594 199.957031 639.832031 196.929688 643.566406 196.929688 C 647.296875 196.929688 650.320312 199.957031 650.320312 203.6875 "/>
<path fill-rule="nonzero" fill="rgb(18.431373%, 30.980392%, 30.980392%)" fill-opacity="1" stroke-width="0.708661" stroke-linecap="round" stroke-linejoin="round" stroke="rgb(18.431373%, 30.980392%, 30.980392%)" stroke-opacity="1" stroke-miterlimit="10" d="M 657.371094 150.613281 C 657.371094 154.34375 654.34375 157.371094 650.613281 157.371094 C 646.882812 157.371094 643.859375 154.34375 643.859375 150.613281 C 643.859375 146.882812 646.882812 143.855469 650.613281 143.855469 C 654.34375 143.855469 657.371094 146.882812 657.371094 150.613281 "/>
<path fill-rule="nonzero" fill="rgb(18.431373%, 30.980392%, 30.980392%)" fill-opacity="1" stroke-width="0.708661" stroke-linecap="round" stroke-linejoin="round" stroke="rgb(18.431373%, 30.980392%, 30.980392%)" stroke-opacity="1" stroke-miterlimit="10" d="M 664.417969 233.628906 C 664.417969 237.359375 661.394531 240.386719 657.664062 240.386719 C 653.933594 240.386719 650.90625 237.359375 650.90625 233.628906 C 650.90625 229.898438 653.933594 226.871094 657.664062 226.871094 C 661.394531 226.871094 664.417969 229.898438 664.417969 233.628906 "/>
<path fill-rule="nonzero" fill="rgb(18.431373%, 30.980392%, 30.980392%)" fill-opacity="1" stroke-width="0.708661" stroke-linecap="round" stroke-linejoin="round" stroke="rgb(18.431373%, 30.980392%, 30.980392%)" stroke-opacity="1" stroke-miterlimit="10" d="M 671.46875 88.414062 C 671.46875 92.144531 668.445312 95.171875 664.710938 95.171875 C 660.980469 95.171875 657.957031 92.144531 657.957031 88.414062 C 657.957031 84.683594 660.980469 81.65625 664.710938 81.65625 C 668.445312 81.65625 671.46875 84.683594 671.46875 88.414062 "/>
<path fill-rule="nonzero" fill="rgb(18.431373%, 30.980392%, 30.980392%)" fill-opacity="1" stroke-width="0.708661" stroke-linecap="round" stroke-linejoin="round" stroke="rgb(18.431373%, 30.980392%, 30.980392%)" stroke-opacity="1" stroke-miterlimit="10" d="M 678.519531 161.101562 C 678.519531 164.832031 675.492188 167.859375 671.761719 167.859375 C 668.03125 167.859375 665.003906 164.832031 665.003906 161.101562 C 665.003906 157.371094 668.03125 154.347656 671.761719 154.347656 C 675.492188 154.347656 678.519531 157.371094 678.519531 161.101562 "/>
<path fill-rule="nonzero" fill="rgb(18.431373%, 30.980392%, 30.980392%)" fill-opacity="1" stroke-width="0.708661" stroke-linecap="round" stroke-linejoin="round" stroke="rgb(18.431373%, 30.980392%, 30.980392%)" stroke-opacity="1" stroke-miterlimit="10" d="M 685.566406 101.066406 C 685.566406 104.800781 682.542969 107.824219 678.8125 107.824219 C 675.078125 107.824219 672.054688 104.800781 672.054688 101.066406 C 672.054688 97.335938 675.078125 94.3125 678.8125 94.3125 C 682.542969 94.3125 685.566406 97.335938 685.566406 101.066406 "/>
<path fill-rule="nonzero" fill="rgb(18.431373%, 30.980392%, 30.980392%)" fill-opacity="1" stroke-width="0.708661" stroke-linecap="round" stroke-linejoin="round" stroke="rgb(18.431373%, 30.980392%, 30.980392%)" stroke-opacity="1" stroke-miterlimit="10" d="M 692.617188 96.625 C 692.617188 100.355469 689.589844 103.382812 685.859375 103.382812 C 682.128906 103.382812 679.105469 100.355469 679.105469 96.625 C 679.105469 92.894531 682.128906 89.871094 685.859375 89.871094 C 689.589844 89.871094 692.617188 92.894531 692.617188 96.625 "/>
<path fill-rule="nonzero" fill="rgb(18.431373%, 30.980392%, 30.980392%)" fill-opacity="1" stroke-width="0.708661" stroke-linecap="round" stroke-linejoin="round" stroke="rgb(18.431373%, 30.980392%, 30.980392%)" stroke-opacity="1" stroke-miterlimit="10" d="M 699.664062 296.71875 C 699.664062 300.453125 696.640625 303.476562 692.910156 303.476562 C 689.179688 303.476562 686.152344 300.453125 686.152344 296.71875 C 686.152344 292.988281 689.179688 289.964844 692.910156 289.964844 C 696.640625 289.964844 699.664062 292.988281 699.664062 296.71875 "/>
<path fill-rule="nonzero" fill="rgb(18.431373%, 30.980392%, 30.980392%)" fill-opacity="1" stroke-width="0.708661" stroke-linecap="round" stroke-linejoin="round" stroke="rgb(18.431373%, 30.980392%, 30.980392%)" stroke-opacity="1" stroke-miterlimit="10" d="M 706.714844 198.785156 C 706.714844 202.519531 703.691406 205.542969 699.957031 205.542969 C 696.226562 205.542969 693.203125 202.519531 693.203125 198.785156 C 693.203125 195.054688 696.226562 192.03125 699.957031 192.03125 C 703.691406 192.03125 706.714844 195.054688 706.714844 198.785156 "/>
<path fill-rule="nonzero" fill="rgb(18.431373%, 30.980392%, 30.980392%)" fill-opacity="1" stroke-width="0.708661" stroke-linecap="round" stroke-linejoin="round" stroke="rgb(18.431373%, 30.980392%, 30.980392%)" stroke-opacity="1" stroke-miterlimit="10" d="M 713.765625 23.4375 C 713.765625 27.171875 710.738281 30.195312 707.007812 30.195312 C 703.277344 30.195312 700.25 27.171875 700.25 23.4375 C 700.25 19.707031 703.277344 16.683594 707.007812 16.683594 C 710.738281 16.683594 713.765625 19.707031 713.765625 23.4375 "/>
<path fill-rule="nonzero" fill="rgb(18.431373%, 30.980392%, 30.980392%)" fill-opacity="1" stroke-width="0.708661" stroke-linecap="round" stroke-linejoin="round" stroke="rgb(18.431373%, 30.980392%, 30.980392%)" stroke-opacity="1" stroke-miterlimit="10" d="M 720.8125 170.09375 C 720.8125 173.824219 717.789062 176.851562 714.058594 176.851562 C 710.324219 176.851562 707.300781 173.824219 707.300781 170.09375 C 707.300781 166.363281 710.324219 163.339844 714.058594 163.339844 C 717.789062 163.339844 720.8125 166.363281 720.8125 170.09375 "/>
<path fill-rule="nonzero" fill="rgb(18.431373%, 30.980392%, 30.980392%)" fill-opacity="1" stroke-width="0.708661" stroke-linecap="round" stroke-linejoin="round" stroke="rgb(18.431373%, 30.980392%, 30.980392%)" stroke-opacity="1" stroke-miterlimit="10" d="M 727.863281 187.039062 C 727.863281 190.769531 724.835938 193.792969 721.105469 193.792969 C 717.375 193.792969 714.351562 190.769531 714.351562 187.039062 C 714.351562 183.308594 717.375 180.28125 721.105469 180.28125 C 724.835938 180.28125 727.863281 183.308594 727.863281 187.039062 "/>
<path fill="none" stroke-width="6.40187" stroke-linecap="butt" stroke-linejoin="round" stroke="rgb(94.117647%, 50.196078%, 50.196078%)" stroke-opacity="1" stroke-miterlimit="10" d="M 23.234375 370.359375 L 32.066406 368.09375 L 40.902344 365.824219 L 49.734375 363.554688 L 58.570312 361.289062 L 67.402344 359.019531 L 76.238281 356.753906 L 93.902344 352.214844 L 102.738281 349.949219 L 111.570312 347.679688 L 120.40625 345.414062 L 129.238281 343.144531 L 138.074219 340.875 L 146.90625 338.609375 L 155.742188 336.339844 L 164.574219 334.074219 L 173.410156 331.804688 L 182.242188 329.535156 L 191.078125 327.269531 L 199.910156 325 L 208.742188 322.734375 L 217.578125 320.464844 L 226.410156 318.195312 L 235.246094 315.929688 L 244.078125 313.660156 L 252.914062 311.394531 L 261.746094 309.125 L 270.582031 306.855469 L 279.414062 304.589844 L 288.25 302.320312 L 297.082031 300.050781 L 305.917969 297.785156 L 314.75 295.515625 L 323.582031 293.25 L 332.417969 290.980469 L 341.25 288.710938 L 350.085938 286.445312 L 358.917969 284.175781 L 367.753906 281.910156 L 376.585938 279.640625 L 385.421875 277.371094 L 394.253906 275.105469 L 403.089844 272.835938 L 411.921875 270.570312 L 420.757812 268.300781 L 429.589844 266.03125 L 438.421875 263.765625 L 447.257812 261.496094 L 456.089844 259.230469 L 464.925781 256.960938 L 473.757812 254.691406 L 482.59375 252.425781 L 491.425781 250.15625 L 500.261719 247.890625 L 509.09375 245.621094 L 517.929688 243.351562 L 526.761719 241.085938 L 535.597656 238.816406 L 544.429688 236.550781 L 553.261719 234.28125 L 562.097656 232.011719 L 570.929688 229.746094 L 579.765625 227.476562 L 588.597656 225.210938 L 597.433594 222.941406 L 606.265625 220.671875 L 615.101562 218.40625 L 623.933594 216.136719 L 632.769531 213.871094 L 641.601562 211.601562 L 650.4375 209.332031 L 659.269531 207.066406 L 668.101562 204.796875 L 676.9375 202.53125 L 685.769531 200.261719 L 694.605469 197.992188 L 703.4375 195.726562 L 712.273438 193.457031 L 721.105469 191.191406 "/>
</svg>
