<?xml version="1.0" encoding="UTF-8"?>
<svg xmlns="http://www.w3.org/2000/svg" xmlns:xlink="http://www.w3.org/1999/xlink" width="756" height="504" viewBox="0 0 756 504">
<rect x="-75.6" y="-50.4" width="907.2" height="604.8" fill="rgb(100%, 100%, 100%)" fill-opacity="1"/>
<path fill-rule="nonzero" fill="rgb(18.431373%, 30.980392%, 30.980392%)" fill-opacity="1" stroke-width="0.708661" stroke-linecap="round" stroke-linejoin="round" stroke="rgb(18.431373%, 30.980392%, 30.980392%)" stroke-opacity="1" stroke-miterlimit="10" d="M 29.988281 488.214844 C 29.988281 491.949219 26.964844 494.972656 23.234375 494.972656 C 19.503906 494.972656 16.476562 491.949219 16.476562 488.214844 C 16.476562 484.484375 19.503906 481.460938 23.234375 481.460938 C 26.964844 481.460938 29.988281 484.484375 29.988281 488.214844 "/>
<path fill-rule="nonzero" fill="rgb(18.431373%, 30.980392%, 30.980392%)" fill-opacity="1" stroke-width="0.708661" stroke-linecap="round" stroke-linejoin="round" stroke="rgb(18.431373%, 30.980392%, 30.980392%)" stroke-opacity="1" stroke-miterlimit="10" d="M 37.039062 492.222656 C 37.039062 495.953125 34.015625 498.976562 30.28125 498.976562 C 26.550781 498.976562 23.527344 495.953125 23.527344 492.222656 C 23.527344 488.488281 26.550781 485.464844 30.28125 485.464844 C 34.015625 485.464844 37.039062 488.488281 37.039062 492.222656 "/>
<path fill-rule="nonzero" fill="rgb(18.431373%, 30.980392%, 30.980392%)" fill-opacity="1" stroke-width="0.708661" stroke-linecap="round" stroke-linejoin="round" stroke="rgb(18.431373%, 30.980392%, 30.980392%)" stroke-opacity="1" stroke-miterlimit="10" d="M 44.089844 445.863281 C 44.089844 449.59375 41.0625 452.617188 37.332031 452.617188 C 33.601562 452.617188 30.574219 449.59375 30.574219 445.863281 C 30.574219 442.132812 33.601562 439.105469 37.332031 439.105469 C 41.0625 439.105469 44.089844 442.132812 44.089844 445.863281 "/>
<path fill-rule="nonzero" fill="rgb(18.431373%, 30.980392%, 30.980392%)" fill-opacity="1" stroke-width="0.708661" stroke-linecap="round" stroke-linejoin="round" stroke="rgb(18.431373%, 30.980392%, 30.980392%)" stroke-opacity="1" stroke-miterlimit="10" d="M 51.136719 447.441406 C 51.136719 451.175781 48.113281 454.199219 44.382812 454.199219 C 40.648438 454.199219 37.625 451.175781 37.625 447.441406 C 37.625 443.710938 40.648438 440.6875 44.382812 440.6875 C 48.113281 440.6875 51.136719 443.710938 51.136719 447.441406 "/>
<path fill-rule="nonzero" fill="rgb(18.431373%, 30.980392%, 30.980392%)" fill-opacity="1" stroke-width="0.708661" stroke-linecap="round" stroke-linejoin="round" stroke="rgb(18.431373%, 30.980392%, 30.980392%)" stroke-opacity="1" stroke-miterlimit="10" d="M 58.1875 490.457031 C 58.1875 494.1875 55.160156 497.210938 51.429688 497.210938 C 47.699219 497.210938 44.675781 494.1875 44.675781 490.457031 C 44.675781 486.726562 47.699219 483.699219 51.429688 483.699219 C 55.160156 483.699219 58.1875 486.726562 58.1875 490.457031 "/>
<path fill-rule="nonzero" fill="rgb(18.431373%, 30.980392%, 30.980392%)" fill-opacity="1" stroke-width="0.708661" stroke-linecap="round" stroke-linejoin="round" stroke="rgb(18.431373%, 30.980392%, 30.980392%)" stroke-opacity="1" stroke-miterlimit="10" d="M 65.234375 456.757812 C 65.234375 460.492188 62.210938 463.515625 58.480469 463.515625 C 54.75 463.515625 51.722656 460.492188 51.722656 456.757812 C 51.722656 453.027344 54.75 450.003906 58.480469 450.003906 C 62.210938 450.003906 65.234375 453.027344 65.234375 456.757812 "/>
<path fill-rule="nonzero" fill="rgb(18.431373%, 30.980392%, 30.980392%)" fill-opacity="1" stroke-width="0.708661" stroke-linecap="round" stroke-linejoin="round" stroke="rgb(18.431373%, 30.980392%, 30.980392%)" stroke-opacity="1" stroke-miterlimit="10" d="M 72.285156 469.300781 C 72.285156 473.035156 69.261719 476.058594 65.527344 476.058594 C 61.796875 476.058594 58.773438 473.035156 58.773438 469.300781 C 58.773438 465.570312 61.796875 462.546875 65.527344 462.546875 C 69.261719 462.546875 72.285156 465.570312 72.285156 469.300781 "/>
<path fill-rule="nonzero" fill="rgb(18.431373%, 30.980392%, 30.980392%)" fill-opacity="1" stroke-width="0.708661" stroke-linecap="round" stroke-linejoin="round" stroke="rgb(18.431373%, 30.980392%, 30.980392%)" stroke-opacity="1" stroke-miterlimit="10" d="M 79.335938 489.652344 C 79.335938 493.386719 76.308594 496.410156 72.578125 496.410156 C 68.847656 496.410156 65.820312 493.386719 65.820312 489.652344 C 65.820312 485.921875 68.847656 482.898438 72.578125 482.898438 C 76.308594 482.898438 79.335938 485.921875 79.335938 489.652344 "/>
<path fill-rule="nonzero" fill="rgb(18.431373%, 30.980392%, 30.980392%)" fill-opacity="1" stroke-width="0.708661" stroke-linecap="round" stroke-linejoin="round" stroke="rgb(18.431373%, 30.980392%, 30.980392%)" stroke-opacity="1" stroke-miterlimit="10" d="M 86.382812 439.113281 C 86.382812 442.84375 83.359375 445.867188 79.628906 445.867188 C 75.894531 445.867188 72.871094 442.84375 72.871094 439.113281 C 72.871094 435.378906 75.894531 432.355469 79.628906 432.355469 C 83.359375 432.355469 86.382812 435.378906 86.382812 439.113281 "/>
<path fill-rule="nonzero" fill="rgb(18.431373%, 30.980392%, 30.980392%)" fill-opacity="1" stroke-width="0.708661" stroke-linecap="round" stroke-linejoin="round" stroke="rgb(18.431373%, 30.980392%, 30.980392%)" stroke-opacity="1" stroke-miterlimit="10" d="M 93.433594 439.722656 C 93.433594 443.457031 90.40625 446.480469 86.675781 446.480469 C 82.945312 446.480469 79.921875 443.457031 79.921875 439.722656 C 79.921875 435.992188 82.945312 432.96875 86.675781 432.96875 C 90.40625 432.96875 93.433594 435.992188 93.433594 439.722656 "/>
<path fill-rule="nonzero" fill="rgb(18.431373%, 30.980392%, 30.980392%)" fill-opacity="1" stroke-width="0.708661" stroke-linecap="round" stroke-linejoin="round" stroke="rgb(18.431373%, 30.980392%, 30.980392%)" stroke-opacity="1" stroke-miterlimit="10" d="M 100.480469 435.925781 C 100.480469 439.660156 97.457031 442.683594 93.726562 442.683594 C 89.996094 442.683594 86.96875 439.660156 86.96875 435.925781 C 86.96875 432.195312 89.996094 429.171875 93.726562 429.171875 C 97.457031 429.171875 100.480469 432.195312 100.480469 435.925781 "/>
<path fill-rule="nonzero" fill="rgb(18.431373%, 30.980392%, 30.980392%)" fill-opacity="1" stroke-width="0.708661" stroke-linecap="round" stroke-linejoin="round" stroke="rgb(18.431373%, 30.980392%, 30.980392%)" stroke-opacity="1" stroke-miterlimit="10" d="M 107.53125 425.207031 C 107.53125 428.9375 104.507812 431.960938 100.773438 431.960938 C 97.042969 431.960938 94.019531 428.9375 94.019531 425.207031 C 94.019531 421.476562 97.042969 418.449219 100.773438 418.449219 C 104.507812 418.449219 107.53125 421.476562 107.53125 425.207031 "/>
<path fill-rule="nonzero" fill="rgb(18.431373%, 30.980392%, 30.980392%)" fill-opacity="1" stroke-width="0.708661" stroke-linecap="round" stroke-linejoin="round" stroke="rgb(18.431373%, 30.980392%, 30.980392%)" stroke-opacity="1" stroke-miterlimit="10" d="M 114.582031 407.121094 C 114.582031 410.851562 111.554688 413.875 107.824219 413.875 C 104.09375 413.875 101.066406 410.851562 101.066406 407.121094 C 101.066406 403.386719 104.09375 400.363281 107.824219 400.363281 C 111.554688 400.363281 114.582031 403.386719 114.582031 407.121094 "/>
<path fill-rule="nonzero" fill="rgb(18.431373%, 30.980392%, 30.980392%)" fill-opacity="1" stroke-width="0.708661" stroke-linecap="round" stroke-linejoin="round" stroke="rgb(18.431373%, 30.980392%, 30.980392%)" stroke-opacity="1" stroke-miterlimit="10" d="M 121.628906 417.074219 C 121.628906 420.808594 118.605469 423.832031 114.875 423.832031 C 111.140625 423.832031 108.117188 420.808594 108.117188 417.074219 C 108.117188 413.34375 111.140625 410.320312 114.875 410.320312 C 118.605469 410.320312 121.628906 413.34375 121.628906 417.074219 "/>
<path fill-rule="nonzero" fill="rgb(18.431373%, 30.980392%, 30.980392%)" fill-opacity="1" stroke-width="0.708661" stroke-linecap="round" stroke-linejoin="round" stroke="rgb(18.431373%, 30.980392%, 30.980392%)" stroke-opacity="1" stroke-miterlimit="10" d="M 128.679688 430.0625 C 128.679688 433.792969 125.652344 436.820312 121.921875 436.820312 C 118.191406 436.820312 115.167969 433.792969 115.167969 430.0625 C 115.167969 426.332031 118.191406 423.304688 121.921875 423.304688 C 125.652344 423.304688 128.679688 426.332031 128.679688 430.0625 "/>
<path fill-rule="nonzero" fill="rgb(18.431373%, 30.980392%, 30.980392%)" fill-opacity="1" stroke-width="0.708661" stroke-linecap="round" stroke-linejoin="round" stroke="rgb(18.431373%, 30.980392%, 30.980392%)" stroke-opacity="1" stroke-miterlimit="10" d="M 135.726562 428.359375 C 135.726562 432.089844 132.703125 435.113281 128.972656 435.113281 C 125.242188 435.113281 122.214844 432.089844 122.214844 428.359375 C 122.214844 424.625 125.242188 421.601562 128.972656 421.601562 C 132.703125 421.601562 135.726562 424.625 135.726562 428.359375 "/>
<path fill-rule="nonzero" fill="rgb(18.431373%, 30.980392%, 30.980392%)" fill-opacity="1" stroke-width="0.708661" stroke-linecap="round" stroke-linejoin="round" stroke="rgb(18.431373%, 30.980392%, 30.980392%)" stroke-opacity="1" stroke-miterlimit="10" d="M 142.777344 411.59375 C 142.777344 415.324219 139.753906 418.347656 136.019531 418.347656 C 132.289062 418.347656 129.265625 415.324219 129.265625 411.59375 C 129.265625 407.863281 132.289062 404.835938 136.019531 404.835938 C 139.753906 404.835938 142.777344 407.863281 142.777344 411.59375 "/>
<path fill-rule="nonzero" fill="rgb(18.431373%, 30.980392%, 30.980392%)" fill-opacity="1" stroke-width="0.708661" stroke-linecap="round" stroke-linejoin="round" stroke="rgb(18.431373%, 30.980392%, 30.980392%)" stroke-opacity="1" stroke-miterlimit="10" d="M 149.828125 398.195312 C 149.828125 401.925781 146.800781 404.949219 143.070312 404.949219 C 139.339844 404.949219 136.3125 401.925781 136.3125 398.195312 C 136.3125 394.460938 139.339844 391.4375 143.070312 391.4375 C 146.800781 391.4375 149.828125 394.460938 149.828125 398.195312 "/>
<path fill-rule="nonzero" fill="rgb(18.431373%, 30.980392%, 30.980392%)" fill-opacity="1" stroke-width="0.708661" stroke-linecap="round" stroke-linejoin="round" stroke="rgb(18.431373%, 30.980392%, 30.980392%)" stroke-opacity="1" stroke-miterlimit="10" d="M 156.875 422.195312 C 156.875 425.929688 153.851562 428.953125 150.121094 428.953125 C 146.386719 428.953125 143.363281 425.929688 143.363281 422.195312 C 143.363281 418.464844 146.386719 415.441406 150.121094 415.441406 C 153.851562 415.441406 156.875 418.464844 156.875 422.195312 "/>
<path fill-rule="nonzero" fill="rgb(18.431373%, 30.980392%, 30.980392%)" fill-opacity="1" stroke-width="0.708661" stroke-linecap="round" stroke-linejoin="round" stroke="rgb(18.431373%, 30.980392%, 30.980392%)" stroke-opacity="1" stroke-miterlimit="10" d="M 163.925781 400.164062 C 163.925781 403.894531 160.898438 406.917969 157.167969 406.917969 C 153.4375 406.917969 150.414062 403.894531 150.414062 400.164062 C 150.414062 396.429688 153.4375 393.40625 157.167969 393.40625 C 160.898438 393.40625 163.925781 396.429688 163.925781 400.164062 "/>
<path fill-rule="nonzero" fill="rgb(18.431373%, 30.980392%, 30.980392%)" fill-opacity="1" stroke-width="0.708661" stroke-linecap="round" stroke-linejoin="round" stroke="rgb(18.431373%, 30.980392%, 30.980392%)" stroke-opacity="1" stroke-miterlimit="10" d="M 170.972656 371.945312 C 170.972656 375.675781 167.949219 378.699219 164.21875 378.699219 C 160.488281 378.699219 157.460938 375.675781 157.460938 371.945312 C 157.460938 368.214844 160.488281 365.1875 164.21875 365.1875 C 167.949219 365.1875 170.972656 368.214844 170.972656 371.945312 "/>
<path fill-rule="nonzero" fill="rgb(18.431373%, 30.980392%, 30.980392%)" fill-opacity="1" stroke-width="0.708661" stroke-linecap="round" stroke-linejoin="round" stroke="rgb(18.431373%, 30.980392%, 30.980392%)" stroke-opacity="1" stroke-miterlimit="10" d="M 178.023438 390.222656 C 178.023438 393.957031 175 396.980469 171.265625 396.980469 C 167.535156 396.980469 164.511719 393.957031 164.511719 390.222656 C 164.511719 386.492188 167.535156 383.46875 171.265625 383.46875 C 175 383.46875 178.023438 386.492188 178.023438 390.222656 "/>
<path fill-rule="nonzero" fill="rgb(18.431373%, 30.980392%, 30.980392%)" fill-opacity="1" stroke-width="0.708661" stroke-linecap="round" stroke-linejoin="round" stroke="rgb(18.431373%, 30.980392%, 30.980392%)" stroke-opacity="1" stroke-miterlimit="10" d="M 185.074219 398.371094 C 185.074219 402.101562 182.046875 405.125 178.316406 405.125 C 174.585938 405.125 171.558594 402.101562 171.558594 398.371094 C 171.558594 394.636719 174.585938 391.613281 178.316406 391.613281 C 182.046875 391.613281 185.074219 394.636719 185.074219 398.371094 "/>
<path fill-rule="nonzero" fill="rgb(18.431373%, 30.980392%, 30.980392%)" fill-opacity="1" stroke-width="0.708661" stroke-linecap="round" stroke-linejoin="round" stroke="rgb(18.431373%, 30.980392%, 30.980392%)" stroke-opacity="1" stroke-miterlimit="10" d="M 192.121094 385.375 C 192.121094 389.105469 189.097656 392.128906 185.367188 392.128906 C 181.632812 392.128906 178.609375 389.105469 178.609375 385.375 C 178.609375 381.640625 181.632812 378.617188 185.367188 378.617188 C 189.097656 378.617188 192.121094 381.640625 192.121094 385.375 "/>
<path fill-rule="nonzero" fill="rgb(18.431373%, 30.980392%, 30.980392%)" fill-opacity="1" stroke-width="0.708661" stroke-linecap="round" stroke-linejoin="round" stroke="rgb(18.431373%, 30.980392%, 30.980392%)" stroke-opacity="1" stroke-miterlimit="10" d="M 199.171875 352.164062 C 199.171875 355.898438 196.144531 358.921875 192.414062 358.921875 C 188.683594 358.921875 185.660156 355.898438 185.660156 352.164062 C 185.660156 348.433594 188.683594 345.410156 192.414062 345.410156 C 196.144531 345.410156 199.171875 348.433594 199.171875 352.164062 "/>
<path fill-rule="nonzero" fill="rgb(18.431373%, 30.980392%, 30.980392%)" fill-opacity="1" stroke-width="0.708661" stroke-linecap="round" stroke-linejoin="round" stroke="rgb(18.431373%, 30.980392%, 30.980392%)" stroke-opacity="1" stroke-miterlimit="10" d="M 206.21875 359.777344 C 206.21875 363.507812 203.195312 366.535156 199.464844 366.535156 C 195.734375 366.535156 192.707031 363.507812 192.707031 359.777344 C 192.707031 356.046875 195.734375 353.023438 199.464844 353.023438 C 203.195312 353.023438 206.21875 356.046875 206.21875 359.777344 "/>
<path fill-rule="nonzero" fill="rgb(18.431373%, 30.980392%, 30.980392%)" fill-opacity="1" stroke-width="0.708661" stroke-linecap="round" stroke-linejoin="round" stroke="rgb(18.431373%, 30.980392%, 30.980392%)" stroke-opacity="1" stroke-miterlimit="10" d="M 213.269531 341.265625 C 213.269531 345 210.246094 348.023438 206.511719 348.023438 C 202.78125 348.023438 199.757812 345 199.757812 341.265625 C 199.757812 337.535156 202.78125 334.511719 206.511719 334.511719 C 210.246094 334.511719 213.269531 337.535156 213.269531 341.265625 "/>
<path fill-rule="nonzero" fill="rgb(18.431373%, 30.980392%, 30.980392%)" fill-opacity="1" stroke-width="0.708661" stroke-linecap="round" stroke-linejoin="round" stroke="rgb(18.431373%, 30.980392%, 30.980392%)" stroke-opacity="1" stroke-miterlimit="10" d="M 220.320312 360.007812 C 220.320312 363.738281 217.292969 366.761719 213.5625 366.761719 C 209.832031 366.761719 206.804688 363.738281 206.804688 360.007812 C 206.804688 356.273438 209.832031 353.25 213.5625 353.25 C 217.292969 353.25 220.320312 356.273438 220.320312 360.007812 "/>
<path fill-rule="nonzero" fill="rgb(18.431373%, 30.980392%, 30.980392%)" fill-opacity="1" stroke-width="0.708661" stroke-linecap="round" stroke-linejoin="round" stroke="rgb(18.431373%, 30.980392%, 30.980392%)" stroke-opacity="1" stroke-miterlimit="10" d="M 227.367188 350.167969 C 227.367188 353.902344 224.34375 356.925781 220.613281 356.925781 C 216.878906 356.925781 213.855469 353.902344 213.855469 350.167969 C 213.855469 346.4375 216.878906 343.414062 220.613281 343.414062 C 224.34375 343.414062 227.367188 346.4375 227.367188 350.167969 "/>
<path fill-rule="nonzero" fill="rgb(18.431373%, 30.980392%, 30.980392%)" fill-opacity="1" stroke-width="0.708661" stroke-linecap="round" stroke-linejoin="round" stroke="rgb(18.431373%, 30.980392%, 30.980392%)" stroke-opacity="1" stroke-miterlimit="10" d="M 234.417969 366.21875 C 234.417969 369.949219 231.390625 372.976562 227.660156 372.976562 C 223.929688 372.976562 220.90625 369.949219 220.90625 366.21875 C 220.90625 362.488281 223.929688 359.460938 227.660156 359.460938 C 231.390625 359.460938 234.417969 362.488281 234.417969 366.21875 "/>
<path fill-rule="nonzero" fill="rgb(18.431373%, 30.980392%, 30.980392%)" fill-opacity="1" stroke-width="0.708661" stroke-linecap="round" stroke-linejoin="round" stroke="rgb(18.431373%, 30.980392%, 30.980392%)" stroke-opacity="1" stroke-miterlimit="10" d="M 241.464844 337.746094 C 241.464844 341.476562 238.441406 344.5 234.710938 344.5 C 230.980469 344.5 227.953125 341.476562 227.953125 337.746094 C 227.953125 334.011719 230.980469 330.988281 234.710938 330.988281 C 238.441406 330.988281 241.464844 334.011719 241.464844 337.746094 "/>
<path fill-rule="nonzero" fill="rgb(18.431373%, 30.980392%, 30.980392%)" fill-opacity="1" stroke-width="0.708661" stroke-linecap="round" stroke-linejoin="round" stroke="rgb(18.431373%, 30.980392%, 30.980392%)" stroke-opacity="1" stroke-miterlimit="10" d="M 248.515625 356.777344 C 248.515625 360.511719 245.492188 363.535156 241.757812 363.535156 C 238.027344 363.535156 235.003906 360.511719 235.003906 356.777344 C 235.003906 353.046875 238.027344 350.023438 241.757812 350.023438 C 245.492188 350.023438 248.515625 353.046875 248.515625 356.777344 "/>
<path fill-rule="nonzero" fill="rgb(18.431373%, 30.980392%, 30.980392%)" fill-opacity="1" stroke-width="0.708661" stroke-linecap="round" stroke-linejoin="round" stroke="rgb(18.431373%, 30.980392%, 30.980392%)" stroke-opacity="1" stroke-miterlimit="10" d="M 255.566406 371.691406 C 255.566406 375.421875 252.539062 378.445312 248.808594 378.445312 C 245.078125 378.445312 242.050781 375.421875 242.050781 371.691406 C 242.050781 367.960938 245.078125 364.933594 248.808594 364.933594 C 252.539062 364.933594 255.566406 367.960938 255.566406 371.691406 "/>
<path fill-rule="nonzero" fill="rgb(18.431373%, 30.980392%, 30.980392%)" fill-opacity="1" stroke-width="0.708661" stroke-linecap="round" stroke-linejoin="round" stroke="rgb(18.431373%, 30.980392%, 30.980392%)" stroke-opacity="1" stroke-miterlimit="10" d="M 262.613281 335.183594 C 262.613281 338.917969 259.589844 341.941406 255.859375 341.941406 C 252.125 341.941406 249.101562 338.917969 249.101562 335.183594 C 249.101562 331.453125 252.125 328.429688 255.859375 328.429688 C 259.589844 328.429688 262.613281 331.453125 262.613281 335.183594 "/>
<path fill-rule="nonzero" fill="rgb(18.431373%, 30.980392%, 30.980392%)" fill-opacity="1" stroke-width="0.708661" stroke-linecap="round" stroke-linejoin="round" stroke="rgb(18.431373%, 30.980392%, 30.980392%)" stroke-opacity="1" stroke-miterlimit="10" d="M 269.664062 293.054688 C 269.664062 296.789062 266.636719 299.8125 262.90625 299.8125 C 259.175781 299.8125 256.152344 296.789062 256.152344 293.054688 C 256.152344 289.324219 259.175781 286.300781 262.90625 286.300781 C 266.636719 286.300781 269.664062 289.324219 269.664062 293.054688 "/>
<path fill-rule="nonzero" fill="rgb(18.431373%, 30.980392%, 30.980392%)" fill-opacity="1" stroke-width="0.708661" stroke-linecap="round" stroke-linejoin="round" stroke="rgb(18.431373%, 30.980392%, 30.980392%)" stroke-opacity="1" stroke-miterlimit="10" d="M 276.710938 312.785156 C 276.710938 316.515625 273.6875 319.539062 269.957031 319.539062 C 266.226562 319.539062 263.199219 316.515625 263.199219 312.785156 C 263.199219 309.054688 266.226562 306.027344 269.957031 306.027344 C 273.6875 306.027344 276.710938 309.054688 276.710938 312.785156 "/>
<path fill-rule="nonzero" fill="rgb(18.431373%, 30.980392%, 30.980392%)" fill-opacity="1" stroke-width="0.708661" stroke-linecap="round" stroke-linejoin="round" stroke="rgb(18.431373%, 30.980392%, 30.980392%)" stroke-opacity="1" stroke-miterlimit="10" d="M 283.761719 301.003906 C 283.761719 304.734375 280.738281 307.757812 277.003906 307.757812 C 273.273438 307.757812 270.25 304.734375 270.25 301.003906 C 270.25 297.269531 273.273438 294.246094 277.003906 294.246094 C 280.738281 294.246094 283.761719 297.269531 283.761719 301.003906 "/>
<path fill-rule="nonzero" fill="rgb(18.431373%, 30.980392%, 30.980392%)" fill-opacity="1" stroke-width="0.708661" stroke-linecap="round" stroke-linejoin="round" stroke="rgb(18.431373%, 30.980392%, 30.980392%)" stroke-opacity="1" stroke-miterlimit="10" d="M 290.8125 313.664062 C 290.8125 317.394531 287.785156 320.417969 284.054688 320.417969 C 280.324219 320.417969 277.296875 317.394531 277.296875 313.664062 C 277.296875 309.929688 280.324219 306.90625 284.054688 306.90625 C 287.785156 306.90625 290.8125 309.929688 290.8125 313.664062 "/>
<path fill-rule="nonzero" fill="rgb(18.431373%, 30.980392%, 30.980392%)" fill-opacity="1" stroke-width="0.708661" stroke-linecap="round" stroke-linejoin="round" stroke="rgb(18.431373%, 30.980392%, 30.980392%)" stroke-opacity="1" stroke-miterlimit="10" d="M 297.859375 329.683594 C 297.859375 333.414062 294.835938 336.441406 291.105469 336.441406 C 287.371094 336.441406 284.347656 333.414062 284.347656 329.683594 C 284.347656 325.953125 287.371094 322.929688 291.105469 322.929688 C 294.835938 322.929688 297.859375 325.953125 297.859375 329.683594 "/>
<path fill-rule="nonzero" fill="rgb(18.431373%, 30.980392%, 30.980392%)" fill-opacity="1" stroke-width="0.708661" stroke-linecap="round" stroke-linejoin="round" stroke="rgb(18.431373%, 30.980392%, 30.980392%)" stroke-opacity="1" stroke-miterlimit="10" d="M 304.910156 317.027344 C 304.910156 320.757812 301.882812 323.78125 298.152344 323.78125 C 294.421875 323.78125 291.398438 320.757812 291.398438 317.027344 C 291.398438 313.292969 294.421875 310.269531 298.152344 310.269531 C 301.882812 310.269531 304.910156 313.292969 304.910156 317.027344 "/>
<path fill-rule="nonzero" fill="rgb(18.431373%, 30.980392%, 30.980392%)" fill-opacity="1" stroke-width="0.708661" stroke-linecap="round" stroke-linejoin="round" stroke="rgb(18.431373%, 30.980392%, 30.980392%)" stroke-opacity="1" stroke-miterlimit="10" d="M 311.957031 314.332031 C 311.957031 318.0625 308.933594 321.089844 305.203125 321.089844 C 301.472656 321.089844 298.445312 318.0625 298.445312 314.332031 C 298.445312 310.601562 301.472656 307.578125 305.203125 307.578125 C 308.933594 307.578125 311.957031 310.601562 311.957031 314.332031 "/>
<path fill-rule="nonzero" fill="rgb(18.431373%, 30.980392%, 30.980392%)" fill-opacity="1" stroke-width="0.708661" stroke-linecap="round" stroke-linejoin="round" stroke="rgb(18.431373%, 30.980392%, 30.980392%)" stroke-opacity="1" stroke-miterlimit="10" d="M 319.007812 314.238281 C 319.007812 317.96875 315.984375 320.992188 312.25 320.992188 C 308.519531 320.992188 305.496094 317.96875 305.496094 314.238281 C 305.496094 310.507812 308.519531 307.480469 312.25 307.480469 C 315.984375 307.480469 319.007812 310.507812 319.007812 314.238281 "/>
<path fill-rule="nonzero" fill="rgb(18.431373%, 30.980392%, 30.980392%)" fill-opacity="1" stroke-width="0.708661" stroke-linecap="round" stroke-linejoin="round" stroke="rgb(18.431373%, 30.980392%, 30.980392%)" stroke-opacity="1" stroke-miterlimit="10" d="M 326.058594 285.574219 C 326.058594 289.308594 323.03125 292.332031 319.300781 292.332031 C 315.570312 292.332031 312.542969 289.308594 312.542969 285.574219 C 312.542969 281.84375 315.570312 278.820312 319.300781 278.820312 C 323.03125 278.820312 326.058594 281.84375 326.058594 285.574219 "/>
<path fill-rule="nonzero" fill="rgb(18.431373%, 30.980392%, 30.980392%)" fill-opacity="1" stroke-width="0.708661" stroke-linecap="round" stroke-linejoin="round" stroke="rgb(18.431373%, 30.980392%, 30.980392%)" stroke-opacity="1" stroke-miterlimit="10" d="M 333.105469 321.101562 C 333.105469 324.832031 330.082031 327.855469 326.351562 327.855469 C 322.617188 327.855469 319.59375 324.832031 319.59375 321.101562 C 319.59375 317.367188 322.617188 314.34375 326.351562 314.34375 C 330.082031 314.34375 333.105469 317.367188 333.105469 321.101562 "/>
<path fill-rule="nonzero" fill="rgb(18.431373%, 30.980392%, 30.980392%)" fill-opacity="1" stroke-width="0.708661" stroke-linecap="round" stroke-linejoin="round" stroke="rgb(18.431373%, 30.980392%, 30.980392%)" stroke-opacity="1" stroke-miterlimit="10" d="M 340.15625 273.839844 C 340.15625 277.570312 337.128906 280.59375 333.398438 280.59375 C 329.667969 280.59375 326.644531 277.570312 326.644531 273.839844 C 326.644531 270.105469 329.667969 267.082031 333.398438 267.082031 C 337.128906 267.082031 340.15625 270.105469 340.15625 273.839844 "/>
<path fill-rule="nonzero" fill="rgb(18.431373%, 30.980392%, 30.980392%)" fill-opacity="1" stroke-width="0.708661" stroke-linecap="round" stroke-linejoin="round" stroke="rgb(18.431373%, 30.980392%, 30.980392%)" stroke-opacity="1" stroke-miterlimit="10" d="M 347.203125 269.707031 C 347.203125 273.441406 344.179688 276.464844 340.449219 276.464844 C 336.71875 276.464844 333.691406 273.441406 333.691406 269.707031 C 333.691406 265.976562 336.71875 262.953125 340.449219 262.953125 C 344.179688 262.953125 347.203125 265.976562 347.203125 269.707031 "/>
<path fill-rule="nonzero" fill="rgb(18.431373%, 30.980392%, 30.980392%)" fill-opacity="1" stroke-width="0.708661" stroke-linecap="round" stroke-linejoin="round" stroke="rgb(18.431373%, 30.980392%, 30.980392%)" stroke-opacity="1" stroke-miterlimit="10" d="M 354.253906 308.597656 C 354.253906 312.332031 351.230469 315.355469 347.496094 315.355469 C 343.765625 315.355469 340.742188 312.332031 340.742188 308.597656 C 340.742188 304.867188 343.765625 301.84375 347.496094 301.84375 C 351.230469 301.84375 354.253906 304.867188 354.253906 308.597656 "/>
<path fill-rule="nonzero" fill="rgb(18.431373%, 30.980392%, 30.980392%)" fill-opacity="1" stroke-width="0.708661" stroke-linecap="round" stroke-linejoin="round" stroke="rgb(18.431373%, 30.980392%, 30.980392%)" stroke-opacity="1" stroke-miterlimit="10" d="M 361.304688 266.046875 C 361.304688 269.777344 358.277344 272.804688 354.546875 272.804688 C 350.816406 272.804688 347.789062 269.777344 347.789062 266.046875 C 347.789062 262.316406 350.816406 259.292969 354.546875 259.292969 C 358.277344 259.292969 361.304688 262.316406 361.304688 266.046875 "/>
<path fill-rule="nonzero" fill="rgb(18.431373%, 30.980392%, 30.980392%)" fill-opacity="1" stroke-width="0.708661" stroke-linecap="round" stroke-linejoin="round" stroke="rgb(18.431373%, 30.980392%, 30.980392%)" stroke-opacity="1" stroke-miterlimit="10" d="M 368.351562 224.484375 C 368.351562 228.21875 365.328125 231.242188 361.597656 231.242188 C 357.863281 231.242188 354.839844 228.21875 354.839844 224.484375 C 354.839844 220.753906 357.863281 217.730469 361.597656 217.730469 C 365.328125 217.730469 368.351562 220.753906 368.351562 224.484375 "/>
<path fill-rule="nonzero" fill="rgb(18.431373%, 30.980392%, 30.980392%)" fill-opacity="1" stroke-width="0.708661" stroke-linecap="round" stroke-linejoin="round" stroke="rgb(18.431373%, 30.980392%, 30.980392%)" stroke-opacity="1" stroke-miterlimit="10" d="M 375.402344 282.679688 C 375.402344 286.414062 372.375 289.4375 368.644531 289.4375 C 364.914062 289.4375 361.890625 286.414062 361.890625 282.679688 C 361.890625 278.949219 364.914062 275.925781 368.644531 275.925781 C 372.375 275.925781 375.402344 278.949219 375.402344 282.679688 "/>
<path fill-rule="nonzero" fill="rgb(18.431373%, 30.980392%, 30.980392%)" fill-opacity="1" stroke-width="0.708661" stroke-linecap="round" stroke-linejoin="round" stroke="rgb(18.431373%, 30.980392%, 30.980392%)" stroke-opacity="1" stroke-miterlimit="10" d="M 382.449219 249.234375 C 382.449219 252.964844 379.425781 255.988281 375.695312 255.988281 C 371.964844 255.988281 368.9375 252.964844 368.9375 249.234375 C 368.9375 245.5 371.964844 242.476562 375.695312 242.476562 C 379.425781 242.476562 382.449219 245.5 382.449219 249.234375 "/>
<path fill-rule="nonzero" fill="rgb(18.431373%, 30.980392%, 30.980392%)" fill-opacity="1" stroke-width="0.708661" stroke-linecap="round" stroke-linejoin="round" stroke="rgb(18.431373%, 30.980392%, 30.980392%)" stroke-opacity="1" stroke-miterlimit="10" d="M 389.5 279.027344 C 389.5 282.757812 386.476562 285.785156 382.742188 285.785156 C 379.011719 285.785156 375.988281 282.757812 375.988281 279.027344 C 375.988281 275.296875 379.011719 272.269531 382.742188 272.269531 C 386.476562 272.269531 389.5 275.296875 389.5 279.027344 "/>
<path fill-rule="nonzero" fill="rgb(18.431373%, 30.980392%, 30.980392%)" fill-opacity="1" stroke-width="0.708661" stroke-linecap="round" stroke-linejoin="round" stroke="rgb(18.431373%, 30.980392%, 30.980392%)" stroke-opacity="1" stroke-miterlimit="10" d="M 396.550781 235.332031 C 396.550781 239.0625 393.523438 242.089844 389.792969 242.089844 C 386.0625 242.089844 383.035156 239.0625 383.035156 235.332031 C 383.035156 231.601562 386.0625 228.574219 389.792969 228.574219 C 393.523438 228.574219 396.550781 231.601562 396.550781 235.332031 "/>
<path fill-rule="nonzero" fill="rgb(18.431373%, 30.980392%, 30.980392%)" fill-opacity="1" stroke-width="0.708661" stroke-linecap="round" stroke-linejoin="round" stroke="rgb(18.431373%, 30.980392%, 30.980392%)" stroke-opacity="1" stroke-miterlimit="10" d="M 403.597656 249.128906 C 403.597656 252.859375 400.574219 255.886719 396.84375 255.886719 C 393.109375 255.886719 390.085938 252.859375 390.085938 249.128906 C 390.085938 245.398438 393.109375 242.375 396.84375 242.375 C 400.574219 242.375 403.597656 245.398438 403.597656 249.128906 "/>
<path fill-rule="nonzero" fill="rgb(18.431373%, 30.980392%, 30.980392%)" fill-opacity="1" stroke-width="0.708661" stroke-linecap="round" stroke-linejoin="round" stroke="rgb(18.431373%, 30.980392%, 30.980392%)" stroke-opacity="1" stroke-miterlimit="10" d="M 410.648438 215.683594 C 410.648438 219.414062 407.621094 222.4375 403.890625 222.4375 C 400.160156 222.4375 397.136719 219.414062 397.136719 215.683594 C 397.136719 211.949219 400.160156 208.925781 403.890625 208.925781 C 407.621094 208.925781 410.648438 211.949219 410.648438 215.683594 "/>
<path fill-rule="nonzero" fill="rgb(18.431373%, 30.980392%, 30.980392%)" fill-opacity="1" stroke-width="0.708661" stroke-linecap="round" stroke-linejoin="round" stroke="rgb(18.431373%, 30.980392%, 30.980392%)" stroke-opacity="1" stroke-miterlimit="10" d="M 417.695312 276.453125 C 417.695312 280.1875 414.671875 283.210938 410.941406 283.210938 C 407.210938 283.210938 404.183594 280.1875 404.183594 276.453125 C 404.183594 272.722656 407.210938 269.699219 410.941406 269.699219 C 414.671875 269.699219 417.695312 272.722656 417.695312 276.453125 "/>
<path fill-rule="nonzero" fill="rgb(18.431373%, 30.980392%, 30.980392%)" fill-opacity="1" stroke-width="0.708661" stroke-linecap="round" stroke-linejoin="round" stroke="rgb(18.431373%, 30.980392%, 30.980392%)" stroke-opacity="1" stroke-miterlimit="10" d="M 424.746094 242.890625 C 424.746094 246.621094 421.722656 249.644531 417.988281 249.644531 C 414.257812 249.644531 411.234375 246.621094 411.234375 242.890625 C 411.234375 239.160156 414.257812 236.132812 417.988281 236.132812 C 421.722656 236.132812 424.746094 239.160156 424.746094 242.890625 "/>
<path fill-rule="nonzero" fill="rgb(18.431373%, 30.980392%, 30.980392%)" fill-opacity="1" stroke-width="0.708661" stroke-linecap="round" stroke-linejoin="round" stroke="rgb(18.431373%, 30.980392%, 30.980392%)" stroke-opacity="1" stroke-miterlimit="10" d="M 431.796875 248.644531 C 431.796875 252.375 428.769531 255.402344 425.039062 255.402344 C 421.308594 255.402344 418.28125 252.375 418.28125 248.644531 C 418.28125 244.914062 421.308594 241.886719 425.039062 241.886719 C 428.769531 241.886719 431.796875 244.914062 431.796875 248.644531 "/>
<path fill-rule="nonzero" fill="rgb(18.431373%, 30.980392%, 30.980392%)" fill-opacity="1" stroke-width="0.708661" stroke-linecap="round" stroke-linejoin="round" stroke="rgb(18.431373%, 30.980392%, 30.980392%)" stroke-opacity="1" stroke-miterlimit="10" d="M 438.84375 237.585938 C 438.84375 241.316406 435.820312 244.34375 432.089844 244.34375 C 428.355469 244.34375 425.332031 241.316406 425.332031 237.585938 C 425.332031 233.855469 428.355469 230.832031 432.089844 230.832031 C 435.820312 230.832031 438.84375 233.855469 438.84375 237.585938 "/>
<path fill-rule="nonzero" fill="rgb(18.431373%, 30.980392%, 30.980392%)" fill-opacity="1" stroke-width="0.708661" stroke-linecap="round" stroke-linejoin="round" stroke="rgb(18.431373%, 30.980392%, 30.980392%)" stroke-opacity="1" stroke-miterlimit="10" d="M 445.894531 242.4375 C 445.894531 246.167969 442.867188 249.191406 439.136719 249.191406 C 435.40625 249.191406 432.382812 246.167969 432.382812 242.4375 C 432.382812 238.707031 435.40625 235.679688 439.136719 235.679688 C 442.867188 235.679688 445.894531 238.707031 445.894531 242.4375 "/>
<path fill-rule="nonzero" fill="rgb(18.431373%, 30.980392%, 30.980392%)" fill-opacity="1" stroke-width="0.708661" stroke-linecap="round" stroke-linejoin="round" stroke="rgb(18.431373%, 30.980392%, 30.980392%)" stroke-opacity="1" stroke-miterlimit="10" d="M 452.941406 242.527344 C 452.941406 246.257812 449.917969 249.28125 446.1875 249.28125 C 442.457031 249.28125 439.429688 246.257812 439.429688 242.527344 C 439.429688 238.792969 442.457031 235.769531 446.1875 235.769531 C 449.917969 235.769531 452.941406 238.792969 452.941406 242.527344 "/>
<path fill-rule="nonzero" fill="rgb(18.431373%, 30.980392%, 30.980392%)" fill-opacity="1" stroke-width="0.708661" stroke-linecap="round" stroke-linejoin="round" stroke="rgb(18.431373%, 30.980392%, 30.980392%)" stroke-opacity="1" stroke-miterlimit="10" d="M 459.992188 208.859375 C 459.992188 212.589844 456.96875 215.613281 453.234375 215.613281 C 449.503906 215.613281 446.480469 212.589844 446.480469 208.859375 C 446.480469 205.128906 449.503906 202.101562 453.234375 202.101562 C 456.96875 202.101562 459.992188 205.128906 459.992188 208.859375 "/>
<path fill-rule="nonzero" fill="rgb(18.431373%, 30.980392%, 30.980392%)" fill-opacity="1" stroke-width="0.708661" stroke-linecap="round" stroke-linejoin="round" stroke="rgb(18.431373%, 30.980392%, 30.980392%)" stroke-opacity="1" stroke-miterlimit="10" d="M 467.042969 239.472656 C 467.042969 243.203125 464.015625 246.226562 460.285156 246.226562 C 456.554688 246.226562 453.527344 243.203125 453.527344 239.472656 C 453.527344 235.742188 456.554688 232.714844 460.285156 232.714844 C 464.015625 232.714844 467.042969 235.742188 467.042969 239.472656 "/>
<path fill-rule="nonzero" fill="rgb(18.431373%, 30.980392%, 30.980392%)" fill-opacity="1" stroke-width="0.708661" stroke-linecap="round" stroke-linejoin="round" stroke="rgb(18.431373%, 30.980392%, 30.980392%)" stroke-opacity="1" stroke-miterlimit="10" d="M 474.089844 181.605469 C 474.089844 185.339844 471.066406 188.363281 467.335938 188.363281 C 463.601562 188.363281 460.578125 185.339844 460.578125 181.605469 C 460.578125 177.875 463.601562 174.851562 467.335938 174.851562 C 471.066406 174.851562 474.089844 177.875 474.089844 181.605469 "/>
<path fill-rule="nonzero" fill="rgb(18.431373%, 30.980392%, 30.980392%)" fill-opacity="1" stroke-width="0.708661" stroke-linecap="round" stroke-linejoin="round" stroke="rgb(18.431373%, 30.980392%, 30.980392%)" stroke-opacity="1" stroke-miterlimit="10" d="M 481.140625 233.179688 C 481.140625 236.910156 478.113281 239.9375 474.382812 239.9375 C 470.652344 239.9375 467.628906 236.910156 467.628906 233.179688 C 467.628906 229.449219 470.652344 226.421875 474.382812 226.421875 C 478.113281 226.421875 481.140625 229.449219 481.140625 233.179688 "/>
<path fill-rule="nonzero" fill="rgb(18.431373%, 30.980392%, 30.980392%)" fill-opacity="1" stroke-width="0.708661" stroke-linecap="round" stroke-linejoin="round" stroke="rgb(18.431373%, 30.980392%, 30.980392%)" stroke-opacity="1" stroke-miterlimit="10" d="M 488.1875 202.128906 C 488.1875 205.859375 485.164062 208.886719 481.433594 208.886719 C 477.703125 208.886719 474.675781 205.859375 474.675781 202.128906 C 474.675781 198.398438 477.703125 195.371094 481.433594 195.371094 C 485.164062 195.371094 488.1875 198.398438 488.1875 202.128906 "/>
<path fill-rule="nonzero" fill="rgb(18.431373%, 30.980392%, 30.980392%)" fill-opacity="1" stroke-width="0.708661" stroke-linecap="round" stroke-linejoin="round" stroke="rgb(18.431373%, 30.980392%, 30.980392%)" stroke-opacity="1" stroke-miterlimit="10" d="M 495.238281 188.9375 C 495.238281 192.667969 492.214844 195.691406 488.480469 195.691406 C 484.75 195.691406 481.726562 192.667969 481.726562 188.9375 C 481.726562 185.203125 484.75 182.179688 488.480469 182.179688 C 492.214844 182.179688 495.238281 185.203125 495.238281 188.9375 "/>
<path fill-rule="nonzero" fill="rgb(18.431373%, 30.980392%, 30.980392%)" fill-opacity="1" stroke-width="0.708661" stroke-linecap="round" stroke-linejoin="round" stroke="rgb(18.431373%, 30.980392%, 30.980392%)" stroke-opacity="1" stroke-miterlimit="10" d="M 502.289062 183.636719 C 502.289062 187.371094 499.261719 190.394531 495.53125 190.394531 C 491.800781 190.394531 488.773438 187.371094 488.773438 183.636719 C 488.773438 179.90625 491.800781 176.882812 495.53125 176.882812 C 499.261719 176.882812 502.289062 179.90625 502.289062 183.636719 "/>
<path fill-rule="nonzero" fill="rgb(18.431373%, 30.980392%, 30.980392%)" fill-opacity="1" stroke-width="0.708661" stroke-linecap="round" stroke-linejoin="round" stroke="rgb(18.431373%, 30.980392%, 30.980392%)" stroke-opacity="1" stroke-miterlimit="10" d="M 509.335938 198.011719 C 509.335938 201.742188 506.3125 204.769531 502.582031 204.769531 C 498.847656 204.769531 495.824219 201.742188 495.824219 198.011719 C 495.824219 194.28125 498.847656 191.257812 502.582031 191.257812 C 506.3125 191.257812 509.335938 194.28125 509.335938 198.011719 "/>
<path fill-rule="nonzero" fill="rgb(18.431373%, 30.980392%, 30.980392%)" fill-opacity="1" stroke-width="0.708661" stroke-linecap="round" stroke-linejoin="round" stroke="rgb(18.431373%, 30.980392%, 30.980392%)" stroke-opacity="1" stroke-miterlimit="10" d="M 516.386719 185.878906 C 516.386719 189.609375 513.359375 192.632812 509.628906 192.632812 C 505.898438 192.632812 502.875 189.609375 502.875 185.878906 C 502.875 182.144531 505.898438 179.121094 509.628906 179.121094 C 513.359375 179.121094 516.386719 182.144531 516.386719 185.878906 "/>
<path fill-rule="nonzero" fill="rgb(18.431373%, 30.980392%, 30.980392%)" fill-opacity="1" stroke-width="0.708661" stroke-linecap="round" stroke-linejoin="round" stroke="rgb(18.431373%, 30.980392%, 30.980392%)" stroke-opacity="1" stroke-miterlimit="10" d="M 523.433594 163.292969 C 523.433594 167.023438 520.410156 170.046875 516.679688 170.046875 C 512.949219 170.046875 509.921875 167.023438 509.921875 163.292969 C 509.921875 159.5625 512.949219 156.535156 516.679688 156.535156 C 520.410156 156.535156 523.433594 159.5625 523.433594 163.292969 "/>
<path fill-rule="nonzero" fill="rgb(18.431373%, 30.980392%, 30.980392%)" fill-opacity="1" stroke-width="0.708661" stroke-linecap="round" stroke-linejoin="round" stroke="rgb(18.431373%, 30.980392%, 30.980392%)" stroke-opacity="1" stroke-miterlimit="10" d="M 530.484375 209.59375 C 530.484375 213.324219 527.460938 216.351562 523.726562 216.351562 C 519.996094 216.351562 516.972656 213.324219 516.972656 209.59375 C 516.972656 205.863281 519.996094 202.835938 523.726562 202.835938 C 527.460938 202.835938 530.484375 205.863281 530.484375 209.59375 "/>
<path fill-rule="nonzero" fill="rgb(18.431373%, 30.980392%, 30.980392%)" fill-opacity="1" stroke-width="0.708661" stroke-linecap="round" stroke-linejoin="round" stroke="rgb(18.431373%, 30.980392%, 30.980392%)" stroke-opacity="1" stroke-miterlimit="10" d="M 537.535156 191.332031 C 537.535156 195.0625 534.507812 198.085938 530.777344 198.085938 C 527.046875 198.085938 524.019531 195.0625 524.019531 191.332031 C 524.019531 187.601562 527.046875 184.574219 530.777344 184.574219 C 534.507812 184.574219 537.535156 187.601562 537.535156 191.332031 "/>
<path fill-rule="nonzero" fill="rgb(18.431373%, 30.980392%, 30.980392%)" fill-opacity="1" stroke-width="0.708661" stroke-linecap="round" stroke-linejoin="round" stroke="rgb(18.431373%, 30.980392%, 30.980392%)" stroke-opacity="1" stroke-miterlimit="10" d="M 544.582031 164.144531 C 544.582031 167.875 541.558594 170.902344 537.828125 170.902344 C 534.09375 170.902344 531.070312 167.875 531.070312 164.144531 C 531.070312 160.414062 534.09375 157.390625 537.828125 157.390625 C 541.558594 157.390625 544.582031 160.414062 544.582031 164.144531 "/>
<path fill-rule="nonzero" fill="rgb(18.431373%, 30.980392%, 30.980392%)" fill-opacity="1" stroke-width="0.708661" stroke-linecap="round" stroke-linejoin="round" stroke="rgb(18.431373%, 30.980392%, 30.980392%)" stroke-opacity="1" stroke-miterlimit="10" d="M 551.632812 175.945312 C 551.632812 179.675781 548.605469 182.703125 544.875 182.703125 C 541.144531 182.703125 538.121094 179.675781 538.121094 175.945312 C 538.121094 172.214844 541.144531 169.1875 544.875 169.1875 C 548.605469 169.1875 551.632812 172.214844 551.632812 175.945312 "/>
<path fill-rule="nonzero" fill="rgb(18.431373%, 30.980392%, 30.980392%)" fill-opacity="1" stroke-width="0.708661" stroke-linecap="round" stroke-linejoin="round" stroke="rgb(18.431373%, 30.980392%, 30.980392%)" stroke-opacity="1" stroke-miterlimit="10" d="M 558.679688 133.878906 C 558.679688 137.613281 555.65625 140.636719 551.925781 140.636719 C 548.195312 140.636719 545.167969 137.613281 545.167969 133.878906 C 545.167969 130.148438 548.195312 127.125 551.925781 127.125 C 555.65625 127.125 558.679688 130.148438 558.679688 133.878906 "/>
<path fill-rule="nonzero" fill="rgb(18.431373%, 30.980392%, 30.980392%)" fill-opacity="1" stroke-width="0.708661" stroke-linecap="round" stroke-linejoin="round" stroke="rgb(18.431373%, 30.980392%, 30.980392%)" stroke-opacity="1" stroke-miterlimit="10" d="M 565.730469 144.25 C 565.730469 147.984375 562.707031 151.007812 558.972656 151.007812 C 555.242188 151.007812 552.21875 147.984375 552.21875 144.25 C 552.21875 140.519531 555.242188 137.496094 558.972656 137.496094 C 562.707031 137.496094 565.730469 140.519531 565.730469 144.25 "/>
<path fill-rule="nonzero" fill="rgb(18.431373%, 30.980392%, 30.980392%)" fill-opacity="1" stroke-width="0.708661" stroke-linecap="round" stroke-linejoin="round" stroke="rgb(18.431373%, 30.980392%, 30.980392%)" stroke-opacity="1" stroke-miterlimit="10" d="M 572.78125 152.625 C 572.78125 156.355469 569.753906 159.382812 566.023438 159.382812 C 562.292969 159.382812 559.265625 156.355469 559.265625 152.625 C 559.265625 148.894531 562.292969 145.871094 566.023438 145.871094 C 569.753906 145.871094 572.78125 148.894531 572.78125 152.625 "/>
<path fill-rule="nonzero" fill="rgb(18.431373%, 30.980392%, 30.980392%)" fill-opacity="1" stroke-width="0.708661" stroke-linecap="round" stroke-linejoin="round" stroke="rgb(18.431373%, 30.980392%, 30.980392%)" stroke-opacity="1" stroke-miterlimit="10" d="M 579.828125 181.433594 C 579.828125 185.167969 576.804688 188.191406 573.074219 188.191406 C 569.339844 188.191406 566.316406 185.167969 566.316406 181.433594 C 566.316406 177.703125 569.339844 174.679688 573.074219 174.679688 C 576.804688 174.679688 579.828125 177.703125 579.828125 181.433594 "/>
<path fill-rule="nonzero" fill="rgb(18.431373%, 30.980392%, 30.980392%)" fill-opacity="1" stroke-width="0.708661" stroke-linecap="round" stroke-linejoin="round" stroke="rgb(18.431373%, 30.980392%, 30.980392%)" stroke-opacity="1" stroke-miterlimit="10" d="M 586.878906 145.234375 C 586.878906 148.96875 583.851562 151.992188 580.121094 151.992188 C 576.390625 151.992188 573.367188 148.96875 573.367188 145.234375 C 573.367188 141.503906 576.390625 138.480469 580.121094 138.480469 C 583.851562 138.480469 586.878906 141.503906 586.878906 145.234375 "/>
<path fill-rule="nonzero" fill="rgb(18.431373%, 30.980392%, 30.980392%)" fill-opacity="1" stroke-width="0.708661" stroke-linecap="round" stroke-linejoin="round" stroke="rgb(18.431373%, 30.980392%, 30.980392%)" stroke-opacity="1" stroke-miterlimit="10" d="M 593.925781 148.210938 C 593.925781 151.941406 590.902344 154.96875 587.171875 154.96875 C 583.441406 154.96875 580.414062 151.941406 580.414062 148.210938 C 580.414062 144.480469 583.441406 141.457031 587.171875 141.457031 C 590.902344 141.457031 593.925781 144.480469 593.925781 148.210938 "/>
<path fill-rule="nonzero" fill="rgb(18.431373%, 30.980392%, 30.980392%)" fill-opacity="1" stroke-width="0.708661" stroke-linecap="round" stroke-linejoin="round" stroke="rgb(18.431373%, 30.980392%, 30.980392%)" stroke-opacity="1" stroke-miterlimit="10" d="M 600.976562 139.566406 C 600.976562 143.296875 597.953125 146.324219 594.21875 146.324219 C 590.488281 146.324219 587.464844 143.296875 587.464844 139.566406 C 587.464844 135.835938 590.488281 132.8125 594.21875 132.8125 C 597.953125 132.8125 600.976562 135.835938 600.976562 139.566406 "/>
<path fill-rule="nonzero" fill="rgb(18.431373%, 30.980392%, 30.980392%)" fill-opacity="1" stroke-width="0.708661" stroke-linecap="round" stroke-linejoin="round" stroke="rgb(18.431373%, 30.980392%, 30.980392%)" stroke-opacity="1" stroke-miterlimit="10" d="M 608.027344 157.921875 C 608.027344 161.652344 605 164.679688 601.269531 164.679688 C 597.539062 164.679688 594.511719 161.652344 594.511719 157.921875 C 594.511719 154.191406 597.539062 151.167969 601.269531 151.167969 C 605 151.167969 608.027344 154.191406 608.027344 157.921875 "/>
<path fill-rule="nonzero" fill="rgb(18.431373%, 30.980392%, 30.980392%)" fill-opacity="1" stroke-width="0.708661" stroke-linecap="round" stroke-linejoin="round" stroke="rgb(18.431373%, 30.980392%, 30.980392%)" stroke-opacity="1" stroke-miterlimit="10" d="M 615.074219 118.667969 C 615.074219 122.398438 612.050781 125.425781 608.320312 125.425781 C 604.585938 125.425781 601.5625 122.398438 601.5625 118.667969 C 601.5625 114.9375 604.585938 111.910156 608.320312 111.910156 C 612.050781 111.910156 615.074219 114.9375 615.074219 118.667969 "/>
<path fill-rule="nonzero" fill="rgb(18.431373%, 30.980392%, 30.980392%)" fill-opacity="1" stroke-width="0.708661" stroke-linecap="round" stroke-linejoin="round" stroke="rgb(18.431373%, 30.980392%, 30.980392%)" stroke-opacity="1" stroke-miterlimit="10" d="M 622.125 146.59375 C 622.125 150.324219 619.097656 153.351562 615.367188 153.351562 C 611.636719 153.351562 608.613281 150.324219 608.613281 146.59375 C 608.613281 142.863281 611.636719 139.839844 615.367188 139.839844 C 619.097656 139.839844 622.125 142.863281 622.125 146.59375 "/>
<path fill-rule="nonzero" fill="rgb(18.431373%, 30.980392%, 30.980392%)" fill-opacity="1" stroke-width="0.708661" stroke-linecap="round" stroke-linejoin="round" stroke="rgb(18.431373%, 30.980392%, 30.980392%)" stroke-opacity="1" stroke-miterlimit="10" d="M 629.171875 125.449219 C 629.171875 129.183594 626.148438 132.207031 622.417969 132.207031 C 618.6875 132.207031 615.660156 129.183594 615.660156 125.449219 C 615.660156 121.71875 618.6875 118.695312 622.417969 118.695312 C 626.148438 118.695312 629.171875 121.71875 629.171875 125.449219 "/>
<path fill-rule="nonzero" fill="rgb(18.431373%, 30.980392%, 30.980392%)" fill-opacity="1" stroke-width="0.708661" stroke-linecap="round" stroke-linejoin="round" stroke="rgb(18.431373%, 30.980392%, 30.980392%)" stroke-opacity="1" stroke-miterlimit="10" d="M 636.222656 108.589844 C 636.222656 112.320312 633.199219 115.34375 629.464844 115.34375 C 625.734375 115.34375 622.710938 112.320312 622.710938 108.589844 C 622.710938 104.859375 625.734375 101.832031 629.464844 101.832031 C 633.199219 101.832031 636.222656 104.859375 636.222656 108.589844 "/>
<path fill-rule="nonzero" fill="rgb(18.431373%, 30.980392%, 30.980392%)" fill-opacity="1" stroke-width="0.708661" stroke-linecap="round" stroke-linejoin="round" stroke="rgb(18.431373%, 30.980392%, 30.980392%)" stroke-opacity="1" stroke-miterlimit="10" d="M 643.273438 128.734375 C 643.273438 132.464844 640.246094 135.492188 636.515625 135.492188 C 632.785156 135.492188 629.757812 132.464844 629.757812 128.734375 C 629.757812 125.003906 632.785156 121.980469 636.515625 121.980469 C 640.246094 121.980469 643.273438 125.003906 643.273438 128.734375 "/>
<path fill-rule="nonzero" fill="rgb(18.431373%, 30.980392%, 30.980392%)" fill-opacity="1" stroke-width="0.708661" stroke-linecap="round" stroke-linejoin="round" stroke="rgb(18.431373%, 30.980392%, 30.980392%)" stroke-opacity="1" stroke-miterlimit="10" d="M 650.320312 96.03125 C 650.320312 99.761719 647.296875 102.785156 643.566406 102.785156 C 639.832031 102.785156 636.808594 99.761719 636.808594 96.03125 C 636.808594 92.296875 639.832031 89.273438 643.566406 89.273438 C 647.296875 89.273438 650.320312 92.296875 650.320312 96.03125 "/>
<path fill-rule="nonzero" fill="rgb(18.431373%, 30.980392%, 30.980392%)" fill-opacity="1" stroke-width="0.708661" stroke-linecap="round" stroke-linejoin="round" stroke="rgb(18.431373%, 30.980392%, 30.980392%)" stroke-opacity="1" stroke-miterlimit="10" d="M 657.371094 131.511719 C 657.371094 135.242188 654.34375 138.269531 650.613281 138.269531 C 646.882812 138.269531 643.859375 135.242188 643.859375 131.511719 C 643.859375 127.78125 646.882812 124.753906 650.613281 124.753906 C 654.34375 124.753906 657.371094 127.78125 657.371094 131.511719 "/>
<path fill-rule="nonzero" fill="rgb(18.431373%, 30.980392%, 30.980392%)" fill-opacity="1" stroke-width="0.708661" stroke-linecap="round" stroke-linejoin="round" stroke="rgb(18.431373%, 30.980392%, 30.980392%)" stroke-opacity="1" stroke-miterlimit="10" d="M 664.417969 158.511719 C 664.417969 162.242188 661.394531 165.269531 657.664062 165.269531 C 653.933594 165.269531 650.90625 162.242188 650.90625 158.511719 C 650.90625 154.78125 653.933594 151.753906 657.664062 151.753906 C 661.394531 151.753906 664.417969 154.78125 664.417969 158.511719 "/>
<path fill-rule="nonzero" fill="rgb(18.431373%, 30.980392%, 30.980392%)" fill-opacity="1" stroke-width="0.708661" stroke-linecap="round" stroke-linejoin="round" stroke="rgb(18.431373%, 30.980392%, 30.980392%)" stroke-opacity="1" stroke-miterlimit="10" d="M 671.46875 85.96875 C 671.46875 89.699219 668.445312 92.722656 664.710938 92.722656 C 660.980469 92.722656 657.957031 89.699219 657.957031 85.96875 C 657.957031 82.234375 660.980469 79.210938 664.710938 79.210938 C 668.445312 79.210938 671.46875 82.234375 671.46875 85.96875 "/>
<path fill-rule="nonzero" fill="rgb(18.431373%, 30.980392%, 30.980392%)" fill-opacity="1" stroke-width="0.708661" stroke-linecap="round" stroke-linejoin="round" stroke="rgb(18.431373%, 30.980392%, 30.980392%)" stroke-opacity="1" stroke-miterlimit="10" d="M 678.519531 73.949219 C 678.519531 77.679688 675.492188 80.707031 671.761719 80.707031 C 668.03125 80.707031 665.003906 77.679688 665.003906 73.949219 C 665.003906 70.21875 668.03125 67.195312 671.761719 67.195312 C 675.492188 67.195312 678.519531 70.21875 678.519531 73.949219 "/>
<path fill-rule="nonzero" fill="rgb(18.431373%, 30.980392%, 30.980392%)" fill-opacity="1" stroke-width="0.708661" stroke-linecap="round" stroke-linejoin="round" stroke="rgb(18.431373%, 30.980392%, 30.980392%)" stroke-opacity="1" stroke-miterlimit="10" d="M 685.566406 93.292969 C 685.566406 97.023438 682.542969 100.046875 678.8125 100.046875 C 675.078125 100.046875 672.054688 97.023438 672.054688 93.292969 C 672.054688 89.558594 675.078125 86.535156 678.8125 86.535156 C 682.542969 86.535156 685.566406 89.558594 685.566406 93.292969 "/>
<path fill-rule="nonzero" fill="rgb(18.431373%, 30.980392%, 30.980392%)" fill-opacity="1" stroke-width="0.708661" stroke-linecap="round" stroke-linejoin="round" stroke="rgb(18.431373%, 30.980392%, 30.980392%)" stroke-opacity="1" stroke-miterlimit="10" d="M 692.617188 72.621094 C 692.617188 76.355469 689.589844 79.378906 685.859375 79.378906 C 682.128906 79.378906 679.105469 76.355469 679.105469 72.621094 C 679.105469 68.890625 682.128906 65.867188 685.859375 65.867188 C 689.589844 65.867188 692.617188 68.890625 692.617188 72.621094 "/>
<path fill-rule="nonzero" fill="rgb(18.431373%, 30.980392%, 30.980392%)" fill-opacity="1" stroke-width="0.708661" stroke-linecap="round" stroke-linejoin="round" stroke="rgb(18.431373%, 30.980392%, 30.980392%)" stroke-opacity="1" stroke-miterlimit="10" d="M 699.664062 103.105469 C 699.664062 106.835938 696.640625 109.863281 692.910156 109.863281 C 689.179688 109.863281 686.152344 106.835938 686.152344 103.105469 C 686.152344 99.375 689.179688 96.347656 692.910156 96.347656 C 696.640625 96.347656 699.664062 99.375 699.664062 103.105469 "/>
<path fill-rule="nonzero" fill="rgb(18.431373%, 30.980392%, 30.980392%)" fill-opacity="1" stroke-width="0.708661" stroke-linecap="round" stroke-linejoin="round" stroke="rgb(18.431373%, 30.980392%, 30.980392%)" stroke-opacity="1" stroke-miterlimit="10" d="M 706.714844 77.453125 C 706.714844 81.183594 703.691406 84.207031 699.957031 84.207031 C 696.226562 84.207031 693.203125 81.183594 693.203125 77.453125 C 693.203125 73.71875 696.226562 70.695312 699.957031 70.695312 C 703.691406 70.695312 706.714844 73.71875 706.714844 77.453125 "/>
<path fill-rule="nonzero" fill="rgb(18.431373%, 30.980392%, 30.980392%)" fill-opacity="1" stroke-width="0.708661" stroke-linecap="round" stroke-linejoin="round" stroke="rgb(18.431373%, 30.980392%, 30.980392%)" stroke-opacity="1" stroke-miterlimit="10" d="M 713.765625 111.15625 C 713.765625 114.886719 710.738281 117.910156 707.007812 117.910156 C 703.277344 117.910156 700.25 114.886719 700.25 111.15625 C 700.25 107.425781 703.277344 104.398438 707.007812 104.398438 C 710.738281 104.398438 713.765625 107.425781 713.765625 111.15625 "/>
<path fill-rule="nonzero" fill="rgb(18.431373%, 30.980392%, 30.980392%)" fill-opacity="1" stroke-width="0.708661" stroke-linecap="round" stroke-linejoin="round" stroke="rgb(18.431373%, 30.980392%, 30.980392%)" stroke-opacity="1" stroke-miterlimit="10" d="M 720.8125 41.785156 C 720.8125 45.515625 717.789062 48.542969 714.058594 48.542969 C 710.324219 48.542969 707.300781 45.515625 707.300781 41.785156 C 707.300781 38.054688 710.324219 35.027344 714.058594 35.027344 C 717.789062 35.027344 720.8125 38.054688 720.8125 41.785156 "/>
<path fill-rule="nonzero" fill="rgb(18.431373%, 30.980392%, 30.980392%)" fill-opacity="1" stroke-width="0.708661" stroke-linecap="round" stroke-linejoin="round" stroke="rgb(18.431373%, 30.980392%, 30.980392%)" stroke-opacity="1" stroke-miterlimit="10" d="M 727.863281 23.4375 C 727.863281 27.171875 724.835938 30.195312 721.105469 30.195312 C 717.375 30.195312 714.351562 27.171875 714.351562 23.4375 C 714.351562 19.707031 717.375 16.683594 721.105469 16.683594 C 724.835938 16.683594 727.863281 19.707031 727.863281 23.4375 "/>
<path fill="none" stroke-width="6.40187" stroke-linecap="butt" stroke-linejoin="round" stroke="rgb(94.117647%, 50.196078%, 50.196078%)" stroke-opacity="1" stroke-miterlimit="10" d="M 23.234375 475.582031 L 32.066406 470.371094 L 40.902344 465.164062 L 49.734375 459.957031 L 58.570312 454.746094 L 67.402344 449.539062 L 76.238281 444.328125 L 93.902344 433.914062 L 102.738281 428.703125 L 111.570312 423.496094 L 120.40625 418.289062 L 129.238281 413.078125 L 138.074219 407.871094 L 146.90625 402.660156 L 155.742188 397.453125 L 164.574219 392.246094 L 173.410156 387.035156 L 182.242188 381.828125 L 191.078125 376.617188 L 208.742188 366.203125 L 217.578125 360.992188 L 226.410156 355.785156 L 235.246094 350.574219 L 244.078125 345.367188 L 252.914062 340.160156 L 261.746094 334.949219 L 270.582031 329.742188 L 279.414062 324.53125 L 288.25 319.324219 L 297.082031 314.117188 L 305.917969 308.90625 L 323.582031 298.492188 L 332.417969 293.28125 L 341.25 288.074219 L 350.085938 282.863281 L 358.917969 277.65625 L 367.753906 272.449219 L 376.585938 267.238281 L 385.421875 262.03125 L 394.253906 256.820312 L 403.089844 251.613281 L 411.921875 246.40625 L 420.757812 241.195312 L 429.589844 235.988281 L 438.421875 230.777344 L 447.257812 225.570312 L 456.089844 220.363281 L 464.925781 215.152344 L 473.757812 209.945312 L 482.59375 204.738281 L 491.425781 199.527344 L 500.261719 194.320312 L 509.09375 189.109375 L 517.929688 183.902344 L 526.761719 178.695312 L 535.597656 173.484375 L 544.429688 168.277344 L 553.261719 163.066406 L 562.097656 157.859375 L 570.929688 152.652344 L 579.765625 147.441406 L 588.597656 142.234375 L 597.433594 137.023438 L 606.265625 131.816406 L 615.101562 126.609375 L 623.933594 121.398438 L 632.769531 116.191406 L 641.601562 110.984375 L 650.4375 105.773438 L 659.269531 100.566406 L 668.101562 95.355469 L 676.9375 90.148438 L 685.769531 84.941406 L 694.605469 79.730469 L 703.4375 74.523438 L 712.273438 69.3125 L 721.105469 64.105469 "/>
</svg>
