<?xml version="1.0" encoding="UTF-8"?>
<svg xmlns="http://www.w3.org/2000/svg" xmlns:xlink="http://www.w3.org/1999/xlink" width="756" height="504" viewBox="0 0 756 504">
<rect x="-75.6" y="-50.4" width="907.2" height="604.8" fill="rgb(100%, 100%, 100%)" fill-opacity="1"/>
<path fill-rule="nonzero" fill="rgb(18.431373%, 30.980392%, 30.980392%)" fill-opacity="1" stroke-width="0.708661" stroke-linecap="round" stroke-linejoin="round" stroke="rgb(18.431373%, 30.980392%, 30.980392%)" stroke-opacity="1" stroke-miterlimit="10" d="M 29.988281 489.59375 C 29.988281 493.328125 26.964844 496.351562 23.234375 496.351562 C 19.503906 496.351562 16.476562 493.328125 16.476562 489.59375 C 16.476562 485.863281 19.503906 482.839844 23.234375 482.839844 C 26.964844 482.839844 29.988281 485.863281 29.988281 489.59375 "/>
<path fill-rule="nonzero" fill="rgb(18.431373%, 30.980392%, 30.980392%)" fill-opacity="1" stroke-width="0.708661" stroke-linecap="round" stroke-linejoin="round" stroke="rgb(18.431373%, 30.980392%, 30.980392%)" stroke-opacity="1" stroke-miterlimit="10" d="M 37.039062 464.578125 C 37.039062 468.3125 34.015625 471.335938 30.28125 471.335938 C 26.550781 471.335938 23.527344 468.3125 23.527344 464.578125 C 23.527344 460.847656 26.550781 457.824219 30.28125 457.824219 C 34.015625 457.824219 37.039062 460.847656 37.039062 464.578125 "/>
<path fill-rule="nonzero" fill="rgb(18.431373%, 30.980392%, 30.980392%)" fill-opacity="1" stroke-width="0.708661" stroke-linecap="round" stroke-linejoin="round" stroke="rgb(18.431373%, 30.980392%, 30.980392%)" stroke-opacity="1" stroke-miterlimit="10" d="M 44.089844 473.171875 C 44.089844 476.902344 41.0625 479.925781 37.332031 479.925781 C 33.601562 479.925781 30.574219 476.902344 30.574219 473.171875 C 30.574219 469.441406 33.601562 466.414062 37.332031 466.414062 C 41.0625 466.414062 44.089844 469.441406 44.089844 473.171875 "/>
<path fill-rule="nonzero" fill="rgb(18.431373%, 30.980392%, 30.980392%)" fill-opacity="1" stroke-width="0.708661" stroke-linecap="round" stroke-linejoin="round" stroke="rgb(18.431373%, 30.980392%, 30.980392%)" stroke-opacity="1" stroke-miterlimit="10" d="M 51.136719 471.753906 C 51.136719 475.484375 48.113281 478.511719 44.382812 478.511719 C 40.648438 478.511719 37.625 475.484375 37.625 471.753906 C 37.625 468.023438 40.648438 465 44.382812 465 C 48.113281 465 51.136719 468.023438 51.136719 471.753906 "/>
<path fill-rule="nonzero" fill="rgb(18.431373%, 30.980392%, 30.980392%)" fill-opacity="1" stroke-width="0.708661" stroke-linecap="round" stroke-linejoin="round" stroke="rgb(18.431373%, 30.980392%, 30.980392%)" stroke-opacity="1" stroke-miterlimit="10" d="M 58.1875 438.878906 C 58.1875 442.613281 55.160156 445.636719 51.429688 445.636719 C 47.699219 445.636719 44.675781 442.613281 44.675781 438.878906 C 44.675781 435.148438 47.699219 432.125 51.429688 432.125 C 55.160156 432.125 58.1875 435.148438 58.1875 438.878906 "/>
<path fill-rule="nonzero" fill="rgb(18.431373%, 30.980392%, 30.980392%)" fill-opacity="1" stroke-width="0.708661" stroke-linecap="round" stroke-linejoin="round" stroke="rgb(18.431373%, 30.980392%, 30.980392%)" stroke-opacity="1" stroke-miterlimit="10" d="M 65.234375 401.441406 C 65.234375 405.171875 62.210938 408.199219 58.480469 408.199219 C 54.75 408.199219 51.722656 405.171875 51.722656 401.441406 C 51.722656 397.710938 54.75 394.6875 58.480469 394.6875 C 62.210938 394.6875 65.234375 397.710938 65.234375 401.441406 "/>
<path fill-rule="nonzero" fill="rgb(18.431373%, 30.980392%, 30.980392%)" fill-opacity="1" stroke-width="0.708661" stroke-linecap="round" stroke-linejoin="round" stroke="rgb(18.431373%, 30.980392%, 30.980392%)" stroke-opacity="1" stroke-miterlimit="10" d="M 72.285156 492.222656 C 72.285156 495.953125 69.261719 498.976562 65.527344 498.976562 C 61.796875 498.976562 58.773438 495.953125 58.773438 492.222656 C 58.773438 488.488281 61.796875 485.464844 65.527344 485.464844 C 69.261719 485.464844 72.285156 488.488281 72.285156 492.222656 "/>
<path fill-rule="nonzero" fill="rgb(18.431373%, 30.980392%, 30.980392%)" fill-opacity="1" stroke-width="0.708661" stroke-linecap="round" stroke-linejoin="round" stroke="rgb(18.431373%, 30.980392%, 30.980392%)" stroke-opacity="1" stroke-miterlimit="10" d="M 79.335938 440.871094 C 79.335938 444.601562 76.308594 447.625 72.578125 447.625 C 68.847656 447.625 65.820312 444.601562 65.820312 440.871094 C 65.820312 437.136719 68.847656 434.113281 72.578125 434.113281 C 76.308594 434.113281 79.335938 437.136719 79.335938 440.871094 "/>
<path fill-rule="nonzero" fill="rgb(18.431373%, 30.980392%, 30.980392%)" fill-opacity="1" stroke-width="0.708661" stroke-linecap="round" stroke-linejoin="round" stroke="rgb(18.431373%, 30.980392%, 30.980392%)" stroke-opacity="1" stroke-miterlimit="10" d="M 86.382812 439.300781 C 86.382812 443.03125 83.359375 446.054688 79.628906 446.054688 C 75.894531 446.054688 72.871094 443.03125 72.871094 439.300781 C 72.871094 435.566406 75.894531 432.542969 79.628906 432.542969 C 83.359375 432.542969 86.382812 435.566406 86.382812 439.300781 "/>
<path fill-rule="nonzero" fill="rgb(18.431373%, 30.980392%, 30.980392%)" fill-opacity="1" stroke-width="0.708661" stroke-linecap="round" stroke-linejoin="round" stroke="rgb(18.431373%, 30.980392%, 30.980392%)" stroke-opacity="1" stroke-miterlimit="10" d="M 93.433594 405.5625 C 93.433594 409.292969 90.40625 412.316406 86.675781 412.316406 C 82.945312 412.316406 79.921875 409.292969 79.921875 405.5625 C 79.921875 401.828125 82.945312 398.804688 86.675781 398.804688 C 90.40625 398.804688 93.433594 401.828125 93.433594 405.5625 "/>
<path fill-rule="nonzero" fill="rgb(18.431373%, 30.980392%, 30.980392%)" fill-opacity="1" stroke-width="0.708661" stroke-linecap="round" stroke-linejoin="round" stroke="rgb(18.431373%, 30.980392%, 30.980392%)" stroke-opacity="1" stroke-miterlimit="10" d="M 100.480469 424.269531 C 100.480469 428 97.457031 431.023438 93.726562 431.023438 C 89.996094 431.023438 86.96875 428 86.96875 424.269531 C 86.96875 420.539062 89.996094 417.511719 93.726562 417.511719 C 97.457031 417.511719 100.480469 420.539062 100.480469 424.269531 "/>
<path fill-rule="nonzero" fill="rgb(18.431373%, 30.980392%, 30.980392%)" fill-opacity="1" stroke-width="0.708661" stroke-linecap="round" stroke-linejoin="round" stroke="rgb(18.431373%, 30.980392%, 30.980392%)" stroke-opacity="1" stroke-miterlimit="10" d="M 107.53125 401.40625 C 107.53125 405.140625 104.507812 408.164062 100.773438 408.164062 C 97.042969 408.164062 94.019531 405.140625 94.019531 401.40625 C 94.019531 397.675781 97.042969 394.652344 100.773438 394.652344 C 104.507812 394.652344 107.53125 397.675781 107.53125 401.40625 "/>
<path fill-rule="nonzero" fill="rgb(18.431373%, 30.980392%, 30.980392%)" fill-opacity="1" stroke-width="0.708661" stroke-linecap="round" stroke-linejoin="round" stroke="rgb(18.431373%, 30.980392%, 30.980392%)" stroke-opacity="1" stroke-miterlimit="10" d="M 114.582031 431.207031 C 114.582031 434.9375 111.554688 437.964844 107.824219 437.964844 C 104.09375 437.964844 101.066406 434.9375 101.066406 431.207031 C 101.066406 427.476562 104.09375 424.453125 107.824219 424.453125 C 111.554688 424.453125 114.582031 427.476562 114.582031 431.207031 "/>
<path fill-rule="nonzero" fill="rgb(18.431373%, 30.980392%, 30.980392%)" fill-opacity="1" stroke-width="0.708661" stroke-linecap="round" stroke-linejoin="round" stroke="rgb(18.431373%, 30.980392%, 30.980392%)" stroke-opacity="1" stroke-miterlimit="10" d="M 121.628906 379.359375 C 121.628906 383.09375 118.605469 386.117188 114.875 386.117188 C 111.140625 386.117188 108.117188 383.09375 108.117188 379.359375 C 108.117188 375.628906 111.140625 372.605469 114.875 372.605469 C 118.605469 372.605469 121.628906 375.628906 121.628906 379.359375 "/>
<path fill-rule="nonzero" fill="rgb(18.431373%, 30.980392%, 30.980392%)" fill-opacity="1" stroke-width="0.708661" stroke-linecap="round" stroke-linejoin="round" stroke="rgb(18.431373%, 30.980392%, 30.980392%)" stroke-opacity="1" stroke-miterlimit="10" d="M 128.679688 406.417969 C 128.679688 410.148438 125.652344 413.171875 121.921875 413.171875 C 118.191406 413.171875 115.167969 410.148438 115.167969 406.417969 C 115.167969 402.683594 118.191406 399.660156 121.921875 399.660156 C 125.652344 399.660156 128.679688 402.683594 128.679688 406.417969 "/>
<path fill-rule="nonzero" fill="rgb(18.431373%, 30.980392%, 30.980392%)" fill-opacity="1" stroke-width="0.708661" stroke-linecap="round" stroke-linejoin="round" stroke="rgb(18.431373%, 30.980392%, 30.980392%)" stroke-opacity="1" stroke-miterlimit="10" d="M 135.726562 409.257812 C 135.726562 412.988281 132.703125 416.011719 128.972656 416.011719 C 125.242188 416.011719 122.214844 412.988281 122.214844 409.257812 C 122.214844 405.523438 125.242188 402.5 128.972656 402.5 C 132.703125 402.5 135.726562 405.523438 135.726562 409.257812 "/>
<path fill-rule="nonzero" fill="rgb(18.431373%, 30.980392%, 30.980392%)" fill-opacity="1" stroke-width="0.708661" stroke-linecap="round" stroke-linejoin="round" stroke="rgb(18.431373%, 30.980392%, 30.980392%)" stroke-opacity="1" stroke-miterlimit="10" d="M 142.777344 382.167969 C 142.777344 385.898438 139.753906 388.921875 136.019531 388.921875 C 132.289062 388.921875 129.265625 385.898438 129.265625 382.167969 C 129.265625 378.4375 132.289062 375.410156 136.019531 375.410156 C 139.753906 375.410156 142.777344 378.4375 142.777344 382.167969 "/>
<path fill-rule="nonzero" fill="rgb(18.431373%, 30.980392%, 30.980392%)" fill-opacity="1" stroke-width="0.708661" stroke-linecap="round" stroke-linejoin="round" stroke="rgb(18.431373%, 30.980392%, 30.980392%)" stroke-opacity="1" stroke-miterlimit="10" d="M 149.828125 409.226562 C 149.828125 412.960938 146.800781 415.984375 143.070312 415.984375 C 139.339844 415.984375 136.3125 412.960938 136.3125 409.226562 C 136.3125 405.496094 139.339844 402.472656 143.070312 402.472656 C 146.800781 402.472656 149.828125 405.496094 149.828125 409.226562 "/>
<path fill-rule="nonzero" fill="rgb(18.431373%, 30.980392%, 30.980392%)" fill-opacity="1" stroke-width="0.708661" stroke-linecap="round" stroke-linejoin="round" stroke="rgb(18.431373%, 30.980392%, 30.980392%)" stroke-opacity="1" stroke-miterlimit="10" d="M 156.875 370.65625 C 156.875 374.386719 153.851562 377.414062 150.121094 377.414062 C 146.386719 377.414062 143.363281 374.386719 143.363281 370.65625 C 143.363281 366.925781 146.386719 363.902344 150.121094 363.902344 C 153.851562 363.902344 156.875 366.925781 156.875 370.65625 "/>
<path fill-rule="nonzero" fill="rgb(18.431373%, 30.980392%, 30.980392%)" fill-opacity="1" stroke-width="0.708661" stroke-linecap="round" stroke-linejoin="round" stroke="rgb(18.431373%, 30.980392%, 30.980392%)" stroke-opacity="1" stroke-miterlimit="10" d="M 163.925781 420.8125 C 163.925781 424.542969 160.898438 427.570312 157.167969 427.570312 C 153.4375 427.570312 150.414062 424.542969 150.414062 420.8125 C 150.414062 417.082031 153.4375 414.058594 157.167969 414.058594 C 160.898438 414.058594 163.925781 417.082031 163.925781 420.8125 "/>
<path fill-rule="nonzero" fill="rgb(18.431373%, 30.980392%, 30.980392%)" fill-opacity="1" stroke-width="0.708661" stroke-linecap="round" stroke-linejoin="round" stroke="rgb(18.431373%, 30.980392%, 30.980392%)" stroke-opacity="1" stroke-miterlimit="10" d="M 170.972656 364.671875 C 170.972656 368.40625 167.949219 371.429688 164.21875 371.429688 C 160.488281 371.429688 157.460938 368.40625 157.460938 364.671875 C 157.460938 360.941406 160.488281 357.917969 164.21875 357.917969 C 167.949219 357.917969 170.972656 360.941406 170.972656 364.671875 "/>
<path fill-rule="nonzero" fill="rgb(18.431373%, 30.980392%, 30.980392%)" fill-opacity="1" stroke-width="0.708661" stroke-linecap="round" stroke-linejoin="round" stroke="rgb(18.431373%, 30.980392%, 30.980392%)" stroke-opacity="1" stroke-miterlimit="10" d="M 178.023438 361.644531 C 178.023438 365.375 175 368.398438 171.265625 368.398438 C 167.535156 368.398438 164.511719 365.375 164.511719 361.644531 C 164.511719 357.910156 167.535156 354.886719 171.265625 354.886719 C 175 354.886719 178.023438 357.910156 178.023438 361.644531 "/>
<path fill-rule="nonzero" fill="rgb(18.431373%, 30.980392%, 30.980392%)" fill-opacity="1" stroke-width="0.708661" stroke-linecap="round" stroke-linejoin="round" stroke="rgb(18.431373%, 30.980392%, 30.980392%)" stroke-opacity="1" stroke-miterlimit="10" d="M 185.074219 334.597656 C 185.074219 338.328125 182.046875 341.351562 178.316406 341.351562 C 174.585938 341.351562 171.558594 338.328125 171.558594 334.597656 C 171.558594 330.863281 174.585938 327.839844 178.316406 327.839844 C 182.046875 327.839844 185.074219 330.863281 185.074219 334.597656 "/>
<path fill-rule="nonzero" fill="rgb(18.431373%, 30.980392%, 30.980392%)" fill-opacity="1" stroke-width="0.708661" stroke-linecap="round" stroke-linejoin="round" stroke="rgb(18.431373%, 30.980392%, 30.980392%)" stroke-opacity="1" stroke-miterlimit="10" d="M 192.121094 321.480469 C 192.121094 325.210938 189.097656 328.238281 185.367188 328.238281 C 181.632812 328.238281 178.609375 325.210938 178.609375 321.480469 C 178.609375 317.75 181.632812 314.722656 185.367188 314.722656 C 189.097656 314.722656 192.121094 317.75 192.121094 321.480469 "/>
<path fill-rule="nonzero" fill="rgb(18.431373%, 30.980392%, 30.980392%)" fill-opacity="1" stroke-width="0.708661" stroke-linecap="round" stroke-linejoin="round" stroke="rgb(18.431373%, 30.980392%, 30.980392%)" stroke-opacity="1" stroke-miterlimit="10" d="M 199.171875 371.351562 C 199.171875 375.082031 196.144531 378.105469 192.414062 378.105469 C 188.683594 378.105469 185.660156 375.082031 185.660156 371.351562 C 185.660156 367.621094 188.683594 364.59375 192.414062 364.59375 C 196.144531 364.59375 199.171875 367.621094 199.171875 371.351562 "/>
<path fill-rule="nonzero" fill="rgb(18.431373%, 30.980392%, 30.980392%)" fill-opacity="1" stroke-width="0.708661" stroke-linecap="round" stroke-linejoin="round" stroke="rgb(18.431373%, 30.980392%, 30.980392%)" stroke-opacity="1" stroke-miterlimit="10" d="M 206.21875 367.296875 C 206.21875 371.027344 203.195312 374.054688 199.464844 374.054688 C 195.734375 374.054688 192.707031 371.027344 192.707031 367.296875 C 192.707031 363.566406 195.734375 360.542969 199.464844 360.542969 C 203.195312 360.542969 206.21875 363.566406 206.21875 367.296875 "/>
<path fill-rule="nonzero" fill="rgb(18.431373%, 30.980392%, 30.980392%)" fill-opacity="1" stroke-width="0.708661" stroke-linecap="round" stroke-linejoin="round" stroke="rgb(18.431373%, 30.980392%, 30.980392%)" stroke-opacity="1" stroke-miterlimit="10" d="M 213.269531 363.332031 C 213.269531 367.0625 210.246094 370.089844 206.511719 370.089844 C 202.78125 370.089844 199.757812 367.0625 199.757812 363.332031 C 199.757812 359.601562 202.78125 356.578125 206.511719 356.578125 C 210.246094 356.578125 213.269531 359.601562 213.269531 363.332031 "/>
<path fill-rule="nonzero" fill="rgb(18.431373%, 30.980392%, 30.980392%)" fill-opacity="1" stroke-width="0.708661" stroke-linecap="round" stroke-linejoin="round" stroke="rgb(18.431373%, 30.980392%, 30.980392%)" stroke-opacity="1" stroke-miterlimit="10" d="M 220.320312 340.28125 C 220.320312 344.011719 217.292969 347.039062 213.5625 347.039062 C 209.832031 347.039062 206.804688 344.011719 206.804688 340.28125 C 206.804688 336.550781 209.832031 333.523438 213.5625 333.523438 C 217.292969 333.523438 220.320312 336.550781 220.320312 340.28125 "/>
<path fill-rule="nonzero" fill="rgb(18.431373%, 30.980392%, 30.980392%)" fill-opacity="1" stroke-width="0.708661" stroke-linecap="round" stroke-linejoin="round" stroke="rgb(18.431373%, 30.980392%, 30.980392%)" stroke-opacity="1" stroke-miterlimit="10" d="M 227.367188 347.875 C 227.367188 351.605469 224.34375 354.632812 220.613281 354.632812 C 216.878906 354.632812 213.855469 351.605469 213.855469 347.875 C 213.855469 344.144531 216.878906 341.121094 220.613281 341.121094 C 224.34375 341.121094 227.367188 344.144531 227.367188 347.875 "/>
<path fill-rule="nonzero" fill="rgb(18.431373%, 30.980392%, 30.980392%)" fill-opacity="1" stroke-width="0.708661" stroke-linecap="round" stroke-linejoin="round" stroke="rgb(18.431373%, 30.980392%, 30.980392%)" stroke-opacity="1" stroke-miterlimit="10" d="M 234.417969 358.765625 C 234.417969 362.496094 231.390625 365.523438 227.660156 365.523438 C 223.929688 365.523438 220.90625 362.496094 220.90625 358.765625 C 220.90625 355.035156 223.929688 352.011719 227.660156 352.011719 C 231.390625 352.011719 234.417969 355.035156 234.417969 358.765625 "/>
<path fill-rule="nonzero" fill="rgb(18.431373%, 30.980392%, 30.980392%)" fill-opacity="1" stroke-width="0.708661" stroke-linecap="round" stroke-linejoin="round" stroke="rgb(18.431373%, 30.980392%, 30.980392%)" stroke-opacity="1" stroke-miterlimit="10" d="M 241.464844 333.554688 C 241.464844 337.285156 238.441406 340.308594 234.710938 340.308594 C 230.980469 340.308594 227.953125 337.285156 227.953125 333.554688 C 227.953125 329.820312 230.980469 326.796875 234.710938 326.796875 C 238.441406 326.796875 241.464844 329.820312 241.464844 333.554688 "/>
<path fill-rule="nonzero" fill="rgb(18.431373%, 30.980392%, 30.980392%)" fill-opacity="1" stroke-width="0.708661" stroke-linecap="round" stroke-linejoin="round" stroke="rgb(18.431373%, 30.980392%, 30.980392%)" stroke-opacity="1" stroke-miterlimit="10" d="M 248.515625 326.5625 C 248.515625 330.292969 245.492188 333.320312 241.757812 333.320312 C 238.027344 333.320312 235.003906 330.292969 235.003906 326.5625 C 235.003906 322.832031 238.027344 319.804688 241.757812 319.804688 C 245.492188 319.804688 248.515625 322.832031 248.515625 326.5625 "/>
<path fill-rule="nonzero" fill="rgb(18.431373%, 30.980392%, 30.980392%)" fill-opacity="1" stroke-width="0.708661" stroke-linecap="round" stroke-linejoin="round" stroke="rgb(18.431373%, 30.980392%, 30.980392%)" stroke-opacity="1" stroke-miterlimit="10" d="M 255.566406 371.984375 C 255.566406 375.714844 252.539062 378.738281 248.808594 378.738281 C 245.078125 378.738281 242.050781 375.714844 242.050781 371.984375 C 242.050781 368.253906 245.078125 365.226562 248.808594 365.226562 C 252.539062 365.226562 255.566406 368.253906 255.566406 371.984375 "/>
<path fill-rule="nonzero" fill="rgb(18.431373%, 30.980392%, 30.980392%)" fill-opacity="1" stroke-width="0.708661" stroke-linecap="round" stroke-linejoin="round" stroke="rgb(18.431373%, 30.980392%, 30.980392%)" stroke-opacity="1" stroke-miterlimit="10" d="M 262.613281 359.40625 C 262.613281 363.140625 259.589844 366.164062 255.859375 366.164062 C 252.125 366.164062 249.101562 363.140625 249.101562 359.40625 C 249.101562 355.675781 252.125 352.652344 255.859375 352.652344 C 259.589844 352.652344 262.613281 355.675781 262.613281 359.40625 "/>
<path fill-rule="nonzero" fill="rgb(18.431373%, 30.980392%, 30.980392%)" fill-opacity="1" stroke-width="0.708661" stroke-linecap="round" stroke-linejoin="round" stroke="rgb(18.431373%, 30.980392%, 30.980392%)" stroke-opacity="1" stroke-miterlimit="10" d="M 269.664062 355.140625 C 269.664062 358.875 266.636719 361.898438 262.90625 361.898438 C 259.175781 361.898438 256.152344 358.875 256.152344 355.140625 C 256.152344 351.410156 259.175781 348.386719 262.90625 348.386719 C 266.636719 348.386719 269.664062 351.410156 269.664062 355.140625 "/>
<path fill-rule="nonzero" fill="rgb(18.431373%, 30.980392%, 30.980392%)" fill-opacity="1" stroke-width="0.708661" stroke-linecap="round" stroke-linejoin="round" stroke="rgb(18.431373%, 30.980392%, 30.980392%)" stroke-opacity="1" stroke-miterlimit="10" d="M 276.710938 310.015625 C 276.710938 313.746094 273.6875 316.769531 269.957031 316.769531 C 266.226562 316.769531 263.199219 313.746094 263.199219 310.015625 C 263.199219 306.28125 266.226562 303.257812 269.957031 303.257812 C 273.6875 303.257812 276.710938 306.28125 276.710938 310.015625 "/>
<path fill-rule="nonzero" fill="rgb(18.431373%, 30.980392%, 30.980392%)" fill-opacity="1" stroke-width="0.708661" stroke-linecap="round" stroke-linejoin="round" stroke="rgb(18.431373%, 30.980392%, 30.980392%)" stroke-opacity="1" stroke-miterlimit="10" d="M 283.761719 316.09375 C 283.761719 319.828125 280.738281 322.851562 277.003906 322.851562 C 273.273438 322.851562 270.25 319.828125 270.25 316.09375 C 270.25 312.363281 273.273438 309.339844 277.003906 309.339844 C 280.738281 309.339844 283.761719 312.363281 283.761719 316.09375 "/>
<path fill-rule="nonzero" fill="rgb(18.431373%, 30.980392%, 30.980392%)" fill-opacity="1" stroke-width="0.708661" stroke-linecap="round" stroke-linejoin="round" stroke="rgb(18.431373%, 30.980392%, 30.980392%)" stroke-opacity="1" stroke-miterlimit="10" d="M 290.8125 377.445312 C 290.8125 381.175781 287.785156 384.199219 284.054688 384.199219 C 280.324219 384.199219 277.296875 381.175781 277.296875 377.445312 C 277.296875 373.714844 280.324219 370.6875 284.054688 370.6875 C 287.785156 370.6875 290.8125 373.714844 290.8125 377.445312 "/>
<path fill-rule="nonzero" fill="rgb(18.431373%, 30.980392%, 30.980392%)" fill-opacity="1" stroke-width="0.708661" stroke-linecap="round" stroke-linejoin="round" stroke="rgb(18.431373%, 30.980392%, 30.980392%)" stroke-opacity="1" stroke-miterlimit="10" d="M 297.859375 275.671875 C 297.859375 279.40625 294.835938 282.429688 291.105469 282.429688 C 287.371094 282.429688 284.347656 279.40625 284.347656 275.671875 C 284.347656 271.941406 287.371094 268.917969 291.105469 268.917969 C 294.835938 268.917969 297.859375 271.941406 297.859375 275.671875 "/>
<path fill-rule="nonzero" fill="rgb(18.431373%, 30.980392%, 30.980392%)" fill-opacity="1" stroke-width="0.708661" stroke-linecap="round" stroke-linejoin="round" stroke="rgb(18.431373%, 30.980392%, 30.980392%)" stroke-opacity="1" stroke-miterlimit="10" d="M 304.910156 308.738281 C 304.910156 312.46875 301.882812 315.496094 298.152344 315.496094 C 294.421875 315.496094 291.398438 312.46875 291.398438 308.738281 C 291.398438 305.007812 294.421875 301.980469 298.152344 301.980469 C 301.882812 301.980469 304.910156 305.007812 304.910156 308.738281 "/>
<path fill-rule="nonzero" fill="rgb(18.431373%, 30.980392%, 30.980392%)" fill-opacity="1" stroke-width="0.708661" stroke-linecap="round" stroke-linejoin="round" stroke="rgb(18.431373%, 30.980392%, 30.980392%)" stroke-opacity="1" stroke-miterlimit="10" d="M 311.957031 305.03125 C 311.957031 308.761719 308.933594 311.789062 305.203125 311.789062 C 301.472656 311.789062 298.445312 308.761719 298.445312 305.03125 C 298.445312 301.300781 301.472656 298.273438 305.203125 298.273438 C 308.933594 298.273438 311.957031 301.300781 311.957031 305.03125 "/>
<path fill-rule="nonzero" fill="rgb(18.431373%, 30.980392%, 30.980392%)" fill-opacity="1" stroke-width="0.708661" stroke-linecap="round" stroke-linejoin="round" stroke="rgb(18.431373%, 30.980392%, 30.980392%)" stroke-opacity="1" stroke-miterlimit="10" d="M 319.007812 278.171875 C 319.007812 281.902344 315.984375 284.925781 312.25 284.925781 C 308.519531 284.925781 305.496094 281.902344 305.496094 278.171875 C 305.496094 274.4375 308.519531 271.414062 312.25 271.414062 C 315.984375 271.414062 319.007812 274.4375 319.007812 278.171875 "/>
<path fill-rule="nonzero" fill="rgb(18.431373%, 30.980392%, 30.980392%)" fill-opacity="1" stroke-width="0.708661" stroke-linecap="round" stroke-linejoin="round" stroke="rgb(18.431373%, 30.980392%, 30.980392%)" stroke-opacity="1" stroke-miterlimit="10" d="M 326.058594 306.433594 C 326.058594 310.164062 323.03125 313.191406 319.300781 313.191406 C 315.570312 313.191406 312.542969 310.164062 312.542969 306.433594 C 312.542969 302.703125 315.570312 299.679688 319.300781 299.679688 C 323.03125 299.679688 326.058594 302.703125 326.058594 306.433594 "/>
<path fill-rule="nonzero" fill="rgb(18.431373%, 30.980392%, 30.980392%)" fill-opacity="1" stroke-width="0.708661" stroke-linecap="round" stroke-linejoin="round" stroke="rgb(18.431373%, 30.980392%, 30.980392%)" stroke-opacity="1" stroke-miterlimit="10" d="M 333.105469 299.023438 C 333.105469 302.757812 330.082031 305.78125 326.351562 305.78125 C 322.617188 305.78125 319.59375 302.757812 319.59375 299.023438 C 319.59375 295.292969 322.617188 292.269531 326.351562 292.269531 C 330.082031 292.269531 333.105469 295.292969 333.105469 299.023438 "/>
<path fill-rule="nonzero" fill="rgb(18.431373%, 30.980392%, 30.980392%)" fill-opacity="1" stroke-width="0.708661" stroke-linecap="round" stroke-linejoin="round" stroke="rgb(18.431373%, 30.980392%, 30.980392%)" stroke-opacity="1" stroke-miterlimit="10" d="M 340.15625 304.496094 C 340.15625 308.226562 337.128906 311.25 333.398438 311.25 C 329.667969 311.25 326.644531 308.226562 326.644531 304.496094 C 326.644531 300.765625 329.667969 297.738281 333.398438 297.738281 C 337.128906 297.738281 340.15625 300.765625 340.15625 304.496094 "/>
<path fill-rule="nonzero" fill="rgb(18.431373%, 30.980392%, 30.980392%)" fill-opacity="1" stroke-width="0.708661" stroke-linecap="round" stroke-linejoin="round" stroke="rgb(18.431373%, 30.980392%, 30.980392%)" stroke-opacity="1" stroke-miterlimit="10" d="M 347.203125 274.648438 C 347.203125 278.382812 344.179688 281.40625 340.449219 281.40625 C 336.71875 281.40625 333.691406 278.382812 333.691406 274.648438 C 333.691406 270.917969 336.71875 267.894531 340.449219 267.894531 C 344.179688 267.894531 347.203125 270.917969 347.203125 274.648438 "/>
<path fill-rule="nonzero" fill="rgb(18.431373%, 30.980392%, 30.980392%)" fill-opacity="1" stroke-width="0.708661" stroke-linecap="round" stroke-linejoin="round" stroke="rgb(18.431373%, 30.980392%, 30.980392%)" stroke-opacity="1" stroke-miterlimit="10" d="M 354.253906 274.835938 C 354.253906 278.566406 351.230469 281.589844 347.496094 281.589844 C 343.765625 281.589844 340.742188 278.566406 340.742188 274.835938 C 340.742188 271.101562 343.765625 268.078125 347.496094 268.078125 C 351.230469 268.078125 354.253906 271.101562 354.253906 274.835938 "/>
<path fill-rule="nonzero" fill="rgb(18.431373%, 30.980392%, 30.980392%)" fill-opacity="1" stroke-width="0.708661" stroke-linecap="round" stroke-linejoin="round" stroke="rgb(18.431373%, 30.980392%, 30.980392%)" stroke-opacity="1" stroke-miterlimit="10" d="M 361.304688 310.089844 C 361.304688 313.820312 358.277344 316.84375 354.546875 316.84375 C 350.816406 316.84375 347.789062 313.820312 347.789062 310.089844 C 347.789062 306.359375 350.816406 303.332031 354.546875 303.332031 C 358.277344 303.332031 361.304688 306.359375 361.304688 310.089844 "/>
<path fill-rule="nonzero" fill="rgb(18.431373%, 30.980392%, 30.980392%)" fill-opacity="1" stroke-width="0.708661" stroke-linecap="round" stroke-linejoin="round" stroke="rgb(18.431373%, 30.980392%, 30.980392%)" stroke-opacity="1" stroke-miterlimit="10" d="M 368.351562 239.246094 C 368.351562 242.976562 365.328125 246 361.597656 246 C 357.863281 246 354.839844 242.976562 354.839844 239.246094 C 354.839844 235.511719 357.863281 232.488281 361.597656 232.488281 C 365.328125 232.488281 368.351562 235.511719 368.351562 239.246094 "/>
<path fill-rule="nonzero" fill="rgb(18.431373%, 30.980392%, 30.980392%)" fill-opacity="1" stroke-width="0.708661" stroke-linecap="round" stroke-linejoin="round" stroke="rgb(18.431373%, 30.980392%, 30.980392%)" stroke-opacity="1" stroke-miterlimit="10" d="M 375.402344 254.226562 C 375.402344 257.957031 372.375 260.984375 368.644531 260.984375 C 364.914062 260.984375 361.890625 257.957031 361.890625 254.226562 C 361.890625 250.496094 364.914062 247.472656 368.644531 247.472656 C 372.375 247.472656 375.402344 250.496094 375.402344 254.226562 "/>
<path fill-rule="nonzero" fill="rgb(18.431373%, 30.980392%, 30.980392%)" fill-opacity="1" stroke-width="0.708661" stroke-linecap="round" stroke-linejoin="round" stroke="rgb(18.431373%, 30.980392%, 30.980392%)" stroke-opacity="1" stroke-miterlimit="10" d="M 382.449219 273.8125 C 382.449219 277.546875 379.425781 280.570312 375.695312 280.570312 C 371.964844 280.570312 368.9375 277.546875 368.9375 273.8125 C 368.9375 270.082031 371.964844 267.058594 375.695312 267.058594 C 379.425781 267.058594 382.449219 270.082031 382.449219 273.8125 "/>
<path fill-rule="nonzero" fill="rgb(18.431373%, 30.980392%, 30.980392%)" fill-opacity="1" stroke-width="0.708661" stroke-linecap="round" stroke-linejoin="round" stroke="rgb(18.431373%, 30.980392%, 30.980392%)" stroke-opacity="1" stroke-miterlimit="10" d="M 389.5 256.285156 C 389.5 260.015625 386.476562 263.039062 382.742188 263.039062 C 379.011719 263.039062 375.988281 260.015625 375.988281 256.285156 C 375.988281 252.554688 379.011719 249.527344 382.742188 249.527344 C 386.476562 249.527344 389.5 252.554688 389.5 256.285156 "/>
<path fill-rule="nonzero" fill="rgb(18.431373%, 30.980392%, 30.980392%)" fill-opacity="1" stroke-width="0.708661" stroke-linecap="round" stroke-linejoin="round" stroke="rgb(18.431373%, 30.980392%, 30.980392%)" stroke-opacity="1" stroke-miterlimit="10" d="M 396.550781 217.410156 C 396.550781 221.140625 393.523438 224.167969 389.792969 224.167969 C 386.0625 224.167969 383.035156 221.140625 383.035156 217.410156 C 383.035156 213.679688 386.0625 210.652344 389.792969 210.652344 C 393.523438 210.652344 396.550781 213.679688 396.550781 217.410156 "/>
<path fill-rule="nonzero" fill="rgb(18.431373%, 30.980392%, 30.980392%)" fill-opacity="1" stroke-width="0.708661" stroke-linecap="round" stroke-linejoin="round" stroke="rgb(18.431373%, 30.980392%, 30.980392%)" stroke-opacity="1" stroke-miterlimit="10" d="M 403.597656 260.875 C 403.597656 264.605469 400.574219 267.628906 396.84375 267.628906 C 393.109375 267.628906 390.085938 264.605469 390.085938 260.875 C 390.085938 257.140625 393.109375 254.117188 396.84375 254.117188 C 400.574219 254.117188 403.597656 257.140625 403.597656 260.875 "/>
<path fill-rule="nonzero" fill="rgb(18.431373%, 30.980392%, 30.980392%)" fill-opacity="1" stroke-width="0.708661" stroke-linecap="round" stroke-linejoin="round" stroke="rgb(18.431373%, 30.980392%, 30.980392%)" stroke-opacity="1" stroke-miterlimit="10" d="M 410.648438 242.035156 C 410.648438 245.765625 407.621094 248.789062 403.890625 248.789062 C 400.160156 248.789062 397.136719 245.765625 397.136719 242.035156 C 397.136719 238.304688 400.160156 235.277344 403.890625 235.277344 C 407.621094 235.277344 410.648438 238.304688 410.648438 242.035156 "/>
<path fill-rule="nonzero" fill="rgb(18.431373%, 30.980392%, 30.980392%)" fill-opacity="1" stroke-width="0.708661" stroke-linecap="round" stroke-linejoin="round" stroke="rgb(18.431373%, 30.980392%, 30.980392%)" stroke-opacity="1" stroke-miterlimit="10" d="M 417.695312 218.390625 C 417.695312 222.121094 414.671875 225.144531 410.941406 225.144531 C 407.210938 225.144531 404.183594 222.121094 404.183594 218.390625 C 404.183594 214.65625 407.210938 211.632812 410.941406 211.632812 C 414.671875 211.632812 417.695312 214.65625 417.695312 218.390625 "/>
<path fill-rule="nonzero" fill="rgb(18.431373%, 30.980392%, 30.980392%)" fill-opacity="1" stroke-width="0.708661" stroke-linecap="round" stroke-linejoin="round" stroke="rgb(18.431373%, 30.980392%, 30.980392%)" stroke-opacity="1" stroke-miterlimit="10" d="M 424.746094 260.820312 C 424.746094 264.550781 421.722656 267.574219 417.988281 267.574219 C 414.257812 267.574219 411.234375 264.550781 411.234375 260.820312 C 411.234375 257.089844 414.257812 254.0625 417.988281 254.0625 C 421.722656 254.0625 424.746094 257.089844 424.746094 260.820312 "/>
<path fill-rule="nonzero" fill="rgb(18.431373%, 30.980392%, 30.980392%)" fill-opacity="1" stroke-width="0.708661" stroke-linecap="round" stroke-linejoin="round" stroke="rgb(18.431373%, 30.980392%, 30.980392%)" stroke-opacity="1" stroke-miterlimit="10" d="M 431.796875 189.078125 C 431.796875 192.808594 428.769531 195.835938 425.039062 195.835938 C 421.308594 195.835938 418.28125 192.808594 418.28125 189.078125 C 418.28125 185.347656 421.308594 182.324219 425.039062 182.324219 C 428.769531 182.324219 431.796875 185.347656 431.796875 189.078125 "/>
<path fill-rule="nonzero" fill="rgb(18.431373%, 30.980392%, 30.980392%)" fill-opacity="1" stroke-width="0.708661" stroke-linecap="round" stroke-linejoin="round" stroke="rgb(18.431373%, 30.980392%, 30.980392%)" stroke-opacity="1" stroke-miterlimit="10" d="M 438.84375 208.367188 C 438.84375 212.101562 435.820312 215.125 432.089844 215.125 C 428.355469 215.125 425.332031 212.101562 425.332031 208.367188 C 425.332031 204.636719 428.355469 201.613281 432.089844 201.613281 C 435.820312 201.613281 438.84375 204.636719 438.84375 208.367188 "/>
<path fill-rule="nonzero" fill="rgb(18.431373%, 30.980392%, 30.980392%)" fill-opacity="1" stroke-width="0.708661" stroke-linecap="round" stroke-linejoin="round" stroke="rgb(18.431373%, 30.980392%, 30.980392%)" stroke-opacity="1" stroke-miterlimit="10" d="M 445.894531 251.308594 C 445.894531 255.039062 442.867188 258.0625 439.136719 258.0625 C 435.40625 258.0625 432.382812 255.039062 432.382812 251.308594 C 432.382812 247.574219 435.40625 244.550781 439.136719 244.550781 C 442.867188 244.550781 445.894531 247.574219 445.894531 251.308594 "/>
<path fill-rule="nonzero" fill="rgb(18.431373%, 30.980392%, 30.980392%)" fill-opacity="1" stroke-width="0.708661" stroke-linecap="round" stroke-linejoin="round" stroke="rgb(18.431373%, 30.980392%, 30.980392%)" stroke-opacity="1" stroke-miterlimit="10" d="M 452.941406 180.277344 C 452.941406 184.007812 449.917969 187.03125 446.1875 187.03125 C 442.457031 187.03125 439.429688 184.007812 439.429688 180.277344 C 439.429688 176.546875 442.457031 173.519531 446.1875 173.519531 C 449.917969 173.519531 452.941406 176.546875 452.941406 180.277344 "/>
<path fill-rule="nonzero" fill="rgb(18.431373%, 30.980392%, 30.980392%)" fill-opacity="1" stroke-width="0.708661" stroke-linecap="round" stroke-linejoin="round" stroke="rgb(18.431373%, 30.980392%, 30.980392%)" stroke-opacity="1" stroke-miterlimit="10" d="M 459.992188 169.652344 C 459.992188 173.382812 456.96875 176.410156 453.234375 176.410156 C 449.503906 176.410156 446.480469 173.382812 446.480469 169.652344 C 446.480469 165.921875 449.503906 162.894531 453.234375 162.894531 C 456.96875 162.894531 459.992188 165.921875 459.992188 169.652344 "/>
<path fill-rule="nonzero" fill="rgb(18.431373%, 30.980392%, 30.980392%)" fill-opacity="1" stroke-width="0.708661" stroke-linecap="round" stroke-linejoin="round" stroke="rgb(18.431373%, 30.980392%, 30.980392%)" stroke-opacity="1" stroke-miterlimit="10" d="M 467.042969 188.109375 C 467.042969 191.839844 464.015625 194.867188 460.285156 194.867188 C 456.554688 194.867188 453.527344 191.839844 453.527344 188.109375 C 453.527344 184.378906 456.554688 181.351562 460.285156 181.351562 C 464.015625 181.351562 467.042969 184.378906 467.042969 188.109375 "/>
<path fill-rule="nonzero" fill="rgb(18.431373%, 30.980392%, 30.980392%)" fill-opacity="1" stroke-width="0.708661" stroke-linecap="round" stroke-linejoin="round" stroke="rgb(18.431373%, 30.980392%, 30.980392%)" stroke-opacity="1" stroke-miterlimit="10" d="M 474.089844 188.964844 C 474.089844 192.695312 471.066406 195.71875 467.335938 195.71875 C 463.601562 195.71875 460.578125 192.695312 460.578125 188.964844 C 460.578125 185.230469 463.601562 182.207031 467.335938 182.207031 C 471.066406 182.207031 474.089844 185.230469 474.089844 188.964844 "/>
<path fill-rule="nonzero" fill="rgb(18.431373%, 30.980392%, 30.980392%)" fill-opacity="1" stroke-width="0.708661" stroke-linecap="round" stroke-linejoin="round" stroke="rgb(18.431373%, 30.980392%, 30.980392%)" stroke-opacity="1" stroke-miterlimit="10" d="M 481.140625 221.503906 C 481.140625 225.234375 478.113281 228.261719 474.382812 228.261719 C 470.652344 228.261719 467.628906 225.234375 467.628906 221.503906 C 467.628906 217.773438 470.652344 214.75 474.382812 214.75 C 478.113281 214.75 481.140625 217.773438 481.140625 221.503906 "/>
<path fill-rule="nonzero" fill="rgb(18.431373%, 30.980392%, 30.980392%)" fill-opacity="1" stroke-width="0.708661" stroke-linecap="round" stroke-linejoin="round" stroke="rgb(18.431373%, 30.980392%, 30.980392%)" stroke-opacity="1" stroke-miterlimit="10" d="M 488.1875 196.542969 C 488.1875 200.273438 485.164062 203.296875 481.433594 203.296875 C 477.703125 203.296875 474.675781 200.273438 474.675781 196.542969 C 474.675781 192.808594 477.703125 189.785156 481.433594 189.785156 C 485.164062 189.785156 488.1875 192.808594 488.1875 196.542969 "/>
<path fill-rule="nonzero" fill="rgb(18.431373%, 30.980392%, 30.980392%)" fill-opacity="1" stroke-width="0.708661" stroke-linecap="round" stroke-linejoin="round" stroke="rgb(18.431373%, 30.980392%, 30.980392%)" stroke-opacity="1" stroke-miterlimit="10" d="M 495.238281 210.035156 C 495.238281 213.765625 492.214844 216.792969 488.480469 216.792969 C 484.75 216.792969 481.726562 213.765625 481.726562 210.035156 C 481.726562 206.304688 484.75 203.277344 488.480469 203.277344 C 492.214844 203.277344 495.238281 206.304688 495.238281 210.035156 "/>
<path fill-rule="nonzero" fill="rgb(18.431373%, 30.980392%, 30.980392%)" fill-opacity="1" stroke-width="0.708661" stroke-linecap="round" stroke-linejoin="round" stroke="rgb(18.431373%, 30.980392%, 30.980392%)" stroke-opacity="1" stroke-miterlimit="10" d="M 502.289062 184.488281 C 502.289062 188.21875 499.261719 191.246094 495.53125 191.246094 C 491.800781 191.246094 488.773438 188.21875 488.773438 184.488281 C 488.773438 180.757812 491.800781 177.730469 495.53125 177.730469 C 499.261719 177.730469 502.289062 180.757812 502.289062 184.488281 "/>
<path fill-rule="nonzero" fill="rgb(18.431373%, 30.980392%, 30.980392%)" fill-opacity="1" stroke-width="0.708661" stroke-linecap="round" stroke-linejoin="round" stroke="rgb(18.431373%, 30.980392%, 30.980392%)" stroke-opacity="1" stroke-miterlimit="10" d="M 509.335938 202.265625 C 509.335938 205.996094 506.3125 209.019531 502.582031 209.019531 C 498.847656 209.019531 495.824219 205.996094 495.824219 202.265625 C 495.824219 198.535156 498.847656 195.507812 502.582031 195.507812 C 506.3125 195.507812 509.335938 198.535156 509.335938 202.265625 "/>
<path fill-rule="nonzero" fill="rgb(18.431373%, 30.980392%, 30.980392%)" fill-opacity="1" stroke-width="0.708661" stroke-linecap="round" stroke-linejoin="round" stroke="rgb(18.431373%, 30.980392%, 30.980392%)" stroke-opacity="1" stroke-miterlimit="10" d="M 516.386719 163.628906 C 516.386719 167.359375 513.359375 170.382812 509.628906 170.382812 C 505.898438 170.382812 502.875 167.359375 502.875 163.628906 C 502.875 159.898438 505.898438 156.871094 509.628906 156.871094 C 513.359375 156.871094 516.386719 159.898438 516.386719 163.628906 "/>
<path fill-rule="nonzero" fill="rgb(18.431373%, 30.980392%, 30.980392%)" fill-opacity="1" stroke-width="0.708661" stroke-linecap="round" stroke-linejoin="round" stroke="rgb(18.431373%, 30.980392%, 30.980392%)" stroke-opacity="1" stroke-miterlimit="10" d="M 523.433594 173.273438 C 523.433594 177.003906 520.410156 180.027344 516.679688 180.027344 C 512.949219 180.027344 509.921875 177.003906 509.921875 173.273438 C 509.921875 169.539062 512.949219 166.515625 516.679688 166.515625 C 520.410156 166.515625 523.433594 169.539062 523.433594 173.273438 "/>
<path fill-rule="nonzero" fill="rgb(18.431373%, 30.980392%, 30.980392%)" fill-opacity="1" stroke-width="0.708661" stroke-linecap="round" stroke-linejoin="round" stroke="rgb(18.431373%, 30.980392%, 30.980392%)" stroke-opacity="1" stroke-miterlimit="10" d="M 530.484375 176.714844 C 530.484375 180.449219 527.460938 183.472656 523.726562 183.472656 C 519.996094 183.472656 516.972656 180.449219 516.972656 176.714844 C 516.972656 172.984375 519.996094 169.960938 523.726562 169.960938 C 527.460938 169.960938 530.484375 172.984375 530.484375 176.714844 "/>
<path fill-rule="nonzero" fill="rgb(18.431373%, 30.980392%, 30.980392%)" fill-opacity="1" stroke-width="0.708661" stroke-linecap="round" stroke-linejoin="round" stroke="rgb(18.431373%, 30.980392%, 30.980392%)" stroke-opacity="1" stroke-miterlimit="10" d="M 537.535156 180.816406 C 537.535156 184.546875 534.507812 187.570312 530.777344 187.570312 C 527.046875 187.570312 524.019531 184.546875 524.019531 180.816406 C 524.019531 177.085938 527.046875 174.058594 530.777344 174.058594 C 534.507812 174.058594 537.535156 177.085938 537.535156 180.816406 "/>
<path fill-rule="nonzero" fill="rgb(18.431373%, 30.980392%, 30.980392%)" fill-opacity="1" stroke-width="0.708661" stroke-linecap="round" stroke-linejoin="round" stroke="rgb(18.431373%, 30.980392%, 30.980392%)" stroke-opacity="1" stroke-miterlimit="10" d="M 544.582031 142.058594 C 544.582031 145.789062 541.558594 148.8125 537.828125 148.8125 C 534.09375 148.8125 531.070312 145.789062 531.070312 142.058594 C 531.070312 138.324219 534.09375 135.300781 537.828125 135.300781 C 541.558594 135.300781 544.582031 138.324219 544.582031 142.058594 "/>
<path fill-rule="nonzero" fill="rgb(18.431373%, 30.980392%, 30.980392%)" fill-opacity="1" stroke-width="0.708661" stroke-linecap="round" stroke-linejoin="round" stroke="rgb(18.431373%, 30.980392%, 30.980392%)" stroke-opacity="1" stroke-miterlimit="10" d="M 551.632812 167.804688 C 551.632812 171.535156 548.605469 174.558594 544.875 174.558594 C 541.144531 174.558594 538.121094 171.535156 538.121094 167.804688 C 538.121094 164.074219 541.144531 161.046875 544.875 161.046875 C 548.605469 161.046875 551.632812 164.074219 551.632812 167.804688 "/>
<path fill-rule="nonzero" fill="rgb(18.431373%, 30.980392%, 30.980392%)" fill-opacity="1" stroke-width="0.708661" stroke-linecap="round" stroke-linejoin="round" stroke="rgb(18.431373%, 30.980392%, 30.980392%)" stroke-opacity="1" stroke-miterlimit="10" d="M 558.679688 160.355469 C 558.679688 164.089844 555.65625 167.113281 551.925781 167.113281 C 548.195312 167.113281 545.167969 164.089844 545.167969 160.355469 C 545.167969 156.625 548.195312 153.601562 551.925781 153.601562 C 555.65625 153.601562 558.679688 156.625 558.679688 160.355469 "/>
<path fill-rule="nonzero" fill="rgb(18.431373%, 30.980392%, 30.980392%)" fill-opacity="1" stroke-width="0.708661" stroke-linecap="round" stroke-linejoin="round" stroke="rgb(18.431373%, 30.980392%, 30.980392%)" stroke-opacity="1" stroke-miterlimit="10" d="M 565.730469 156.117188 C 565.730469 159.851562 562.707031 162.875 558.972656 162.875 C 555.242188 162.875 552.21875 159.851562 552.21875 156.117188 C 552.21875 152.386719 555.242188 149.363281 558.972656 149.363281 C 562.707031 149.363281 565.730469 152.386719 565.730469 156.117188 "/>
<path fill-rule="nonzero" fill="rgb(18.431373%, 30.980392%, 30.980392%)" fill-opacity="1" stroke-width="0.708661" stroke-linecap="round" stroke-linejoin="round" stroke="rgb(18.431373%, 30.980392%, 30.980392%)" stroke-opacity="1" stroke-miterlimit="10" d="M 572.78125 137.078125 C 572.78125 140.808594 569.753906 143.835938 566.023438 143.835938 C 562.292969 143.835938 559.265625 140.808594 559.265625 137.078125 C 559.265625 133.347656 562.292969 130.320312 566.023438 130.320312 C 569.753906 130.320312 572.78125 133.347656 572.78125 137.078125 "/>
<path fill-rule="nonzero" fill="rgb(18.431373%, 30.980392%, 30.980392%)" fill-opacity="1" stroke-width="0.708661" stroke-linecap="round" stroke-linejoin="round" stroke="rgb(18.431373%, 30.980392%, 30.980392%)" stroke-opacity="1" stroke-miterlimit="10" d="M 579.828125 148.453125 C 579.828125 152.1875 576.804688 155.210938 573.074219 155.210938 C 569.339844 155.210938 566.316406 152.1875 566.316406 148.453125 C 566.316406 144.722656 569.339844 141.699219 573.074219 141.699219 C 576.804688 141.699219 579.828125 144.722656 579.828125 148.453125 "/>
<path fill-rule="nonzero" fill="rgb(18.431373%, 30.980392%, 30.980392%)" fill-opacity="1" stroke-width="0.708661" stroke-linecap="round" stroke-linejoin="round" stroke="rgb(18.431373%, 30.980392%, 30.980392%)" stroke-opacity="1" stroke-miterlimit="10" d="M 586.878906 118.351562 C 586.878906 122.082031 583.851562 125.109375 580.121094 125.109375 C 576.390625 125.109375 573.367188 122.082031 573.367188 118.351562 C 573.367188 114.621094 576.390625 111.597656 580.121094 111.597656 C 583.851562 111.597656 586.878906 114.621094 586.878906 118.351562 "/>
<path fill-rule="nonzero" fill="rgb(18.431373%, 30.980392%, 30.980392%)" fill-opacity="1" stroke-width="0.708661" stroke-linecap="round" stroke-linejoin="round" stroke="rgb(18.431373%, 30.980392%, 30.980392%)" stroke-opacity="1" stroke-miterlimit="10" d="M 593.925781 120.113281 C 593.925781 123.847656 590.902344 126.871094 587.171875 126.871094 C 583.441406 126.871094 580.414062 123.847656 580.414062 120.113281 C 580.414062 116.382812 583.441406 113.359375 587.171875 113.359375 C 590.902344 113.359375 593.925781 116.382812 593.925781 120.113281 "/>
<path fill-rule="nonzero" fill="rgb(18.431373%, 30.980392%, 30.980392%)" fill-opacity="1" stroke-width="0.708661" stroke-linecap="round" stroke-linejoin="round" stroke="rgb(18.431373%, 30.980392%, 30.980392%)" stroke-opacity="1" stroke-miterlimit="10" d="M 600.976562 110.605469 C 600.976562 114.335938 597.953125 117.359375 594.21875 117.359375 C 590.488281 117.359375 587.464844 114.335938 587.464844 110.605469 C 587.464844 106.875 590.488281 103.847656 594.21875 103.847656 C 597.953125 103.847656 600.976562 106.875 600.976562 110.605469 "/>
<path fill-rule="nonzero" fill="rgb(18.431373%, 30.980392%, 30.980392%)" fill-opacity="1" stroke-width="0.708661" stroke-linecap="round" stroke-linejoin="round" stroke="rgb(18.431373%, 30.980392%, 30.980392%)" stroke-opacity="1" stroke-miterlimit="10" d="M 608.027344 142.367188 C 608.027344 146.097656 605 149.121094 601.269531 149.121094 C 597.539062 149.121094 594.511719 146.097656 594.511719 142.367188 C 594.511719 138.636719 597.539062 135.609375 601.269531 135.609375 C 605 135.609375 608.027344 138.636719 608.027344 142.367188 "/>
<path fill-rule="nonzero" fill="rgb(18.431373%, 30.980392%, 30.980392%)" fill-opacity="1" stroke-width="0.708661" stroke-linecap="round" stroke-linejoin="round" stroke="rgb(18.431373%, 30.980392%, 30.980392%)" stroke-opacity="1" stroke-miterlimit="10" d="M 615.074219 148.386719 C 615.074219 152.121094 612.050781 155.144531 608.320312 155.144531 C 604.585938 155.144531 601.5625 152.121094 601.5625 148.386719 C 601.5625 144.65625 604.585938 141.632812 608.320312 141.632812 C 612.050781 141.632812 615.074219 144.65625 615.074219 148.386719 "/>
<path fill-rule="nonzero" fill="rgb(18.431373%, 30.980392%, 30.980392%)" fill-opacity="1" stroke-width="0.708661" stroke-linecap="round" stroke-linejoin="round" stroke="rgb(18.431373%, 30.980392%, 30.980392%)" stroke-opacity="1" stroke-miterlimit="10" d="M 622.125 100.777344 C 622.125 104.507812 619.097656 107.535156 615.367188 107.535156 C 611.636719 107.535156 608.613281 104.507812 608.613281 100.777344 C 608.613281 97.046875 611.636719 94.023438 615.367188 94.023438 C 619.097656 94.023438 622.125 97.046875 622.125 100.777344 "/>
<path fill-rule="nonzero" fill="rgb(18.431373%, 30.980392%, 30.980392%)" fill-opacity="1" stroke-width="0.708661" stroke-linecap="round" stroke-linejoin="round" stroke="rgb(18.431373%, 30.980392%, 30.980392%)" stroke-opacity="1" stroke-miterlimit="10" d="M 629.171875 117.183594 C 629.171875 120.917969 626.148438 123.941406 622.417969 123.941406 C 618.6875 123.941406 615.660156 120.917969 615.660156 117.183594 C 615.660156 113.453125 618.6875 110.429688 622.417969 110.429688 C 626.148438 110.429688 629.171875 113.453125 629.171875 117.183594 "/>
<path fill-rule="nonzero" fill="rgb(18.431373%, 30.980392%, 30.980392%)" fill-opacity="1" stroke-width="0.708661" stroke-linecap="round" stroke-linejoin="round" stroke="rgb(18.431373%, 30.980392%, 30.980392%)" stroke-opacity="1" stroke-miterlimit="10" d="M 636.222656 94.316406 C 636.222656 98.046875 633.199219 101.074219 629.464844 101.074219 C 625.734375 101.074219 622.710938 98.046875 622.710938 94.316406 C 622.710938 90.585938 625.734375 87.558594 629.464844 87.558594 C 633.199219 87.558594 636.222656 90.585938 636.222656 94.316406 "/>
<path fill-rule="nonzero" fill="rgb(18.431373%, 30.980392%, 30.980392%)" fill-opacity="1" stroke-width="0.708661" stroke-linecap="round" stroke-linejoin="round" stroke="rgb(18.431373%, 30.980392%, 30.980392%)" stroke-opacity="1" stroke-miterlimit="10" d="M 643.273438 78.4375 C 643.273438 82.167969 640.246094 85.191406 636.515625 85.191406 C 632.785156 85.191406 629.757812 82.167969 629.757812 78.4375 C 629.757812 74.703125 632.785156 71.679688 636.515625 71.679688 C 640.246094 71.679688 643.273438 74.703125 643.273438 78.4375 "/>
<path fill-rule="nonzero" fill="rgb(18.431373%, 30.980392%, 30.980392%)" fill-opacity="1" stroke-width="0.708661" stroke-linecap="round" stroke-linejoin="round" stroke="rgb(18.431373%, 30.980392%, 30.980392%)" stroke-opacity="1" stroke-miterlimit="10" d="M 650.320312 85.597656 C 650.320312 89.328125 647.296875 92.355469 643.566406 92.355469 C 639.832031 92.355469 636.808594 89.328125 636.808594 85.597656 C 636.808594 81.867188 639.832031 78.839844 643.566406 78.839844 C 647.296875 78.839844 650.320312 81.867188 650.320312 85.597656 "/>
<path fill-rule="nonzero" fill="rgb(18.431373%, 30.980392%, 30.980392%)" fill-opacity="1" stroke-width="0.708661" stroke-linecap="round" stroke-linejoin="round" stroke="rgb(18.431373%, 30.980392%, 30.980392%)" stroke-opacity="1" stroke-miterlimit="10" d="M 657.371094 95.84375 C 657.371094 99.574219 654.34375 102.597656 650.613281 102.597656 C 646.882812 102.597656 643.859375 99.574219 643.859375 95.84375 C 643.859375 92.113281 646.882812 89.085938 650.613281 89.085938 C 654.34375 89.085938 657.371094 92.113281 657.371094 95.84375 "/>
<path fill-rule="nonzero" fill="rgb(18.431373%, 30.980392%, 30.980392%)" fill-opacity="1" stroke-width="0.708661" stroke-linecap="round" stroke-linejoin="round" stroke="rgb(18.431373%, 30.980392%, 30.980392%)" stroke-opacity="1" stroke-miterlimit="10" d="M 664.417969 68.089844 C 664.417969 71.820312 661.394531 74.84375 657.664062 74.84375 C 653.933594 74.84375 650.90625 71.820312 650.90625 68.089844 C 650.90625 64.355469 653.933594 61.332031 657.664062 61.332031 C 661.394531 61.332031 664.417969 64.355469 664.417969 68.089844 "/>
<path fill-rule="nonzero" fill="rgb(18.431373%, 30.980392%, 30.980392%)" fill-opacity="1" stroke-width="0.708661" stroke-linecap="round" stroke-linejoin="round" stroke="rgb(18.431373%, 30.980392%, 30.980392%)" stroke-opacity="1" stroke-miterlimit="10" d="M 671.46875 125.386719 C 671.46875 129.117188 668.445312 132.144531 664.710938 132.144531 C 660.980469 132.144531 657.957031 129.117188 657.957031 125.386719 C 657.957031 121.65625 660.980469 118.632812 664.710938 118.632812 C 668.445312 118.632812 671.46875 121.65625 671.46875 125.386719 "/>
<path fill-rule="nonzero" fill="rgb(18.431373%, 30.980392%, 30.980392%)" fill-opacity="1" stroke-width="0.708661" stroke-linecap="round" stroke-linejoin="round" stroke="rgb(18.431373%, 30.980392%, 30.980392%)" stroke-opacity="1" stroke-miterlimit="10" d="M 678.519531 96.890625 C 678.519531 100.621094 675.492188 103.648438 671.761719 103.648438 C 668.03125 103.648438 665.003906 100.621094 665.003906 96.890625 C 665.003906 93.160156 668.03125 90.136719 671.761719 90.136719 C 675.492188 90.136719 678.519531 93.160156 678.519531 96.890625 "/>
<path fill-rule="nonzero" fill="rgb(18.431373%, 30.980392%, 30.980392%)" fill-opacity="1" stroke-width="0.708661" stroke-linecap="round" stroke-linejoin="round" stroke="rgb(18.431373%, 30.980392%, 30.980392%)" stroke-opacity="1" stroke-miterlimit="10" d="M 685.566406 23.4375 C 685.566406 27.171875 682.542969 30.195312 678.8125 30.195312 C 675.078125 30.195312 672.054688 27.171875 672.054688 23.4375 C 672.054688 19.707031 675.078125 16.683594 678.8125 16.683594 C 682.542969 16.683594 685.566406 19.707031 685.566406 23.4375 "/>
<path fill-rule="nonzero" fill="rgb(18.431373%, 30.980392%, 30.980392%)" fill-opacity="1" stroke-width="0.708661" stroke-linecap="round" stroke-linejoin="round" stroke="rgb(18.431373%, 30.980392%, 30.980392%)" stroke-opacity="1" stroke-miterlimit="10" d="M 692.617188 67.207031 C 692.617188 70.9375 689.589844 73.960938 685.859375 73.960938 C 682.128906 73.960938 679.105469 70.9375 679.105469 67.207031 C 679.105469 63.472656 682.128906 60.449219 685.859375 60.449219 C 689.589844 60.449219 692.617188 63.472656 692.617188 67.207031 "/>
<path fill-rule="nonzero" fill="rgb(18.431373%, 30.980392%, 30.980392%)" fill-opacity="1" stroke-width="0.708661" stroke-linecap="round" stroke-linejoin="round" stroke="rgb(18.431373%, 30.980392%, 30.980392%)" stroke-opacity="1" stroke-miterlimit="10" d="M 699.664062 43.707031 C 699.664062 47.4375 696.640625 50.464844 692.910156 50.464844 C 689.179688 50.464844 686.152344 47.4375 686.152344 43.707031 C 686.152344 39.976562 689.179688 36.953125 692.910156 36.953125 C 696.640625 36.953125 699.664062 39.976562 699.664062 43.707031 "/>
<path fill-rule="nonzero" fill="rgb(18.431373%, 30.980392%, 30.980392%)" fill-opacity="1" stroke-width="0.708661" stroke-linecap="round" stroke-linejoin="round" stroke="rgb(18.431373%, 30.980392%, 30.980392%)" stroke-opacity="1" stroke-miterlimit="10" d="M 706.714844 59.894531 C 706.714844 63.625 703.691406 66.652344 699.957031 66.652344 C 696.226562 66.652344 693.203125 63.625 693.203125 59.894531 C 693.203125 56.164062 696.226562 53.136719 699.957031 53.136719 C 703.691406 53.136719 706.714844 56.164062 706.714844 59.894531 "/>
<path fill-rule="nonzero" fill="rgb(18.431373%, 30.980392%, 30.980392%)" fill-opacity="1" stroke-width="0.708661" stroke-linecap="round" stroke-linejoin="round" stroke="rgb(18.431373%, 30.980392%, 30.980392%)" stroke-opacity="1" stroke-miterlimit="10" d="M 713.765625 68.804688 C 713.765625 72.539062 710.738281 75.5625 707.007812 75.5625 C 703.277344 75.5625 700.25 72.539062 700.25 68.804688 C 700.25 65.074219 703.277344 62.050781 707.007812 62.050781 C 710.738281 62.050781 713.765625 65.074219 713.765625 68.804688 "/>
<path fill-rule="nonzero" fill="rgb(18.431373%, 30.980392%, 30.980392%)" fill-opacity="1" stroke-width="0.708661" stroke-linecap="round" stroke-linejoin="round" stroke="rgb(18.431373%, 30.980392%, 30.980392%)" stroke-opacity="1" stroke-miterlimit="10" d="M 720.8125 40.402344 C 720.8125 44.132812 717.789062 47.160156 714.058594 47.160156 C 710.324219 47.160156 707.300781 44.132812 707.300781 40.402344 C 707.300781 36.671875 710.324219 33.644531 714.058594 33.644531 C 717.789062 33.644531 720.8125 36.671875 720.8125 40.402344 "/>
<path fill-rule="nonzero" fill="rgb(18.431373%, 30.980392%, 30.980392%)" fill-opacity="1" stroke-width="0.708661" stroke-linecap="round" stroke-linejoin="round" stroke="rgb(18.431373%, 30.980392%, 30.980392%)" stroke-opacity="1" stroke-miterlimit="10" d="M 727.863281 37.894531 C 727.863281 41.625 724.835938 44.652344 721.105469 44.652344 C 717.375 44.652344 714.351562 41.625 714.351562 37.894531 C 714.351562 34.164062 717.375 31.140625 721.105469 31.140625 C 724.835938 31.140625 727.863281 34.164062 727.863281 37.894531 "/>
<path fill="none" stroke-width="6.40187" stroke-linecap="butt" stroke-linejoin="round" stroke="rgb(94.117647%, 50.196078%, 50.196078%)" stroke-opacity="1" stroke-miterlimit="10" d="M 23.234375 468.605469 L 32.066406 463.28125 L 40.902344 457.957031 L 49.734375 452.636719 L 58.570312 447.3125 L 67.402344 441.988281 L 76.238281 436.667969 L 93.902344 426.019531 L 102.738281 420.695312 L 111.570312 415.375 L 120.40625 410.050781 L 129.238281 404.726562 L 138.074219 399.40625 L 146.90625 394.082031 L 155.742188 388.757812 L 164.574219 383.4375 L 173.410156 378.113281 L 182.242188 372.789062 L 191.078125 367.46875 L 208.742188 356.820312 L 217.578125 351.496094 L 226.410156 346.175781 L 235.246094 340.851562 L 244.078125 335.527344 L 252.914062 330.207031 L 261.746094 324.882812 L 270.582031 319.558594 L 279.414062 314.238281 L 288.25 308.914062 L 297.082031 303.589844 L 305.917969 298.265625 L 314.75 292.945312 L 323.582031 287.621094 L 332.417969 282.296875 L 341.25 276.976562 L 350.085938 271.652344 L 358.917969 266.328125 L 367.753906 261.007812 L 376.585938 255.683594 L 385.421875 250.359375 L 394.253906 245.039062 L 403.089844 239.714844 L 411.921875 234.390625 L 420.757812 229.066406 L 429.589844 223.746094 L 438.421875 218.421875 L 447.257812 213.097656 L 456.089844 207.777344 L 464.925781 202.453125 L 473.757812 197.128906 L 482.59375 191.808594 L 491.425781 186.484375 L 500.261719 181.160156 L 509.09375 175.839844 L 517.929688 170.515625 L 526.761719 165.191406 L 535.597656 159.867188 L 544.429688 154.546875 L 553.261719 149.222656 L 562.097656 143.898438 L 570.929688 138.578125 L 579.765625 133.253906 L 588.597656 127.929688 L 597.433594 122.609375 L 606.265625 117.285156 L 615.101562 111.960938 L 623.933594 106.636719 L 632.769531 101.316406 L 641.601562 95.992188 L 650.4375 90.667969 L 659.269531 85.347656 L 668.101562 80.023438 L 676.9375 74.699219 L 685.769531 69.378906 L 694.605469 64.054688 L 703.4375 58.730469 L 712.273438 53.410156 L 721.105469 48.085938 "/>
</svg>
