<?xml version="1.0" encoding="UTF-8"?>
<svg xmlns="http://www.w3.org/2000/svg" xmlns:xlink="http://www.w3.org/1999/xlink" width="756" height="504" viewBox="0 0 756 504">
<rect x="-75.6" y="-50.4" width="907.2" height="604.8" fill="rgb(100%, 100%, 100%)" fill-opacity="1"/>
<path fill-rule="nonzero" fill="rgb(18.431373%, 30.980392%, 30.980392%)" fill-opacity="1" stroke-width="0.708661" stroke-linecap="round" stroke-linejoin="round" stroke="rgb(18.431373%, 30.980392%, 30.980392%)" stroke-opacity="1" stroke-miterlimit="10" d="M 29.988281 427.835938 C 29.988281 431.566406 26.964844 434.59375 23.234375 434.59375 C 19.503906 434.59375 16.476562 431.566406 16.476562 427.835938 C 16.476562 424.105469 19.503906 421.078125 23.234375 421.078125 C 26.964844 421.078125 29.988281 424.105469 29.988281 427.835938 "/>
<path fill-rule="nonzero" fill="rgb(18.431373%, 30.980392%, 30.980392%)" fill-opacity="1" stroke-width="0.708661" stroke-linecap="round" stroke-linejoin="round" stroke="rgb(18.431373%, 30.980392%, 30.980392%)" stroke-opacity="1" stroke-miterlimit="10" d="M 37.039062 492.222656 C 37.039062 495.953125 34.015625 498.976562 30.28125 498.976562 C 26.550781 498.976562 23.527344 495.953125 23.527344 492.222656 C 23.527344 488.488281 26.550781 485.464844 30.28125 485.464844 C 34.015625 485.464844 37.039062 488.488281 37.039062 492.222656 "/>
<path fill-rule="nonzero" fill="rgb(18.431373%, 30.980392%, 30.980392%)" fill-opacity="1" stroke-width="0.708661" stroke-linecap="round" stroke-linejoin="round" stroke="rgb(18.431373%, 30.980392%, 30.980392%)" stroke-opacity="1" stroke-miterlimit="10" d="M 44.089844 426.863281 C 44.089844 430.59375 41.0625 433.617188 37.332031 433.617188 C 33.601562 433.617188 30.574219 430.59375 30.574219 426.863281 C 30.574219 423.128906 33.601562 420.105469 37.332031 420.105469 C 41.0625 420.105469 44.089844 423.128906 44.089844 426.863281 "/>
<path fill-rule="nonzero" fill="rgb(18.431373%, 30.980392%, 30.980392%)" fill-opacity="1" stroke-width="0.708661" stroke-linecap="round" stroke-linejoin="round" stroke="rgb(18.431373%, 30.980392%, 30.980392%)" stroke-opacity="1" stroke-miterlimit="10" d="M 51.136719 446.109375 C 51.136719 449.839844 48.113281 452.863281 44.382812 452.863281 C 40.648438 452.863281 37.625 449.839844 37.625 446.109375 C 37.625 442.375 40.648438 439.351562 44.382812 439.351562 C 48.113281 439.351562 51.136719 442.375 51.136719 446.109375 "/>
<path fill-rule="nonzero" fill="rgb(18.431373%, 30.980392%, 30.980392%)" fill-opacity="1" stroke-width="0.708661" stroke-linecap="round" stroke-linejoin="round" stroke="rgb(18.431373%, 30.980392%, 30.980392%)" stroke-opacity="1" stroke-miterlimit="10" d="M 58.1875 451.601562 C 58.1875 455.332031 55.160156 458.355469 51.429688 458.355469 C 47.699219 458.355469 44.675781 455.332031 44.675781 451.601562 C 44.675781 447.867188 47.699219 444.84375 51.429688 444.84375 C 55.160156 444.84375 58.1875 447.867188 58.1875 451.601562 "/>
<path fill-rule="nonzero" fill="rgb(18.431373%, 30.980392%, 30.980392%)" fill-opacity="1" stroke-width="0.708661" stroke-linecap="round" stroke-linejoin="round" stroke="rgb(18.431373%, 30.980392%, 30.980392%)" stroke-opacity="1" stroke-miterlimit="10" d="M 65.234375 419.082031 C 65.234375 422.8125 62.210938 425.839844 58.480469 425.839844 C 54.75 425.839844 51.722656 422.8125 51.722656 419.082031 C 51.722656 415.351562 54.75 412.324219 58.480469 412.324219 C 62.210938 412.324219 65.234375 415.351562 65.234375 419.082031 "/>
<path fill-rule="nonzero" fill="rgb(18.431373%, 30.980392%, 30.980392%)" fill-opacity="1" stroke-width="0.708661" stroke-linecap="round" stroke-linejoin="round" stroke="rgb(18.431373%, 30.980392%, 30.980392%)" stroke-opacity="1" stroke-miterlimit="10" d="M 72.285156 409.023438 C 72.285156 412.757812 69.261719 415.78125 65.527344 415.78125 C 61.796875 415.78125 58.773438 412.757812 58.773438 409.023438 C 58.773438 405.292969 61.796875 402.269531 65.527344 402.269531 C 69.261719 402.269531 72.285156 405.292969 72.285156 409.023438 "/>
<path fill-rule="nonzero" fill="rgb(18.431373%, 30.980392%, 30.980392%)" fill-opacity="1" stroke-width="0.708661" stroke-linecap="round" stroke-linejoin="round" stroke="rgb(18.431373%, 30.980392%, 30.980392%)" stroke-opacity="1" stroke-miterlimit="10" d="M 79.335938 416.1875 C 79.335938 419.917969 76.308594 422.941406 72.578125 422.941406 C 68.847656 422.941406 65.820312 419.917969 65.820312 416.1875 C 65.820312 412.453125 68.847656 409.429688 72.578125 409.429688 C 76.308594 409.429688 79.335938 412.453125 79.335938 416.1875 "/>
<path fill-rule="nonzero" fill="rgb(18.431373%, 30.980392%, 30.980392%)" fill-opacity="1" stroke-width="0.708661" stroke-linecap="round" stroke-linejoin="round" stroke="rgb(18.431373%, 30.980392%, 30.980392%)" stroke-opacity="1" stroke-miterlimit="10" d="M 86.382812 408.144531 C 86.382812 411.875 83.359375 414.898438 79.628906 414.898438 C 75.894531 414.898438 72.871094 411.875 72.871094 408.144531 C 72.871094 404.414062 75.894531 401.386719 79.628906 401.386719 C 83.359375 401.386719 86.382812 404.414062 86.382812 408.144531 "/>
<path fill-rule="nonzero" fill="rgb(18.431373%, 30.980392%, 30.980392%)" fill-opacity="1" stroke-width="0.708661" stroke-linecap="round" stroke-linejoin="round" stroke="rgb(18.431373%, 30.980392%, 30.980392%)" stroke-opacity="1" stroke-miterlimit="10" d="M 93.433594 412.460938 C 93.433594 416.191406 90.40625 419.21875 86.675781 419.21875 C 82.945312 419.21875 79.921875 416.191406 79.921875 412.460938 C 79.921875 408.730469 82.945312 405.703125 86.675781 405.703125 C 90.40625 405.703125 93.433594 408.730469 93.433594 412.460938 "/>
<path fill-rule="nonzero" fill="rgb(18.431373%, 30.980392%, 30.980392%)" fill-opacity="1" stroke-width="0.708661" stroke-linecap="round" stroke-linejoin="round" stroke="rgb(18.431373%, 30.980392%, 30.980392%)" stroke-opacity="1" stroke-miterlimit="10" d="M 100.480469 411.351562 C 100.480469 415.082031 97.457031 418.109375 93.726562 418.109375 C 89.996094 418.109375 86.96875 415.082031 86.96875 411.351562 C 86.96875 407.621094 89.996094 404.59375 93.726562 404.59375 C 97.457031 404.59375 100.480469 407.621094 100.480469 411.351562 "/>
<path fill-rule="nonzero" fill="rgb(18.431373%, 30.980392%, 30.980392%)" fill-opacity="1" stroke-width="0.708661" stroke-linecap="round" stroke-linejoin="round" stroke="rgb(18.431373%, 30.980392%, 30.980392%)" stroke-opacity="1" stroke-miterlimit="10" d="M 107.53125 403.222656 C 107.53125 406.953125 104.507812 409.976562 100.773438 409.976562 C 97.042969 409.976562 94.019531 406.953125 94.019531 403.222656 C 94.019531 399.492188 97.042969 396.464844 100.773438 396.464844 C 104.507812 396.464844 107.53125 399.492188 107.53125 403.222656 "/>
<path fill-rule="nonzero" fill="rgb(18.431373%, 30.980392%, 30.980392%)" fill-opacity="1" stroke-width="0.708661" stroke-linecap="round" stroke-linejoin="round" stroke="rgb(18.431373%, 30.980392%, 30.980392%)" stroke-opacity="1" stroke-miterlimit="10" d="M 114.582031 411.082031 C 114.582031 414.8125 111.554688 417.835938 107.824219 417.835938 C 104.09375 417.835938 101.066406 414.8125 101.066406 411.082031 C 101.066406 407.347656 104.09375 404.324219 107.824219 404.324219 C 111.554688 404.324219 114.582031 407.347656 114.582031 411.082031 "/>
<path fill-rule="nonzero" fill="rgb(18.431373%, 30.980392%, 30.980392%)" fill-opacity="1" stroke-width="0.708661" stroke-linecap="round" stroke-linejoin="round" stroke="rgb(18.431373%, 30.980392%, 30.980392%)" stroke-opacity="1" stroke-miterlimit="10" d="M 121.628906 391.082031 C 121.628906 394.8125 118.605469 397.839844 114.875 397.839844 C 111.140625 397.839844 108.117188 394.8125 108.117188 391.082031 C 108.117188 387.351562 111.140625 384.328125 114.875 384.328125 C 118.605469 384.328125 121.628906 387.351562 121.628906 391.082031 "/>
<path fill-rule="nonzero" fill="rgb(18.431373%, 30.980392%, 30.980392%)" fill-opacity="1" stroke-width="0.708661" stroke-linecap="round" stroke-linejoin="round" stroke="rgb(18.431373%, 30.980392%, 30.980392%)" stroke-opacity="1" stroke-miterlimit="10" d="M 128.679688 400.195312 C 128.679688 403.929688 125.652344 406.953125 121.921875 406.953125 C 118.191406 406.953125 115.167969 403.929688 115.167969 400.195312 C 115.167969 396.464844 118.191406 393.441406 121.921875 393.441406 C 125.652344 393.441406 128.679688 396.464844 128.679688 400.195312 "/>
<path fill-rule="nonzero" fill="rgb(18.431373%, 30.980392%, 30.980392%)" fill-opacity="1" stroke-width="0.708661" stroke-linecap="round" stroke-linejoin="round" stroke="rgb(18.431373%, 30.980392%, 30.980392%)" stroke-opacity="1" stroke-miterlimit="10" d="M 135.726562 402.898438 C 135.726562 406.628906 132.703125 409.652344 128.972656 409.652344 C 125.242188 409.652344 122.214844 406.628906 122.214844 402.898438 C 122.214844 399.164062 125.242188 396.140625 128.972656 396.140625 C 132.703125 396.140625 135.726562 399.164062 135.726562 402.898438 "/>
<path fill-rule="nonzero" fill="rgb(18.431373%, 30.980392%, 30.980392%)" fill-opacity="1" stroke-width="0.708661" stroke-linecap="round" stroke-linejoin="round" stroke="rgb(18.431373%, 30.980392%, 30.980392%)" stroke-opacity="1" stroke-miterlimit="10" d="M 142.777344 342.015625 C 142.777344 345.746094 139.753906 348.769531 136.019531 348.769531 C 132.289062 348.769531 129.265625 345.746094 129.265625 342.015625 C 129.265625 338.285156 132.289062 335.257812 136.019531 335.257812 C 139.753906 335.257812 142.777344 338.285156 142.777344 342.015625 "/>
<path fill-rule="nonzero" fill="rgb(18.431373%, 30.980392%, 30.980392%)" fill-opacity="1" stroke-width="0.708661" stroke-linecap="round" stroke-linejoin="round" stroke="rgb(18.431373%, 30.980392%, 30.980392%)" stroke-opacity="1" stroke-miterlimit="10" d="M 149.828125 410.789062 C 149.828125 414.519531 146.800781 417.546875 143.070312 417.546875 C 139.339844 417.546875 136.3125 414.519531 136.3125 410.789062 C 136.3125 407.058594 139.339844 404.035156 143.070312 404.035156 C 146.800781 404.035156 149.828125 407.058594 149.828125 410.789062 "/>
<path fill-rule="nonzero" fill="rgb(18.431373%, 30.980392%, 30.980392%)" fill-opacity="1" stroke-width="0.708661" stroke-linecap="round" stroke-linejoin="round" stroke="rgb(18.431373%, 30.980392%, 30.980392%)" stroke-opacity="1" stroke-miterlimit="10" d="M 156.875 369.011719 C 156.875 372.746094 153.851562 375.769531 150.121094 375.769531 C 146.386719 375.769531 143.363281 372.746094 143.363281 369.011719 C 143.363281 365.28125 146.386719 362.257812 150.121094 362.257812 C 153.851562 362.257812 156.875 365.28125 156.875 369.011719 "/>
<path fill-rule="nonzero" fill="rgb(18.431373%, 30.980392%, 30.980392%)" fill-opacity="1" stroke-width="0.708661" stroke-linecap="round" stroke-linejoin="round" stroke="rgb(18.431373%, 30.980392%, 30.980392%)" stroke-opacity="1" stroke-miterlimit="10" d="M 163.925781 393.03125 C 163.925781 396.761719 160.898438 399.789062 157.167969 399.789062 C 153.4375 399.789062 150.414062 396.761719 150.414062 393.03125 C 150.414062 389.300781 153.4375 386.273438 157.167969 386.273438 C 160.898438 386.273438 163.925781 389.300781 163.925781 393.03125 "/>
<path fill-rule="nonzero" fill="rgb(18.431373%, 30.980392%, 30.980392%)" fill-opacity="1" stroke-width="0.708661" stroke-linecap="round" stroke-linejoin="round" stroke="rgb(18.431373%, 30.980392%, 30.980392%)" stroke-opacity="1" stroke-miterlimit="10" d="M 170.972656 355.867188 C 170.972656 359.597656 167.949219 362.625 164.21875 362.625 C 160.488281 362.625 157.460938 359.597656 157.460938 355.867188 C 157.460938 352.136719 160.488281 349.113281 164.21875 349.113281 C 167.949219 349.113281 170.972656 352.136719 170.972656 355.867188 "/>
<path fill-rule="nonzero" fill="rgb(18.431373%, 30.980392%, 30.980392%)" fill-opacity="1" stroke-width="0.708661" stroke-linecap="round" stroke-linejoin="round" stroke="rgb(18.431373%, 30.980392%, 30.980392%)" stroke-opacity="1" stroke-miterlimit="10" d="M 178.023438 351.113281 C 178.023438 354.84375 175 357.867188 171.265625 357.867188 C 167.535156 357.867188 164.511719 354.84375 164.511719 351.113281 C 164.511719 347.382812 167.535156 344.355469 171.265625 344.355469 C 175 344.355469 178.023438 347.382812 178.023438 351.113281 "/>
<path fill-rule="nonzero" fill="rgb(18.431373%, 30.980392%, 30.980392%)" fill-opacity="1" stroke-width="0.708661" stroke-linecap="round" stroke-linejoin="round" stroke="rgb(18.431373%, 30.980392%, 30.980392%)" stroke-opacity="1" stroke-miterlimit="10" d="M 185.074219 383.441406 C 185.074219 387.171875 182.046875 390.195312 178.316406 390.195312 C 174.585938 390.195312 171.558594 387.171875 171.558594 383.441406 C 171.558594 379.710938 174.585938 376.683594 178.316406 376.683594 C 182.046875 376.683594 185.074219 379.710938 185.074219 383.441406 "/>
<path fill-rule="nonzero" fill="rgb(18.431373%, 30.980392%, 30.980392%)" fill-opacity="1" stroke-width="0.708661" stroke-linecap="round" stroke-linejoin="round" stroke="rgb(18.431373%, 30.980392%, 30.980392%)" stroke-opacity="1" stroke-miterlimit="10" d="M 192.121094 308.679688 C 192.121094 312.410156 189.097656 315.433594 185.367188 315.433594 C 181.632812 315.433594 178.609375 312.410156 178.609375 308.679688 C 178.609375 304.949219 181.632812 301.921875 185.367188 301.921875 C 189.097656 301.921875 192.121094 304.949219 192.121094 308.679688 "/>
<path fill-rule="nonzero" fill="rgb(18.431373%, 30.980392%, 30.980392%)" fill-opacity="1" stroke-width="0.708661" stroke-linecap="round" stroke-linejoin="round" stroke="rgb(18.431373%, 30.980392%, 30.980392%)" stroke-opacity="1" stroke-miterlimit="10" d="M 199.171875 373.292969 C 199.171875 377.023438 196.144531 380.050781 192.414062 380.050781 C 188.683594 380.050781 185.660156 377.023438 185.660156 373.292969 C 185.660156 369.5625 188.683594 366.539062 192.414062 366.539062 C 196.144531 366.539062 199.171875 369.5625 199.171875 373.292969 "/>
<path fill-rule="nonzero" fill="rgb(18.431373%, 30.980392%, 30.980392%)" fill-opacity="1" stroke-width="0.708661" stroke-linecap="round" stroke-linejoin="round" stroke="rgb(18.431373%, 30.980392%, 30.980392%)" stroke-opacity="1" stroke-miterlimit="10" d="M 206.21875 371.976562 C 206.21875 375.707031 203.195312 378.730469 199.464844 378.730469 C 195.734375 378.730469 192.707031 375.707031 192.707031 371.976562 C 192.707031 368.242188 195.734375 365.21875 199.464844 365.21875 C 203.195312 365.21875 206.21875 368.242188 206.21875 371.976562 "/>
<path fill-rule="nonzero" fill="rgb(18.431373%, 30.980392%, 30.980392%)" fill-opacity="1" stroke-width="0.708661" stroke-linecap="round" stroke-linejoin="round" stroke="rgb(18.431373%, 30.980392%, 30.980392%)" stroke-opacity="1" stroke-miterlimit="10" d="M 213.269531 367.914062 C 213.269531 371.648438 210.246094 374.671875 206.511719 374.671875 C 202.78125 374.671875 199.757812 371.648438 199.757812 367.914062 C 199.757812 364.183594 202.78125 361.160156 206.511719 361.160156 C 210.246094 361.160156 213.269531 364.183594 213.269531 367.914062 "/>
<path fill-rule="nonzero" fill="rgb(18.431373%, 30.980392%, 30.980392%)" fill-opacity="1" stroke-width="0.708661" stroke-linecap="round" stroke-linejoin="round" stroke="rgb(18.431373%, 30.980392%, 30.980392%)" stroke-opacity="1" stroke-miterlimit="10" d="M 220.320312 308.390625 C 220.320312 312.125 217.292969 315.148438 213.5625 315.148438 C 209.832031 315.148438 206.804688 312.125 206.804688 308.390625 C 206.804688 304.660156 209.832031 301.636719 213.5625 301.636719 C 217.292969 301.636719 220.320312 304.660156 220.320312 308.390625 "/>
<path fill-rule="nonzero" fill="rgb(18.431373%, 30.980392%, 30.980392%)" fill-opacity="1" stroke-width="0.708661" stroke-linecap="round" stroke-linejoin="round" stroke="rgb(18.431373%, 30.980392%, 30.980392%)" stroke-opacity="1" stroke-miterlimit="10" d="M 227.367188 315.191406 C 227.367188 318.921875 224.34375 321.945312 220.613281 321.945312 C 216.878906 321.945312 213.855469 318.921875 213.855469 315.191406 C 213.855469 311.457031 216.878906 308.433594 220.613281 308.433594 C 224.34375 308.433594 227.367188 311.457031 227.367188 315.191406 "/>
<path fill-rule="nonzero" fill="rgb(18.431373%, 30.980392%, 30.980392%)" fill-opacity="1" stroke-width="0.708661" stroke-linecap="round" stroke-linejoin="round" stroke="rgb(18.431373%, 30.980392%, 30.980392%)" stroke-opacity="1" stroke-miterlimit="10" d="M 234.417969 307.191406 C 234.417969 310.921875 231.390625 313.949219 227.660156 313.949219 C 223.929688 313.949219 220.90625 310.921875 220.90625 307.191406 C 220.90625 303.460938 223.929688 300.4375 227.660156 300.4375 C 231.390625 300.4375 234.417969 303.460938 234.417969 307.191406 "/>
<path fill-rule="nonzero" fill="rgb(18.431373%, 30.980392%, 30.980392%)" fill-opacity="1" stroke-width="0.708661" stroke-linecap="round" stroke-linejoin="round" stroke="rgb(18.431373%, 30.980392%, 30.980392%)" stroke-opacity="1" stroke-miterlimit="10" d="M 241.464844 318.183594 C 241.464844 321.914062 238.441406 324.941406 234.710938 324.941406 C 230.980469 324.941406 227.953125 321.914062 227.953125 318.183594 C 227.953125 314.453125 230.980469 311.429688 234.710938 311.429688 C 238.441406 311.429688 241.464844 314.453125 241.464844 318.183594 "/>
<path fill-rule="nonzero" fill="rgb(18.431373%, 30.980392%, 30.980392%)" fill-opacity="1" stroke-width="0.708661" stroke-linecap="round" stroke-linejoin="round" stroke="rgb(18.431373%, 30.980392%, 30.980392%)" stroke-opacity="1" stroke-miterlimit="10" d="M 248.515625 330.601562 C 248.515625 334.332031 245.492188 337.359375 241.757812 337.359375 C 238.027344 337.359375 235.003906 334.332031 235.003906 330.601562 C 235.003906 326.871094 238.027344 323.847656 241.757812 323.847656 C 245.492188 323.847656 248.515625 326.871094 248.515625 330.601562 "/>
<path fill-rule="nonzero" fill="rgb(18.431373%, 30.980392%, 30.980392%)" fill-opacity="1" stroke-width="0.708661" stroke-linecap="round" stroke-linejoin="round" stroke="rgb(18.431373%, 30.980392%, 30.980392%)" stroke-opacity="1" stroke-miterlimit="10" d="M 255.566406 314.640625 C 255.566406 318.371094 252.539062 321.398438 248.808594 321.398438 C 245.078125 321.398438 242.050781 318.371094 242.050781 314.640625 C 242.050781 310.910156 245.078125 307.882812 248.808594 307.882812 C 252.539062 307.882812 255.566406 310.910156 255.566406 314.640625 "/>
<path fill-rule="nonzero" fill="rgb(18.431373%, 30.980392%, 30.980392%)" fill-opacity="1" stroke-width="0.708661" stroke-linecap="round" stroke-linejoin="round" stroke="rgb(18.431373%, 30.980392%, 30.980392%)" stroke-opacity="1" stroke-miterlimit="10" d="M 262.613281 309.027344 C 262.613281 312.761719 259.589844 315.785156 255.859375 315.785156 C 252.125 315.785156 249.101562 312.761719 249.101562 309.027344 C 249.101562 305.296875 252.125 302.273438 255.859375 302.273438 C 259.589844 302.273438 262.613281 305.296875 262.613281 309.027344 "/>
<path fill-rule="nonzero" fill="rgb(18.431373%, 30.980392%, 30.980392%)" fill-opacity="1" stroke-width="0.708661" stroke-linecap="round" stroke-linejoin="round" stroke="rgb(18.431373%, 30.980392%, 30.980392%)" stroke-opacity="1" stroke-miterlimit="10" d="M 269.664062 313.257812 C 269.664062 316.988281 266.636719 320.011719 262.90625 320.011719 C 259.175781 320.011719 256.152344 316.988281 256.152344 313.257812 C 256.152344 309.527344 259.175781 306.5 262.90625 306.5 C 266.636719 306.5 269.664062 309.527344 269.664062 313.257812 "/>
<path fill-rule="nonzero" fill="rgb(18.431373%, 30.980392%, 30.980392%)" fill-opacity="1" stroke-width="0.708661" stroke-linecap="round" stroke-linejoin="round" stroke="rgb(18.431373%, 30.980392%, 30.980392%)" stroke-opacity="1" stroke-miterlimit="10" d="M 276.710938 286.84375 C 276.710938 290.574219 273.6875 293.597656 269.957031 293.597656 C 266.226562 293.597656 263.199219 290.574219 263.199219 286.84375 C 263.199219 283.113281 266.226562 280.085938 269.957031 280.085938 C 273.6875 280.085938 276.710938 283.113281 276.710938 286.84375 "/>
<path fill-rule="nonzero" fill="rgb(18.431373%, 30.980392%, 30.980392%)" fill-opacity="1" stroke-width="0.708661" stroke-linecap="round" stroke-linejoin="round" stroke="rgb(18.431373%, 30.980392%, 30.980392%)" stroke-opacity="1" stroke-miterlimit="10" d="M 283.761719 312.242188 C 283.761719 315.972656 280.738281 318.996094 277.003906 318.996094 C 273.273438 318.996094 270.25 315.972656 270.25 312.242188 C 270.25 308.511719 273.273438 305.484375 277.003906 305.484375 C 280.738281 305.484375 283.761719 308.511719 283.761719 312.242188 "/>
<path fill-rule="nonzero" fill="rgb(18.431373%, 30.980392%, 30.980392%)" fill-opacity="1" stroke-width="0.708661" stroke-linecap="round" stroke-linejoin="round" stroke="rgb(18.431373%, 30.980392%, 30.980392%)" stroke-opacity="1" stroke-miterlimit="10" d="M 290.8125 253.847656 C 290.8125 257.578125 287.785156 260.601562 284.054688 260.601562 C 280.324219 260.601562 277.296875 257.578125 277.296875 253.847656 C 277.296875 250.117188 280.324219 247.089844 284.054688 247.089844 C 287.785156 247.089844 290.8125 250.117188 290.8125 253.847656 "/>
<path fill-rule="nonzero" fill="rgb(18.431373%, 30.980392%, 30.980392%)" fill-opacity="1" stroke-width="0.708661" stroke-linecap="round" stroke-linejoin="round" stroke="rgb(18.431373%, 30.980392%, 30.980392%)" stroke-opacity="1" stroke-miterlimit="10" d="M 297.859375 254.988281 C 297.859375 258.722656 294.835938 261.746094 291.105469 261.746094 C 287.371094 261.746094 284.347656 258.722656 284.347656 254.988281 C 284.347656 251.257812 287.371094 248.234375 291.105469 248.234375 C 294.835938 248.234375 297.859375 251.257812 297.859375 254.988281 "/>
<path fill-rule="nonzero" fill="rgb(18.431373%, 30.980392%, 30.980392%)" fill-opacity="1" stroke-width="0.708661" stroke-linecap="round" stroke-linejoin="round" stroke="rgb(18.431373%, 30.980392%, 30.980392%)" stroke-opacity="1" stroke-miterlimit="10" d="M 304.910156 284.171875 C 304.910156 287.902344 301.882812 290.925781 298.152344 290.925781 C 294.421875 290.925781 291.398438 287.902344 291.398438 284.171875 C 291.398438 280.4375 294.421875 277.414062 298.152344 277.414062 C 301.882812 277.414062 304.910156 280.4375 304.910156 284.171875 "/>
<path fill-rule="nonzero" fill="rgb(18.431373%, 30.980392%, 30.980392%)" fill-opacity="1" stroke-width="0.708661" stroke-linecap="round" stroke-linejoin="round" stroke="rgb(18.431373%, 30.980392%, 30.980392%)" stroke-opacity="1" stroke-miterlimit="10" d="M 311.957031 297.609375 C 311.957031 301.339844 308.933594 304.367188 305.203125 304.367188 C 301.472656 304.367188 298.445312 301.339844 298.445312 297.609375 C 298.445312 293.878906 301.472656 290.851562 305.203125 290.851562 C 308.933594 290.851562 311.957031 293.878906 311.957031 297.609375 "/>
<path fill-rule="nonzero" fill="rgb(18.431373%, 30.980392%, 30.980392%)" fill-opacity="1" stroke-width="0.708661" stroke-linecap="round" stroke-linejoin="round" stroke="rgb(18.431373%, 30.980392%, 30.980392%)" stroke-opacity="1" stroke-miterlimit="10" d="M 319.007812 299.796875 C 319.007812 303.527344 315.984375 306.550781 312.25 306.550781 C 308.519531 306.550781 305.496094 303.527344 305.496094 299.796875 C 305.496094 296.0625 308.519531 293.039062 312.25 293.039062 C 315.984375 293.039062 319.007812 296.0625 319.007812 299.796875 "/>
<path fill-rule="nonzero" fill="rgb(18.431373%, 30.980392%, 30.980392%)" fill-opacity="1" stroke-width="0.708661" stroke-linecap="round" stroke-linejoin="round" stroke="rgb(18.431373%, 30.980392%, 30.980392%)" stroke-opacity="1" stroke-miterlimit="10" d="M 326.058594 260.074219 C 326.058594 263.804688 323.03125 266.832031 319.300781 266.832031 C 315.570312 266.832031 312.542969 263.804688 312.542969 260.074219 C 312.542969 256.34375 315.570312 253.320312 319.300781 253.320312 C 323.03125 253.320312 326.058594 256.34375 326.058594 260.074219 "/>
<path fill-rule="nonzero" fill="rgb(18.431373%, 30.980392%, 30.980392%)" fill-opacity="1" stroke-width="0.708661" stroke-linecap="round" stroke-linejoin="round" stroke="rgb(18.431373%, 30.980392%, 30.980392%)" stroke-opacity="1" stroke-miterlimit="10" d="M 333.105469 257.089844 C 333.105469 260.820312 330.082031 263.84375 326.351562 263.84375 C 322.617188 263.84375 319.59375 260.820312 319.59375 257.089844 C 319.59375 253.355469 322.617188 250.332031 326.351562 250.332031 C 330.082031 250.332031 333.105469 253.355469 333.105469 257.089844 "/>
<path fill-rule="nonzero" fill="rgb(18.431373%, 30.980392%, 30.980392%)" fill-opacity="1" stroke-width="0.708661" stroke-linecap="round" stroke-linejoin="round" stroke="rgb(18.431373%, 30.980392%, 30.980392%)" stroke-opacity="1" stroke-miterlimit="10" d="M 340.15625 253.929688 C 340.15625 257.660156 337.128906 260.683594 333.398438 260.683594 C 329.667969 260.683594 326.644531 257.660156 326.644531 253.929688 C 326.644531 250.195312 329.667969 247.171875 333.398438 247.171875 C 337.128906 247.171875 340.15625 250.195312 340.15625 253.929688 "/>
<path fill-rule="nonzero" fill="rgb(18.431373%, 30.980392%, 30.980392%)" fill-opacity="1" stroke-width="0.708661" stroke-linecap="round" stroke-linejoin="round" stroke="rgb(18.431373%, 30.980392%, 30.980392%)" stroke-opacity="1" stroke-miterlimit="10" d="M 347.203125 241.769531 C 347.203125 245.5 344.179688 248.527344 340.449219 248.527344 C 336.71875 248.527344 333.691406 245.5 333.691406 241.769531 C 333.691406 238.039062 336.71875 235.011719 340.449219 235.011719 C 344.179688 235.011719 347.203125 238.039062 347.203125 241.769531 "/>
<path fill-rule="nonzero" fill="rgb(18.431373%, 30.980392%, 30.980392%)" fill-opacity="1" stroke-width="0.708661" stroke-linecap="round" stroke-linejoin="round" stroke="rgb(18.431373%, 30.980392%, 30.980392%)" stroke-opacity="1" stroke-miterlimit="10" d="M 354.253906 285.050781 C 354.253906 288.785156 351.230469 291.808594 347.496094 291.808594 C 343.765625 291.808594 340.742188 288.785156 340.742188 285.050781 C 340.742188 281.320312 343.765625 278.296875 347.496094 278.296875 C 351.230469 278.296875 354.253906 281.320312 354.253906 285.050781 "/>
<path fill-rule="nonzero" fill="rgb(18.431373%, 30.980392%, 30.980392%)" fill-opacity="1" stroke-width="0.708661" stroke-linecap="round" stroke-linejoin="round" stroke="rgb(18.431373%, 30.980392%, 30.980392%)" stroke-opacity="1" stroke-miterlimit="10" d="M 361.304688 222.488281 C 361.304688 226.21875 358.277344 229.242188 354.546875 229.242188 C 350.816406 229.242188 347.789062 226.21875 347.789062 222.488281 C 347.789062 218.753906 350.816406 215.730469 354.546875 215.730469 C 358.277344 215.730469 361.304688 218.753906 361.304688 222.488281 "/>
<path fill-rule="nonzero" fill="rgb(18.431373%, 30.980392%, 30.980392%)" fill-opacity="1" stroke-width="0.708661" stroke-linecap="round" stroke-linejoin="round" stroke="rgb(18.431373%, 30.980392%, 30.980392%)" stroke-opacity="1" stroke-miterlimit="10" d="M 368.351562 271.738281 C 368.351562 275.46875 365.328125 278.496094 361.597656 278.496094 C 357.863281 278.496094 354.839844 275.46875 354.839844 271.738281 C 354.839844 268.007812 357.863281 264.980469 361.597656 264.980469 C 365.328125 264.980469 368.351562 268.007812 368.351562 271.738281 "/>
<path fill-rule="nonzero" fill="rgb(18.431373%, 30.980392%, 30.980392%)" fill-opacity="1" stroke-width="0.708661" stroke-linecap="round" stroke-linejoin="round" stroke="rgb(18.431373%, 30.980392%, 30.980392%)" stroke-opacity="1" stroke-miterlimit="10" d="M 375.402344 272.320312 C 375.402344 276.050781 372.375 279.078125 368.644531 279.078125 C 364.914062 279.078125 361.890625 276.050781 361.890625 272.320312 C 361.890625 268.589844 364.914062 265.5625 368.644531 265.5625 C 372.375 265.5625 375.402344 268.589844 375.402344 272.320312 "/>
<path fill-rule="nonzero" fill="rgb(18.431373%, 30.980392%, 30.980392%)" fill-opacity="1" stroke-width="0.708661" stroke-linecap="round" stroke-linejoin="round" stroke="rgb(18.431373%, 30.980392%, 30.980392%)" stroke-opacity="1" stroke-miterlimit="10" d="M 382.449219 242.535156 C 382.449219 246.269531 379.425781 249.292969 375.695312 249.292969 C 371.964844 249.292969 368.9375 246.269531 368.9375 242.535156 C 368.9375 238.804688 371.964844 235.78125 375.695312 235.78125 C 379.425781 235.78125 382.449219 238.804688 382.449219 242.535156 "/>
<path fill-rule="nonzero" fill="rgb(18.431373%, 30.980392%, 30.980392%)" fill-opacity="1" stroke-width="0.708661" stroke-linecap="round" stroke-linejoin="round" stroke="rgb(18.431373%, 30.980392%, 30.980392%)" stroke-opacity="1" stroke-miterlimit="10" d="M 389.5 223.457031 C 389.5 227.1875 386.476562 230.210938 382.742188 230.210938 C 379.011719 230.210938 375.988281 227.1875 375.988281 223.457031 C 375.988281 219.722656 379.011719 216.699219 382.742188 216.699219 C 386.476562 216.699219 389.5 219.722656 389.5 223.457031 "/>
<path fill-rule="nonzero" fill="rgb(18.431373%, 30.980392%, 30.980392%)" fill-opacity="1" stroke-width="0.708661" stroke-linecap="round" stroke-linejoin="round" stroke="rgb(18.431373%, 30.980392%, 30.980392%)" stroke-opacity="1" stroke-miterlimit="10" d="M 396.550781 191.898438 C 396.550781 195.632812 393.523438 198.65625 389.792969 198.65625 C 386.0625 198.65625 383.035156 195.632812 383.035156 191.898438 C 383.035156 188.167969 386.0625 185.144531 389.792969 185.144531 C 393.523438 185.144531 396.550781 188.167969 396.550781 191.898438 "/>
<path fill-rule="nonzero" fill="rgb(18.431373%, 30.980392%, 30.980392%)" fill-opacity="1" stroke-width="0.708661" stroke-linecap="round" stroke-linejoin="round" stroke="rgb(18.431373%, 30.980392%, 30.980392%)" stroke-opacity="1" stroke-miterlimit="10" d="M 403.597656 248.660156 C 403.597656 252.394531 400.574219 255.417969 396.84375 255.417969 C 393.109375 255.417969 390.085938 252.394531 390.085938 248.660156 C 390.085938 244.929688 393.109375 241.90625 396.84375 241.90625 C 400.574219 241.90625 403.597656 244.929688 403.597656 248.660156 "/>
<path fill-rule="nonzero" fill="rgb(18.431373%, 30.980392%, 30.980392%)" fill-opacity="1" stroke-width="0.708661" stroke-linecap="round" stroke-linejoin="round" stroke="rgb(18.431373%, 30.980392%, 30.980392%)" stroke-opacity="1" stroke-miterlimit="10" d="M 410.648438 229.027344 C 410.648438 232.757812 407.621094 235.78125 403.890625 235.78125 C 400.160156 235.78125 397.136719 232.757812 397.136719 229.027344 C 397.136719 225.296875 400.160156 222.269531 403.890625 222.269531 C 407.621094 222.269531 410.648438 225.296875 410.648438 229.027344 "/>
<path fill-rule="nonzero" fill="rgb(18.431373%, 30.980392%, 30.980392%)" fill-opacity="1" stroke-width="0.708661" stroke-linecap="round" stroke-linejoin="round" stroke="rgb(18.431373%, 30.980392%, 30.980392%)" stroke-opacity="1" stroke-miterlimit="10" d="M 417.695312 212.730469 C 417.695312 216.460938 414.671875 219.488281 410.941406 219.488281 C 407.210938 219.488281 404.183594 216.460938 404.183594 212.730469 C 404.183594 209 407.210938 205.972656 410.941406 205.972656 C 414.671875 205.972656 417.695312 209 417.695312 212.730469 "/>
<path fill-rule="nonzero" fill="rgb(18.431373%, 30.980392%, 30.980392%)" fill-opacity="1" stroke-width="0.708661" stroke-linecap="round" stroke-linejoin="round" stroke="rgb(18.431373%, 30.980392%, 30.980392%)" stroke-opacity="1" stroke-miterlimit="10" d="M 424.746094 187.914062 C 424.746094 191.644531 421.722656 194.667969 417.988281 194.667969 C 414.257812 194.667969 411.234375 191.644531 411.234375 187.914062 C 411.234375 184.179688 414.257812 181.15625 417.988281 181.15625 C 421.722656 181.15625 424.746094 184.179688 424.746094 187.914062 "/>
<path fill-rule="nonzero" fill="rgb(18.431373%, 30.980392%, 30.980392%)" fill-opacity="1" stroke-width="0.708661" stroke-linecap="round" stroke-linejoin="round" stroke="rgb(18.431373%, 30.980392%, 30.980392%)" stroke-opacity="1" stroke-miterlimit="10" d="M 431.796875 287.394531 C 431.796875 291.125 428.769531 294.148438 425.039062 294.148438 C 421.308594 294.148438 418.28125 291.125 418.28125 287.394531 C 418.28125 283.660156 421.308594 280.636719 425.039062 280.636719 C 428.769531 280.636719 431.796875 283.660156 431.796875 287.394531 "/>
<path fill-rule="nonzero" fill="rgb(18.431373%, 30.980392%, 30.980392%)" fill-opacity="1" stroke-width="0.708661" stroke-linecap="round" stroke-linejoin="round" stroke="rgb(18.431373%, 30.980392%, 30.980392%)" stroke-opacity="1" stroke-miterlimit="10" d="M 438.84375 231.421875 C 438.84375 235.152344 435.820312 238.179688 432.089844 238.179688 C 428.355469 238.179688 425.332031 235.152344 425.332031 231.421875 C 425.332031 227.691406 428.355469 224.667969 432.089844 224.667969 C 435.820312 224.667969 438.84375 227.691406 438.84375 231.421875 "/>
<path fill-rule="nonzero" fill="rgb(18.431373%, 30.980392%, 30.980392%)" fill-opacity="1" stroke-width="0.708661" stroke-linecap="round" stroke-linejoin="round" stroke="rgb(18.431373%, 30.980392%, 30.980392%)" stroke-opacity="1" stroke-miterlimit="10" d="M 445.894531 236.289062 C 445.894531 240.019531 442.867188 243.046875 439.136719 243.046875 C 435.40625 243.046875 432.382812 240.019531 432.382812 236.289062 C 432.382812 232.558594 435.40625 229.53125 439.136719 229.53125 C 442.867188 229.53125 445.894531 232.558594 445.894531 236.289062 "/>
<path fill-rule="nonzero" fill="rgb(18.431373%, 30.980392%, 30.980392%)" fill-opacity="1" stroke-width="0.708661" stroke-linecap="round" stroke-linejoin="round" stroke="rgb(18.431373%, 30.980392%, 30.980392%)" stroke-opacity="1" stroke-miterlimit="10" d="M 452.941406 176.105469 C 452.941406 179.835938 449.917969 182.863281 446.1875 182.863281 C 442.457031 182.863281 439.429688 179.835938 439.429688 176.105469 C 439.429688 172.375 442.457031 169.347656 446.1875 169.347656 C 449.917969 169.347656 452.941406 172.375 452.941406 176.105469 "/>
<path fill-rule="nonzero" fill="rgb(18.431373%, 30.980392%, 30.980392%)" fill-opacity="1" stroke-width="0.708661" stroke-linecap="round" stroke-linejoin="round" stroke="rgb(18.431373%, 30.980392%, 30.980392%)" stroke-opacity="1" stroke-miterlimit="10" d="M 459.992188 195.632812 C 459.992188 199.363281 456.96875 202.386719 453.234375 202.386719 C 449.503906 202.386719 446.480469 199.363281 446.480469 195.632812 C 446.480469 191.898438 449.503906 188.875 453.234375 188.875 C 456.96875 188.875 459.992188 191.898438 459.992188 195.632812 "/>
<path fill-rule="nonzero" fill="rgb(18.431373%, 30.980392%, 30.980392%)" fill-opacity="1" stroke-width="0.708661" stroke-linecap="round" stroke-linejoin="round" stroke="rgb(18.431373%, 30.980392%, 30.980392%)" stroke-opacity="1" stroke-miterlimit="10" d="M 467.042969 198.042969 C 467.042969 201.773438 464.015625 204.800781 460.285156 204.800781 C 456.554688 204.800781 453.527344 201.773438 453.527344 198.042969 C 453.527344 194.3125 456.554688 191.289062 460.285156 191.289062 C 464.015625 191.289062 467.042969 194.3125 467.042969 198.042969 "/>
<path fill-rule="nonzero" fill="rgb(18.431373%, 30.980392%, 30.980392%)" fill-opacity="1" stroke-width="0.708661" stroke-linecap="round" stroke-linejoin="round" stroke="rgb(18.431373%, 30.980392%, 30.980392%)" stroke-opacity="1" stroke-miterlimit="10" d="M 474.089844 179.203125 C 474.089844 182.933594 471.066406 185.957031 467.335938 185.957031 C 463.601562 185.957031 460.578125 182.933594 460.578125 179.203125 C 460.578125 175.472656 463.601562 172.445312 467.335938 172.445312 C 471.066406 172.445312 474.089844 175.472656 474.089844 179.203125 "/>
<path fill-rule="nonzero" fill="rgb(18.431373%, 30.980392%, 30.980392%)" fill-opacity="1" stroke-width="0.708661" stroke-linecap="round" stroke-linejoin="round" stroke="rgb(18.431373%, 30.980392%, 30.980392%)" stroke-opacity="1" stroke-miterlimit="10" d="M 481.140625 199.65625 C 481.140625 203.386719 478.113281 206.410156 474.382812 206.410156 C 470.652344 206.410156 467.628906 203.386719 467.628906 199.65625 C 467.628906 195.921875 470.652344 192.898438 474.382812 192.898438 C 478.113281 192.898438 481.140625 195.921875 481.140625 199.65625 "/>
<path fill-rule="nonzero" fill="rgb(18.431373%, 30.980392%, 30.980392%)" fill-opacity="1" stroke-width="0.708661" stroke-linecap="round" stroke-linejoin="round" stroke="rgb(18.431373%, 30.980392%, 30.980392%)" stroke-opacity="1" stroke-miterlimit="10" d="M 488.1875 172.210938 C 488.1875 175.941406 485.164062 178.964844 481.433594 178.964844 C 477.703125 178.964844 474.675781 175.941406 474.675781 172.210938 C 474.675781 168.480469 477.703125 165.453125 481.433594 165.453125 C 485.164062 165.453125 488.1875 168.480469 488.1875 172.210938 "/>
<path fill-rule="nonzero" fill="rgb(18.431373%, 30.980392%, 30.980392%)" fill-opacity="1" stroke-width="0.708661" stroke-linecap="round" stroke-linejoin="round" stroke="rgb(18.431373%, 30.980392%, 30.980392%)" stroke-opacity="1" stroke-miterlimit="10" d="M 495.238281 169.15625 C 495.238281 172.886719 492.214844 175.914062 488.480469 175.914062 C 484.75 175.914062 481.726562 172.886719 481.726562 169.15625 C 481.726562 165.425781 484.75 162.398438 488.480469 162.398438 C 492.214844 162.398438 495.238281 165.425781 495.238281 169.15625 "/>
<path fill-rule="nonzero" fill="rgb(18.431373%, 30.980392%, 30.980392%)" fill-opacity="1" stroke-width="0.708661" stroke-linecap="round" stroke-linejoin="round" stroke="rgb(18.431373%, 30.980392%, 30.980392%)" stroke-opacity="1" stroke-miterlimit="10" d="M 502.289062 154.535156 C 502.289062 158.265625 499.261719 161.292969 495.53125 161.292969 C 491.800781 161.292969 488.773438 158.265625 488.773438 154.535156 C 488.773438 150.804688 491.800781 147.78125 495.53125 147.78125 C 499.261719 147.78125 502.289062 150.804688 502.289062 154.535156 "/>
<path fill-rule="nonzero" fill="rgb(18.431373%, 30.980392%, 30.980392%)" fill-opacity="1" stroke-width="0.708661" stroke-linecap="round" stroke-linejoin="round" stroke="rgb(18.431373%, 30.980392%, 30.980392%)" stroke-opacity="1" stroke-miterlimit="10" d="M 509.335938 158.304688 C 509.335938 162.035156 506.3125 165.0625 502.582031 165.0625 C 498.847656 165.0625 495.824219 162.035156 495.824219 158.304688 C 495.824219 154.574219 498.847656 151.546875 502.582031 151.546875 C 506.3125 151.546875 509.335938 154.574219 509.335938 158.304688 "/>
<path fill-rule="nonzero" fill="rgb(18.431373%, 30.980392%, 30.980392%)" fill-opacity="1" stroke-width="0.708661" stroke-linecap="round" stroke-linejoin="round" stroke="rgb(18.431373%, 30.980392%, 30.980392%)" stroke-opacity="1" stroke-miterlimit="10" d="M 516.386719 159.058594 C 516.386719 162.789062 513.359375 165.8125 509.628906 165.8125 C 505.898438 165.8125 502.875 162.789062 502.875 159.058594 C 502.875 155.328125 505.898438 152.300781 509.628906 152.300781 C 513.359375 152.300781 516.386719 155.328125 516.386719 159.058594 "/>
<path fill-rule="nonzero" fill="rgb(18.431373%, 30.980392%, 30.980392%)" fill-opacity="1" stroke-width="0.708661" stroke-linecap="round" stroke-linejoin="round" stroke="rgb(18.431373%, 30.980392%, 30.980392%)" stroke-opacity="1" stroke-miterlimit="10" d="M 523.433594 170.234375 C 523.433594 173.964844 520.410156 176.992188 516.679688 176.992188 C 512.949219 176.992188 509.921875 173.964844 509.921875 170.234375 C 509.921875 166.503906 512.949219 163.480469 516.679688 163.480469 C 520.410156 163.480469 523.433594 166.503906 523.433594 170.234375 "/>
<path fill-rule="nonzero" fill="rgb(18.431373%, 30.980392%, 30.980392%)" fill-opacity="1" stroke-width="0.708661" stroke-linecap="round" stroke-linejoin="round" stroke="rgb(18.431373%, 30.980392%, 30.980392%)" stroke-opacity="1" stroke-miterlimit="10" d="M 530.484375 123.914062 C 530.484375 127.644531 527.460938 130.667969 523.726562 130.667969 C 519.996094 130.667969 516.972656 127.644531 516.972656 123.914062 C 516.972656 120.179688 519.996094 117.15625 523.726562 117.15625 C 527.460938 117.15625 530.484375 120.179688 530.484375 123.914062 "/>
<path fill-rule="nonzero" fill="rgb(18.431373%, 30.980392%, 30.980392%)" fill-opacity="1" stroke-width="0.708661" stroke-linecap="round" stroke-linejoin="round" stroke="rgb(18.431373%, 30.980392%, 30.980392%)" stroke-opacity="1" stroke-miterlimit="10" d="M 537.535156 142.628906 C 537.535156 146.359375 534.507812 149.382812 530.777344 149.382812 C 527.046875 149.382812 524.019531 146.359375 524.019531 142.628906 C 524.019531 138.898438 527.046875 135.871094 530.777344 135.871094 C 534.507812 135.871094 537.535156 138.898438 537.535156 142.628906 "/>
<path fill-rule="nonzero" fill="rgb(18.431373%, 30.980392%, 30.980392%)" fill-opacity="1" stroke-width="0.708661" stroke-linecap="round" stroke-linejoin="round" stroke="rgb(18.431373%, 30.980392%, 30.980392%)" stroke-opacity="1" stroke-miterlimit="10" d="M 544.582031 141.804688 C 544.582031 145.535156 541.558594 148.5625 537.828125 148.5625 C 534.09375 148.5625 531.070312 145.535156 531.070312 141.804688 C 531.070312 138.074219 534.09375 135.046875 537.828125 135.046875 C 541.558594 135.046875 544.582031 138.074219 544.582031 141.804688 "/>
<path fill-rule="nonzero" fill="rgb(18.431373%, 30.980392%, 30.980392%)" fill-opacity="1" stroke-width="0.708661" stroke-linecap="round" stroke-linejoin="round" stroke="rgb(18.431373%, 30.980392%, 30.980392%)" stroke-opacity="1" stroke-miterlimit="10" d="M 551.632812 131.601562 C 551.632812 135.335938 548.605469 138.359375 544.875 138.359375 C 541.144531 138.359375 538.121094 135.335938 538.121094 131.601562 C 538.121094 127.871094 541.144531 124.847656 544.875 124.847656 C 548.605469 124.847656 551.632812 127.871094 551.632812 131.601562 "/>
<path fill-rule="nonzero" fill="rgb(18.431373%, 30.980392%, 30.980392%)" fill-opacity="1" stroke-width="0.708661" stroke-linecap="round" stroke-linejoin="round" stroke="rgb(18.431373%, 30.980392%, 30.980392%)" stroke-opacity="1" stroke-miterlimit="10" d="M 558.679688 173.917969 C 558.679688 177.648438 555.65625 180.671875 551.925781 180.671875 C 548.195312 180.671875 545.167969 177.648438 545.167969 173.917969 C 545.167969 170.183594 548.195312 167.160156 551.925781 167.160156 C 555.65625 167.160156 558.679688 170.183594 558.679688 173.917969 "/>
<path fill-rule="nonzero" fill="rgb(18.431373%, 30.980392%, 30.980392%)" fill-opacity="1" stroke-width="0.708661" stroke-linecap="round" stroke-linejoin="round" stroke="rgb(18.431373%, 30.980392%, 30.980392%)" stroke-opacity="1" stroke-miterlimit="10" d="M 565.730469 128.097656 C 565.730469 131.828125 562.707031 134.855469 558.972656 134.855469 C 555.242188 134.855469 552.21875 131.828125 552.21875 128.097656 C 552.21875 124.367188 555.242188 121.34375 558.972656 121.34375 C 562.707031 121.34375 565.730469 124.367188 565.730469 128.097656 "/>
<path fill-rule="nonzero" fill="rgb(18.431373%, 30.980392%, 30.980392%)" fill-opacity="1" stroke-width="0.708661" stroke-linecap="round" stroke-linejoin="round" stroke="rgb(18.431373%, 30.980392%, 30.980392%)" stroke-opacity="1" stroke-miterlimit="10" d="M 572.78125 147.214844 C 572.78125 150.945312 569.753906 153.972656 566.023438 153.972656 C 562.292969 153.972656 559.265625 150.945312 559.265625 147.214844 C 559.265625 143.484375 562.292969 140.460938 566.023438 140.460938 C 569.753906 140.460938 572.78125 143.484375 572.78125 147.214844 "/>
<path fill-rule="nonzero" fill="rgb(18.431373%, 30.980392%, 30.980392%)" fill-opacity="1" stroke-width="0.708661" stroke-linecap="round" stroke-linejoin="round" stroke="rgb(18.431373%, 30.980392%, 30.980392%)" stroke-opacity="1" stroke-miterlimit="10" d="M 579.828125 124.183594 C 579.828125 127.914062 576.804688 130.941406 573.074219 130.941406 C 569.339844 130.941406 566.316406 127.914062 566.316406 124.183594 C 566.316406 120.453125 569.339844 117.429688 573.074219 117.429688 C 576.804688 117.429688 579.828125 120.453125 579.828125 124.183594 "/>
<path fill-rule="nonzero" fill="rgb(18.431373%, 30.980392%, 30.980392%)" fill-opacity="1" stroke-width="0.708661" stroke-linecap="round" stroke-linejoin="round" stroke="rgb(18.431373%, 30.980392%, 30.980392%)" stroke-opacity="1" stroke-miterlimit="10" d="M 586.878906 134.023438 C 586.878906 137.753906 583.851562 140.777344 580.121094 140.777344 C 576.390625 140.777344 573.367188 137.753906 573.367188 134.023438 C 573.367188 130.292969 576.390625 127.265625 580.121094 127.265625 C 583.851562 127.265625 586.878906 130.292969 586.878906 134.023438 "/>
<path fill-rule="nonzero" fill="rgb(18.431373%, 30.980392%, 30.980392%)" fill-opacity="1" stroke-width="0.708661" stroke-linecap="round" stroke-linejoin="round" stroke="rgb(18.431373%, 30.980392%, 30.980392%)" stroke-opacity="1" stroke-miterlimit="10" d="M 593.925781 133.035156 C 593.925781 136.765625 590.902344 139.792969 587.171875 139.792969 C 583.441406 139.792969 580.414062 136.765625 580.414062 133.035156 C 580.414062 129.304688 583.441406 126.28125 587.171875 126.28125 C 590.902344 126.28125 593.925781 129.304688 593.925781 133.035156 "/>
<path fill-rule="nonzero" fill="rgb(18.431373%, 30.980392%, 30.980392%)" fill-opacity="1" stroke-width="0.708661" stroke-linecap="round" stroke-linejoin="round" stroke="rgb(18.431373%, 30.980392%, 30.980392%)" stroke-opacity="1" stroke-miterlimit="10" d="M 600.976562 85.558594 C 600.976562 89.292969 597.953125 92.316406 594.21875 92.316406 C 590.488281 92.316406 587.464844 89.292969 587.464844 85.558594 C 587.464844 81.828125 590.488281 78.804688 594.21875 78.804688 C 597.953125 78.804688 600.976562 81.828125 600.976562 85.558594 "/>
<path fill-rule="nonzero" fill="rgb(18.431373%, 30.980392%, 30.980392%)" fill-opacity="1" stroke-width="0.708661" stroke-linecap="round" stroke-linejoin="round" stroke="rgb(18.431373%, 30.980392%, 30.980392%)" stroke-opacity="1" stroke-miterlimit="10" d="M 608.027344 71.273438 C 608.027344 75.007812 605 78.03125 601.269531 78.03125 C 597.539062 78.03125 594.511719 75.007812 594.511719 71.273438 C 594.511719 67.542969 597.539062 64.519531 601.269531 64.519531 C 605 64.519531 608.027344 67.542969 608.027344 71.273438 "/>
<path fill-rule="nonzero" fill="rgb(18.431373%, 30.980392%, 30.980392%)" fill-opacity="1" stroke-width="0.708661" stroke-linecap="round" stroke-linejoin="round" stroke="rgb(18.431373%, 30.980392%, 30.980392%)" stroke-opacity="1" stroke-miterlimit="10" d="M 615.074219 108.378906 C 615.074219 112.109375 612.050781 115.136719 608.320312 115.136719 C 604.585938 115.136719 601.5625 112.109375 601.5625 108.378906 C 601.5625 104.648438 604.585938 101.621094 608.320312 101.621094 C 612.050781 101.621094 615.074219 104.648438 615.074219 108.378906 "/>
<path fill-rule="nonzero" fill="rgb(18.431373%, 30.980392%, 30.980392%)" fill-opacity="1" stroke-width="0.708661" stroke-linecap="round" stroke-linejoin="round" stroke="rgb(18.431373%, 30.980392%, 30.980392%)" stroke-opacity="1" stroke-miterlimit="10" d="M 622.125 76.414062 C 622.125 80.144531 619.097656 83.171875 615.367188 83.171875 C 611.636719 83.171875 608.613281 80.144531 608.613281 76.414062 C 608.613281 72.683594 611.636719 69.65625 615.367188 69.65625 C 619.097656 69.65625 622.125 72.683594 622.125 76.414062 "/>
<path fill-rule="nonzero" fill="rgb(18.431373%, 30.980392%, 30.980392%)" fill-opacity="1" stroke-width="0.708661" stroke-linecap="round" stroke-linejoin="round" stroke="rgb(18.431373%, 30.980392%, 30.980392%)" stroke-opacity="1" stroke-miterlimit="10" d="M 629.171875 51.347656 C 629.171875 55.078125 626.148438 58.105469 622.417969 58.105469 C 618.6875 58.105469 615.660156 55.078125 615.660156 51.347656 C 615.660156 47.617188 618.6875 44.59375 622.417969 44.59375 C 626.148438 44.59375 629.171875 47.617188 629.171875 51.347656 "/>
<path fill-rule="nonzero" fill="rgb(18.431373%, 30.980392%, 30.980392%)" fill-opacity="1" stroke-width="0.708661" stroke-linecap="round" stroke-linejoin="round" stroke="rgb(18.431373%, 30.980392%, 30.980392%)" stroke-opacity="1" stroke-miterlimit="10" d="M 636.222656 126.679688 C 636.222656 130.410156 633.199219 133.433594 629.464844 133.433594 C 625.734375 133.433594 622.710938 130.410156 622.710938 126.679688 C 622.710938 122.945312 625.734375 119.921875 629.464844 119.921875 C 633.199219 119.921875 636.222656 122.945312 636.222656 126.679688 "/>
<path fill-rule="nonzero" fill="rgb(18.431373%, 30.980392%, 30.980392%)" fill-opacity="1" stroke-width="0.708661" stroke-linecap="round" stroke-linejoin="round" stroke="rgb(18.431373%, 30.980392%, 30.980392%)" stroke-opacity="1" stroke-miterlimit="10" d="M 643.273438 88.371094 C 643.273438 92.101562 640.246094 95.125 636.515625 95.125 C 632.785156 95.125 629.757812 92.101562 629.757812 88.371094 C 629.757812 84.636719 632.785156 81.613281 636.515625 81.613281 C 640.246094 81.613281 643.273438 84.636719 643.273438 88.371094 "/>
<path fill-rule="nonzero" fill="rgb(18.431373%, 30.980392%, 30.980392%)" fill-opacity="1" stroke-width="0.708661" stroke-linecap="round" stroke-linejoin="round" stroke="rgb(18.431373%, 30.980392%, 30.980392%)" stroke-opacity="1" stroke-miterlimit="10" d="M 650.320312 54.042969 C 650.320312 57.773438 647.296875 60.796875 643.566406 60.796875 C 639.832031 60.796875 636.808594 57.773438 636.808594 54.042969 C 636.808594 50.308594 639.832031 47.285156 643.566406 47.285156 C 647.296875 47.285156 650.320312 50.308594 650.320312 54.042969 "/>
<path fill-rule="nonzero" fill="rgb(18.431373%, 30.980392%, 30.980392%)" fill-opacity="1" stroke-width="0.708661" stroke-linecap="round" stroke-linejoin="round" stroke="rgb(18.431373%, 30.980392%, 30.980392%)" stroke-opacity="1" stroke-miterlimit="10" d="M 657.371094 71.203125 C 657.371094 74.933594 654.34375 77.960938 650.613281 77.960938 C 646.882812 77.960938 643.859375 74.933594 643.859375 71.203125 C 643.859375 67.472656 646.882812 64.449219 650.613281 64.449219 C 654.34375 64.449219 657.371094 67.472656 657.371094 71.203125 "/>
<path fill-rule="nonzero" fill="rgb(18.431373%, 30.980392%, 30.980392%)" fill-opacity="1" stroke-width="0.708661" stroke-linecap="round" stroke-linejoin="round" stroke="rgb(18.431373%, 30.980392%, 30.980392%)" stroke-opacity="1" stroke-miterlimit="10" d="M 664.417969 61.410156 C 664.417969 65.140625 661.394531 68.164062 657.664062 68.164062 C 653.933594 68.164062 650.90625 65.140625 650.90625 61.410156 C 650.90625 57.679688 653.933594 54.652344 657.664062 54.652344 C 661.394531 54.652344 664.417969 57.679688 664.417969 61.410156 "/>
<path fill-rule="nonzero" fill="rgb(18.431373%, 30.980392%, 30.980392%)" fill-opacity="1" stroke-width="0.708661" stroke-linecap="round" stroke-linejoin="round" stroke="rgb(18.431373%, 30.980392%, 30.980392%)" stroke-opacity="1" stroke-miterlimit="10" d="M 671.46875 55.019531 C 671.46875 58.75 668.445312 61.773438 664.710938 61.773438 C 660.980469 61.773438 657.957031 58.75 657.957031 55.019531 C 657.957031 51.289062 660.980469 48.261719 664.710938 48.261719 C 668.445312 48.261719 671.46875 51.289062 671.46875 55.019531 "/>
<path fill-rule="nonzero" fill="rgb(18.431373%, 30.980392%, 30.980392%)" fill-opacity="1" stroke-width="0.708661" stroke-linecap="round" stroke-linejoin="round" stroke="rgb(18.431373%, 30.980392%, 30.980392%)" stroke-opacity="1" stroke-miterlimit="10" d="M 678.519531 37.558594 C 678.519531 41.292969 675.492188 44.316406 671.761719 44.316406 C 668.03125 44.316406 665.003906 41.292969 665.003906 37.558594 C 665.003906 33.828125 668.03125 30.804688 671.761719 30.804688 C 675.492188 30.804688 678.519531 33.828125 678.519531 37.558594 "/>
<path fill-rule="nonzero" fill="rgb(18.431373%, 30.980392%, 30.980392%)" fill-opacity="1" stroke-width="0.708661" stroke-linecap="round" stroke-linejoin="round" stroke="rgb(18.431373%, 30.980392%, 30.980392%)" stroke-opacity="1" stroke-miterlimit="10" d="M 685.566406 89.636719 C 685.566406 93.367188 682.542969 96.390625 678.8125 96.390625 C 675.078125 96.390625 672.054688 93.367188 672.054688 89.636719 C 672.054688 85.90625 675.078125 82.878906 678.8125 82.878906 C 682.542969 82.878906 685.566406 85.90625 685.566406 89.636719 "/>
<path fill-rule="nonzero" fill="rgb(18.431373%, 30.980392%, 30.980392%)" fill-opacity="1" stroke-width="0.708661" stroke-linecap="round" stroke-linejoin="round" stroke="rgb(18.431373%, 30.980392%, 30.980392%)" stroke-opacity="1" stroke-miterlimit="10" d="M 692.617188 72.882812 C 692.617188 76.617188 689.589844 79.640625 685.859375 79.640625 C 682.128906 79.640625 679.105469 76.617188 679.105469 72.882812 C 679.105469 69.152344 682.128906 66.128906 685.859375 66.128906 C 689.589844 66.128906 692.617188 69.152344 692.617188 72.882812 "/>
<path fill-rule="nonzero" fill="rgb(18.431373%, 30.980392%, 30.980392%)" fill-opacity="1" stroke-width="0.708661" stroke-linecap="round" stroke-linejoin="round" stroke="rgb(18.431373%, 30.980392%, 30.980392%)" stroke-opacity="1" stroke-miterlimit="10" d="M 699.664062 34.90625 C 699.664062 38.640625 696.640625 41.664062 692.910156 41.664062 C 689.179688 41.664062 686.152344 38.640625 686.152344 34.90625 C 686.152344 31.175781 689.179688 28.152344 692.910156 28.152344 C 696.640625 28.152344 699.664062 31.175781 699.664062 34.90625 "/>
<path fill-rule="nonzero" fill="rgb(18.431373%, 30.980392%, 30.980392%)" fill-opacity="1" stroke-width="0.708661" stroke-linecap="round" stroke-linejoin="round" stroke="rgb(18.431373%, 30.980392%, 30.980392%)" stroke-opacity="1" stroke-miterlimit="10" d="M 706.714844 40.519531 C 706.714844 44.25 703.691406 47.277344 699.957031 47.277344 C 696.226562 47.277344 693.203125 44.25 693.203125 40.519531 C 693.203125 36.789062 696.226562 33.761719 699.957031 33.761719 C 703.691406 33.761719 706.714844 36.789062 706.714844 40.519531 "/>
<path fill-rule="nonzero" fill="rgb(18.431373%, 30.980392%, 30.980392%)" fill-opacity="1" stroke-width="0.708661" stroke-linecap="round" stroke-linejoin="round" stroke="rgb(18.431373%, 30.980392%, 30.980392%)" stroke-opacity="1" stroke-miterlimit="10" d="M 713.765625 24.675781 C 713.765625 28.40625 710.738281 31.433594 707.007812 31.433594 C 703.277344 31.433594 700.25 28.40625 700.25 24.675781 C 700.25 20.945312 703.277344 17.921875 707.007812 17.921875 C 710.738281 17.921875 713.765625 20.945312 713.765625 24.675781 "/>
<path fill-rule="nonzero" fill="rgb(18.431373%, 30.980392%, 30.980392%)" fill-opacity="1" stroke-width="0.708661" stroke-linecap="round" stroke-linejoin="round" stroke="rgb(18.431373%, 30.980392%, 30.980392%)" stroke-opacity="1" stroke-miterlimit="10" d="M 720.8125 23.4375 C 720.8125 27.171875 717.789062 30.195312 714.058594 30.195312 C 710.324219 30.195312 707.300781 27.171875 707.300781 23.4375 C 707.300781 19.707031 710.324219 16.683594 714.058594 16.683594 C 717.789062 16.683594 720.8125 19.707031 720.8125 23.4375 "/>
<path fill-rule="nonzero" fill="rgb(18.431373%, 30.980392%, 30.980392%)" fill-opacity="1" stroke-width="0.708661" stroke-linecap="round" stroke-linejoin="round" stroke="rgb(18.431373%, 30.980392%, 30.980392%)" stroke-opacity="1" stroke-miterlimit="10" d="M 727.863281 32.847656 C 727.863281 36.582031 724.835938 39.605469 721.105469 39.605469 C 717.375 39.605469 714.351562 36.582031 714.351562 32.847656 C 714.351562 29.117188 717.375 26.09375 721.105469 26.09375 C 724.835938 26.09375 727.863281 29.117188 727.863281 32.847656 "/>
<path fill="none" stroke-width="6.40187" stroke-linecap="butt" stroke-linejoin="round" stroke="rgb(94.117647%, 50.196078%, 50.196078%)" stroke-opacity="1" stroke-miterlimit="10" d="M 23.234375 451.578125 L 32.066406 446.253906 L 40.902344 440.933594 L 49.734375 435.613281 L 58.570312 430.289062 L 67.402344 424.96875 L 76.238281 419.648438 L 85.070312 414.324219 L 93.902344 409.003906 L 102.738281 403.679688 L 111.570312 398.359375 L 120.40625 393.039062 L 129.238281 387.714844 L 138.074219 382.394531 L 146.90625 377.074219 L 155.742188 371.75 L 164.574219 366.429688 L 173.410156 361.109375 L 182.242188 355.785156 L 191.078125 350.464844 L 199.910156 345.144531 L 208.742188 339.820312 L 217.578125 334.5 L 226.410156 329.179688 L 235.246094 323.855469 L 244.078125 318.535156 L 252.914062 313.210938 L 261.746094 307.890625 L 270.582031 302.570312 L 279.414062 297.246094 L 288.25 291.925781 L 297.082031 286.605469 L 305.917969 281.28125 L 323.582031 270.640625 L 332.417969 265.316406 L 341.25 259.996094 L 350.085938 254.675781 L 358.917969 249.351562 L 367.753906 244.03125 L 376.585938 238.710938 L 385.421875 233.386719 L 394.253906 228.066406 L 403.089844 222.742188 L 411.921875 217.421875 L 420.757812 212.101562 L 429.589844 206.777344 L 438.421875 201.457031 L 447.257812 196.136719 L 456.089844 190.8125 L 464.925781 185.492188 L 473.757812 180.171875 L 482.59375 174.847656 L 491.425781 169.527344 L 500.261719 164.207031 L 509.09375 158.882812 L 517.929688 153.5625 L 526.761719 148.238281 L 535.597656 142.917969 L 544.429688 137.597656 L 553.261719 132.273438 L 562.097656 126.953125 L 570.929688 121.632812 L 579.765625 116.308594 L 588.597656 110.988281 L 597.433594 105.667969 L 606.265625 100.34375 L 615.101562 95.023438 L 623.933594 89.703125 L 632.769531 84.378906 L 641.601562 79.058594 L 650.4375 73.738281 L 659.269531 68.414062 L 668.101562 63.09375 L 676.9375 57.769531 L 685.769531 52.449219 L 694.605469 47.128906 L 703.4375 41.804688 L 712.273438 36.484375 L 721.105469 31.164062 "/>
</svg>
