<?xml version="1.0" encoding="UTF-8"?>
<svg xmlns="http://www.w3.org/2000/svg" xmlns:xlink="http://www.w3.org/1999/xlink" width="756" height="504" viewBox="0 0 756 504">
<rect x="-75.6" y="-50.4" width="907.2" height="604.8" fill="rgb(100%, 100%, 100%)" fill-opacity="1"/>
<path fill-rule="nonzero" fill="rgb(18.431373%, 30.980392%, 30.980392%)" fill-opacity="1" stroke-width="0.708661" stroke-linecap="round" stroke-linejoin="round" stroke="rgb(18.431373%, 30.980392%, 30.980392%)" stroke-opacity="1" stroke-miterlimit="10" d="M 29.988281 491.445312 C 29.988281 495.175781 26.964844 498.199219 23.234375 498.199219 C 19.503906 498.199219 16.476562 495.175781 16.476562 491.445312 C 16.476562 487.714844 19.503906 484.6875 23.234375 484.6875 C 26.964844 484.6875 29.988281 487.714844 29.988281 491.445312 "/>
<path fill-rule="nonzero" fill="rgb(18.431373%, 30.980392%, 30.980392%)" fill-opacity="1" stroke-width="0.708661" stroke-linecap="round" stroke-linejoin="round" stroke="rgb(18.431373%, 30.980392%, 30.980392%)" stroke-opacity="1" stroke-miterlimit="10" d="M 37.039062 476.507812 C 37.039062 480.238281 34.015625 483.265625 30.28125 483.265625 C 26.550781 483.265625 23.527344 480.238281 23.527344 476.507812 C 23.527344 472.777344 26.550781 469.753906 30.28125 469.753906 C 34.015625 469.753906 37.039062 472.777344 37.039062 476.507812 "/>
<path fill-rule="nonzero" fill="rgb(18.431373%, 30.980392%, 30.980392%)" fill-opacity="1" stroke-width="0.708661" stroke-linecap="round" stroke-linejoin="round" stroke="rgb(18.431373%, 30.980392%, 30.980392%)" stroke-opacity="1" stroke-miterlimit="10" d="M 44.089844 489.28125 C 44.089844 493.011719 41.0625 496.039062 37.332031 496.039062 C 33.601562 496.039062 30.574219 493.011719 30.574219 489.28125 C 30.574219 485.550781 33.601562 482.523438 37.332031 482.523438 C 41.0625 482.523438 44.089844 485.550781 44.089844 489.28125 "/>
<path fill-rule="nonzero" fill="rgb(18.431373%, 30.980392%, 30.980392%)" fill-opacity="1" stroke-width="0.708661" stroke-linecap="round" stroke-linejoin="round" stroke="rgb(18.431373%, 30.980392%, 30.980392%)" stroke-opacity="1" stroke-miterlimit="10" d="M 51.136719 492.222656 C 51.136719 495.953125 48.113281 498.976562 44.382812 498.976562 C 40.648438 498.976562 37.625 495.953125 37.625 492.222656 C 37.625 488.488281 40.648438 485.464844 44.382812 485.464844 C 48.113281 485.464844 51.136719 488.488281 51.136719 492.222656 "/>
<path fill-rule="nonzero" fill="rgb(18.431373%, 30.980392%, 30.980392%)" fill-opacity="1" stroke-width="0.708661" stroke-linecap="round" stroke-linejoin="round" stroke="rgb(18.431373%, 30.980392%, 30.980392%)" stroke-opacity="1" stroke-miterlimit="10" d="M 58.1875 452.074219 C 58.1875 455.804688 55.160156 458.828125 51.429688 458.828125 C 47.699219 458.828125 44.675781 455.804688 44.675781 452.074219 C 44.675781 448.339844 47.699219 445.316406 51.429688 445.316406 C 55.160156 445.316406 58.1875 448.339844 58.1875 452.074219 "/>
<path fill-rule="nonzero" fill="rgb(18.431373%, 30.980392%, 30.980392%)" fill-opacity="1" stroke-width="0.708661" stroke-linecap="round" stroke-linejoin="round" stroke="rgb(18.431373%, 30.980392%, 30.980392%)" stroke-opacity="1" stroke-miterlimit="10" d="M 65.234375 448.335938 C 65.234375 452.066406 62.210938 455.089844 58.480469 455.089844 C 54.75 455.089844 51.722656 452.066406 51.722656 448.335938 C 51.722656 444.601562 54.75 441.578125 58.480469 441.578125 C 62.210938 441.578125 65.234375 444.601562 65.234375 448.335938 "/>
<path fill-rule="nonzero" fill="rgb(18.431373%, 30.980392%, 30.980392%)" fill-opacity="1" stroke-width="0.708661" stroke-linecap="round" stroke-linejoin="round" stroke="rgb(18.431373%, 30.980392%, 30.980392%)" stroke-opacity="1" stroke-miterlimit="10" d="M 72.285156 429.835938 C 72.285156 433.570312 69.261719 436.59375 65.527344 436.59375 C 61.796875 436.59375 58.773438 433.570312 58.773438 429.835938 C 58.773438 426.105469 61.796875 423.082031 65.527344 423.082031 C 69.261719 423.082031 72.285156 426.105469 72.285156 429.835938 "/>
<path fill-rule="nonzero" fill="rgb(18.431373%, 30.980392%, 30.980392%)" fill-opacity="1" stroke-width="0.708661" stroke-linecap="round" stroke-linejoin="round" stroke="rgb(18.431373%, 30.980392%, 30.980392%)" stroke-opacity="1" stroke-miterlimit="10" d="M 79.335938 471.625 C 79.335938 475.359375 76.308594 478.382812 72.578125 478.382812 C 68.847656 478.382812 65.820312 475.359375 65.820312 471.625 C 65.820312 467.894531 68.847656 464.871094 72.578125 464.871094 C 76.308594 464.871094 79.335938 467.894531 79.335938 471.625 "/>
<path fill-rule="nonzero" fill="rgb(18.431373%, 30.980392%, 30.980392%)" fill-opacity="1" stroke-width="0.708661" stroke-linecap="round" stroke-linejoin="round" stroke="rgb(18.431373%, 30.980392%, 30.980392%)" stroke-opacity="1" stroke-miterlimit="10" d="M 86.382812 403.824219 C 86.382812 407.554688 83.359375 410.582031 79.628906 410.582031 C 75.894531 410.582031 72.871094 407.554688 72.871094 403.824219 C 72.871094 400.09375 75.894531 397.066406 79.628906 397.066406 C 83.359375 397.066406 86.382812 400.09375 86.382812 403.824219 "/>
<path fill-rule="nonzero" fill="rgb(18.431373%, 30.980392%, 30.980392%)" fill-opacity="1" stroke-width="0.708661" stroke-linecap="round" stroke-linejoin="round" stroke="rgb(18.431373%, 30.980392%, 30.980392%)" stroke-opacity="1" stroke-miterlimit="10" d="M 93.433594 417.019531 C 93.433594 420.75 90.40625 423.777344 86.675781 423.777344 C 82.945312 423.777344 79.921875 420.75 79.921875 417.019531 C 79.921875 413.289062 82.945312 410.265625 86.675781 410.265625 C 90.40625 410.265625 93.433594 413.289062 93.433594 417.019531 "/>
<path fill-rule="nonzero" fill="rgb(18.431373%, 30.980392%, 30.980392%)" fill-opacity="1" stroke-width="0.708661" stroke-linecap="round" stroke-linejoin="round" stroke="rgb(18.431373%, 30.980392%, 30.980392%)" stroke-opacity="1" stroke-miterlimit="10" d="M 100.480469 437.683594 C 100.480469 441.417969 97.457031 444.441406 93.726562 444.441406 C 89.996094 444.441406 86.96875 441.417969 86.96875 437.683594 C 86.96875 433.953125 89.996094 430.929688 93.726562 430.929688 C 97.457031 430.929688 100.480469 433.953125 100.480469 437.683594 "/>
<path fill-rule="nonzero" fill="rgb(18.431373%, 30.980392%, 30.980392%)" fill-opacity="1" stroke-width="0.708661" stroke-linecap="round" stroke-linejoin="round" stroke="rgb(18.431373%, 30.980392%, 30.980392%)" stroke-opacity="1" stroke-miterlimit="10" d="M 107.53125 447.5 C 107.53125 451.230469 104.507812 454.253906 100.773438 454.253906 C 97.042969 454.253906 94.019531 451.230469 94.019531 447.5 C 94.019531 443.765625 97.042969 440.742188 100.773438 440.742188 C 104.507812 440.742188 107.53125 443.765625 107.53125 447.5 "/>
<path fill-rule="nonzero" fill="rgb(18.431373%, 30.980392%, 30.980392%)" fill-opacity="1" stroke-width="0.708661" stroke-linecap="round" stroke-linejoin="round" stroke="rgb(18.431373%, 30.980392%, 30.980392%)" stroke-opacity="1" stroke-miterlimit="10" d="M 114.582031 427.140625 C 114.582031 430.871094 111.554688 433.894531 107.824219 433.894531 C 104.09375 433.894531 101.066406 430.871094 101.066406 427.140625 C 101.066406 423.40625 104.09375 420.382812 107.824219 420.382812 C 111.554688 420.382812 114.582031 423.40625 114.582031 427.140625 "/>
<path fill-rule="nonzero" fill="rgb(18.431373%, 30.980392%, 30.980392%)" fill-opacity="1" stroke-width="0.708661" stroke-linecap="round" stroke-linejoin="round" stroke="rgb(18.431373%, 30.980392%, 30.980392%)" stroke-opacity="1" stroke-miterlimit="10" d="M 121.628906 374.234375 C 121.628906 377.964844 118.605469 380.992188 114.875 380.992188 C 111.140625 380.992188 108.117188 377.964844 108.117188 374.234375 C 108.117188 370.503906 111.140625 367.476562 114.875 367.476562 C 118.605469 367.476562 121.628906 370.503906 121.628906 374.234375 "/>
<path fill-rule="nonzero" fill="rgb(18.431373%, 30.980392%, 30.980392%)" fill-opacity="1" stroke-width="0.708661" stroke-linecap="round" stroke-linejoin="round" stroke="rgb(18.431373%, 30.980392%, 30.980392%)" stroke-opacity="1" stroke-miterlimit="10" d="M 128.679688 395.410156 C 128.679688 399.140625 125.652344 402.167969 121.921875 402.167969 C 118.191406 402.167969 115.167969 399.140625 115.167969 395.410156 C 115.167969 391.679688 118.191406 388.652344 121.921875 388.652344 C 125.652344 388.652344 128.679688 391.679688 128.679688 395.410156 "/>
<path fill-rule="nonzero" fill="rgb(18.431373%, 30.980392%, 30.980392%)" fill-opacity="1" stroke-width="0.708661" stroke-linecap="round" stroke-linejoin="round" stroke="rgb(18.431373%, 30.980392%, 30.980392%)" stroke-opacity="1" stroke-miterlimit="10" d="M 135.726562 424.957031 C 135.726562 428.691406 132.703125 431.714844 128.972656 431.714844 C 125.242188 431.714844 122.214844 428.691406 122.214844 424.957031 C 122.214844 421.226562 125.242188 418.203125 128.972656 418.203125 C 132.703125 418.203125 135.726562 421.226562 135.726562 424.957031 "/>
<path fill-rule="nonzero" fill="rgb(18.431373%, 30.980392%, 30.980392%)" fill-opacity="1" stroke-width="0.708661" stroke-linecap="round" stroke-linejoin="round" stroke="rgb(18.431373%, 30.980392%, 30.980392%)" stroke-opacity="1" stroke-miterlimit="10" d="M 142.777344 446.078125 C 142.777344 449.808594 139.753906 452.832031 136.019531 452.832031 C 132.289062 452.832031 129.265625 449.808594 129.265625 446.078125 C 129.265625 442.34375 132.289062 439.320312 136.019531 439.320312 C 139.753906 439.320312 142.777344 442.34375 142.777344 446.078125 "/>
<path fill-rule="nonzero" fill="rgb(18.431373%, 30.980392%, 30.980392%)" fill-opacity="1" stroke-width="0.708661" stroke-linecap="round" stroke-linejoin="round" stroke="rgb(18.431373%, 30.980392%, 30.980392%)" stroke-opacity="1" stroke-miterlimit="10" d="M 149.828125 428.289062 C 149.828125 432.023438 146.800781 435.046875 143.070312 435.046875 C 139.339844 435.046875 136.3125 432.023438 136.3125 428.289062 C 136.3125 424.558594 139.339844 421.535156 143.070312 421.535156 C 146.800781 421.535156 149.828125 424.558594 149.828125 428.289062 "/>
<path fill-rule="nonzero" fill="rgb(18.431373%, 30.980392%, 30.980392%)" fill-opacity="1" stroke-width="0.708661" stroke-linecap="round" stroke-linejoin="round" stroke="rgb(18.431373%, 30.980392%, 30.980392%)" stroke-opacity="1" stroke-miterlimit="10" d="M 156.875 399.253906 C 156.875 402.984375 153.851562 406.007812 150.121094 406.007812 C 146.386719 406.007812 143.363281 402.984375 143.363281 399.253906 C 143.363281 395.523438 146.386719 392.496094 150.121094 392.496094 C 153.851562 392.496094 156.875 395.523438 156.875 399.253906 "/>
<path fill-rule="nonzero" fill="rgb(18.431373%, 30.980392%, 30.980392%)" fill-opacity="1" stroke-width="0.708661" stroke-linecap="round" stroke-linejoin="round" stroke="rgb(18.431373%, 30.980392%, 30.980392%)" stroke-opacity="1" stroke-miterlimit="10" d="M 163.925781 398.730469 C 163.925781 402.460938 160.898438 405.488281 157.167969 405.488281 C 153.4375 405.488281 150.414062 402.460938 150.414062 398.730469 C 150.414062 395 153.4375 391.976562 157.167969 391.976562 C 160.898438 391.976562 163.925781 395 163.925781 398.730469 "/>
<path fill-rule="nonzero" fill="rgb(18.431373%, 30.980392%, 30.980392%)" fill-opacity="1" stroke-width="0.708661" stroke-linecap="round" stroke-linejoin="round" stroke="rgb(18.431373%, 30.980392%, 30.980392%)" stroke-opacity="1" stroke-miterlimit="10" d="M 170.972656 385.503906 C 170.972656 389.234375 167.949219 392.257812 164.21875 392.257812 C 160.488281 392.257812 157.460938 389.234375 157.460938 385.503906 C 157.460938 381.773438 160.488281 378.746094 164.21875 378.746094 C 167.949219 378.746094 170.972656 381.773438 170.972656 385.503906 "/>
<path fill-rule="nonzero" fill="rgb(18.431373%, 30.980392%, 30.980392%)" fill-opacity="1" stroke-width="0.708661" stroke-linecap="round" stroke-linejoin="round" stroke="rgb(18.431373%, 30.980392%, 30.980392%)" stroke-opacity="1" stroke-miterlimit="10" d="M 178.023438 412.480469 C 178.023438 416.210938 175 419.234375 171.265625 419.234375 C 167.535156 419.234375 164.511719 416.210938 164.511719 412.480469 C 164.511719 408.746094 167.535156 405.722656 171.265625 405.722656 C 175 405.722656 178.023438 408.746094 178.023438 412.480469 "/>
<path fill-rule="nonzero" fill="rgb(18.431373%, 30.980392%, 30.980392%)" fill-opacity="1" stroke-width="0.708661" stroke-linecap="round" stroke-linejoin="round" stroke="rgb(18.431373%, 30.980392%, 30.980392%)" stroke-opacity="1" stroke-miterlimit="10" d="M 185.074219 378.300781 C 185.074219 382.03125 182.046875 385.054688 178.316406 385.054688 C 174.585938 385.054688 171.558594 382.03125 171.558594 378.300781 C 171.558594 374.570312 174.585938 371.542969 178.316406 371.542969 C 182.046875 371.542969 185.074219 374.570312 185.074219 378.300781 "/>
<path fill-rule="nonzero" fill="rgb(18.431373%, 30.980392%, 30.980392%)" fill-opacity="1" stroke-width="0.708661" stroke-linecap="round" stroke-linejoin="round" stroke="rgb(18.431373%, 30.980392%, 30.980392%)" stroke-opacity="1" stroke-miterlimit="10" d="M 192.121094 387.734375 C 192.121094 391.464844 189.097656 394.492188 185.367188 394.492188 C 181.632812 394.492188 178.609375 391.464844 178.609375 387.734375 C 178.609375 384.003906 181.632812 380.976562 185.367188 380.976562 C 189.097656 380.976562 192.121094 384.003906 192.121094 387.734375 "/>
<path fill-rule="nonzero" fill="rgb(18.431373%, 30.980392%, 30.980392%)" fill-opacity="1" stroke-width="0.708661" stroke-linecap="round" stroke-linejoin="round" stroke="rgb(18.431373%, 30.980392%, 30.980392%)" stroke-opacity="1" stroke-miterlimit="10" d="M 199.171875 348.550781 C 199.171875 352.28125 196.144531 355.304688 192.414062 355.304688 C 188.683594 355.304688 185.660156 352.28125 185.660156 348.550781 C 185.660156 344.820312 188.683594 341.792969 192.414062 341.792969 C 196.144531 341.792969 199.171875 344.820312 199.171875 348.550781 "/>
<path fill-rule="nonzero" fill="rgb(18.431373%, 30.980392%, 30.980392%)" fill-opacity="1" stroke-width="0.708661" stroke-linecap="round" stroke-linejoin="round" stroke="rgb(18.431373%, 30.980392%, 30.980392%)" stroke-opacity="1" stroke-miterlimit="10" d="M 206.21875 321.339844 C 206.21875 325.074219 203.195312 328.097656 199.464844 328.097656 C 195.734375 328.097656 192.707031 325.074219 192.707031 321.339844 C 192.707031 317.609375 195.734375 314.585938 199.464844 314.585938 C 203.195312 314.585938 206.21875 317.609375 206.21875 321.339844 "/>
<path fill-rule="nonzero" fill="rgb(18.431373%, 30.980392%, 30.980392%)" fill-opacity="1" stroke-width="0.708661" stroke-linecap="round" stroke-linejoin="round" stroke="rgb(18.431373%, 30.980392%, 30.980392%)" stroke-opacity="1" stroke-miterlimit="10" d="M 213.269531 344.683594 C 213.269531 348.414062 210.246094 351.441406 206.511719 351.441406 C 202.78125 351.441406 199.757812 348.414062 199.757812 344.683594 C 199.757812 340.953125 202.78125 337.925781 206.511719 337.925781 C 210.246094 337.925781 213.269531 340.953125 213.269531 344.683594 "/>
<path fill-rule="nonzero" fill="rgb(18.431373%, 30.980392%, 30.980392%)" fill-opacity="1" stroke-width="0.708661" stroke-linecap="round" stroke-linejoin="round" stroke="rgb(18.431373%, 30.980392%, 30.980392%)" stroke-opacity="1" stroke-miterlimit="10" d="M 220.320312 369.261719 C 220.320312 372.992188 217.292969 376.015625 213.5625 376.015625 C 209.832031 376.015625 206.804688 372.992188 206.804688 369.261719 C 206.804688 365.53125 209.832031 362.503906 213.5625 362.503906 C 217.292969 362.503906 220.320312 365.53125 220.320312 369.261719 "/>
<path fill-rule="nonzero" fill="rgb(18.431373%, 30.980392%, 30.980392%)" fill-opacity="1" stroke-width="0.708661" stroke-linecap="round" stroke-linejoin="round" stroke="rgb(18.431373%, 30.980392%, 30.980392%)" stroke-opacity="1" stroke-miterlimit="10" d="M 227.367188 377.980469 C 227.367188 381.710938 224.34375 384.734375 220.613281 384.734375 C 216.878906 384.734375 213.855469 381.710938 213.855469 377.980469 C 213.855469 374.25 216.878906 371.222656 220.613281 371.222656 C 224.34375 371.222656 227.367188 374.25 227.367188 377.980469 "/>
<path fill-rule="nonzero" fill="rgb(18.431373%, 30.980392%, 30.980392%)" fill-opacity="1" stroke-width="0.708661" stroke-linecap="round" stroke-linejoin="round" stroke="rgb(18.431373%, 30.980392%, 30.980392%)" stroke-opacity="1" stroke-miterlimit="10" d="M 234.417969 269.714844 C 234.417969 273.449219 231.390625 276.472656 227.660156 276.472656 C 223.929688 276.472656 220.90625 273.449219 220.90625 269.714844 C 220.90625 265.984375 223.929688 262.960938 227.660156 262.960938 C 231.390625 262.960938 234.417969 265.984375 234.417969 269.714844 "/>
<path fill-rule="nonzero" fill="rgb(18.431373%, 30.980392%, 30.980392%)" fill-opacity="1" stroke-width="0.708661" stroke-linecap="round" stroke-linejoin="round" stroke="rgb(18.431373%, 30.980392%, 30.980392%)" stroke-opacity="1" stroke-miterlimit="10" d="M 241.464844 321 C 241.464844 324.730469 238.441406 327.757812 234.710938 327.757812 C 230.980469 327.757812 227.953125 324.730469 227.953125 321 C 227.953125 317.269531 230.980469 314.246094 234.710938 314.246094 C 238.441406 314.246094 241.464844 317.269531 241.464844 321 "/>
<path fill-rule="nonzero" fill="rgb(18.431373%, 30.980392%, 30.980392%)" fill-opacity="1" stroke-width="0.708661" stroke-linecap="round" stroke-linejoin="round" stroke="rgb(18.431373%, 30.980392%, 30.980392%)" stroke-opacity="1" stroke-miterlimit="10" d="M 248.515625 327.332031 C 248.515625 331.0625 245.492188 334.085938 241.757812 334.085938 C 238.027344 334.085938 235.003906 331.0625 235.003906 327.332031 C 235.003906 323.601562 238.027344 320.574219 241.757812 320.574219 C 245.492188 320.574219 248.515625 323.601562 248.515625 327.332031 "/>
<path fill-rule="nonzero" fill="rgb(18.431373%, 30.980392%, 30.980392%)" fill-opacity="1" stroke-width="0.708661" stroke-linecap="round" stroke-linejoin="round" stroke="rgb(18.431373%, 30.980392%, 30.980392%)" stroke-opacity="1" stroke-miterlimit="10" d="M 255.566406 296.445312 C 255.566406 300.175781 252.539062 303.203125 248.808594 303.203125 C 245.078125 303.203125 242.050781 300.175781 242.050781 296.445312 C 242.050781 292.714844 245.078125 289.6875 248.808594 289.6875 C 252.539062 289.6875 255.566406 292.714844 255.566406 296.445312 "/>
<path fill-rule="nonzero" fill="rgb(18.431373%, 30.980392%, 30.980392%)" fill-opacity="1" stroke-width="0.708661" stroke-linecap="round" stroke-linejoin="round" stroke="rgb(18.431373%, 30.980392%, 30.980392%)" stroke-opacity="1" stroke-miterlimit="10" d="M 262.613281 306.011719 C 262.613281 309.742188 259.589844 312.769531 255.859375 312.769531 C 252.125 312.769531 249.101562 309.742188 249.101562 306.011719 C 249.101562 302.28125 252.125 299.253906 255.859375 299.253906 C 259.589844 299.253906 262.613281 302.28125 262.613281 306.011719 "/>
<path fill-rule="nonzero" fill="rgb(18.431373%, 30.980392%, 30.980392%)" fill-opacity="1" stroke-width="0.708661" stroke-linecap="round" stroke-linejoin="round" stroke="rgb(18.431373%, 30.980392%, 30.980392%)" stroke-opacity="1" stroke-miterlimit="10" d="M 269.664062 302.222656 C 269.664062 305.953125 266.636719 308.980469 262.90625 308.980469 C 259.175781 308.980469 256.152344 305.953125 256.152344 302.222656 C 256.152344 298.492188 259.175781 295.464844 262.90625 295.464844 C 266.636719 295.464844 269.664062 298.492188 269.664062 302.222656 "/>
<path fill-rule="nonzero" fill="rgb(18.431373%, 30.980392%, 30.980392%)" fill-opacity="1" stroke-width="0.708661" stroke-linecap="round" stroke-linejoin="round" stroke="rgb(18.431373%, 30.980392%, 30.980392%)" stroke-opacity="1" stroke-miterlimit="10" d="M 276.710938 311.914062 C 276.710938 315.644531 273.6875 318.667969 269.957031 318.667969 C 266.226562 318.667969 263.199219 315.644531 263.199219 311.914062 C 263.199219 308.179688 266.226562 305.15625 269.957031 305.15625 C 273.6875 305.15625 276.710938 308.179688 276.710938 311.914062 "/>
<path fill-rule="nonzero" fill="rgb(18.431373%, 30.980392%, 30.980392%)" fill-opacity="1" stroke-width="0.708661" stroke-linecap="round" stroke-linejoin="round" stroke="rgb(18.431373%, 30.980392%, 30.980392%)" stroke-opacity="1" stroke-miterlimit="10" d="M 283.761719 318.976562 C 283.761719 322.710938 280.738281 325.734375 277.003906 325.734375 C 273.273438 325.734375 270.25 322.710938 270.25 318.976562 C 270.25 315.246094 273.273438 312.222656 277.003906 312.222656 C 280.738281 312.222656 283.761719 315.246094 283.761719 318.976562 "/>
<path fill-rule="nonzero" fill="rgb(18.431373%, 30.980392%, 30.980392%)" fill-opacity="1" stroke-width="0.708661" stroke-linecap="round" stroke-linejoin="round" stroke="rgb(18.431373%, 30.980392%, 30.980392%)" stroke-opacity="1" stroke-miterlimit="10" d="M 290.8125 297.957031 C 290.8125 301.6875 287.785156 304.710938 284.054688 304.710938 C 280.324219 304.710938 277.296875 301.6875 277.296875 297.957031 C 277.296875 294.226562 280.324219 291.199219 284.054688 291.199219 C 287.785156 291.199219 290.8125 294.226562 290.8125 297.957031 "/>
<path fill-rule="nonzero" fill="rgb(18.431373%, 30.980392%, 30.980392%)" fill-opacity="1" stroke-width="0.708661" stroke-linecap="round" stroke-linejoin="round" stroke="rgb(18.431373%, 30.980392%, 30.980392%)" stroke-opacity="1" stroke-miterlimit="10" d="M 297.859375 289.449219 C 297.859375 293.179688 294.835938 296.207031 291.105469 296.207031 C 287.371094 296.207031 284.347656 293.179688 284.347656 289.449219 C 284.347656 285.71875 287.371094 282.691406 291.105469 282.691406 C 294.835938 282.691406 297.859375 285.71875 297.859375 289.449219 "/>
<path fill-rule="nonzero" fill="rgb(18.431373%, 30.980392%, 30.980392%)" fill-opacity="1" stroke-width="0.708661" stroke-linecap="round" stroke-linejoin="round" stroke="rgb(18.431373%, 30.980392%, 30.980392%)" stroke-opacity="1" stroke-miterlimit="10" d="M 304.910156 291.328125 C 304.910156 295.058594 301.882812 298.082031 298.152344 298.082031 C 294.421875 298.082031 291.398438 295.058594 291.398438 291.328125 C 291.398438 287.597656 294.421875 284.570312 298.152344 284.570312 C 301.882812 284.570312 304.910156 287.597656 304.910156 291.328125 "/>
<path fill-rule="nonzero" fill="rgb(18.431373%, 30.980392%, 30.980392%)" fill-opacity="1" stroke-width="0.708661" stroke-linecap="round" stroke-linejoin="round" stroke="rgb(18.431373%, 30.980392%, 30.980392%)" stroke-opacity="1" stroke-miterlimit="10" d="M 311.957031 291.398438 C 311.957031 295.128906 308.933594 298.152344 305.203125 298.152344 C 301.472656 298.152344 298.445312 295.128906 298.445312 291.398438 C 298.445312 287.667969 301.472656 284.640625 305.203125 284.640625 C 308.933594 284.640625 311.957031 287.667969 311.957031 291.398438 "/>
<path fill-rule="nonzero" fill="rgb(18.431373%, 30.980392%, 30.980392%)" fill-opacity="1" stroke-width="0.708661" stroke-linecap="round" stroke-linejoin="round" stroke="rgb(18.431373%, 30.980392%, 30.980392%)" stroke-opacity="1" stroke-miterlimit="10" d="M 319.007812 274.742188 C 319.007812 278.476562 315.984375 281.5 312.25 281.5 C 308.519531 281.5 305.496094 278.476562 305.496094 274.742188 C 305.496094 271.011719 308.519531 267.988281 312.25 267.988281 C 315.984375 267.988281 319.007812 271.011719 319.007812 274.742188 "/>
<path fill-rule="nonzero" fill="rgb(18.431373%, 30.980392%, 30.980392%)" fill-opacity="1" stroke-width="0.708661" stroke-linecap="round" stroke-linejoin="round" stroke="rgb(18.431373%, 30.980392%, 30.980392%)" stroke-opacity="1" stroke-miterlimit="10" d="M 326.058594 294.929688 C 326.058594 298.660156 323.03125 301.6875 319.300781 301.6875 C 315.570312 301.6875 312.542969 298.660156 312.542969 294.929688 C 312.542969 291.199219 315.570312 288.171875 319.300781 288.171875 C 323.03125 288.171875 326.058594 291.199219 326.058594 294.929688 "/>
<path fill-rule="nonzero" fill="rgb(18.431373%, 30.980392%, 30.980392%)" fill-opacity="1" stroke-width="0.708661" stroke-linecap="round" stroke-linejoin="round" stroke="rgb(18.431373%, 30.980392%, 30.980392%)" stroke-opacity="1" stroke-miterlimit="10" d="M 333.105469 275.109375 C 333.105469 278.839844 330.082031 281.863281 326.351562 281.863281 C 322.617188 281.863281 319.59375 278.839844 319.59375 275.109375 C 319.59375 271.375 322.617188 268.351562 326.351562 268.351562 C 330.082031 268.351562 333.105469 271.375 333.105469 275.109375 "/>
<path fill-rule="nonzero" fill="rgb(18.431373%, 30.980392%, 30.980392%)" fill-opacity="1" stroke-width="0.708661" stroke-linecap="round" stroke-linejoin="round" stroke="rgb(18.431373%, 30.980392%, 30.980392%)" stroke-opacity="1" stroke-miterlimit="10" d="M 340.15625 232.367188 C 340.15625 236.097656 337.128906 239.125 333.398438 239.125 C 329.667969 239.125 326.644531 236.097656 326.644531 232.367188 C 326.644531 228.636719 329.667969 225.613281 333.398438 225.613281 C 337.128906 225.613281 340.15625 228.636719 340.15625 232.367188 "/>
<path fill-rule="nonzero" fill="rgb(18.431373%, 30.980392%, 30.980392%)" fill-opacity="1" stroke-width="0.708661" stroke-linecap="round" stroke-linejoin="round" stroke="rgb(18.431373%, 30.980392%, 30.980392%)" stroke-opacity="1" stroke-miterlimit="10" d="M 347.203125 249.355469 C 347.203125 253.085938 344.179688 256.113281 340.449219 256.113281 C 336.71875 256.113281 333.691406 253.085938 333.691406 249.355469 C 333.691406 245.625 336.71875 242.601562 340.449219 242.601562 C 344.179688 242.601562 347.203125 245.625 347.203125 249.355469 "/>
<path fill-rule="nonzero" fill="rgb(18.431373%, 30.980392%, 30.980392%)" fill-opacity="1" stroke-width="0.708661" stroke-linecap="round" stroke-linejoin="round" stroke="rgb(18.431373%, 30.980392%, 30.980392%)" stroke-opacity="1" stroke-miterlimit="10" d="M 354.253906 245.445312 C 354.253906 249.175781 351.230469 252.203125 347.496094 252.203125 C 343.765625 252.203125 340.742188 249.175781 340.742188 245.445312 C 340.742188 241.714844 343.765625 238.691406 347.496094 238.691406 C 351.230469 238.691406 354.253906 241.714844 354.253906 245.445312 "/>
<path fill-rule="nonzero" fill="rgb(18.431373%, 30.980392%, 30.980392%)" fill-opacity="1" stroke-width="0.708661" stroke-linecap="round" stroke-linejoin="round" stroke="rgb(18.431373%, 30.980392%, 30.980392%)" stroke-opacity="1" stroke-miterlimit="10" d="M 361.304688 253.679688 C 361.304688 257.410156 358.277344 260.4375 354.546875 260.4375 C 350.816406 260.4375 347.789062 257.410156 347.789062 253.679688 C 347.789062 249.949219 350.816406 246.925781 354.546875 246.925781 C 358.277344 246.925781 361.304688 249.949219 361.304688 253.679688 "/>
<path fill-rule="nonzero" fill="rgb(18.431373%, 30.980392%, 30.980392%)" fill-opacity="1" stroke-width="0.708661" stroke-linecap="round" stroke-linejoin="round" stroke="rgb(18.431373%, 30.980392%, 30.980392%)" stroke-opacity="1" stroke-miterlimit="10" d="M 368.351562 264.570312 C 368.351562 268.300781 365.328125 271.328125 361.597656 271.328125 C 357.863281 271.328125 354.839844 268.300781 354.839844 264.570312 C 354.839844 260.839844 357.863281 257.816406 361.597656 257.816406 C 365.328125 257.816406 368.351562 260.839844 368.351562 264.570312 "/>
<path fill-rule="nonzero" fill="rgb(18.431373%, 30.980392%, 30.980392%)" fill-opacity="1" stroke-width="0.708661" stroke-linecap="round" stroke-linejoin="round" stroke="rgb(18.431373%, 30.980392%, 30.980392%)" stroke-opacity="1" stroke-miterlimit="10" d="M 375.402344 260.949219 C 375.402344 264.679688 372.375 267.707031 368.644531 267.707031 C 364.914062 267.707031 361.890625 264.679688 361.890625 260.949219 C 361.890625 257.21875 364.914062 254.191406 368.644531 254.191406 C 372.375 254.191406 375.402344 257.21875 375.402344 260.949219 "/>
<path fill-rule="nonzero" fill="rgb(18.431373%, 30.980392%, 30.980392%)" fill-opacity="1" stroke-width="0.708661" stroke-linecap="round" stroke-linejoin="round" stroke="rgb(18.431373%, 30.980392%, 30.980392%)" stroke-opacity="1" stroke-miterlimit="10" d="M 382.449219 274.5625 C 382.449219 278.292969 379.425781 281.320312 375.695312 281.320312 C 371.964844 281.320312 368.9375 278.292969 368.9375 274.5625 C 368.9375 270.832031 371.964844 267.808594 375.695312 267.808594 C 379.425781 267.808594 382.449219 270.832031 382.449219 274.5625 "/>
<path fill-rule="nonzero" fill="rgb(18.431373%, 30.980392%, 30.980392%)" fill-opacity="1" stroke-width="0.708661" stroke-linecap="round" stroke-linejoin="round" stroke="rgb(18.431373%, 30.980392%, 30.980392%)" stroke-opacity="1" stroke-miterlimit="10" d="M 389.5 252.523438 C 389.5 256.253906 386.476562 259.277344 382.742188 259.277344 C 379.011719 259.277344 375.988281 256.253906 375.988281 252.523438 C 375.988281 248.789062 379.011719 245.765625 382.742188 245.765625 C 386.476562 245.765625 389.5 248.789062 389.5 252.523438 "/>
<path fill-rule="nonzero" fill="rgb(18.431373%, 30.980392%, 30.980392%)" fill-opacity="1" stroke-width="0.708661" stroke-linecap="round" stroke-linejoin="round" stroke="rgb(18.431373%, 30.980392%, 30.980392%)" stroke-opacity="1" stroke-miterlimit="10" d="M 396.550781 239.054688 C 396.550781 242.785156 393.523438 245.808594 389.792969 245.808594 C 386.0625 245.808594 383.035156 242.785156 383.035156 239.054688 C 383.035156 235.320312 386.0625 232.296875 389.792969 232.296875 C 393.523438 232.296875 396.550781 235.320312 396.550781 239.054688 "/>
<path fill-rule="nonzero" fill="rgb(18.431373%, 30.980392%, 30.980392%)" fill-opacity="1" stroke-width="0.708661" stroke-linecap="round" stroke-linejoin="round" stroke="rgb(18.431373%, 30.980392%, 30.980392%)" stroke-opacity="1" stroke-miterlimit="10" d="M 403.597656 244.3125 C 403.597656 248.046875 400.574219 251.070312 396.84375 251.070312 C 393.109375 251.070312 390.085938 248.046875 390.085938 244.3125 C 390.085938 240.582031 393.109375 237.558594 396.84375 237.558594 C 400.574219 237.558594 403.597656 240.582031 403.597656 244.3125 "/>
<path fill-rule="nonzero" fill="rgb(18.431373%, 30.980392%, 30.980392%)" fill-opacity="1" stroke-width="0.708661" stroke-linecap="round" stroke-linejoin="round" stroke="rgb(18.431373%, 30.980392%, 30.980392%)" stroke-opacity="1" stroke-miterlimit="10" d="M 410.648438 218.347656 C 410.648438 222.078125 407.621094 225.105469 403.890625 225.105469 C 400.160156 225.105469 397.136719 222.078125 397.136719 218.347656 C 397.136719 214.617188 400.160156 211.589844 403.890625 211.589844 C 407.621094 211.589844 410.648438 214.617188 410.648438 218.347656 "/>
<path fill-rule="nonzero" fill="rgb(18.431373%, 30.980392%, 30.980392%)" fill-opacity="1" stroke-width="0.708661" stroke-linecap="round" stroke-linejoin="round" stroke="rgb(18.431373%, 30.980392%, 30.980392%)" stroke-opacity="1" stroke-miterlimit="10" d="M 417.695312 228.40625 C 417.695312 232.140625 414.671875 235.164062 410.941406 235.164062 C 407.210938 235.164062 404.183594 232.140625 404.183594 228.40625 C 404.183594 224.675781 407.210938 221.652344 410.941406 221.652344 C 414.671875 221.652344 417.695312 224.675781 417.695312 228.40625 "/>
<path fill-rule="nonzero" fill="rgb(18.431373%, 30.980392%, 30.980392%)" fill-opacity="1" stroke-width="0.708661" stroke-linecap="round" stroke-linejoin="round" stroke="rgb(18.431373%, 30.980392%, 30.980392%)" stroke-opacity="1" stroke-miterlimit="10" d="M 424.746094 220.027344 C 424.746094 223.757812 421.722656 226.78125 417.988281 226.78125 C 414.257812 226.78125 411.234375 223.757812 411.234375 220.027344 C 411.234375 216.292969 414.257812 213.269531 417.988281 213.269531 C 421.722656 213.269531 424.746094 216.292969 424.746094 220.027344 "/>
<path fill-rule="nonzero" fill="rgb(18.431373%, 30.980392%, 30.980392%)" fill-opacity="1" stroke-width="0.708661" stroke-linecap="round" stroke-linejoin="round" stroke="rgb(18.431373%, 30.980392%, 30.980392%)" stroke-opacity="1" stroke-miterlimit="10" d="M 431.796875 226.242188 C 431.796875 229.972656 428.769531 232.996094 425.039062 232.996094 C 421.308594 232.996094 418.28125 229.972656 418.28125 226.242188 C 418.28125 222.507812 421.308594 219.484375 425.039062 219.484375 C 428.769531 219.484375 431.796875 222.507812 431.796875 226.242188 "/>
<path fill-rule="nonzero" fill="rgb(18.431373%, 30.980392%, 30.980392%)" fill-opacity="1" stroke-width="0.708661" stroke-linecap="round" stroke-linejoin="round" stroke="rgb(18.431373%, 30.980392%, 30.980392%)" stroke-opacity="1" stroke-miterlimit="10" d="M 438.84375 226.261719 C 438.84375 229.992188 435.820312 233.015625 432.089844 233.015625 C 428.355469 233.015625 425.332031 229.992188 425.332031 226.261719 C 425.332031 222.53125 428.355469 219.503906 432.089844 219.503906 C 435.820312 219.503906 438.84375 222.53125 438.84375 226.261719 "/>
<path fill-rule="nonzero" fill="rgb(18.431373%, 30.980392%, 30.980392%)" fill-opacity="1" stroke-width="0.708661" stroke-linecap="round" stroke-linejoin="round" stroke="rgb(18.431373%, 30.980392%, 30.980392%)" stroke-opacity="1" stroke-miterlimit="10" d="M 445.894531 191.5625 C 445.894531 195.296875 442.867188 198.320312 439.136719 198.320312 C 435.40625 198.320312 432.382812 195.296875 432.382812 191.5625 C 432.382812 187.832031 435.40625 184.808594 439.136719 184.808594 C 442.867188 184.808594 445.894531 187.832031 445.894531 191.5625 "/>
<path fill-rule="nonzero" fill="rgb(18.431373%, 30.980392%, 30.980392%)" fill-opacity="1" stroke-width="0.708661" stroke-linecap="round" stroke-linejoin="round" stroke="rgb(18.431373%, 30.980392%, 30.980392%)" stroke-opacity="1" stroke-miterlimit="10" d="M 452.941406 194.683594 C 452.941406 198.414062 449.917969 201.4375 446.1875 201.4375 C 442.457031 201.4375 439.429688 198.414062 439.429688 194.683594 C 439.429688 190.953125 442.457031 187.925781 446.1875 187.925781 C 449.917969 187.925781 452.941406 190.953125 452.941406 194.683594 "/>
<path fill-rule="nonzero" fill="rgb(18.431373%, 30.980392%, 30.980392%)" fill-opacity="1" stroke-width="0.708661" stroke-linecap="round" stroke-linejoin="round" stroke="rgb(18.431373%, 30.980392%, 30.980392%)" stroke-opacity="1" stroke-miterlimit="10" d="M 459.992188 235.605469 C 459.992188 239.339844 456.96875 242.363281 453.234375 242.363281 C 449.503906 242.363281 446.480469 239.339844 446.480469 235.605469 C 446.480469 231.875 449.503906 228.851562 453.234375 228.851562 C 456.96875 228.851562 459.992188 231.875 459.992188 235.605469 "/>
<path fill-rule="nonzero" fill="rgb(18.431373%, 30.980392%, 30.980392%)" fill-opacity="1" stroke-width="0.708661" stroke-linecap="round" stroke-linejoin="round" stroke="rgb(18.431373%, 30.980392%, 30.980392%)" stroke-opacity="1" stroke-miterlimit="10" d="M 467.042969 190.324219 C 467.042969 194.054688 464.015625 197.082031 460.285156 197.082031 C 456.554688 197.082031 453.527344 194.054688 453.527344 190.324219 C 453.527344 186.59375 456.554688 183.566406 460.285156 183.566406 C 464.015625 183.566406 467.042969 186.59375 467.042969 190.324219 "/>
<path fill-rule="nonzero" fill="rgb(18.431373%, 30.980392%, 30.980392%)" fill-opacity="1" stroke-width="0.708661" stroke-linecap="round" stroke-linejoin="round" stroke="rgb(18.431373%, 30.980392%, 30.980392%)" stroke-opacity="1" stroke-miterlimit="10" d="M 474.089844 166.167969 C 474.089844 169.898438 471.066406 172.921875 467.335938 172.921875 C 463.601562 172.921875 460.578125 169.898438 460.578125 166.167969 C 460.578125 162.433594 463.601562 159.410156 467.335938 159.410156 C 471.066406 159.410156 474.089844 162.433594 474.089844 166.167969 "/>
<path fill-rule="nonzero" fill="rgb(18.431373%, 30.980392%, 30.980392%)" fill-opacity="1" stroke-width="0.708661" stroke-linecap="round" stroke-linejoin="round" stroke="rgb(18.431373%, 30.980392%, 30.980392%)" stroke-opacity="1" stroke-miterlimit="10" d="M 481.140625 161.082031 C 481.140625 164.8125 478.113281 167.835938 474.382812 167.835938 C 470.652344 167.835938 467.628906 164.8125 467.628906 161.082031 C 467.628906 157.351562 470.652344 154.324219 474.382812 154.324219 C 478.113281 154.324219 481.140625 157.351562 481.140625 161.082031 "/>
<path fill-rule="nonzero" fill="rgb(18.431373%, 30.980392%, 30.980392%)" fill-opacity="1" stroke-width="0.708661" stroke-linecap="round" stroke-linejoin="round" stroke="rgb(18.431373%, 30.980392%, 30.980392%)" stroke-opacity="1" stroke-miterlimit="10" d="M 488.1875 176.664062 C 488.1875 180.394531 485.164062 183.417969 481.433594 183.417969 C 477.703125 183.417969 474.675781 180.394531 474.675781 176.664062 C 474.675781 172.929688 477.703125 169.90625 481.433594 169.90625 C 485.164062 169.90625 488.1875 172.929688 488.1875 176.664062 "/>
<path fill-rule="nonzero" fill="rgb(18.431373%, 30.980392%, 30.980392%)" fill-opacity="1" stroke-width="0.708661" stroke-linecap="round" stroke-linejoin="round" stroke="rgb(18.431373%, 30.980392%, 30.980392%)" stroke-opacity="1" stroke-miterlimit="10" d="M 495.238281 168.082031 C 495.238281 171.8125 492.214844 174.835938 488.480469 174.835938 C 484.75 174.835938 481.726562 171.8125 481.726562 168.082031 C 481.726562 164.347656 484.75 161.324219 488.480469 161.324219 C 492.214844 161.324219 495.238281 164.347656 495.238281 168.082031 "/>
<path fill-rule="nonzero" fill="rgb(18.431373%, 30.980392%, 30.980392%)" fill-opacity="1" stroke-width="0.708661" stroke-linecap="round" stroke-linejoin="round" stroke="rgb(18.431373%, 30.980392%, 30.980392%)" stroke-opacity="1" stroke-miterlimit="10" d="M 502.289062 200.609375 C 502.289062 204.339844 499.261719 207.367188 495.53125 207.367188 C 491.800781 207.367188 488.773438 204.339844 488.773438 200.609375 C 488.773438 196.878906 491.800781 193.855469 495.53125 193.855469 C 499.261719 193.855469 502.289062 196.878906 502.289062 200.609375 "/>
<path fill-rule="nonzero" fill="rgb(18.431373%, 30.980392%, 30.980392%)" fill-opacity="1" stroke-width="0.708661" stroke-linecap="round" stroke-linejoin="round" stroke="rgb(18.431373%, 30.980392%, 30.980392%)" stroke-opacity="1" stroke-miterlimit="10" d="M 509.335938 183.402344 C 509.335938 187.136719 506.3125 190.160156 502.582031 190.160156 C 498.847656 190.160156 495.824219 187.136719 495.824219 183.402344 C 495.824219 179.671875 498.847656 176.648438 502.582031 176.648438 C 506.3125 176.648438 509.335938 179.671875 509.335938 183.402344 "/>
<path fill-rule="nonzero" fill="rgb(18.431373%, 30.980392%, 30.980392%)" fill-opacity="1" stroke-width="0.708661" stroke-linecap="round" stroke-linejoin="round" stroke="rgb(18.431373%, 30.980392%, 30.980392%)" stroke-opacity="1" stroke-miterlimit="10" d="M 516.386719 140.507812 C 516.386719 144.238281 513.359375 147.265625 509.628906 147.265625 C 505.898438 147.265625 502.875 144.238281 502.875 140.507812 C 502.875 136.777344 505.898438 133.75 509.628906 133.75 C 513.359375 133.75 516.386719 136.777344 516.386719 140.507812 "/>
<path fill-rule="nonzero" fill="rgb(18.431373%, 30.980392%, 30.980392%)" fill-opacity="1" stroke-width="0.708661" stroke-linecap="round" stroke-linejoin="round" stroke="rgb(18.431373%, 30.980392%, 30.980392%)" stroke-opacity="1" stroke-miterlimit="10" d="M 523.433594 150.226562 C 523.433594 153.957031 520.410156 156.984375 516.679688 156.984375 C 512.949219 156.984375 509.921875 153.957031 509.921875 150.226562 C 509.921875 146.496094 512.949219 143.472656 516.679688 143.472656 C 520.410156 143.472656 523.433594 146.496094 523.433594 150.226562 "/>
<path fill-rule="nonzero" fill="rgb(18.431373%, 30.980392%, 30.980392%)" fill-opacity="1" stroke-width="0.708661" stroke-linecap="round" stroke-linejoin="round" stroke="rgb(18.431373%, 30.980392%, 30.980392%)" stroke-opacity="1" stroke-miterlimit="10" d="M 530.484375 175.257812 C 530.484375 178.988281 527.460938 182.011719 523.726562 182.011719 C 519.996094 182.011719 516.972656 178.988281 516.972656 175.257812 C 516.972656 171.527344 519.996094 168.5 523.726562 168.5 C 527.460938 168.5 530.484375 171.527344 530.484375 175.257812 "/>
<path fill-rule="nonzero" fill="rgb(18.431373%, 30.980392%, 30.980392%)" fill-opacity="1" stroke-width="0.708661" stroke-linecap="round" stroke-linejoin="round" stroke="rgb(18.431373%, 30.980392%, 30.980392%)" stroke-opacity="1" stroke-miterlimit="10" d="M 537.535156 149.089844 C 537.535156 152.820312 534.507812 155.847656 530.777344 155.847656 C 527.046875 155.847656 524.019531 152.820312 524.019531 149.089844 C 524.019531 145.359375 527.046875 142.335938 530.777344 142.335938 C 534.507812 142.335938 537.535156 145.359375 537.535156 149.089844 "/>
<path fill-rule="nonzero" fill="rgb(18.431373%, 30.980392%, 30.980392%)" fill-opacity="1" stroke-width="0.708661" stroke-linecap="round" stroke-linejoin="round" stroke="rgb(18.431373%, 30.980392%, 30.980392%)" stroke-opacity="1" stroke-miterlimit="10" d="M 544.582031 116.550781 C 544.582031 120.28125 541.558594 123.304688 537.828125 123.304688 C 534.09375 123.304688 531.070312 120.28125 531.070312 116.550781 C 531.070312 112.816406 534.09375 109.792969 537.828125 109.792969 C 541.558594 109.792969 544.582031 112.816406 544.582031 116.550781 "/>
<path fill-rule="nonzero" fill="rgb(18.431373%, 30.980392%, 30.980392%)" fill-opacity="1" stroke-width="0.708661" stroke-linecap="round" stroke-linejoin="round" stroke="rgb(18.431373%, 30.980392%, 30.980392%)" stroke-opacity="1" stroke-miterlimit="10" d="M 551.632812 137.261719 C 551.632812 140.992188 548.605469 144.015625 544.875 144.015625 C 541.144531 144.015625 538.121094 140.992188 538.121094 137.261719 C 538.121094 133.527344 541.144531 130.503906 544.875 130.503906 C 548.605469 130.503906 551.632812 133.527344 551.632812 137.261719 "/>
<path fill-rule="nonzero" fill="rgb(18.431373%, 30.980392%, 30.980392%)" fill-opacity="1" stroke-width="0.708661" stroke-linecap="round" stroke-linejoin="round" stroke="rgb(18.431373%, 30.980392%, 30.980392%)" stroke-opacity="1" stroke-miterlimit="10" d="M 558.679688 133.519531 C 558.679688 137.253906 555.65625 140.277344 551.925781 140.277344 C 548.195312 140.277344 545.167969 137.253906 545.167969 133.519531 C 545.167969 129.789062 548.195312 126.765625 551.925781 126.765625 C 555.65625 126.765625 558.679688 129.789062 558.679688 133.519531 "/>
<path fill-rule="nonzero" fill="rgb(18.431373%, 30.980392%, 30.980392%)" fill-opacity="1" stroke-width="0.708661" stroke-linecap="round" stroke-linejoin="round" stroke="rgb(18.431373%, 30.980392%, 30.980392%)" stroke-opacity="1" stroke-miterlimit="10" d="M 565.730469 123.929688 C 565.730469 127.664062 562.707031 130.6875 558.972656 130.6875 C 555.242188 130.6875 552.21875 127.664062 552.21875 123.929688 C 552.21875 120.199219 555.242188 117.175781 558.972656 117.175781 C 562.707031 117.175781 565.730469 120.199219 565.730469 123.929688 "/>
<path fill-rule="nonzero" fill="rgb(18.431373%, 30.980392%, 30.980392%)" fill-opacity="1" stroke-width="0.708661" stroke-linecap="round" stroke-linejoin="round" stroke="rgb(18.431373%, 30.980392%, 30.980392%)" stroke-opacity="1" stroke-miterlimit="10" d="M 572.78125 111.179688 C 572.78125 114.910156 569.753906 117.9375 566.023438 117.9375 C 562.292969 117.9375 559.265625 114.910156 559.265625 111.179688 C 559.265625 107.449219 562.292969 104.421875 566.023438 104.421875 C 569.753906 104.421875 572.78125 107.449219 572.78125 111.179688 "/>
<path fill-rule="nonzero" fill="rgb(18.431373%, 30.980392%, 30.980392%)" fill-opacity="1" stroke-width="0.708661" stroke-linecap="round" stroke-linejoin="round" stroke="rgb(18.431373%, 30.980392%, 30.980392%)" stroke-opacity="1" stroke-miterlimit="10" d="M 579.828125 100.402344 C 579.828125 104.136719 576.804688 107.160156 573.074219 107.160156 C 569.339844 107.160156 566.316406 104.136719 566.316406 100.402344 C 566.316406 96.671875 569.339844 93.648438 573.074219 93.648438 C 576.804688 93.648438 579.828125 96.671875 579.828125 100.402344 "/>
<path fill-rule="nonzero" fill="rgb(18.431373%, 30.980392%, 30.980392%)" fill-opacity="1" stroke-width="0.708661" stroke-linecap="round" stroke-linejoin="round" stroke="rgb(18.431373%, 30.980392%, 30.980392%)" stroke-opacity="1" stroke-miterlimit="10" d="M 586.878906 179.507812 C 586.878906 183.238281 583.851562 186.265625 580.121094 186.265625 C 576.390625 186.265625 573.367188 183.238281 573.367188 179.507812 C 573.367188 175.777344 576.390625 172.75 580.121094 172.75 C 583.851562 172.75 586.878906 175.777344 586.878906 179.507812 "/>
<path fill-rule="nonzero" fill="rgb(18.431373%, 30.980392%, 30.980392%)" fill-opacity="1" stroke-width="0.708661" stroke-linecap="round" stroke-linejoin="round" stroke="rgb(18.431373%, 30.980392%, 30.980392%)" stroke-opacity="1" stroke-miterlimit="10" d="M 593.925781 35.445312 C 593.925781 39.179688 590.902344 42.203125 587.171875 42.203125 C 583.441406 42.203125 580.414062 39.179688 580.414062 35.445312 C 580.414062 31.714844 583.441406 28.691406 587.171875 28.691406 C 590.902344 28.691406 593.925781 31.714844 593.925781 35.445312 "/>
<path fill-rule="nonzero" fill="rgb(18.431373%, 30.980392%, 30.980392%)" fill-opacity="1" stroke-width="0.708661" stroke-linecap="round" stroke-linejoin="round" stroke="rgb(18.431373%, 30.980392%, 30.980392%)" stroke-opacity="1" stroke-miterlimit="10" d="M 600.976562 129.816406 C 600.976562 133.546875 597.953125 136.574219 594.21875 136.574219 C 590.488281 136.574219 587.464844 133.546875 587.464844 129.816406 C 587.464844 126.085938 590.488281 123.0625 594.21875 123.0625 C 597.953125 123.0625 600.976562 126.085938 600.976562 129.816406 "/>
<path fill-rule="nonzero" fill="rgb(18.431373%, 30.980392%, 30.980392%)" fill-opacity="1" stroke-width="0.708661" stroke-linecap="round" stroke-linejoin="round" stroke="rgb(18.431373%, 30.980392%, 30.980392%)" stroke-opacity="1" stroke-miterlimit="10" d="M 608.027344 113.34375 C 608.027344 117.074219 605 120.097656 601.269531 120.097656 C 597.539062 120.097656 594.511719 117.074219 594.511719 113.34375 C 594.511719 109.613281 597.539062 106.585938 601.269531 106.585938 C 605 106.585938 608.027344 109.613281 608.027344 113.34375 "/>
<path fill-rule="nonzero" fill="rgb(18.431373%, 30.980392%, 30.980392%)" fill-opacity="1" stroke-width="0.708661" stroke-linecap="round" stroke-linejoin="round" stroke="rgb(18.431373%, 30.980392%, 30.980392%)" stroke-opacity="1" stroke-miterlimit="10" d="M 615.074219 111.113281 C 615.074219 114.84375 612.050781 117.871094 608.320312 117.871094 C 604.585938 117.871094 601.5625 114.84375 601.5625 111.113281 C 601.5625 107.382812 604.585938 104.355469 608.320312 104.355469 C 612.050781 104.355469 615.074219 107.382812 615.074219 111.113281 "/>
<path fill-rule="nonzero" fill="rgb(18.431373%, 30.980392%, 30.980392%)" fill-opacity="1" stroke-width="0.708661" stroke-linecap="round" stroke-linejoin="round" stroke="rgb(18.431373%, 30.980392%, 30.980392%)" stroke-opacity="1" stroke-miterlimit="10" d="M 622.125 94.996094 C 622.125 98.726562 619.097656 101.75 615.367188 101.75 C 611.636719 101.75 608.613281 98.726562 608.613281 94.996094 C 608.613281 91.261719 611.636719 88.238281 615.367188 88.238281 C 619.097656 88.238281 622.125 91.261719 622.125 94.996094 "/>
<path fill-rule="nonzero" fill="rgb(18.431373%, 30.980392%, 30.980392%)" fill-opacity="1" stroke-width="0.708661" stroke-linecap="round" stroke-linejoin="round" stroke="rgb(18.431373%, 30.980392%, 30.980392%)" stroke-opacity="1" stroke-miterlimit="10" d="M 629.171875 54.140625 C 629.171875 57.871094 626.148438 60.894531 622.417969 60.894531 C 618.6875 60.894531 615.660156 57.871094 615.660156 54.140625 C 615.660156 50.410156 618.6875 47.382812 622.417969 47.382812 C 626.148438 47.382812 629.171875 50.410156 629.171875 54.140625 "/>
<path fill-rule="nonzero" fill="rgb(18.431373%, 30.980392%, 30.980392%)" fill-opacity="1" stroke-width="0.708661" stroke-linecap="round" stroke-linejoin="round" stroke="rgb(18.431373%, 30.980392%, 30.980392%)" stroke-opacity="1" stroke-miterlimit="10" d="M 636.222656 80.640625 C 636.222656 84.371094 633.199219 87.398438 629.464844 87.398438 C 625.734375 87.398438 622.710938 84.371094 622.710938 80.640625 C 622.710938 76.910156 625.734375 73.882812 629.464844 73.882812 C 633.199219 73.882812 636.222656 76.910156 636.222656 80.640625 "/>
<path fill-rule="nonzero" fill="rgb(18.431373%, 30.980392%, 30.980392%)" fill-opacity="1" stroke-width="0.708661" stroke-linecap="round" stroke-linejoin="round" stroke="rgb(18.431373%, 30.980392%, 30.980392%)" stroke-opacity="1" stroke-miterlimit="10" d="M 643.273438 61.136719 C 643.273438 64.867188 640.246094 67.890625 636.515625 67.890625 C 632.785156 67.890625 629.757812 64.867188 629.757812 61.136719 C 629.757812 57.40625 632.785156 54.378906 636.515625 54.378906 C 640.246094 54.378906 643.273438 57.40625 643.273438 61.136719 "/>
<path fill-rule="nonzero" fill="rgb(18.431373%, 30.980392%, 30.980392%)" fill-opacity="1" stroke-width="0.708661" stroke-linecap="round" stroke-linejoin="round" stroke="rgb(18.431373%, 30.980392%, 30.980392%)" stroke-opacity="1" stroke-miterlimit="10" d="M 650.320312 38.28125 C 650.320312 42.011719 647.296875 45.035156 643.566406 45.035156 C 639.832031 45.035156 636.808594 42.011719 636.808594 38.28125 C 636.808594 34.550781 639.832031 31.523438 643.566406 31.523438 C 647.296875 31.523438 650.320312 34.550781 650.320312 38.28125 "/>
<path fill-rule="nonzero" fill="rgb(18.431373%, 30.980392%, 30.980392%)" fill-opacity="1" stroke-width="0.708661" stroke-linecap="round" stroke-linejoin="round" stroke="rgb(18.431373%, 30.980392%, 30.980392%)" stroke-opacity="1" stroke-miterlimit="10" d="M 657.371094 70.441406 C 657.371094 74.175781 654.34375 77.199219 650.613281 77.199219 C 646.882812 77.199219 643.859375 74.175781 643.859375 70.441406 C 643.859375 66.710938 646.882812 63.6875 650.613281 63.6875 C 654.34375 63.6875 657.371094 66.710938 657.371094 70.441406 "/>
<path fill-rule="nonzero" fill="rgb(18.431373%, 30.980392%, 30.980392%)" fill-opacity="1" stroke-width="0.708661" stroke-linecap="round" stroke-linejoin="round" stroke="rgb(18.431373%, 30.980392%, 30.980392%)" stroke-opacity="1" stroke-miterlimit="10" d="M 664.417969 70.382812 C 664.417969 74.113281 661.394531 77.136719 657.664062 77.136719 C 653.933594 77.136719 650.90625 74.113281 650.90625 70.382812 C 650.90625 66.648438 653.933594 63.625 657.664062 63.625 C 661.394531 63.625 664.417969 66.648438 664.417969 70.382812 "/>
<path fill-rule="nonzero" fill="rgb(18.431373%, 30.980392%, 30.980392%)" fill-opacity="1" stroke-width="0.708661" stroke-linecap="round" stroke-linejoin="round" stroke="rgb(18.431373%, 30.980392%, 30.980392%)" stroke-opacity="1" stroke-miterlimit="10" d="M 671.46875 88.703125 C 671.46875 92.4375 668.445312 95.460938 664.710938 95.460938 C 660.980469 95.460938 657.957031 92.4375 657.957031 88.703125 C 657.957031 84.972656 660.980469 81.949219 664.710938 81.949219 C 668.445312 81.949219 671.46875 84.972656 671.46875 88.703125 "/>
<path fill-rule="nonzero" fill="rgb(18.431373%, 30.980392%, 30.980392%)" fill-opacity="1" stroke-width="0.708661" stroke-linecap="round" stroke-linejoin="round" stroke="rgb(18.431373%, 30.980392%, 30.980392%)" stroke-opacity="1" stroke-miterlimit="10" d="M 678.519531 89.820312 C 678.519531 93.550781 675.492188 96.578125 671.761719 96.578125 C 668.03125 96.578125 665.003906 93.550781 665.003906 89.820312 C 665.003906 86.089844 668.03125 83.066406 671.761719 83.066406 C 675.492188 83.066406 678.519531 86.089844 678.519531 89.820312 "/>
<path fill-rule="nonzero" fill="rgb(18.431373%, 30.980392%, 30.980392%)" fill-opacity="1" stroke-width="0.708661" stroke-linecap="round" stroke-linejoin="round" stroke="rgb(18.431373%, 30.980392%, 30.980392%)" stroke-opacity="1" stroke-miterlimit="10" d="M 685.566406 47.34375 C 685.566406 51.074219 682.542969 54.101562 678.8125 54.101562 C 675.078125 54.101562 672.054688 51.074219 672.054688 47.34375 C 672.054688 43.613281 675.078125 40.589844 678.8125 40.589844 C 682.542969 40.589844 685.566406 43.613281 685.566406 47.34375 "/>
<path fill-rule="nonzero" fill="rgb(18.431373%, 30.980392%, 30.980392%)" fill-opacity="1" stroke-width="0.708661" stroke-linecap="round" stroke-linejoin="round" stroke="rgb(18.431373%, 30.980392%, 30.980392%)" stroke-opacity="1" stroke-miterlimit="10" d="M 692.617188 65.75 C 692.617188 69.480469 689.589844 72.503906 685.859375 72.503906 C 682.128906 72.503906 679.105469 69.480469 679.105469 65.75 C 679.105469 62.015625 682.128906 58.992188 685.859375 58.992188 C 689.589844 58.992188 692.617188 62.015625 692.617188 65.75 "/>
<path fill-rule="nonzero" fill="rgb(18.431373%, 30.980392%, 30.980392%)" fill-opacity="1" stroke-width="0.708661" stroke-linecap="round" stroke-linejoin="round" stroke="rgb(18.431373%, 30.980392%, 30.980392%)" stroke-opacity="1" stroke-miterlimit="10" d="M 699.664062 42.90625 C 699.664062 46.636719 696.640625 49.660156 692.910156 49.660156 C 689.179688 49.660156 686.152344 46.636719 686.152344 42.90625 C 686.152344 39.175781 689.179688 36.148438 692.910156 36.148438 C 696.640625 36.148438 699.664062 39.175781 699.664062 42.90625 "/>
<path fill-rule="nonzero" fill="rgb(18.431373%, 30.980392%, 30.980392%)" fill-opacity="1" stroke-width="0.708661" stroke-linecap="round" stroke-linejoin="round" stroke="rgb(18.431373%, 30.980392%, 30.980392%)" stroke-opacity="1" stroke-miterlimit="10" d="M 706.714844 60.242188 C 706.714844 63.976562 703.691406 67 699.957031 67 C 696.226562 67 693.203125 63.976562 693.203125 60.242188 C 693.203125 56.511719 696.226562 53.488281 699.957031 53.488281 C 703.691406 53.488281 706.714844 56.511719 706.714844 60.242188 "/>
<path fill-rule="nonzero" fill="rgb(18.431373%, 30.980392%, 30.980392%)" fill-opacity="1" stroke-width="0.708661" stroke-linecap="round" stroke-linejoin="round" stroke="rgb(18.431373%, 30.980392%, 30.980392%)" stroke-opacity="1" stroke-miterlimit="10" d="M 713.765625 61.621094 C 713.765625 65.351562 710.738281 68.375 707.007812 68.375 C 703.277344 68.375 700.25 65.351562 700.25 61.621094 C 700.25 57.890625 703.277344 54.863281 707.007812 54.863281 C 710.738281 54.863281 713.765625 57.890625 713.765625 61.621094 "/>
<path fill-rule="nonzero" fill="rgb(18.431373%, 30.980392%, 30.980392%)" fill-opacity="1" stroke-width="0.708661" stroke-linecap="round" stroke-linejoin="round" stroke="rgb(18.431373%, 30.980392%, 30.980392%)" stroke-opacity="1" stroke-miterlimit="10" d="M 720.8125 23.4375 C 720.8125 27.171875 717.789062 30.195312 714.058594 30.195312 C 710.324219 30.195312 707.300781 27.171875 707.300781 23.4375 C 707.300781 19.707031 710.324219 16.683594 714.058594 16.683594 C 717.789062 16.683594 720.8125 19.707031 720.8125 23.4375 "/>
<path fill-rule="nonzero" fill="rgb(18.431373%, 30.980392%, 30.980392%)" fill-opacity="1" stroke-width="0.708661" stroke-linecap="round" stroke-linejoin="round" stroke="rgb(18.431373%, 30.980392%, 30.980392%)" stroke-opacity="1" stroke-miterlimit="10" d="M 727.863281 42.355469 C 727.863281 46.085938 724.835938 49.109375 721.105469 49.109375 C 717.375 49.109375 714.351562 46.085938 714.351562 42.355469 C 714.351562 38.621094 717.375 35.597656 721.105469 35.597656 C 724.835938 35.597656 727.863281 38.621094 727.863281 42.355469 "/>
<path fill="none" stroke-width="6.40187" stroke-linecap="butt" stroke-linejoin="round" stroke="rgb(94.117647%, 50.196078%, 50.196078%)" stroke-opacity="1" stroke-miterlimit="10" d="M 23.234375 473.832031 L 32.066406 468.152344 L 40.902344 462.472656 L 49.734375 456.792969 L 58.570312 451.113281 L 67.402344 445.433594 L 76.238281 439.753906 L 85.070312 434.078125 L 93.902344 428.398438 L 102.738281 422.71875 L 111.570312 417.039062 L 120.40625 411.359375 L 129.238281 405.679688 L 138.074219 400 L 146.90625 394.320312 L 155.742188 388.640625 L 164.574219 382.960938 L 173.410156 377.28125 L 182.242188 371.601562 L 191.078125 365.921875 L 208.742188 354.5625 L 217.578125 348.882812 L 226.410156 343.207031 L 235.246094 337.527344 L 244.078125 331.847656 L 252.914062 326.167969 L 261.746094 320.488281 L 270.582031 314.808594 L 279.414062 309.128906 L 288.25 303.449219 L 297.082031 297.769531 L 305.917969 292.089844 L 323.582031 280.730469 L 332.417969 275.050781 L 341.25 269.371094 L 350.085938 263.691406 L 358.917969 258.015625 L 367.753906 252.335938 L 376.585938 246.65625 L 385.421875 240.976562 L 394.253906 235.296875 L 403.089844 229.617188 L 411.921875 223.9375 L 420.757812 218.257812 L 438.421875 206.898438 L 447.257812 201.21875 L 456.089844 195.539062 L 464.925781 189.859375 L 473.757812 184.179688 L 482.59375 178.5 L 491.425781 172.820312 L 500.261719 167.144531 L 509.09375 161.464844 L 517.929688 155.785156 L 526.761719 150.105469 L 535.597656 144.425781 L 553.261719 133.066406 L 562.097656 127.386719 L 570.929688 121.707031 L 579.765625 116.027344 L 588.597656 110.347656 L 597.433594 104.667969 L 606.265625 98.988281 L 615.101562 93.308594 L 623.933594 87.628906 L 632.769531 81.949219 L 641.601562 76.273438 L 650.4375 70.59375 L 668.101562 59.234375 L 676.9375 53.554688 L 685.769531 47.875 L 694.605469 42.195312 L 703.4375 36.515625 L 712.273438 30.835938 L 721.105469 25.15625 "/>
</svg>
